<?xml version="1.0" ?><svg data-name="Finance 1" height="60" id="Finance_1" viewBox="0 0 60 60" width="60" xmlns="http://www.w3.org/2000/svg"><title/><path d="M56,21a3.99993,3.99993,0,0,0-4-4H8a4,4,0,0,1-4-4V55a4,4,0,0,0,4,4H52a4,4,0,0,0,4-4Z" style="fill:#d6b5b0"/><path d="M46,35a3.00328,3.00328,0,0,0-3,3v6a3.00328,3.00328,0,0,0,3,3H56V35Z" style="fill:#750000;opacity:0.2"/><path d="M7,55V16.85858A3.99077,3.99077,0,0,1,4,13V55a4,4,0,0,0,4,4h3A4,4,0,0,1,7,55Z" style="fill:#750000;opacity:0.2"/><path d="M52,56H8a4,4,0,0,1-4-4v3a4,4,0,0,0,4,4H52a4,4,0,0,0,4-4V52A4,4,0,0,1,52,56Z" style="fill:#750000;opacity:0.2"/><path d="M52,17H8a4,4,0,0,1-4-4v3a4,4,0,0,0,4,4H52a3.99992,3.99992,0,0,1,4,4V21A3.99992,3.99992,0,0,0,52,17Z" style="fill:#fff;opacity:0.5"/><g style="opacity:0.5"><path d="M52,30a1,1,0,0,1-.38037-.08008,1.03507,1.03507,0,0,1-.32959-.21,1.01394,1.01394,0,0,1,0-1.41992,1.028,1.028,0,0,1,.32959-.21045,1.00444,1.00444,0,0,1,.76025,0A1.03554,1.03554,0,0,1,52.71,28.29,1.05235,1.05235,0,0,1,53,29a1.25383,1.25383,0,0,1-.02.18994.61731.61731,0,0,1-.06006.18994.5531.5531,0,0,1-.09033.16992c-.03955.06006-.07959.10986-.11963.16016a1.04271,1.04271,0,0,1-.33008.21A.99953.99953,0,0,1,52,30Z" style="fill:#6d6daa"/><path d="M51,25a1.00256,1.00256,0,0,1,1-1h0a1.00288,1.00288,0,0,1,1,1h0a1.00319,1.00319,0,0,1-1,1h0A1.00288,1.00288,0,0,1,51,25Z" style="fill:#6d6daa"/><path d="M52,22a.83864.83864,0,0,1-.38037-.08008.90422.90422,0,0,1-.54-.54A.999.999,0,0,1,51,21a1.05006,1.05006,0,0,1,.29-.71,1.028,1.028,0,0,1,.32959-.21045A1.00308,1.00308,0,0,1,52.71,20.29,1.05235,1.05235,0,0,1,53,21a.99953.99953,0,0,1-.08008.37988,1.16449,1.16449,0,0,1-.21.33008A1.05329,1.05329,0,0,1,52,22Z" style="fill:#6d6daa"/><path d="M47,21a1.00256,1.00256,0,0,1,1-1h0a1.00288,1.00288,0,0,1,1,1h0a1.00319,1.00319,0,0,1-1,1h0A1.00288,1.00288,0,0,1,47,21Zm-4,0a1.00256,1.00256,0,0,1,1-1h0a1.00288,1.00288,0,0,1,1,1h0a1.00319,1.00319,0,0,1-1,1h0A1.00288,1.00288,0,0,1,43,21Zm-4,0a1.00256,1.00256,0,0,1,1-1h0a1.00288,1.00288,0,0,1,1,1h0a1.00319,1.00319,0,0,1-1,1h0A1.00288,1.00288,0,0,1,39,21Zm-4,0a1.00256,1.00256,0,0,1,1-1h0a1.00288,1.00288,0,0,1,1,1h0a1.00319,1.00319,0,0,1-1,1h0A1.00288,1.00288,0,0,1,35,21Zm-4,0a1.00256,1.00256,0,0,1,1-1h0a1.00288,1.00288,0,0,1,1,1h0a1.00319,1.00319,0,0,1-1,1h0A1.00288,1.00288,0,0,1,31,21Zm-4,0a1.00256,1.00256,0,0,1,1-1h0a1.00288,1.00288,0,0,1,1,1h0a1.00319,1.00319,0,0,1-1,1h0A1.00288,1.00288,0,0,1,27,21Zm-4,0a1.00256,1.00256,0,0,1,1-1h0a1.00288,1.00288,0,0,1,1,1h0a1.00319,1.00319,0,0,1-1,1h0A1.00288,1.00288,0,0,1,23,21Zm-4,0a1.00256,1.00256,0,0,1,1-1h0a1.00288,1.00288,0,0,1,1,1h0a1.00319,1.00319,0,0,1-1,1h0A1.00288,1.00288,0,0,1,19,21Zm-4,0a1.00256,1.00256,0,0,1,1-1h0a1.00288,1.00288,0,0,1,1,1h0a1.00319,1.00319,0,0,1-1,1h0A1.00288,1.00288,0,0,1,15,21Zm-4,0a1.00256,1.00256,0,0,1,1-1h0a1.00288,1.00288,0,0,1,1,1h0a1.00319,1.00319,0,0,1-1,1h0A1.00288,1.00288,0,0,1,11,21Z" style="fill:#6d6daa"/><path d="M8,22a.99042.99042,0,0,1-1-1,.9995.9995,0,0,1,.07959-.38037A1.15319,1.15319,0,0,1,7.29,20.29a1.04669,1.04669,0,0,1,1.41992,0,1.16214,1.16214,0,0,1,.21.32959A1,1,0,0,1,9,21a1.05329,1.05329,0,0,1-.29.71A1.03393,1.03393,0,0,1,8,22Z" style="fill:#6d6daa"/></g><g style="opacity:0.5"><path d="M52,48a1,1,0,0,1-.38037-.08008,1.03507,1.03507,0,0,1-.32959-.21,1.59839,1.59839,0,0,1-.12012-.1499.75916.75916,0,0,1-.09033-.18018.63472.63472,0,0,1-.05957-.18018,1.00854,1.00854,0,0,1,0-.3999.63471.63471,0,0,1,.05957-.18018.76551.76551,0,0,1,.09033-.17969A1.48134,1.48134,0,0,1,51.29,46.29a1.028,1.028,0,0,1,.32959-.21045.918.918,0,0,1,.76025,0A1.03554,1.03554,0,0,1,52.71,46.29c.04.0498.08008.09961.11963.1499a.76551.76551,0,0,1,.09033.17969.652.652,0,0,1,.06006.18018,1.00854,1.00854,0,0,1,0,.3999.652.652,0,0,1-.06006.18018.75916.75916,0,0,1-.09033.18018c-.03955.0498-.07959.09961-.11963.1499A1.05329,1.05329,0,0,1,52,48Z" style="fill:#6d6daa"/><path d="M51,51a1.00256,1.00256,0,0,1,1-1h0a1.00288,1.00288,0,0,1,1,1h0a1.00319,1.00319,0,0,1-1,1h0A1.00288,1.00288,0,0,1,51,51Z" style="fill:#6d6daa"/><path d="M52,56a1,1,0,0,1-.38037-.08008,1.16214,1.16214,0,0,1-.32959-.21A1.051,1.051,0,0,1,51,55a.9995.9995,0,0,1,.07959-.38037A1.028,1.028,0,0,1,51.29,54.29a1.15319,1.15319,0,0,1,.32959-.21045A1.00308,1.00308,0,0,1,52.71,54.29a1.16214,1.16214,0,0,1,.21.32959A1,1,0,0,1,53,55a.99042.99042,0,0,1-1,1Z" style="fill:#6d6daa"/><path d="M47,55a1.00256,1.00256,0,0,1,1-1h0a1.00288,1.00288,0,0,1,1,1h0a1.00319,1.00319,0,0,1-1,1h0A1.00288,1.00288,0,0,1,47,55Zm-4,0a1.00256,1.00256,0,0,1,1-1h0a1.00288,1.00288,0,0,1,1,1h0a1.00319,1.00319,0,0,1-1,1h0A1.00288,1.00288,0,0,1,43,55Zm-4,0a1.00256,1.00256,0,0,1,1-1h0a1.00288,1.00288,0,0,1,1,1h0a1.00319,1.00319,0,0,1-1,1h0A1.00288,1.00288,0,0,1,39,55Zm-4,0a1.00256,1.00256,0,0,1,1-1h0a1.00288,1.00288,0,0,1,1,1h0a1.00319,1.00319,0,0,1-1,1h0A1.00288,1.00288,0,0,1,35,55Zm-4,0a1.00256,1.00256,0,0,1,1-1h0a1.00288,1.00288,0,0,1,1,1h0a1.00319,1.00319,0,0,1-1,1h0A1.00288,1.00288,0,0,1,31,55Zm-4,0a1.00256,1.00256,0,0,1,1-1h0a1.00288,1.00288,0,0,1,1,1h0a1.00319,1.00319,0,0,1-1,1h0A1.00288,1.00288,0,0,1,27,55Zm-4,0a1.00256,1.00256,0,0,1,1-1h0a1.00288,1.00288,0,0,1,1,1h0a1.00319,1.00319,0,0,1-1,1h0A1.00288,1.00288,0,0,1,23,55Zm-4,0a1.00256,1.00256,0,0,1,1-1h0a1.00288,1.00288,0,0,1,1,1h0a1.00319,1.00319,0,0,1-1,1h0A1.00288,1.00288,0,0,1,19,55Zm-4,0a1.00256,1.00256,0,0,1,1-1h0a1.00288,1.00288,0,0,1,1,1h0a1.00319,1.00319,0,0,1-1,1h0A1.00288,1.00288,0,0,1,15,55Zm-4,0a1.00256,1.00256,0,0,1,1-1h0a1.00288,1.00288,0,0,1,1,1h0a1.00319,1.00319,0,0,1-1,1h0A1.00288,1.00288,0,0,1,11,55Z" style="fill:#6d6daa"/><path d="M8,56a.99042.99042,0,1,1,.71-.29A1.05235,1.05235,0,0,1,8,56Z" style="fill:#6d6daa"/></g><path d="M52,17V13a3.99993,3.99993,0,0,0-4-4H8a4,4,0,0,0,0,8Z" style="fill:#c1a3a0"/><path d="M7,13a3.99989,3.99989,0,0,1,4-4H8a4,4,0,0,0,0,8h3A4,4,0,0,1,7,13Z" style="fill:#750000;opacity:0.2"/><path d="M4.29663,11.5A3.99026,3.99026,0,0,0,8,17H52V14H8A3.99655,3.99655,0,0,1,4.29663,11.5Z" style="fill:#750000;opacity:0.2"/><path d="M52,18H8A5,5,0,0,1,8,8H48a5.00589,5.00589,0,0,1,5,5v4A1,1,0,0,1,52,18ZM8,10a3,3,0,0,0,0,6H51V13a3.00328,3.00328,0,0,0-3-3Z" style="fill:#6d6daa"/><polygon points="47.378 17 38.055 1 10.087 17 47.378 17" style="fill:#89dbba"/><path d="M42.77539,17l-4.1859-7.184a4.00636,4.00636,0,0,1-5.4452-1.44568L18.05939,17Z" style="fill:#b1f1a8"/><polygon points="15.331 14 10.087 17 47.378 17 45.63 14 15.331 14" style="fill:#2c4b75;opacity:0.2"/><path d="M42.77539,18H18.05957a1.00015,1.00015,0,0,1-.49658-1.86816L32.64795,7.502a1.00135,1.00135,0,0,1,1.36084.36475,3.00552,3.00552,0,0,0,4.084,1.08105,1.00158,1.00158,0,0,1,1.36084.36475l4.186,7.18408A1.00015,1.00015,0,0,1,42.77539,18Zm-20.9541-2H41.03516L38.1748,11.09082A5.02729,5.02729,0,0,1,32.8667,9.68115Z" style="fill:#6d6daa"/><path d="M47.37842,18H10.08691a1.00015,1.00015,0,0,1-.49658-1.86816l27.96826-16a1.001,1.001,0,0,1,1.36084.36475l9.32324,16A1.00015,1.00015,0,0,1,47.37842,18ZM13.84863,16H45.63818L37.69043,2.36084Z" style="fill:#6d6daa"/><path d="M52,60H8a5.00589,5.00589,0,0,1-5-5V13a1,1,0,0,1,2,0,3.00328,3.00328,0,0,0,3,3H52a5.00589,5.00589,0,0,1,5,5V55A5.00589,5.00589,0,0,1,52,60ZM5,16.99756V55a3.00328,3.00328,0,0,0,3,3H52a3.00328,3.00328,0,0,0,3-3V21a3.00328,3.00328,0,0,0-3-3H8A4.97637,4.97637,0,0,1,5,16.99756Z" style="fill:#6d6daa"/><rect height="10" rx="2" ry="2" style="fill:#d6b5b0" width="14" x="44" y="33"/><path d="M56,33H53a1.99994,1.99994,0,0,1,2,2v6a1.99994,1.99994,0,0,1-2,2h3a1.99994,1.99994,0,0,0,2-2V35A1.99994,1.99994,0,0,0,56,33Z" style="fill:#750000;opacity:0.2"/><path d="M56,40H46a1.99994,1.99994,0,0,1-2-2v3a1.99994,1.99994,0,0,0,2,2H56a1.99994,1.99994,0,0,0,2-2V38A1.99994,1.99994,0,0,1,56,40Z" style="fill:#750000;opacity:0.2"/><path d="M56,33H46a1.99994,1.99994,0,0,0-2,2v3a1.99994,1.99994,0,0,1,2-2H56a1.99994,1.99994,0,0,1,2,2V35A1.99994,1.99994,0,0,0,56,33Z" style="fill:#fff;opacity:0.5"/><path d="M49,40a2,2,0,1,1,2-2A2.002,2.002,0,0,1,49,40Zm0-2h0Zm0,0h0Zm0,0h0Zm0-.00049h0Zm0,0h0Zm0-.00049h0Zm0,0h0Zm0,0h0Z" style="fill:#6d6daa"/><path d="M56,44H46a3.00328,3.00328,0,0,1-3-3V35a3.00328,3.00328,0,0,1,3-3H56a3.00328,3.00328,0,0,1,3,3v6A3.00328,3.00328,0,0,1,56,44ZM46,34a1.0013,1.0013,0,0,0-1,1v6a1.0013,1.0013,0,0,0,1,1H56a1.0013,1.0013,0,0,0,1-1V35a1.0013,1.0013,0,0,0-1-1Z" style="fill:#6d6daa"/><path d="M56,44H46a3.00328,3.00328,0,0,1-3-3V35a3.00328,3.00328,0,0,1,3-3H56a3.00328,3.00328,0,0,1,3,3v6A3.00328,3.00328,0,0,1,56,44ZM46,34a1.0013,1.0013,0,0,0-1,1v6a1.0013,1.0013,0,0,0,1,1H56a1.0013,1.0013,0,0,0,1-1V35a1.0013,1.0013,0,0,0-1-1Z" style="fill:#6d6daa"/></svg>