<?xml version="1.0" ?><svg data-name="Symbols &amp; Arrows 1" height="60" id="Symbols_Arrows_1" viewBox="0 0 60 60" width="60" xmlns="http://www.w3.org/2000/svg"><title/><circle cx="30" cy="30" r="25" style="fill:#ff9797"/><path d="M30,52A24.99832,24.99832,0,0,1,5.04877,28.5C5.01935,28.99664,5,29.496,5,30a25,25,0,0,0,50,0c0-.504-.01935-1.00336-.04877-1.5A24.99832,24.99832,0,0,1,30,52Z" style="fill:#750000;opacity:0.2"/><path d="M30,8A24.99827,24.99827,0,0,1,54.95123,31.5C54.98065,31.00336,55,30.504,55,30A25,25,0,0,0,5,30c0,.504.01935,1.00336.04877,1.5A24.99827,24.99827,0,0,1,30,8Z" style="fill:#fff;opacity:0.5"/><path d="M30,56A26,26,0,1,1,56,30,26.02948,26.02948,0,0,1,30,56ZM30,6A24,24,0,1,0,54,30,24.0275,24.0275,0,0,0,30,6Z" style="fill:#6d6daa"/><path d="M21,40a1,1,0,0,1-.707-1.707l18-18A.99989.99989,0,0,1,39.707,21.707l-18,18A.99676.99676,0,0,1,21,40Z" style="fill:#fff"/><path d="M39,40a.99676.99676,0,0,1-.707-.293l-18-18A.99989.99989,0,0,1,21.707,20.293l18,18A1,1,0,0,1,39,40Z" style="fill:#fff"/></svg>