<?xml version="1.0" ?><svg data-name="Multimedia 3" height="60" id="Multimedia_3" viewBox="0 0 60 60" width="60" xmlns="http://www.w3.org/2000/svg"><title/><path d="M34,39H45.82759A10.991,10.991,0,0,0,57,28.2a10.83191,10.83191,0,0,0-7.53861-10.2043,13.14566,13.14566,0,0,0,.0903-1.4957A13.73865,13.73865,0,0,0,35.58619,3a13.946,13.946,0,0,0-13.0641,8.7629A7.57225,7.57225,0,0,0,17.89649,10.2a7.32731,7.32731,0,0,0-7.4482,7.2c0,.2081.0143.4126.0322.6163A10.82816,10.82816,0,0,0,3,28.2,10.99088,10.99088,0,0,0,14.17239,39H26" style="fill:#eef6ff"/><path d="M45.82758,36H14.17236A11.04727,11.04727,0,0,1,3.11682,26.67889,10.48305,10.48305,0,0,0,3,28.2,10.9909,10.9909,0,0,0,14.17236,39H45.82758A10.991,10.991,0,0,0,57,28.2a10.484,10.484,0,0,0-.11694-1.52057A11.04733,11.04733,0,0,1,45.82758,36Z" style="fill:#5cbeff;opacity:0.300000011920929"/><path d="M10.48047,21.0163c-.01788-.20374-.03217-.4082-.03217-.61633a7.32728,7.32728,0,0,1,7.44818-7.2,7.57232,7.57232,0,0,1,4.62561,1.56287A13.946,13.946,0,0,1,35.58618,6,13.73865,13.73865,0,0,1,49.5517,19.5a13.14215,13.14215,0,0,1-.09033,1.49567,10.90308,10.90308,0,0,1,7.42169,8.68378A10.47977,10.47977,0,0,0,57,28.2a10.832,10.832,0,0,0-7.53864-10.20435A13.14215,13.14215,0,0,0,49.5517,16.5,13.73865,13.73865,0,0,0,35.58618,3a13.946,13.946,0,0,0-13.06409,8.76288A7.57232,7.57232,0,0,0,17.89648,10.2a7.32728,7.32728,0,0,0-7.44818,7.2c0,.20813.01428.4126.03217.61633A10.82818,10.82818,0,0,0,3,28.2a10.48108,10.48108,0,0,0,.11682,1.47888A10.9,10.9,0,0,1,10.48047,21.0163Z" style="fill:#fff;opacity:0.75"/><path d="M31,49a.996.996,0,0,1,1-1h0a.99631.99631,0,0,1,1,1h0a1.00319,1.00319,0,0,1-1,1h0A1.00288,1.00288,0,0,1,31,49Zm0-4a1.00288,1.00288,0,0,1,1-1h0a1.00319,1.00319,0,0,1,1,1h0a1.00319,1.00319,0,0,1-1,1h0A1.00288,1.00288,0,0,1,31,45Zm0-4a1.00288,1.00288,0,0,1,1-1h0a1.00319,1.00319,0,0,1,1,1h0a1.00319,1.00319,0,0,1-1,1h0A1.00288,1.00288,0,0,1,31,41Zm0-4a1.00288,1.00288,0,0,1,1-1h0a1.00319,1.00319,0,0,1,1,1h0a1.00319,1.00319,0,0,1-1,1h0A1.00288,1.00288,0,0,1,31,37Zm0-4a1.00288,1.00288,0,0,1,1-1h0a1.00319,1.00319,0,0,1,1,1h0a1.00319,1.00319,0,0,1-1,1h0A1.00288,1.00288,0,0,1,31,33Zm0-4a1.00288,1.00288,0,0,1,1-1h0a1.00319,1.00319,0,0,1,1,1h0a1.00319,1.00319,0,0,1-1,1h0A1.00288,1.00288,0,0,1,31,29Z" style="fill:#6d6daa"/><path d="M57,29.2002a.99974.99974,0,0,1-1-1,10.00293,10.00293,0,0,0-10.17236-9.7998,1,1,0,0,1,0-2A12.00372,12.00372,0,0,1,58,28.2002.99974.99974,0,0,1,57,29.2002Z" style="fill:#6d6daa"/><path d="M3,29.2002a.99974.99974,0,0,1-1-1,12.00372,12.00372,0,0,1,12.17236-11.7998,1,1,0,1,1,0,2A10.00293,10.00293,0,0,0,4,28.2002.99974.99974,0,0,1,3,29.2002Z" style="fill:#6d6daa"/><path d="M24.5,15.06445a1,1,0,0,1-.88037-.52344,6.471,6.471,0,0,0-5.72314-3.34082,1,1,0,1,1,0-2,8.47043,8.47043,0,0,1,7.48193,4.3877A1.00048,1.00048,0,0,1,24.5,15.06445Z" style="fill:#6d6daa"/><path d="M28,58a.99676.99676,0,0,1-.707-.293l-4-4A.99989.99989,0,0,1,24.707,52.293L28,55.58594l3.293-3.293A.99989.99989,0,0,1,32.707,53.707l-4,4A.99676.99676,0,0,1,28,58Z" style="fill:#6d6daa"/><path d="M28,58a.99974.99974,0,0,1-1-1V43a3.001,3.001,0,0,0-2.99512-3H14.17236A12.00372,12.00372,0,0,1,2,28.2002,11.80694,11.80694,0,0,1,9.44873,17.335,8.3383,8.3383,0,0,1,17.89648,9.2002a8.53792,8.53792,0,0,1,4.186,1.0791A15.08523,15.08523,0,0,1,35.58643,2,14.755,14.755,0,0,1,50.55176,16.5c0,.26855-.00879.542-.02637.82324A11.79813,11.79813,0,0,1,58,28.2002,12.00372,12.00372,0,0,1,45.82764,40H40a5.00589,5.00589,0,0,1-5-5V21a1,1,0,0,1,2,0V35a3.00328,3.00328,0,0,0,3,3h5.82764A10.00293,10.00293,0,0,0,56,28.2002a9.83334,9.83334,0,0,0-6.85449-9.25488,1.00021,1.00021,0,0,1-.67773-1.0625,12.0836,12.0836,0,0,0,.084-1.38281A12.75356,12.75356,0,0,0,35.58643,4,13.01277,13.01277,0,0,0,23.4541,12.125a.99994.99994,0,0,1-1.541.43066,6.53884,6.53884,0,0,0-4.0166-1.35547,6.33489,6.33489,0,0,0-6.44824,6.2002c0,.17871.0127.35352.02832.52832a1.0007,1.0007,0,0,1-.67529,1.03516A9.83973,9.83973,0,0,0,4,28.2002,10.00293,10.00293,0,0,0,14.17236,38h9.83252A5.00328,5.00328,0,0,1,29,43V57A.99974.99974,0,0,1,28,58Z" style="fill:#6d6daa"/><path d="M40,26a.99676.99676,0,0,1-.707-.293L36,22.41406l-3.293,3.293A.99989.99989,0,0,1,31.293,24.293l4-4a.99964.99964,0,0,1,1.41406,0l4,4A1,1,0,0,1,40,26Z" style="fill:#6d6daa"/></svg>