<?xml version="1.0" ?><svg data-name="Finance 1" height="60" id="Finance_1" viewBox="0 0 60 60" width="60" xmlns="http://www.w3.org/2000/svg"><title/><path d="M23,41.99121a1,1,0,0,1-.92578-.623L12,16.65771,1.92578,41.36816a.99977.99977,0,1,1-1.85156-.75488l11-26.98193a.99962.99962,0,0,1,1.85156,0l11,26.98193A1.001,1.001,0,0,1,23,41.99121Z" style="fill:#6d6daa"/><path d="M59,41.99121a1,1,0,0,1-.92578-.623L48,16.65771,37.92578,41.36816a.99977.99977,0,1,1-1.85156-.75488l11-26.98193a.99962.99962,0,0,1,1.85156,0l11,26.98193A1.001,1.001,0,0,1,59,41.99121Z" style="fill:#6d6daa"/><path d="M45.98242,13.00879H36a1,1,0,0,1,0-2h9.98242a1,1,0,0,1,0,2Z" style="fill:#6d6daa"/><path d="M22.982,41.00891H.99988a11,11,0,0,0,22,0Z" style="fill:#fff27d"/><path d="M22.575,44.00891a10.9833,10.9833,0,0,0,.42487-3h-22a10.9833,10.9833,0,0,0,.42487,3Z" style="fill:#fff;opacity:0.75"/><path d="M22.982,41.00891H19.99988a10.9936,10.9936,0,0,1-9.5,10.886,10.92427,10.92427,0,0,0,12.5-10.886Z" style="fill:#750000;opacity:0.200000002980232"/><path d="M9.99988,41.00891h-4c0,6.0752,2.68628,11,6,11C10.89533,52.00891,9.99988,47.08411,9.99988,41.00891Z" style="fill:#fff;opacity:0.75"/><path d="M23.98242,13.00879H14a1,1,0,0,1,0-2h9.98242a1,1,0,0,1,0,2Z" style="fill:#6d6daa"/><circle cx="29.99097" cy="12.0089" r="5" style="fill:#eef6ff"/><path d="M29.991,10.00891a4.98325,4.98325,0,0,1,4.74561,3.5,4.946,4.946,0,0,0,.25439-1.5,5,5,0,0,0-10,0,4.946,4.946,0,0,0,.25439,1.5A4.98313,4.98313,0,0,1,29.991,10.00891Z" style="fill:#fff;opacity:0.75"/><path d="M58.982,41.00891H36.99988a11,11,0,0,0,22,0Z" style="fill:#fff27d"/><path d="M58.575,44.00891a10.9833,10.9833,0,0,0,.42487-3h-22a10.9833,10.9833,0,0,0,.42487,3Z" style="fill:#fff;opacity:0.75"/><path d="M58.982,41.00891H55.99988a10.9936,10.9936,0,0,1-9.5,10.886,10.92427,10.92427,0,0,0,12.5-10.886Z" style="fill:#750000;opacity:0.200000002980232"/><path d="M45.99988,41.00891h-4c0,6.0752,2.68628,11,6,11C46.89533,52.00891,45.99988,47.08411,45.99988,41.00891Z" style="fill:#fff;opacity:0.75"/><circle cx="11.99097" cy="12.0089" r="2" style="fill:#eef6ff"/><circle cx="47.99097" cy="12.0089" r="2" style="fill:#eef6ff"/><path d="M12,53.00879a12.01344,12.01344,0,0,1-12-12,.99974.99974,0,0,1,1-1H23a.99974.99974,0,0,1,1,1A12.01344,12.01344,0,0,1,12,53.00879Zm-9.9502-11a10.00035,10.00035,0,0,0,19.90039,0Z" style="fill:#6d6daa"/><path d="M29.99121,18.00879a6,6,0,1,1,6-6A6.00656,6.00656,0,0,1,29.99121,18.00879Zm0-10a4,4,0,1,0,4,4A4.00427,4.00427,0,0,0,29.99121,8.00879Z" style="fill:#6d6daa"/><path d="M48,53.00879a12.01344,12.01344,0,0,1-12-12,.99974.99974,0,0,1,1-1H59a.99974.99974,0,0,1,1,1A12.01344,12.01344,0,0,1,48,53.00879Zm-9.9502-11a10.00035,10.00035,0,0,0,19.90039,0Z" style="fill:#6d6daa"/><path d="M11.99121,15.00879a3,3,0,1,1,3-3A3.00328,3.00328,0,0,1,11.99121,15.00879Zm0-4a1,1,0,1,0,1,1A1.001,1.001,0,0,0,11.99121,11.00879Z" style="fill:#6d6daa"/><path d="M47.99121,15.00879a3,3,0,1,1,3-3A3.00328,3.00328,0,0,1,47.99121,15.00879Zm0-4a1,1,0,1,0,1,1A1.001,1.001,0,0,0,47.99121,11.00879Z" style="fill:#6d6daa"/></svg>