<?xml version="1.0" ?><svg data-name="005" id="_005" viewBox="0 0 128 128" xmlns="http://www.w3.org/2000/svg"><defs><style>.cls-1{opacity:0.3;}.cls-2{fill:#97c1ff;}.cls-3{fill:#eef6ff;}.cls-4{fill:#6d6daa;}.cls-5{fill:#8d96b8;}.cls-6{fill:#939fc6;}.cls-7{fill:#96d7ff;}.cls-8{fill:#ff9797;}.cls-9{fill:#b1f1a8;}.cls-10{fill:#c9c1f5;}.cls-11{fill:#d4edff;}.cls-12{fill:#fff;}.cls-13{fill:#1c64ba;}.cls-14{fill:#7690a8;}.cls-15{fill:#4c5a7f;}</style></defs><title/><g class="cls-1"><path class="cls-2" d="M1.81,45.69a30,30,0,0,1,23.51-25A19.69,19.69,0,0,0,36.26,14.1a37,37,0,0,1,64.33,15.68A19.57,19.57,0,0,0,111,42.95,28,28,0,1,1,73.34,80.29,9.41,9.41,0,0,0,64.83,75H64a12.39,12.39,0,0,0-12,9.74A20,20,0,0,1,25.88,98.88,20,20,0,0,1,12.53,81,21.38,21.38,0,0,0,8,68.65,29.91,29.91,0,0,1,1.81,45.69Z"/><rect class="cls-3" height="4" width="4" x="16" y="79"/><path class="cls-4" d="M20,84H16a1,1,0,0,1-1-1V79a1,1,0,0,1,1-1h4a1,1,0,0,1,1,1v4A1,1,0,0,1,20,84Zm-3-2h2V80H17Z"/><rect class="cls-3" height="4" width="4" x="16" y="69"/><path class="cls-4" d="M20,74H16a1,1,0,0,1-1-1V69a1,1,0,0,1,1-1h4a1,1,0,0,1,1,1v4A1,1,0,0,1,20,74Zm-3-2h2V70H17Z"/><rect class="cls-3" height="4" width="4" x="16" y="59"/><path class="cls-4" d="M20,64H16a1,1,0,0,1-1-1V59a1,1,0,0,1,1-1h4a1,1,0,0,1,1,1v4A1,1,0,0,1,20,64Zm-3-2h2V60H17Z"/><rect class="cls-3" height="4" width="4" x="16" y="49"/><path class="cls-4" d="M20,54H16a1,1,0,0,1-1-1V49a1,1,0,0,1,1-1h4a1,1,0,0,1,1,1v4A1,1,0,0,1,20,54Zm-3-2h2V50H17Z"/><rect class="cls-3" height="4" width="4" x="16" y="39"/><path class="cls-4" d="M20,44H16a1,1,0,0,1-1-1V39a1,1,0,0,1,1-1h4a1,1,0,0,1,1,1v4A1,1,0,0,1,20,44Zm-3-2h2V40H17Z"/><rect class="cls-3" height="4" width="4" x="16" y="99"/><path class="cls-4" d="M20,104H16a1,1,0,0,1-1-1V99a1,1,0,0,1,1-1h4a1,1,0,0,1,1,1v4A1,1,0,0,1,20,104Zm-3-2h2v-2H17Z"/><rect class="cls-3" height="4" width="4" x="16" y="89"/><path class="cls-4" d="M20,94H16a1,1,0,0,1-1-1V89a1,1,0,0,1,1-1h4a1,1,0,0,1,1,1v4A1,1,0,0,1,20,94Zm-3-2h2V90H17Z"/><path class="cls-4" d="M70,109a1,1,0,0,1-1-1V34a1,1,0,0,1,2,0v74A1,1,0,0,1,70,109Z"/><path class="cls-4" d="M70,76H64a1,1,0,0,1,0-2h6a1,1,0,0,1,0,2Z"/><path class="cls-4" d="M70,72H64a1,1,0,0,1,0-2h6a1,1,0,0,1,0,2Z"/><path class="cls-4" d="M70,80H64a1,1,0,0,1,0-2h6a1,1,0,0,1,0,2Z"/><path class="cls-4" d="M70,64H64a1,1,0,0,1,0-2h6a1,1,0,0,1,0,2Z"/><path class="cls-4" d="M70,60H64a1,1,0,0,1,0-2h6a1,1,0,0,1,0,2Z"/><path class="cls-4" d="M70,68H64a1,1,0,0,1,0-2h6a1,1,0,0,1,0,2Z"/><path class="cls-4" d="M70,52H64a1,1,0,0,1,0-2h6a1,1,0,0,1,0,2Z"/><path class="cls-4" d="M70,48H64a1,1,0,0,1,0-2h6a1,1,0,0,1,0,2Z"/><path class="cls-4" d="M70,56H64a1,1,0,0,1,0-2h6a1,1,0,0,1,0,2Z"/><path class="cls-4" d="M70,40H64a1,1,0,0,1,0-2h6a1,1,0,0,1,0,2Z"/><path class="cls-4" d="M70,36H64a1,1,0,0,1,0-2h6a1,1,0,0,1,0,2Z"/><path class="cls-4" d="M70,44H64a1,1,0,0,1,0-2h6a1,1,0,0,1,0,2Z"/><path class="cls-4" d="M70,84H64a1,1,0,0,1,0-2h6a1,1,0,0,1,0,2Z"/><path class="cls-4" d="M70,88H64a1,1,0,0,1,0-2h6a1,1,0,0,1,0,2Z"/><path class="cls-4" d="M70,92H64a1,1,0,0,1,0-2h6a1,1,0,0,1,0,2Z"/><path class="cls-4" d="M70,96H64a1,1,0,0,1,0-2h6a1,1,0,0,1,0,2Z"/><path class="cls-4" d="M70,100H64a1,1,0,0,1,0-2h6a1,1,0,0,1,0,2Z"/><path class="cls-4" d="M70,104H64a1,1,0,0,1,0-2h6a1,1,0,0,1,0,2Z"/><path class="cls-4" d="M70,108H64a1,1,0,0,1,0-2h6a1,1,0,0,1,0,2Z"/><rect class="cls-5" height="3.99" width="44" x="20" y="25"/><path class="cls-4" d="M64,30H20a1,1,0,0,1-1-1V25a1,1,0,0,1,1-1H64a1,1,0,0,1,1,1v4A1,1,0,0,1,64,30ZM21,28H63V26H21Z"/><rect class="cls-3" height="86" width="44" x="20" y="29"/><path class="cls-4" d="M64,116H20a1,1,0,0,1-1-1V29a1,1,0,0,1,1-1H64a1,1,0,0,1,1,1v86A1,1,0,0,1,64,116Zm-43-2H63V30H21Z"/><rect class="cls-6" height="10" width="8" x="50" y="105"/><path class="cls-4" d="M58,116H50a1,1,0,0,1-1-1V105a1,1,0,0,1,1-1h8a1,1,0,0,1,1,1v10A1,1,0,0,1,58,116Zm-7-2h6v-8H51Z"/><rect class="cls-7" height="6" width="20" x="26" y="105"/><path class="cls-4" d="M46,112H26a1,1,0,0,1-1-1v-6a1,1,0,0,1,1-1H46a1,1,0,0,1,1,1v6A1,1,0,0,1,46,112Zm-19-2H45v-4H27Z"/><rect class="cls-7" height="6" width="10" x="26" y="95"/><path class="cls-4" d="M36,102H26a1,1,0,0,1-1-1V95a1,1,0,0,1,1-1H36a1,1,0,0,1,1,1v6A1,1,0,0,1,36,102Zm-9-2h8V96H27Z"/><path class="cls-4" d="M31,102a1,1,0,0,1-1-1V95a1,1,0,0,1,2,0v6A1,1,0,0,1,31,102Z"/><rect class="cls-7" height="6" width="10" x="26" y="85"/><path class="cls-4" d="M36,92H26a1,1,0,0,1-1-1V85a1,1,0,0,1,1-1H36a1,1,0,0,1,1,1v6A1,1,0,0,1,36,92Zm-9-2h8V86H27Z"/><path class="cls-4" d="M31,92a1,1,0,0,1-1-1V85a1,1,0,0,1,2,0v6A1,1,0,0,1,31,92Z"/><rect class="cls-7" height="6" width="10" x="26" y="75"/><path class="cls-4" d="M36,82H26a1,1,0,0,1-1-1V75a1,1,0,0,1,1-1H36a1,1,0,0,1,1,1v6A1,1,0,0,1,36,82Zm-9-2h8V76H27Z"/><path class="cls-4" d="M31,82a1,1,0,0,1-1-1V75a1,1,0,0,1,2,0v6A1,1,0,0,1,31,82Z"/><rect class="cls-7" height="6" width="10" x="26" y="65"/><path class="cls-4" d="M36,72H26a1,1,0,0,1-1-1V65a1,1,0,0,1,1-1H36a1,1,0,0,1,1,1v6A1,1,0,0,1,36,72Zm-9-2h8V66H27Z"/><path class="cls-4" d="M31,72a1,1,0,0,1-1-1V65a1,1,0,0,1,2,0v6A1,1,0,0,1,31,72Z"/><rect class="cls-7" height="6" width="10" x="48" y="95"/><path class="cls-4" d="M58,102H48a1,1,0,0,1-1-1V95a1,1,0,0,1,1-1H58a1,1,0,0,1,1,1v6A1,1,0,0,1,58,102Zm-9-2h8V96H49Z"/><path class="cls-4" d="M53,102a1,1,0,0,1-1-1V95a1,1,0,0,1,2,0v6A1,1,0,0,1,53,102Z"/><rect class="cls-7" height="6" width="10" x="48" y="85"/><path class="cls-4" d="M58,92H48a1,1,0,0,1-1-1V85a1,1,0,0,1,1-1H58a1,1,0,0,1,1,1v6A1,1,0,0,1,58,92Zm-9-2h8V86H49Z"/><path class="cls-4" d="M53,92a1,1,0,0,1-1-1V85a1,1,0,0,1,2,0v6A1,1,0,0,1,53,92Z"/><rect class="cls-7" height="6" width="10" x="48" y="75"/><path class="cls-4" d="M58,82H48a1,1,0,0,1-1-1V75a1,1,0,0,1,1-1H58a1,1,0,0,1,1,1v6A1,1,0,0,1,58,82Zm-9-2h8V76H49Z"/><path class="cls-4" d="M53,82a1,1,0,0,1-1-1V75a1,1,0,0,1,2,0v6A1,1,0,0,1,53,82Z"/><rect class="cls-7" height="6" width="10" x="48" y="65"/><path class="cls-4" d="M58,72H48a1,1,0,0,1-1-1V65a1,1,0,0,1,1-1H58a1,1,0,0,1,1,1v6A1,1,0,0,1,58,72Zm-9-2h8V66H49Z"/><path class="cls-4" d="M53,72a1,1,0,0,1-1-1V65a1,1,0,0,1,2,0v6A1,1,0,0,1,53,72Z"/><rect class="cls-7" height="6" width="10" x="26" y="55"/><path class="cls-4" d="M36,62H26a1,1,0,0,1-1-1V55a1,1,0,0,1,1-1H36a1,1,0,0,1,1,1v6A1,1,0,0,1,36,62Zm-9-2h8V56H27Z"/><path class="cls-4" d="M31,62a1,1,0,0,1-1-1V55a1,1,0,0,1,2,0v6A1,1,0,0,1,31,62Z"/><rect class="cls-7" height="6" width="10" x="48" y="55"/><path class="cls-4" d="M58,62H48a1,1,0,0,1-1-1V55a1,1,0,0,1,1-1H58a1,1,0,0,1,1,1v6A1,1,0,0,1,58,62Zm-9-2h8V56H49Z"/><path class="cls-4" d="M53,62a1,1,0,0,1-1-1V55a1,1,0,0,1,2,0v6A1,1,0,0,1,53,62Z"/><rect class="cls-7" height="6" width="10" x="26" y="45"/><path class="cls-4" d="M36,52H26a1,1,0,0,1-1-1V45a1,1,0,0,1,1-1H36a1,1,0,0,1,1,1v6A1,1,0,0,1,36,52Zm-9-2h8V46H27Z"/><path class="cls-4" d="M31,52a1,1,0,0,1-1-1V45a1,1,0,0,1,2,0v6A1,1,0,0,1,31,52Z"/><rect class="cls-7" height="6" width="10" x="48" y="45"/><path class="cls-4" d="M58,52H48a1,1,0,0,1-1-1V45a1,1,0,0,1,1-1H58a1,1,0,0,1,1,1v6A1,1,0,0,1,58,52Zm-9-2h8V46H49Z"/><path class="cls-4" d="M53,52a1,1,0,0,1-1-1V45a1,1,0,0,1,2,0v6A1,1,0,0,1,53,52Z"/><rect class="cls-7" height="6" width="10" x="26" y="35"/><path class="cls-4" d="M36,42H26a1,1,0,0,1-1-1V35a1,1,0,0,1,1-1H36a1,1,0,0,1,1,1v6A1,1,0,0,1,36,42Zm-9-2h8V36H27Z"/><path class="cls-4" d="M31,42a1,1,0,0,1-1-1V35a1,1,0,0,1,2,0v6A1,1,0,0,1,31,42Z"/><rect class="cls-7" height="6" width="10" x="48" y="35"/><path class="cls-4" d="M58,42H48a1,1,0,0,1-1-1V35a1,1,0,0,1,1-1H58a1,1,0,0,1,1,1v6A1,1,0,0,1,58,42Zm-9-2h8V36H49Z"/><path class="cls-4" d="M53,42a1,1,0,0,1-1-1V35a1,1,0,0,1,2,0v6A1,1,0,0,1,53,42Z"/><rect class="cls-2" height="66" width="4" x="40" y="35"/><path class="cls-4" d="M44,102H40a1,1,0,0,1-1-1V35a1,1,0,0,1,1-1h4a1,1,0,0,1,1,1v66A1,1,0,0,1,44,102Zm-3-2h2V36H41Z"/><path class="cls-4" d="M44,94H40a1,1,0,0,1,0-2h4a1,1,0,0,1,0,2Z"/><path class="cls-4" d="M44,84H40a1,1,0,0,1,0-2h4a1,1,0,0,1,0,2Z"/><path class="cls-4" d="M44,74H40a1,1,0,0,1,0-2h4a1,1,0,0,1,0,2Z"/><path class="cls-4" d="M44,64H40a1,1,0,0,1,0-2h4a1,1,0,0,1,0,2Z"/><path class="cls-4" d="M44,54H40a1,1,0,0,1,0-2h4a1,1,0,0,1,0,2Z"/><path class="cls-4" d="M44,44H40a1,1,0,0,1,0-2h4a1,1,0,0,1,0,2Z"/><path class="cls-4" d="M64,30H20a1,1,0,0,1,0-2H64a1,1,0,0,1,0,2Z"/><path class="cls-4" d="M66,26H18a1,1,0,0,1,0-2H66a1,1,0,0,1,0,2Z"/><rect class="cls-2" height="14" width="50" x="5" y="59.03"/><path class="cls-4" d="M55,74H5a1,1,0,0,1-1-1V59a1,1,0,0,1,1-1H55a1,1,0,0,1,1,1V73A1,1,0,0,1,55,74ZM6,72H54V60H6Z"/><polygon class="cls-3" points="51 77.03 51 75.03 30 61.5 9 75.03 9 77.03 7 77.03 7 115.03 53 115.03 53 109.34 53 83.45 53 77.03 51 77.03"/><path class="cls-4" d="M53,116H7a1,1,0,0,1-1-1V77a1,1,0,0,1,1-1H8V75a1,1,0,0,1,.46-.84l21-13.53a1,1,0,0,1,1.08,0l21,13.53A1,1,0,0,1,52,75v1h1a1,1,0,0,1,1,1v38A1,1,0,0,1,53,116ZM8,114H52V78H51a1,1,0,0,1-1-1V75.58L30,62.69,10,75.58V77a1,1,0,0,1-1,1H8Z"/><rect class="cls-7" height="12" width="18" x="13" y="99.03"/><path class="cls-4" d="M31,112H13a1,1,0,0,1-1-1V99a1,1,0,0,1,1-1H31a1,1,0,0,1,1,1v12A1,1,0,0,1,31,112Zm-17-2H30V100H14Z"/><rect class="cls-7" height="8" width="6" x="13" y="81.03"/><path class="cls-4" d="M19,90H13a1,1,0,0,1-1-1V81a1,1,0,0,1,1-1h6a1,1,0,0,1,1,1v8A1,1,0,0,1,19,90Zm-5-2h4V82H14Z"/><polygon class="cls-8" points="49 69.03 49 60.03 43 60.03 43 65.35 49 69.03"/><path class="cls-4" d="M49,70a1,1,0,0,1-.52-.15l-6-3.68a1,1,0,0,1-.48-.85V60a1,1,0,0,1,1-1h6a1,1,0,0,1,1,1v9a1,1,0,0,1-1,1Zm-5-5.24,4,2.45V61H44Z"/><rect class="cls-8" height="3" width="8" x="42" y="57.03"/><path class="cls-4" d="M50,61H42a1,1,0,0,1-1-1V57a1,1,0,0,1,1-1h8a1,1,0,0,1,1,1v3A1,1,0,0,1,50,61Zm-7-2h6V58H43Z"/><path class="cls-4" d="M22,112a1,1,0,0,1-1-1V99a1,1,0,0,1,2,0v12A1,1,0,0,1,22,112Z"/><path class="cls-4" d="M32,112H12a1,1,0,0,1,0-2H32a1,1,0,0,1,0,2Z"/><rect class="cls-8" height="13" width="10" x="37" y="99.03"/><path class="cls-4" d="M47,113H37a1,1,0,0,1-1-1V99a1,1,0,0,1,1-1H47a1,1,0,0,1,1,1v13A1,1,0,0,1,47,113Zm-9-2h8V100H38Z"/><path class="cls-4" d="M39,107H37a1,1,0,0,1,0-2h2a1,1,0,0,1,0,2Z"/><rect class="cls-6" height="3" width="12" x="36" y="112.03"/><path class="cls-4" d="M48,116H36a1,1,0,0,1-1-1v-3a1,1,0,0,1,1-1H48a1,1,0,0,1,1,1v3A1,1,0,0,1,48,116Zm-11-2H47v-1H37Z"/><rect class="cls-7" height="8" width="6" x="41" y="81.03"/><path class="cls-4" d="M47,90H41a1,1,0,0,1-1-1V81a1,1,0,0,1,1-1h6a1,1,0,0,1,1,1v8A1,1,0,0,1,47,90Zm-5-2h4V82H42Z"/><path class="cls-4" d="M20,90H12a1,1,0,0,1,0-2h8a1,1,0,1,1,0,2Z"/><rect class="cls-7" height="8" width="6" x="27" y="81.03"/><path class="cls-4" d="M33,90H27a1,1,0,0,1-1-1V81a1,1,0,0,1,1-1h6a1,1,0,0,1,1,1v8A1,1,0,0,1,33,90Zm-5-2h4V82H28Z"/><path class="cls-4" d="M19,86H13a1,1,0,0,1,0-2h6a1,1,0,1,1,0,2Z"/><path class="cls-4" d="M33,86H27a1,1,0,0,1,0-2h6a1,1,0,0,1,0,2Z"/><path class="cls-4" d="M47,86H41a1,1,0,0,1,0-2h6a1,1,0,0,1,0,2Z"/><path class="cls-4" d="M48,90H40a1,1,0,1,1,0-2h8a1,1,0,0,1,0,2Z"/><path class="cls-4" d="M34,90H26a1,1,0,0,1,0-2h8a1,1,0,0,1,0,2Z"/><path class="cls-7" d="M27,73V70a3,3,0,0,1,3-3h0a3,3,0,0,1,3,3v3Z"/><path class="cls-4" d="M33,74H27a1,1,0,0,1-1-1V70a4,4,0,0,1,8,0v3A1,1,0,0,1,33,74Zm-5-2h4V70a2,2,0,0,0-4,0Z"/><path class="cls-4" d="M34,74H26a1,1,0,0,1,0-2h8a1,1,0,0,1,0,2Z"/><path class="cls-4" d="M53,96H8a1,1,0,1,1,0-2H53a1,1,0,1,1,0,2Z"/><path class="cls-4" d="M53,78H8a1,1,0,1,1,0-2H53a1,1,0,1,1,0,2Z"/><polygon class="cls-2" points="51 77.03 51 75.03 30 61.5 9 75.03 9 77.03 5 77.03 5 73.03 30 57.03 55 73.03 55 77.03 51 77.03"/><path class="cls-4" d="M55,78H51a1,1,0,0,1-1-1V75.58L30,62.69,10,75.58V77a1,1,0,0,1-1,1H5a1,1,0,0,1-1-1V73a1,1,0,0,1,.46-.84l25-16a1,1,0,0,1,1.08,0l25,16A1,1,0,0,1,56,73v4A1,1,0,0,1,55,78Zm-3-2h2V73.58L30,58.22,6,73.58V76H8V75a1,1,0,0,1,.46-.84l21-13.53a1,1,0,0,1,1.08,0l21,13.53A1,1,0,0,1,52,75Z"/><path class="cls-9" d="M22,111a3,3,0,0,0-1.12.22,3,3,0,0,0-4.57-1.7,5,5,0,0,0-8.92.52,3.92,3.92,0,0,0-.4,0,4,4,0,0,0-4,4v1H25v-1A3,3,0,0,0,22,111Z"/><path class="cls-4" d="M25,116H3a1,1,0,0,1-1-1v-1a5,5,0,0,1,4.8-5,6,6,0,0,1,9.84-.77,4,4,0,0,1,4.83,1.8,3.91,3.91,0,0,1,.53,0,4,4,0,0,1,4,4v1A1,1,0,0,1,25,116ZM4,114H24a2,2,0,0,0-2.74-1.85,1,1,0,0,1-1.34-.67,2,2,0,0,0-3-1.14,1,1,0,0,1-1.43-.33A4,4,0,0,0,12,108a4,4,0,0,0-3.68,2.43,1,1,0,0,1-1,.6l-.17,0L7,111A3,3,0,0,0,4,114Z"/><path class="cls-4" d="M13.11,112.12a1,1,0,0,1-.59-.2c-.5-.37-.79-.32-1.11-.11a1,1,0,0,1-1.06-1.69,2.79,2.79,0,0,1,3.37.2,1,1,0,0,1-.6,1.8Z"/><rect class="cls-10" height="4" width="26" x="80" y="11.03"/><path class="cls-4" d="M106,16H80a1,1,0,0,1-1-1V11a1,1,0,0,1,1-1h26a1,1,0,0,1,1,1v4A1,1,0,0,1,106,16ZM81,14h24V12H81Z"/><rect class="cls-3" height="28" width="4" x="64" y="87.03"/><path class="cls-4" d="M68,116H64a1,1,0,0,1-1-1V87a1,1,0,0,1,1-1h4a1,1,0,0,1,1,1v28A1,1,0,0,1,68,116Zm-3-2h2V88H65Z"/><rect class="cls-11" height="28" width="6" x="68" y="87.03"/><path class="cls-4" d="M74,116H68a1,1,0,0,1-1-1V87a1,1,0,0,1,1-1h6a1,1,0,0,1,1,1v28A1,1,0,0,1,74,116Zm-5-2h4V88H69Z"/><rect class="cls-3" height="28" width="4" x="118" y="87.03"/><path class="cls-4" d="M122,116h-4a1,1,0,0,1-1-1V87a1,1,0,0,1,1-1h4a1,1,0,0,1,1,1v28A1,1,0,0,1,122,116Zm-3-2h2V88h-2Z"/><rect class="cls-11" height="28" width="6" x="112" y="87.03"/><path class="cls-4" d="M118,116h-6a1,1,0,0,1-1-1V87a1,1,0,0,1,1-1h6a1,1,0,0,1,1,1v28A1,1,0,0,1,118,116Zm-5-2h4V88h-4Z"/><rect class="cls-3" height="100" width="38" x="74" y="15.03"/><path class="cls-4" d="M112,116H74a1,1,0,0,1-1-1V15a1,1,0,0,1,1-1h38a1,1,0,0,1,1,1V115A1,1,0,0,1,112,116Zm-37-2h36V16H75Z"/><rect class="cls-7" height="80" width="30" x="78" y="19.03"/><path class="cls-4" d="M108,100H78a1,1,0,0,1-1-1V19a1,1,0,0,1,1-1h30a1,1,0,0,1,1,1V99A1,1,0,0,1,108,100ZM79,98h28V20H79Z"/><rect class="cls-11" height="16" width="30" x="78" y="99.03"/><path class="cls-4" d="M108,116H78a1,1,0,0,1-1-1V99a1,1,0,0,1,1-1h30a1,1,0,0,1,1,1v16A1,1,0,0,1,108,116Zm-29-2h28V100H79Z"/><path class="cls-4" d="M102,100a1,1,0,0,1-1-1V19a1,1,0,0,1,2,0V99A1,1,0,0,1,102,100Z"/><path class="cls-4" d="M96,100a1,1,0,0,1-1-1V19a1,1,0,0,1,2,0V99A1,1,0,0,1,96,100Z"/><path class="cls-4" d="M90,100a1,1,0,0,1-1-1V19a1,1,0,0,1,2,0V99A1,1,0,0,1,90,100Z"/><path class="cls-4" d="M93,12a1,1,0,0,1-1-1V7a1,1,0,0,1,2,0v4A1,1,0,0,1,93,12Z"/><rect class="cls-6" height="4" width="10" x="64" y="111.03"/><path class="cls-4" d="M74,116H64a1,1,0,0,1-1-1v-4a1,1,0,0,1,1-1H74a1,1,0,0,1,1,1v4A1,1,0,0,1,74,116Zm-9-2h8v-2H65Z"/><path class="cls-4" d="M84,100a1,1,0,0,1-1-1V19a1,1,0,0,1,2,0V99A1,1,0,0,1,84,100Z"/><path class="cls-4" d="M86,116a1,1,0,0,1-1-1V99a1,1,0,1,1,2,0v16A1,1,0,0,1,86,116Z"/><path class="cls-4" d="M100,116a1,1,0,0,1-1-1V99a1,1,0,0,1,2,0v16A1,1,0,0,1,100,116Z"/><path class="cls-4" d="M93,116a1,1,0,0,1-1-1V99a1,1,0,1,1,2,0v16A1,1,0,0,1,93,116Z"/><path class="cls-4" d="M108,80H78a1,1,0,0,1,0-2h30a1,1,0,0,1,0,2Z"/><path class="cls-4" d="M108,90H78a1,1,0,0,1,0-2h30a1,1,0,1,1,0,2Z"/><path class="cls-4" d="M108,50H78a1,1,0,0,1,0-2h30a1,1,0,0,1,0,2Z"/><path class="cls-4" d="M108,60H78a1,1,0,0,1,0-2h30a1,1,0,0,1,0,2Z"/><path class="cls-4" d="M108,70H78a1,1,0,0,1,0-2h30a1,1,0,1,1,0,2Z"/><path class="cls-4" d="M108,30H78a1,1,0,0,1,0-2h30a1,1,0,0,1,0,2Z"/><path class="cls-4" d="M108,40H78a1,1,0,0,1,0-2h30a1,1,0,0,1,0,2Z"/><path class="cls-4" d="M108,100H78a1,1,0,1,1,0-2h30a1,1,0,1,1,0,2Z"/><path class="cls-4" d="M118,112a1,1,0,0,1-1-1V91a1,1,0,0,1,2,0v20A1,1,0,0,1,118,112Z"/><rect class="cls-6" height="4" width="10" x="112" y="111.03"/><path class="cls-4" d="M122,116H112a1,1,0,0,1-1-1v-4a1,1,0,0,1,1-1h10a1,1,0,0,1,1,1v4A1,1,0,0,1,122,116Zm-9-2h8v-2h-8Z"/><rect class="cls-10" height="4" width="10" x="112" y="87.03"/><path class="cls-4" d="M122,92H112a1,1,0,0,1-1-1V87a1,1,0,0,1,1-1h10a1,1,0,0,1,1,1v4A1,1,0,0,1,122,92Zm-9-2h8V88h-8Z"/><rect class="cls-10" height="4" width="10" x="64" y="87.03"/><path class="cls-4" d="M74,92H64a1,1,0,0,1-1-1V87a1,1,0,0,1,1-1H74a1,1,0,0,1,1,1v4A1,1,0,0,1,74,92Zm-9-2h8V88H65Z"/><path class="cls-4" d="M113.09,115.92a1,1,0,0,1-1-1v-8a1,1,0,0,1,2,0v8A1,1,0,0,1,113.09,115.92Z"/><path class="cls-9" d="M119.09,101.42a6,6,0,0,1-12,0c0-3,2.69-16.5,6-16.5S119.09,98.38,119.09,101.42Z"/><path class="cls-4" d="M113.09,107.92a6.77,6.77,0,0,1-7-6.5c0-1.95,2.34-17.5,7-17.5s7,15.55,7,17.5A6.77,6.77,0,0,1,113.09,107.92Zm0-22c-2,0-5,11.79-5,15.5a5,5,0,0,0,10,0C118.09,97.71,115.11,85.92,113.09,85.92Z"/><path class="cls-4" d="M111.81,103.78a1,1,0,0,1-.25,0,2.8,2.8,0,0,1-2.18-2.57,1,1,0,1,1,2-.25c.08.61.31.79.69.88a1,1,0,0,1-.24,2Z"/><path class="cls-4" d="M114.11,94.37a1,1,0,0,1-.83-.44c-.35-.51-.63-.56-1-.48a1,1,0,1,1-.44-2,2.8,2.8,0,0,1,3.11,1.3,1,1,0,0,1-.83,1.56Z"/><path class="cls-9" d="M64.14,111.17a3,3,0,0,1,4.54-1.62,5,5,0,0,1,9.11,1.15A4,4,0,0,1,84,114v1H62v-1A3,3,0,0,1,64.14,111.17Z"/><path class="cls-4" d="M84,116H62a1,1,0,0,1-1-1v-1a4,4,0,0,1,2.36-3.64,4,4,0,0,1,5-2.13,6,6,0,0,1,10,1.05A5,5,0,0,1,85,114v1A1,1,0,0,1,84,116Zm-21-2H83a3,3,0,0,0-4.65-2.5,1,1,0,0,1-1.52-.57A4,4,0,0,0,73,108a4,4,0,0,0-3.45,2,1,1,0,0,1-1.43.33,2,2,0,0,0-3,1.08,1,1,0,0,1-.67.67A2,2,0,0,0,63,114Zm1.14-2.86h0Z"/><path class="cls-4" d="M74.11,112.06a1,1,0,0,1-.55-.17c-.51-.34-.8-.28-1.12-.05a1,1,0,1,1-1.15-1.63,2.79,2.79,0,0,1,3.37,0,1,1,0,0,1-.55,1.83Z"/><path class="cls-4" d="M112,116H23a1,1,0,0,1,0-2h89a1,1,0,0,1,0,2Z"/><path class="cls-4" d="M127,116H115a1,1,0,1,1,0-2h12a1,1,0,0,1,0,2Z"/><path class="cls-4" d="M6,116H1a1,1,0,1,1,0-2H6a1,1,0,0,1,0,2Z"/><path class="cls-4" d="M20,116H9a1,1,0,0,1,0-2H20a1,1,0,1,1,0,2Z"/><path class="cls-12" d="M44,12a1,1,0,0,1-.71-.3A1,1,0,0,1,43,11a1.08,1.08,0,0,1,.07-.39,1,1,0,0,1,.22-.32,1,1,0,0,1,1.09-.22,1,1,0,0,1,.32.22.87.87,0,0,1,.22.32A1.07,1.07,0,0,1,45,11a1,1,0,0,1-.3.7.88.88,0,0,1-.32.22A1,1,0,0,1,44,12Z"/><path class="cls-12" d="M56,16H50a1,1,0,0,1,0-2h6a1,1,0,0,1,0,2Z"/><path class="cls-12" d="M63,12H48a1,1,0,0,1,0-2H63a1,1,0,0,1,0,2Z"/><path class="cls-12" d="M53,20H46a1,1,0,0,1,0-2h7a1,1,0,0,1,0,2Z"/><path class="cls-12" d="M46,16H42a1,1,0,0,1,0-2h4a1,1,0,0,1,0,2Z"/><path class="cls-12" d="M44,12a1,1,0,0,1-.71-.3A1,1,0,0,1,43,11a1.08,1.08,0,0,1,.07-.39,1,1,0,0,1,.22-.32,1,1,0,0,1,1.09-.22,1,1,0,0,1,.32.22.87.87,0,0,1,.22.32A1.07,1.07,0,0,1,45,11a1,1,0,0,1-.3.7.88.88,0,0,1-.32.22A1,1,0,0,1,44,12Z"/><path class="cls-12" d="M56,16H50a1,1,0,0,1,0-2h6a1,1,0,0,1,0,2Z"/><path class="cls-12" d="M63,12H48a1,1,0,0,1,0-2H63a1,1,0,0,1,0,2Z"/><path class="cls-12" d="M53,20H46a1,1,0,0,1,0-2h7a1,1,0,0,1,0,2Z"/><path class="cls-12" d="M46,16H42a1,1,0,0,1,0-2h4a1,1,0,0,1,0,2Z"/></g><rect class="cls-2" height="86" rx="2" ry="2" transform="translate(-13.36 164.52) rotate(-98.66)" width="66" x="31" y="45"/><path class="cls-4" d="M28.13,127.82a3,3,0,0,1-3-2.55L15.83,64a3,3,0,0,1,2.51-3.42L99.41,48.21a3,3,0,0,1,3.42,2.51L112.17,112a3,3,0,0,1-2.51,3.42L28.59,127.79A3.08,3.08,0,0,1,28.13,127.82ZM99.87,50.18h-.15L18.65,62.54a1,1,0,0,0-.84,1.14L27.15,125a1,1,0,0,0,1.14.84l81.07-12.35a1,1,0,0,0,.84-1.14L100.85,51h0a1,1,0,0,0-1-.85Z"/><path class="cls-12" d="M94.5,103.55a1,1,0,0,1,1-1h0a1,1,0,0,1,1,1h0a1,1,0,0,1-1,1h0A1,1,0,0,1,94.5,103.55Zm-4,0a1,1,0,0,1,1-1h0a1,1,0,0,1,1,1h0a1,1,0,0,1-1,1h0A1,1,0,0,1,90.5,103.55Zm-4,0a1,1,0,0,1,1-1h0a1,1,0,0,1,1,1h0a1,1,0,0,1-1,1h0A1,1,0,0,1,86.5,103.55Zm-4,0a1,1,0,0,1,1-1h0a1,1,0,0,1,1,1h0a1,1,0,0,1-1,1h0A1,1,0,0,1,82.5,103.55Zm-4,0a1,1,0,0,1,1-1h0a1,1,0,0,1,1,1h0a1,1,0,0,1-1,1h0A1,1,0,0,1,78.5,103.55Zm-4,0a1,1,0,0,1,1-1h0a1,1,0,0,1,1,1h0a1,1,0,0,1-1,1h0A1,1,0,0,1,74.5,103.55Zm-4,0a1,1,0,0,1,1-1h0a1,1,0,0,1,1,1h0a1,1,0,0,1-1,1h0A1,1,0,0,1,70.5,103.55Zm-4,0a1,1,0,0,1,1-1h0a1,1,0,0,1,1,1h0a1,1,0,0,1-1,1h0A1,1,0,0,1,66.5,103.55Zm-4,0a1,1,0,0,1,1-1h0a1,1,0,0,1,1,1h0a1,1,0,0,1-1,1h0A1,1,0,0,1,62.5,103.55Zm-4,0a1,1,0,0,1,1-1h0a1,1,0,0,1,1,1h0a1,1,0,0,1-1,1h0A1,1,0,0,1,58.5,103.55Zm-4,0a1,1,0,0,1,1-1h0a1,1,0,0,1,1,1h0a1,1,0,0,1-1,1h0A1,1,0,0,1,54.5,103.55Zm-4,0a1,1,0,0,1,1-1h0a1,1,0,0,1,1,1h0a1,1,0,0,1-1,1h0A1,1,0,0,1,50.5,103.55Zm-4,0a1,1,0,0,1,1-1h0a1,1,0,0,1,1,1h0a1,1,0,0,1-1,1h0A1,1,0,0,1,46.5,103.55Zm-4,0a1,1,0,0,1,1-1h0a1,1,0,0,1,1,1h0a1,1,0,0,1-1,1h0A1,1,0,0,1,42.5,103.55Zm-4,0a1,1,0,0,1,1-1h0a1,1,0,0,1,1,1h0a1,1,0,0,1-1,1h0A1,1,0,0,1,38.5,103.55Zm-4,0a1,1,0,0,1,1-1h0a1,1,0,0,1,1,1h0a1,1,0,0,1-1,1h0A1,1,0,0,1,34.5,103.55Z"/><path class="cls-2" d="M36,45H97a0,0,0,0,1,0,0v84a2,2,0,0,1-2,2H33a2,2,0,0,1-2-2V50A5,5,0,0,1,36,45Z" transform="translate(-24 152) rotate(-90)"/><g class="cls-1"><path class="cls-13" d="M25,116V55H21v61a5,5,0,0,0,5,5h4A5,5,0,0,1,25,116Z"/></g><path class="cls-12" d="M68,73a1,1,0,0,1-1-1V62a1,1,0,0,1,2,0V72A1,1,0,0,1,68,73Z"/><path class="cls-12" d="M89,65a1,1,0,0,1-1-1V62a1,1,0,0,1,2,0v2A1,1,0,0,1,89,65Z"/><path class="cls-12" d="M95,65a1,1,0,0,1-1-1V62a1,1,0,0,1,2,0v2A1,1,0,0,1,95,65Z"/><path class="cls-12" d="M99,89H95a1,1,0,0,1,0-2h4a1,1,0,0,1,0,2Z"/><path class="cls-12" d="M67,89H64a1,1,0,0,1,0-2h3a1,1,0,0,1,0,2Z"/><path class="cls-12" d="M58,89H39a1,1,0,0,1,0-2H58a1,1,0,1,1,0,2Z"/><path class="cls-12" d="M89,89H67a1,1,0,0,1,0-2H89a1,1,0,0,1,0,2Z"/><path class="cls-12" d="M68,115a1,1,0,0,1-1-1V78a1,1,0,0,1,2,0v36A1,1,0,0,1,68,115Z"/><path class="cls-12" d="M99,115H39a1,1,0,0,1-1-1V62a1,1,0,0,1,1-1H89a1,1,0,0,1,0,2H40v50H98V63H95a1,1,0,0,1,0-2h4a1,1,0,0,1,1,1v52A1,1,0,0,1,99,115Z"/><path class="cls-4" d="M105,122H26a6,6,0,0,1-6-6V55a1,1,0,0,1,1-1h84a3,3,0,0,1,3,3v62A3,3,0,0,1,105,122ZM22,56v60a4,4,0,0,0,4,4h79a1,1,0,0,0,1-1V57a1,1,0,0,0-1-1Z"/><path class="cls-3" d="M26,49h0a5,5,0,0,0-5,5v62a5,5,0,0,1,5-5h0a5,5,0,0,1,5,5V54A5,5,0,0,0,26,49Z"/><g class="cls-1"><path class="cls-14" d="M26,49h0a4.94,4.94,0,0,0-1.53.24A5,5,0,0,1,28,54v57.43A5,5,0,0,1,31,116V54A5,5,0,0,0,26,49Z"/></g><path class="cls-12" d="M24,54a5,5,0,0,1,3.5-4.75A5,5,0,0,0,26,49h0a5,5,0,0,0-5,5v62a5,5,0,0,1,3-4.58Z"/><path class="cls-4" d="M31,117a1,1,0,0,1-1-1,4,4,0,0,0-8,0,1,1,0,0,1-2,0V54a6,6,0,0,1,12,0v62A1,1,0,0,1,31,117Zm-5-7a6,6,0,0,1,4,1.53V54a4,4,0,0,0-8,0v57.53A6,6,0,0,1,26,110Z"/><path class="cls-12" d="M89.36,92.41l-11-10.15a2,2,0,0,0-2.71,0l-11,10.15A2,2,0,0,0,64,93.88V125a2,2,0,0,0,2,2H88a2,2,0,0,0,2-2V93.88A2,2,0,0,0,89.36,92.41ZM77,94a3,3,0,1,1,3-3A3,3,0,0,1,77,94Z"/><path class="cls-4" d="M88,128H66a3,3,0,0,1-3-3V93.88a3,3,0,0,1,1-2.2L75,81.52a3,3,0,0,1,4.07,0L90,91.67h0a3,3,0,0,1,1,2.2V125A3,3,0,0,1,88,128ZM77,82.72a1,1,0,0,0-.68.26l-11,10.15a1,1,0,0,0-.32.73V125a1,1,0,0,0,1,1H88a1,1,0,0,0,1-1V93.88a1,1,0,0,0-.32-.74L77.68,83A1,1,0,0,0,77,82.72ZM77,95a4,4,0,1,1,4-4A4,4,0,0,1,77,95Zm0-6a2,2,0,1,0,2,2A2,2,0,0,0,77,89Z"/><path class="cls-4" d="M86,111a1,1,0,0,1-.71-.29L77,102.41l-8.29,8.29a1,1,0,0,1-1.41-1.41l9-9a1,1,0,0,1,1.41,0l9,9A1,1,0,0,1,86,111Z"/><path class="cls-3" d="M100,101v2a2,2,0,0,0,2,2h10a2,2,0,0,0,2-2v-2Z"/><path class="cls-4" d="M112,106H102a3,3,0,0,1-3-3v-2a1,1,0,0,1,1-1h14a1,1,0,0,1,1,1v2A3,3,0,0,1,112,106Zm-11-4v1a1,1,0,0,0,1,1h10a1,1,0,0,0,1-1v-1Z"/><polygon class="cls-9" points="84 108 84 119 79 119 79 113 75 113 75 119 70 119 70 108 77 101 84 108"/><path class="cls-4" d="M84,120H79a1,1,0,0,1-1-1v-5H76v5a1,1,0,0,1-1,1H70a1,1,0,0,1-1-1V108a1,1,0,0,1,.29-.71l7-7a1,1,0,0,1,1.41,0l7,7A1,1,0,0,1,85,108v11A1,1,0,0,1,84,120Zm-4-2h3v-9.59l-6-6-6,6V118h3v-5a1,1,0,0,1,1-1h4a1,1,0,0,1,1,1Z"/><path class="cls-6" d="M114,85H100a4,4,0,0,0-4,4v8a4,4,0,0,0,4,4h14a4,4,0,0,0,4-4V89A4,4,0,0,0,114,85Zm-4,8h-6a2,2,0,0,1,0-4h6a2,2,0,0,1,0,4Z"/><g class="cls-1"><path class="cls-15" d="M114,98H100a4,4,0,0,1-4-4v3a4,4,0,0,0,4,4h14a4,4,0,0,0,4-4V94A4,4,0,0,1,114,98Z"/></g><g class="cls-1"><path class="cls-12" d="M114,85H100a4,4,0,0,0-4,4v3a4,4,0,0,1,4-4h14a4,4,0,0,1,4,4V89A4,4,0,0,0,114,85Z"/></g><path class="cls-4" d="M114,102H100a5,5,0,0,1-5-5V89a5,5,0,0,1,5-5h14a5,5,0,0,1,5,5v8A5,5,0,0,1,114,102ZM100,86a3,3,0,0,0-3,3v8a3,3,0,0,0,3,3h14a3,3,0,0,0,3-3V89a3,3,0,0,0-3-3Zm10,8h-6a3,3,0,0,1,0-6h6a3,3,0,0,1,0,6Zm-6-4a1,1,0,0,0,0,2h6a1,1,0,0,0,0-2Z"/><path class="cls-4" d="M107,91a1,1,0,0,1-1-1V84a14,14,0,1,0-28,0v6a1,1,0,0,1-2,0V84a16,16,0,1,1,32,0v6A1,1,0,0,1,107,91Z"/><polygon class="cls-3" points="103 105 103 123 107 127 111 127 111 105 103 105"/><path class="cls-4" d="M111,128h-4a1,1,0,0,1-.71-.29l-4-4A1,1,0,0,1,102,123V105a1,1,0,0,1,1-1h8a1,1,0,0,1,1,1v22A1,1,0,0,1,111,128Zm-3.59-2H110V106h-6v16.59Z"/><path class="cls-4" d="M107,122a1,1,0,0,1-1-1V109a1,1,0,0,1,2,0v12A1,1,0,0,1,107,122Z"/><path class="cls-4" d="M103,122h-1a1,1,0,0,1,0-2h1a1,1,0,0,1,0,2Z"/><path class="cls-4" d="M103,118h-1a1,1,0,0,1,0-2h1a1,1,0,0,1,0,2Z"/><path class="cls-4" d="M103,114h-1a1,1,0,0,1,0-2h1a1,1,0,0,1,0,2Z"/><path class="cls-4" d="M103,110h-1a1,1,0,0,1,0-2h1a1,1,0,0,1,0,2Z"/></svg>