<?xml version="1.0" ?><svg data-name="005" id="_005" viewBox="0 0 128 128" xmlns="http://www.w3.org/2000/svg"><defs><style>.cls-1{opacity:0.3;}.cls-2{fill:#97c1ff;}.cls-3{fill:#fff;}.cls-4{fill:#eef6ff;}.cls-5{fill:#6d6daa;}.cls-6{fill:#8d96b8;}.cls-7{fill:#939fc6;}.cls-8{fill:#96d7ff;}.cls-9{fill:#ff9797;}.cls-10{fill:#b1f1a8;}.cls-11{fill:#c9c1f5;}.cls-12{fill:#d4edff;}.cls-13{fill:#d6b5b0;}.cls-14{fill:#7690a8;}.cls-15{fill:#c7e9ff;}.cls-16{fill:#1c64ba;}.cls-17{fill:#9eb2cc;}.cls-18{opacity:0.5;}</style></defs><title/><g class="cls-1"><path class="cls-2" d="M1.81,45.69a30,30,0,0,1,23.51-25A19.69,19.69,0,0,0,36.26,14.1a37,37,0,0,1,64.33,15.68A19.57,19.57,0,0,0,111,42.95,28,28,0,1,1,73.34,80.29,9.41,9.41,0,0,0,64.83,75H64a12.39,12.39,0,0,0-12,9.74A20,20,0,0,1,25.88,98.88,20,20,0,0,1,12.53,81,21.38,21.38,0,0,0,8,68.65,29.91,29.91,0,0,1,1.81,45.69Z"/><path class="cls-3" d="M44,12a1,1,0,0,1-.71-.3,1.2,1.2,0,0,1-.22-.32A1,1,0,0,1,43,11a1,1,0,0,1,.07-.39,1.2,1.2,0,0,1,.22-.32,1,1,0,0,1,.9-.27l.19,0,.17.09a.63.63,0,0,1,.15.13A1,1,0,0,1,45,11a1,1,0,0,1-.3.7.61.61,0,0,1-.15.13.88.88,0,0,1-.17.09,1.05,1.05,0,0,1-.19.06Z"/><path class="cls-3" d="M56,16H50a1,1,0,0,1,0-2h6a1,1,0,0,1,0,2Z"/><path class="cls-3" d="M63,12H48a1,1,0,0,1,0-2H63a1,1,0,0,1,0,2Z"/><path class="cls-3" d="M53,20H46a1,1,0,0,1,0-2h7a1,1,0,0,1,0,2Z"/><path class="cls-3" d="M46,16H42a1,1,0,0,1,0-2h4a1,1,0,0,1,0,2Z"/><path class="cls-3" d="M44,12a1,1,0,0,1-.71-.3,1.2,1.2,0,0,1-.22-.32A1,1,0,0,1,43,11a1,1,0,0,1,.07-.39,1.2,1.2,0,0,1,.22-.32,1,1,0,0,1,.9-.27l.19,0,.17.09a.63.63,0,0,1,.15.13A1,1,0,0,1,45,11a1,1,0,0,1-.3.7.61.61,0,0,1-.15.13.88.88,0,0,1-.17.09,1.05,1.05,0,0,1-.19.06Z"/><path class="cls-3" d="M56,16H50a1,1,0,0,1,0-2h6a1,1,0,0,1,0,2Z"/><path class="cls-3" d="M63,12H48a1,1,0,0,1,0-2H63a1,1,0,0,1,0,2Z"/><path class="cls-3" d="M53,20H46a1,1,0,0,1,0-2h7a1,1,0,0,1,0,2Z"/><path class="cls-3" d="M46,16H42a1,1,0,0,1,0-2h4a1,1,0,0,1,0,2Z"/><rect class="cls-4" height="4" width="4" x="16" y="79"/><path class="cls-5" d="M20,84H16a1,1,0,0,1-1-1V79a1,1,0,0,1,1-1h4a1,1,0,0,1,1,1v4A1,1,0,0,1,20,84Zm-3-2h2V80H17Z"/><rect class="cls-4" height="4" width="4" x="16" y="69"/><path class="cls-5" d="M20,74H16a1,1,0,0,1-1-1V69a1,1,0,0,1,1-1h4a1,1,0,0,1,1,1v4A1,1,0,0,1,20,74Zm-3-2h2V70H17Z"/><rect class="cls-4" height="4" width="4" x="16" y="59"/><path class="cls-5" d="M20,64H16a1,1,0,0,1-1-1V59a1,1,0,0,1,1-1h4a1,1,0,0,1,1,1v4A1,1,0,0,1,20,64Zm-3-2h2V60H17Z"/><rect class="cls-4" height="4" width="4" x="16" y="49"/><path class="cls-5" d="M20,54H16a1,1,0,0,1-1-1V49a1,1,0,0,1,1-1h4a1,1,0,0,1,1,1v4A1,1,0,0,1,20,54Zm-3-2h2V50H17Z"/><rect class="cls-4" height="4" width="4" x="16" y="39"/><path class="cls-5" d="M20,44H16a1,1,0,0,1-1-1V39a1,1,0,0,1,1-1h4a1,1,0,0,1,1,1v4A1,1,0,0,1,20,44Zm-3-2h2V40H17Z"/><rect class="cls-4" height="4" width="4" x="16" y="99"/><path class="cls-5" d="M20,104H16a1,1,0,0,1-1-1V99a1,1,0,0,1,1-1h4a1,1,0,0,1,1,1v4A1,1,0,0,1,20,104Zm-3-2h2v-2H17Z"/><rect class="cls-4" height="4" width="4" x="16" y="89"/><path class="cls-5" d="M20,94H16a1,1,0,0,1-1-1V89a1,1,0,0,1,1-1h4a1,1,0,0,1,1,1v4A1,1,0,0,1,20,94Zm-3-2h2V90H17Z"/><path class="cls-5" d="M70,109a1,1,0,0,1-1-1V34a1,1,0,0,1,2,0v74A1,1,0,0,1,70,109Z"/><path class="cls-5" d="M70,76H64a1,1,0,0,1,0-2h6a1,1,0,0,1,0,2Z"/><path class="cls-5" d="M70,72H64a1,1,0,0,1,0-2h6a1,1,0,0,1,0,2Z"/><path class="cls-5" d="M70,80H64a1,1,0,0,1,0-2h6a1,1,0,0,1,0,2Z"/><path class="cls-5" d="M70,64H64a1,1,0,0,1,0-2h6a1,1,0,0,1,0,2Z"/><path class="cls-5" d="M70,60H64a1,1,0,0,1,0-2h6a1,1,0,0,1,0,2Z"/><path class="cls-5" d="M70,68H64a1,1,0,0,1,0-2h6a1,1,0,0,1,0,2Z"/><path class="cls-5" d="M70,52H64a1,1,0,0,1,0-2h6a1,1,0,0,1,0,2Z"/><path class="cls-5" d="M70,48H64a1,1,0,0,1,0-2h6a1,1,0,0,1,0,2Z"/><path class="cls-5" d="M70,56H64a1,1,0,0,1,0-2h6a1,1,0,0,1,0,2Z"/><path class="cls-5" d="M70,40H64a1,1,0,0,1,0-2h6a1,1,0,0,1,0,2Z"/><path class="cls-5" d="M70,36H64a1,1,0,0,1,0-2h6a1,1,0,0,1,0,2Z"/><path class="cls-5" d="M70,44H64a1,1,0,0,1,0-2h6a1,1,0,0,1,0,2Z"/><path class="cls-5" d="M70,84H64a1,1,0,0,1,0-2h6a1,1,0,0,1,0,2Z"/><path class="cls-5" d="M70,88H64a1,1,0,0,1,0-2h6a1,1,0,0,1,0,2Z"/><path class="cls-5" d="M70,92H64a1,1,0,0,1,0-2h6a1,1,0,0,1,0,2Z"/><path class="cls-5" d="M70,96H64a1,1,0,0,1,0-2h6a1,1,0,0,1,0,2Z"/><path class="cls-5" d="M70,100H64a1,1,0,0,1,0-2h6a1,1,0,0,1,0,2Z"/><path class="cls-5" d="M70,104H64a1,1,0,0,1,0-2h6a1,1,0,0,1,0,2Z"/><path class="cls-5" d="M70,108H64a1,1,0,0,1,0-2h6a1,1,0,0,1,0,2Z"/><rect class="cls-6" height="3.99" width="44" x="20" y="25"/><path class="cls-5" d="M64,30H20a1,1,0,0,1-1-1V25a1,1,0,0,1,1-1H64a1,1,0,0,1,1,1v4A1,1,0,0,1,64,30ZM21,28H63V26H21Z"/><rect class="cls-4" height="86" width="44" x="20" y="29"/><path class="cls-5" d="M64,116H20a1,1,0,0,1-1-1V29a1,1,0,0,1,1-1H64a1,1,0,0,1,1,1v86A1,1,0,0,1,64,116Zm-43-2H63V30H21Z"/><rect class="cls-7" height="10" width="8" x="50" y="105"/><path class="cls-5" d="M58,116H50a1,1,0,0,1-1-1V105a1,1,0,0,1,1-1h8a1,1,0,0,1,1,1v10A1,1,0,0,1,58,116Zm-7-2h6v-8H51Z"/><rect class="cls-8" height="6" width="20" x="26" y="105"/><path class="cls-5" d="M46,112H26a1,1,0,0,1-1-1v-6a1,1,0,0,1,1-1H46a1,1,0,0,1,1,1v6A1,1,0,0,1,46,112Zm-19-2H45v-4H27Z"/><rect class="cls-8" height="6" width="10" x="26" y="95"/><path class="cls-5" d="M36,102H26a1,1,0,0,1-1-1V95a1,1,0,0,1,1-1H36a1,1,0,0,1,1,1v6A1,1,0,0,1,36,102Zm-9-2h8V96H27Z"/><path class="cls-5" d="M31,102a1,1,0,0,1-1-1V95a1,1,0,0,1,2,0v6A1,1,0,0,1,31,102Z"/><rect class="cls-8" height="6" width="10" x="26" y="85"/><path class="cls-5" d="M36,92H26a1,1,0,0,1-1-1V85a1,1,0,0,1,1-1H36a1,1,0,0,1,1,1v6A1,1,0,0,1,36,92Zm-9-2h8V86H27Z"/><path class="cls-5" d="M31,92a1,1,0,0,1-1-1V85a1,1,0,0,1,2,0v6A1,1,0,0,1,31,92Z"/><rect class="cls-8" height="6" width="10" x="26" y="75"/><path class="cls-5" d="M36,82H26a1,1,0,0,1-1-1V75a1,1,0,0,1,1-1H36a1,1,0,0,1,1,1v6A1,1,0,0,1,36,82Zm-9-2h8V76H27Z"/><path class="cls-5" d="M31,82a1,1,0,0,1-1-1V75a1,1,0,0,1,2,0v6A1,1,0,0,1,31,82Z"/><rect class="cls-8" height="6" width="10" x="26" y="65"/><path class="cls-5" d="M36,72H26a1,1,0,0,1-1-1V65a1,1,0,0,1,1-1H36a1,1,0,0,1,1,1v6A1,1,0,0,1,36,72Zm-9-2h8V66H27Z"/><path class="cls-5" d="M31,72a1,1,0,0,1-1-1V65a1,1,0,0,1,2,0v6A1,1,0,0,1,31,72Z"/><rect class="cls-8" height="6" width="10" x="48" y="95"/><path class="cls-5" d="M58,102H48a1,1,0,0,1-1-1V95a1,1,0,0,1,1-1H58a1,1,0,0,1,1,1v6A1,1,0,0,1,58,102Zm-9-2h8V96H49Z"/><path class="cls-5" d="M53,102a1,1,0,0,1-1-1V95a1,1,0,0,1,2,0v6A1,1,0,0,1,53,102Z"/><rect class="cls-8" height="6" width="10" x="48" y="85"/><path class="cls-5" d="M58,92H48a1,1,0,0,1-1-1V85a1,1,0,0,1,1-1H58a1,1,0,0,1,1,1v6A1,1,0,0,1,58,92Zm-9-2h8V86H49Z"/><path class="cls-5" d="M53,92a1,1,0,0,1-1-1V85a1,1,0,0,1,2,0v6A1,1,0,0,1,53,92Z"/><rect class="cls-8" height="6" width="10" x="48" y="75"/><path class="cls-5" d="M58,82H48a1,1,0,0,1-1-1V75a1,1,0,0,1,1-1H58a1,1,0,0,1,1,1v6A1,1,0,0,1,58,82Zm-9-2h8V76H49Z"/><path class="cls-5" d="M53,82a1,1,0,0,1-1-1V75a1,1,0,0,1,2,0v6A1,1,0,0,1,53,82Z"/><rect class="cls-8" height="6" width="10" x="48" y="65"/><path class="cls-5" d="M58,72H48a1,1,0,0,1-1-1V65a1,1,0,0,1,1-1H58a1,1,0,0,1,1,1v6A1,1,0,0,1,58,72Zm-9-2h8V66H49Z"/><path class="cls-5" d="M53,72a1,1,0,0,1-1-1V65a1,1,0,0,1,2,0v6A1,1,0,0,1,53,72Z"/><rect class="cls-8" height="6" width="10" x="26" y="55"/><path class="cls-5" d="M36,62H26a1,1,0,0,1-1-1V55a1,1,0,0,1,1-1H36a1,1,0,0,1,1,1v6A1,1,0,0,1,36,62Zm-9-2h8V56H27Z"/><path class="cls-5" d="M31,62a1,1,0,0,1-1-1V55a1,1,0,0,1,2,0v6A1,1,0,0,1,31,62Z"/><rect class="cls-8" height="6" width="10" x="48" y="55"/><path class="cls-5" d="M58,62H48a1,1,0,0,1-1-1V55a1,1,0,0,1,1-1H58a1,1,0,0,1,1,1v6A1,1,0,0,1,58,62Zm-9-2h8V56H49Z"/><path class="cls-5" d="M53,62a1,1,0,0,1-1-1V55a1,1,0,0,1,2,0v6A1,1,0,0,1,53,62Z"/><rect class="cls-8" height="6" width="10" x="26" y="45"/><path class="cls-5" d="M36,52H26a1,1,0,0,1-1-1V45a1,1,0,0,1,1-1H36a1,1,0,0,1,1,1v6A1,1,0,0,1,36,52Zm-9-2h8V46H27Z"/><path class="cls-5" d="M31,52a1,1,0,0,1-1-1V45a1,1,0,0,1,2,0v6A1,1,0,0,1,31,52Z"/><rect class="cls-8" height="6" width="10" x="48" y="45"/><path class="cls-5" d="M58,52H48a1,1,0,0,1-1-1V45a1,1,0,0,1,1-1H58a1,1,0,0,1,1,1v6A1,1,0,0,1,58,52Zm-9-2h8V46H49Z"/><path class="cls-5" d="M53,52a1,1,0,0,1-1-1V45a1,1,0,0,1,2,0v6A1,1,0,0,1,53,52Z"/><rect class="cls-8" height="6" width="10" x="26" y="35"/><path class="cls-5" d="M36,42H26a1,1,0,0,1-1-1V35a1,1,0,0,1,1-1H36a1,1,0,0,1,1,1v6A1,1,0,0,1,36,42Zm-9-2h8V36H27Z"/><path class="cls-5" d="M31,42a1,1,0,0,1-1-1V35a1,1,0,0,1,2,0v6A1,1,0,0,1,31,42Z"/><rect class="cls-8" height="6" width="10" x="48" y="35"/><path class="cls-5" d="M58,42H48a1,1,0,0,1-1-1V35a1,1,0,0,1,1-1H58a1,1,0,0,1,1,1v6A1,1,0,0,1,58,42Zm-9-2h8V36H49Z"/><path class="cls-5" d="M53,42a1,1,0,0,1-1-1V35a1,1,0,0,1,2,0v6A1,1,0,0,1,53,42Z"/><rect class="cls-2" height="66" width="4" x="40" y="35"/><path class="cls-5" d="M44,102H40a1,1,0,0,1-1-1V35a1,1,0,0,1,1-1h4a1,1,0,0,1,1,1v66A1,1,0,0,1,44,102Zm-3-2h2V36H41Z"/><path class="cls-5" d="M44,94H40a1,1,0,0,1,0-2h4a1,1,0,0,1,0,2Z"/><path class="cls-5" d="M44,84H40a1,1,0,0,1,0-2h4a1,1,0,0,1,0,2Z"/><path class="cls-5" d="M44,74H40a1,1,0,0,1,0-2h4a1,1,0,0,1,0,2Z"/><path class="cls-5" d="M44,64H40a1,1,0,0,1,0-2h4a1,1,0,0,1,0,2Z"/><path class="cls-5" d="M44,54H40a1,1,0,0,1,0-2h4a1,1,0,0,1,0,2Z"/><path class="cls-5" d="M44,44H40a1,1,0,0,1,0-2h4a1,1,0,0,1,0,2Z"/><path class="cls-5" d="M64,30H20a1,1,0,0,1,0-2H64a1,1,0,0,1,0,2Z"/><path class="cls-5" d="M66,26H18a1,1,0,0,1,0-2H66a1,1,0,0,1,0,2Z"/><rect class="cls-2" height="14" width="50" x="5" y="59.03"/><path class="cls-5" d="M55,74H5a1,1,0,0,1-1-1V59a1,1,0,0,1,1-1H55a1,1,0,0,1,1,1V73A1,1,0,0,1,55,74ZM6,72H54V60H6Z"/><polygon class="cls-4" points="51 77.03 51 75.03 30 61.5 9 75.03 9 77.03 7 77.03 7 115.03 53 115.03 53 109.34 53 83.45 53 77.03 51 77.03"/><path class="cls-5" d="M53,116H7a1,1,0,0,1-1-1V77a1,1,0,0,1,1-1H8V75a1,1,0,0,1,.46-.84l21-13.53a1,1,0,0,1,1.08,0l21,13.53A1,1,0,0,1,52,75v1h1a1,1,0,0,1,1,1v38A1,1,0,0,1,53,116ZM8,114H52V78H51a1,1,0,0,1-1-1V75.58L30,62.69,10,75.58V77a1,1,0,0,1-1,1H8Z"/><rect class="cls-8" height="12" width="18" x="13" y="99.03"/><path class="cls-5" d="M31,112H13a1,1,0,0,1-1-1V99a1,1,0,0,1,1-1H31a1,1,0,0,1,1,1v12A1,1,0,0,1,31,112Zm-17-2H30V100H14Z"/><rect class="cls-8" height="8" width="6" x="13" y="81.03"/><path class="cls-5" d="M19,90H13a1,1,0,0,1-1-1V81a1,1,0,0,1,1-1h6a1,1,0,0,1,1,1v8A1,1,0,0,1,19,90Zm-5-2h4V82H14Z"/><polygon class="cls-9" points="49 69.03 49 60.03 43 60.03 43 65.35 49 69.03"/><path class="cls-5" d="M49,70a1,1,0,0,1-.52-.15l-6-3.68a1,1,0,0,1-.48-.85V60a1,1,0,0,1,1-1h6a1,1,0,0,1,1,1v9a1,1,0,0,1-1,1Zm-5-5.24,4,2.45V61H44Z"/><rect class="cls-9" height="3" width="8" x="42" y="57.03"/><path class="cls-5" d="M50,61H42a1,1,0,0,1-1-1V57a1,1,0,0,1,1-1h8a1,1,0,0,1,1,1v3A1,1,0,0,1,50,61Zm-7-2h6V58H43Z"/><path class="cls-5" d="M22,112a1,1,0,0,1-1-1V99a1,1,0,0,1,2,0v12A1,1,0,0,1,22,112Z"/><path class="cls-5" d="M32,112H12a1,1,0,0,1,0-2H32a1,1,0,0,1,0,2Z"/><rect class="cls-9" height="13" width="10" x="37" y="99.03"/><path class="cls-5" d="M47,113H37a1,1,0,0,1-1-1V99a1,1,0,0,1,1-1H47a1,1,0,0,1,1,1v13A1,1,0,0,1,47,113Zm-9-2h8V100H38Z"/><path class="cls-5" d="M39,107H37a1,1,0,0,1,0-2h2a1,1,0,0,1,0,2Z"/><rect class="cls-7" height="3" width="12" x="36" y="112.03"/><path class="cls-5" d="M48,116H36a1,1,0,0,1-1-1v-3a1,1,0,0,1,1-1H48a1,1,0,0,1,1,1v3A1,1,0,0,1,48,116Zm-11-2H47v-1H37Z"/><rect class="cls-8" height="8" width="6" x="41" y="81.03"/><path class="cls-5" d="M47,90H41a1,1,0,0,1-1-1V81a1,1,0,0,1,1-1h6a1,1,0,0,1,1,1v8A1,1,0,0,1,47,90Zm-5-2h4V82H42Z"/><path class="cls-5" d="M20,90H12a1,1,0,0,1,0-2h8a1,1,0,1,1,0,2Z"/><rect class="cls-8" height="8" width="6" x="27" y="81.03"/><path class="cls-5" d="M33,90H27a1,1,0,0,1-1-1V81a1,1,0,0,1,1-1h6a1,1,0,0,1,1,1v8A1,1,0,0,1,33,90Zm-5-2h4V82H28Z"/><path class="cls-5" d="M19,86H13a1,1,0,0,1,0-2h6a1,1,0,1,1,0,2Z"/><path class="cls-5" d="M33,86H27a1,1,0,0,1,0-2h6a1,1,0,0,1,0,2Z"/><path class="cls-5" d="M47,86H41a1,1,0,0,1,0-2h6a1,1,0,0,1,0,2Z"/><path class="cls-5" d="M48,90H40a1,1,0,1,1,0-2h8a1,1,0,0,1,0,2Z"/><path class="cls-5" d="M34,90H26a1,1,0,0,1,0-2h8a1,1,0,0,1,0,2Z"/><path class="cls-8" d="M27,73V70a3,3,0,0,1,3-3h0a3,3,0,0,1,3,3v3Z"/><path class="cls-5" d="M33,74H27a1,1,0,0,1-1-1V70a4,4,0,0,1,8,0v3A1,1,0,0,1,33,74Zm-5-2h4V70a2,2,0,0,0-4,0Z"/><path class="cls-5" d="M34,74H26a1,1,0,0,1,0-2h8a1,1,0,0,1,0,2Z"/><path class="cls-5" d="M53,96H8a1,1,0,1,1,0-2H53a1,1,0,1,1,0,2Z"/><path class="cls-5" d="M53,78H8a1,1,0,1,1,0-2H53a1,1,0,1,1,0,2Z"/><polygon class="cls-2" points="51 77.03 51 75.03 30 61.5 9 75.03 9 77.03 5 77.03 5 73.03 30 57.03 55 73.03 55 77.03 51 77.03"/><path class="cls-5" d="M55,78H51a1,1,0,0,1-1-1V75.58L30,62.69,10,75.58V77a1,1,0,0,1-1,1H5a1,1,0,0,1-1-1V73a1,1,0,0,1,.46-.84l25-16a1,1,0,0,1,1.08,0l25,16A1,1,0,0,1,56,73v4A1,1,0,0,1,55,78Zm-3-2h2V73.58L30,58.22,6,73.58V76H8V75a1,1,0,0,1,.46-.84l21-13.53a1,1,0,0,1,1.08,0l21,13.53A1,1,0,0,1,52,75Z"/><path class="cls-10" d="M22,111a3,3,0,0,0-1.12.22,3,3,0,0,0-4.57-1.7,5,5,0,0,0-8.92.52,3.92,3.92,0,0,0-.4,0,4,4,0,0,0-4,4v1H25v-1A3,3,0,0,0,22,111Z"/><path class="cls-5" d="M25,116H3a1,1,0,0,1-1-1v-1a5,5,0,0,1,4.8-5,6,6,0,0,1,9.84-.77,4,4,0,0,1,4.83,1.8,3.91,3.91,0,0,1,.53,0,4,4,0,0,1,4,4v1A1,1,0,0,1,25,116ZM4,114H24a2,2,0,0,0-2.74-1.85,1,1,0,0,1-1.34-.67,2,2,0,0,0-3-1.14,1,1,0,0,1-1.43-.33A4,4,0,0,0,12,108a4,4,0,0,0-3.68,2.43,1,1,0,0,1-1,.6l-.17,0L7,111A3,3,0,0,0,4,114Z"/><path class="cls-5" d="M13.11,112.12a1,1,0,0,1-.59-.2c-.5-.37-.79-.32-1.11-.11a1,1,0,0,1-1.06-1.69,2.79,2.79,0,0,1,3.37.2,1,1,0,0,1-.6,1.8Z"/><rect class="cls-11" height="4" width="26" x="80" y="11.03"/><path class="cls-5" d="M106,16H80a1,1,0,0,1-1-1V11a1,1,0,0,1,1-1h26a1,1,0,0,1,1,1v4A1,1,0,0,1,106,16ZM81,14h24V12H81Z"/><rect class="cls-4" height="28" width="4" x="64" y="87.03"/><path class="cls-5" d="M68,116H64a1,1,0,0,1-1-1V87a1,1,0,0,1,1-1h4a1,1,0,0,1,1,1v28A1,1,0,0,1,68,116Zm-3-2h2V88H65Z"/><rect class="cls-12" height="28" width="6" x="68" y="87.03"/><path class="cls-5" d="M74,116H68a1,1,0,0,1-1-1V87a1,1,0,0,1,1-1h6a1,1,0,0,1,1,1v28A1,1,0,0,1,74,116Zm-5-2h4V88H69Z"/><rect class="cls-4" height="28" width="4" x="118" y="87.03"/><path class="cls-5" d="M122,116h-4a1,1,0,0,1-1-1V87a1,1,0,0,1,1-1h4a1,1,0,0,1,1,1v28A1,1,0,0,1,122,116Zm-3-2h2V88h-2Z"/><rect class="cls-12" height="28" width="6" x="112" y="87.03"/><path class="cls-5" d="M118,116h-6a1,1,0,0,1-1-1V87a1,1,0,0,1,1-1h6a1,1,0,0,1,1,1v28A1,1,0,0,1,118,116Zm-5-2h4V88h-4Z"/><rect class="cls-4" height="100" width="38" x="74" y="15.03"/><path class="cls-5" d="M112,116H74a1,1,0,0,1-1-1V15a1,1,0,0,1,1-1h38a1,1,0,0,1,1,1V115A1,1,0,0,1,112,116Zm-37-2h36V16H75Z"/><rect class="cls-8" height="80" width="30" x="78" y="19.03"/><path class="cls-5" d="M108,100H78a1,1,0,0,1-1-1V19a1,1,0,0,1,1-1h30a1,1,0,0,1,1,1V99A1,1,0,0,1,108,100ZM79,98h28V20H79Z"/><rect class="cls-12" height="16" width="30" x="78" y="99.03"/><path class="cls-5" d="M108,116H78a1,1,0,0,1-1-1V99a1,1,0,0,1,1-1h30a1,1,0,0,1,1,1v16A1,1,0,0,1,108,116Zm-29-2h28V100H79Z"/><path class="cls-5" d="M102,100a1,1,0,0,1-1-1V19a1,1,0,0,1,2,0V99A1,1,0,0,1,102,100Z"/><path class="cls-5" d="M96,100a1,1,0,0,1-1-1V19a1,1,0,0,1,2,0V99A1,1,0,0,1,96,100Z"/><path class="cls-5" d="M90,100a1,1,0,0,1-1-1V19a1,1,0,0,1,2,0V99A1,1,0,0,1,90,100Z"/><path class="cls-5" d="M93,12a1,1,0,0,1-1-1V7a1,1,0,0,1,2,0v4A1,1,0,0,1,93,12Z"/><rect class="cls-7" height="4" width="10" x="64" y="111.03"/><path class="cls-5" d="M74,116H64a1,1,0,0,1-1-1v-4a1,1,0,0,1,1-1H74a1,1,0,0,1,1,1v4A1,1,0,0,1,74,116Zm-9-2h8v-2H65Z"/><path class="cls-5" d="M84,100a1,1,0,0,1-1-1V19a1,1,0,0,1,2,0V99A1,1,0,0,1,84,100Z"/><path class="cls-5" d="M86,116a1,1,0,0,1-1-1V99a1,1,0,1,1,2,0v16A1,1,0,0,1,86,116Z"/><path class="cls-5" d="M100,116a1,1,0,0,1-1-1V99a1,1,0,0,1,2,0v16A1,1,0,0,1,100,116Z"/><path class="cls-5" d="M93,116a1,1,0,0,1-1-1V99a1,1,0,1,1,2,0v16A1,1,0,0,1,93,116Z"/><path class="cls-5" d="M108,80H78a1,1,0,0,1,0-2h30a1,1,0,0,1,0,2Z"/><path class="cls-5" d="M108,90H78a1,1,0,0,1,0-2h30a1,1,0,1,1,0,2Z"/><path class="cls-5" d="M108,50H78a1,1,0,0,1,0-2h30a1,1,0,0,1,0,2Z"/><path class="cls-5" d="M108,60H78a1,1,0,0,1,0-2h30a1,1,0,0,1,0,2Z"/><path class="cls-5" d="M108,70H78a1,1,0,0,1,0-2h30a1,1,0,1,1,0,2Z"/><path class="cls-5" d="M108,30H78a1,1,0,0,1,0-2h30a1,1,0,0,1,0,2Z"/><path class="cls-5" d="M108,40H78a1,1,0,0,1,0-2h30a1,1,0,0,1,0,2Z"/><path class="cls-5" d="M108,100H78a1,1,0,1,1,0-2h30a1,1,0,1,1,0,2Z"/><path class="cls-5" d="M118,112a1,1,0,0,1-1-1V91a1,1,0,0,1,2,0v20A1,1,0,0,1,118,112Z"/><rect class="cls-7" height="4" width="10" x="112" y="111.03"/><path class="cls-5" d="M122,116H112a1,1,0,0,1-1-1v-4a1,1,0,0,1,1-1h10a1,1,0,0,1,1,1v4A1,1,0,0,1,122,116Zm-9-2h8v-2h-8Z"/><rect class="cls-11" height="4" width="10" x="112" y="87.03"/><path class="cls-5" d="M122,92H112a1,1,0,0,1-1-1V87a1,1,0,0,1,1-1h10a1,1,0,0,1,1,1v4A1,1,0,0,1,122,92Zm-9-2h8V88h-8Z"/><rect class="cls-11" height="4" width="10" x="64" y="87.03"/><path class="cls-5" d="M74,92H64a1,1,0,0,1-1-1V87a1,1,0,0,1,1-1H74a1,1,0,0,1,1,1v4A1,1,0,0,1,74,92Zm-9-2h8V88H65Z"/><path class="cls-5" d="M113.09,115.92a1,1,0,0,1-1-1v-8a1,1,0,0,1,2,0v8A1,1,0,0,1,113.09,115.92Z"/><path class="cls-10" d="M119.09,101.42a6,6,0,0,1-12,0c0-3,2.69-16.5,6-16.5S119.09,98.38,119.09,101.42Z"/><path class="cls-5" d="M113.09,107.92a6.77,6.77,0,0,1-7-6.5c0-1.95,2.34-17.5,7-17.5s7,15.55,7,17.5A6.77,6.77,0,0,1,113.09,107.92Zm0-22c-2,0-5,11.79-5,15.5a5,5,0,0,0,10,0C118.09,97.71,115.11,85.92,113.09,85.92Z"/><path class="cls-5" d="M111.81,103.78a1,1,0,0,1-.25,0,2.8,2.8,0,0,1-2.18-2.57,1,1,0,1,1,2-.25c.08.61.31.79.69.88a1,1,0,0,1-.24,2Z"/><path class="cls-5" d="M114.11,94.37a1,1,0,0,1-.83-.44c-.35-.51-.63-.56-1-.48a1,1,0,1,1-.44-2,2.8,2.8,0,0,1,3.11,1.3,1,1,0,0,1-.83,1.56Z"/><path class="cls-10" d="M64.14,111.17a3,3,0,0,1,4.54-1.62,5,5,0,0,1,9.11,1.15A4,4,0,0,1,84,114v1H62v-1A3,3,0,0,1,64.14,111.17Z"/><path class="cls-5" d="M84,116H62a1,1,0,0,1-1-1v-1a4,4,0,0,1,2.36-3.64,4,4,0,0,1,5-2.13,6,6,0,0,1,10,1.05A5,5,0,0,1,85,114v1A1,1,0,0,1,84,116Zm-21-2H83a3,3,0,0,0-4.65-2.5,1,1,0,0,1-1.52-.57A4,4,0,0,0,73,108a4,4,0,0,0-3.45,2,1,1,0,0,1-1.43.33,2,2,0,0,0-3,1.08,1,1,0,0,1-.67.67A2,2,0,0,0,63,114Zm1.14-2.86h0Z"/><path class="cls-5" d="M74.11,112.06a1,1,0,0,1-.55-.17c-.51-.34-.8-.28-1.12-.05a1,1,0,1,1-1.15-1.63,2.79,2.79,0,0,1,3.37,0,1,1,0,0,1-.55,1.83Z"/><path class="cls-5" d="M112,116H23a1,1,0,0,1,0-2h89a1,1,0,0,1,0,2Z"/><path class="cls-5" d="M127,116H115a1,1,0,1,1,0-2h12a1,1,0,0,1,0,2Z"/><path class="cls-5" d="M6,116H1a1,1,0,1,1,0-2H6a1,1,0,0,1,0,2Z"/><path class="cls-5" d="M20,116H9a1,1,0,0,1,0-2H20a1,1,0,1,1,0,2Z"/><path class="cls-5" d="M118,126H4a1,1,0,0,1,0-2H118a1,1,0,0,1,0,2Z"/></g><rect class="cls-13" height="6" width="76" x="26" y="119"/><path class="cls-5" d="M102,126H26a1,1,0,0,1-1-1v-6a1,1,0,0,1,1-1h76a1,1,0,0,1,1,1v6A1,1,0,0,1,102,126Zm-75-2h74v-4H27Z"/><rect class="cls-3" height="68" width="84" x="22" y="57"/><polygon class="cls-4" points="102 61 102 125 26 125 26 61 26 61 102 61 102 61"/><g class="cls-1"><path class="cls-14" d="M106,68.72l-3.14-5.24A1,1,0,0,0,102,63H26a1,1,0,0,0-.86.49L22,68.72V80.58A4.95,4.95,0,0,0,28,79a5,5,0,0,0,8,0,5,5,0,0,0,8,0,5,5,0,0,0,8,0,5,5,0,0,0,8,0,5,5,0,0,0,8,0,5,5,0,0,0,8,0,5,5,0,0,0,8,0,5,5,0,0,0,8,0,5,5,0,0,0,8,0,4.95,4.95,0,0,0,6,1.61Z"/></g><path class="cls-5" d="M102,126H26a1,1,0,0,1-1-1V61a1,1,0,0,1,1-1h76a1,1,0,0,1,1,1v64A1,1,0,0,1,102,126Zm-75-2h74V62H27Z"/><path class="cls-5" d="M106,126H22a1,1,0,0,1-1-1V57a1,1,0,0,1,1-1h84a1,1,0,0,1,1,1v68A1,1,0,0,1,106,126Zm-83-2h82V58H23Z"/><rect class="cls-4" height="4" width="86" x="21" y="53"/><path class="cls-5" d="M107,58H21a1,1,0,0,1-1-1V53a1,1,0,0,1,1-1h86a1,1,0,0,1,1,1v4A1,1,0,0,1,107,58ZM22,56h84V54H22Z"/><rect class="cls-3" height="18" width="34" x="47" y="39"/><path class="cls-5" d="M81,58H47a1,1,0,0,1-1-1V39a1,1,0,0,1,1-1H81a1,1,0,0,1,1,1V57A1,1,0,0,1,81,58ZM48,56H80V40H48Z"/><path class="cls-9" d="M24,77h0a4,4,0,0,1-4-4V71h8v2A4,4,0,0,1,24,77Z"/><path class="cls-5" d="M24,78a5,5,0,0,1-5-5V71a1,1,0,0,1,1-1h8a1,1,0,0,1,1,1v2A5,5,0,0,1,24,78Zm-3-6v1a3,3,0,0,0,6,0V72Z"/><path class="cls-3" d="M32,77h0a4,4,0,0,1-4-4V71h8v2A4,4,0,0,1,32,77Z"/><path class="cls-5" d="M32,78a5,5,0,0,1-5-5V71a1,1,0,0,1,1-1h8a1,1,0,0,1,1,1v2A5,5,0,0,1,32,78Zm-3-6v1a3,3,0,0,0,6,0V72Z"/><path class="cls-9" d="M40,77h0a4,4,0,0,1-4-4V71h8v2A4,4,0,0,1,40,77Z"/><path class="cls-5" d="M40,78a5,5,0,0,1-5-5V71a1,1,0,0,1,1-1h8a1,1,0,0,1,1,1v2A5,5,0,0,1,40,78Zm-3-6v1a3,3,0,0,0,6,0V72Z"/><path class="cls-3" d="M48,77h0a4,4,0,0,1-4-4V71h8v2A4,4,0,0,1,48,77Z"/><path class="cls-5" d="M48,78a5,5,0,0,1-5-5V71a1,1,0,0,1,1-1h8a1,1,0,0,1,1,1v2A5,5,0,0,1,48,78Zm-3-6v1a3,3,0,0,0,6,0V72Z"/><path class="cls-9" d="M56,77h0a4,4,0,0,1-4-4V71h8v2A4,4,0,0,1,56,77Z"/><path class="cls-5" d="M56,78a5,5,0,0,1-5-5V71a1,1,0,0,1,1-1h8a1,1,0,0,1,1,1v2A5,5,0,0,1,56,78Zm-3-6v1a3,3,0,0,0,6,0V72Z"/><path class="cls-9" d="M72,77h0a4,4,0,0,1-4-4V71h8v2A4,4,0,0,1,72,77Z"/><path class="cls-5" d="M72,78a5,5,0,0,1-5-5V71a1,1,0,0,1,1-1h8a1,1,0,0,1,1,1v2A5,5,0,0,1,72,78Zm-3-6v1a3,3,0,0,0,6,0V72Z"/><path class="cls-3" d="M80,77h0a4,4,0,0,1-4-4V71h8v2A4,4,0,0,1,80,77Z"/><path class="cls-5" d="M80,78a5,5,0,0,1-5-5V71a1,1,0,0,1,1-1h8a1,1,0,0,1,1,1v2A5,5,0,0,1,80,78Zm-3-6v1a3,3,0,0,0,6,0V72Z"/><path class="cls-9" d="M88,77h0a4,4,0,0,1-4-4V71h8v2A4,4,0,0,1,88,77Z"/><path class="cls-5" d="M88,78a5,5,0,0,1-5-5V71a1,1,0,0,1,1-1h8a1,1,0,0,1,1,1v2A5,5,0,0,1,88,78Zm-3-6v1a3,3,0,0,0,6,0V72Z"/><path class="cls-3" d="M96,77h0a4,4,0,0,1-4-4V71h8v2A4,4,0,0,1,96,77Z"/><path class="cls-5" d="M96,78a5,5,0,0,1-5-5V71a1,1,0,0,1,1-1h8a1,1,0,0,1,1,1v2A5,5,0,0,1,96,78Zm-3-6v1a3,3,0,0,0,6,0V72Z"/><path class="cls-9" d="M104,77h0a4,4,0,0,1-4-4V71h8v2A4,4,0,0,1,104,77Z"/><path class="cls-5" d="M104,78a5,5,0,0,1-5-5V71a1,1,0,0,1,1-1h8a1,1,0,0,1,1,1v2A5,5,0,0,1,104,78Zm-3-6v1a3,3,0,0,0,6,0V72Z"/><polygon class="cls-9" points="28 71 20 71 26 61 32 61 28 71"/><path class="cls-5" d="M28,72H20a1,1,0,0,1-.86-1.51l6-10A1,1,0,0,1,26,60h6a1,1,0,0,1,.93,1.37l-4,10A1,1,0,0,1,28,72Zm-6.23-2h5.56l3.2-8h-4Z"/><polygon class="cls-3" points="36 71 28 71 32 61 39 61 36 71"/><path class="cls-5" d="M36,72H28a1,1,0,0,1-.93-1.37l4-10A1,1,0,0,1,32,60h7a1,1,0,0,1,1,1.29l-3,10A1,1,0,0,1,36,72Zm-6.52-2h5.78l2.4-8h-5Z"/><polygon class="cls-9" points="44 71 36 71 39 61 46 61 44 71"/><path class="cls-5" d="M44,72H36a1,1,0,0,1-1-1.29l3-10A1,1,0,0,1,39,60h7a1,1,0,0,1,1,1.2l-2,10A1,1,0,0,1,44,72Zm-6.66-2h5.84l1.6-8h-5Z"/><polygon class="cls-3" points="52 71 44 71 46 61 53 61 52 71"/><path class="cls-5" d="M52,72H44a1,1,0,0,1-1-1.2l2-10a1,1,0,0,1,1-.8h7a1,1,0,0,1,1,1.1l-1,10A1,1,0,0,1,52,72Zm-6.78-2h5.88l.8-8H46.82Z"/><polygon class="cls-9" points="60 71 52 71 53 61 60 61 60 71"/><path class="cls-5" d="M60,72H52a1,1,0,0,1-1-1.1l1-10a1,1,0,0,1,1-.9h7a1,1,0,0,1,1,1V71A1,1,0,0,1,60,72Zm-6.89-2H59V62H53.91Z"/><path class="cls-3" d="M64,77h0a4,4,0,0,1-4-4V71h8v2A4,4,0,0,1,64,77Z"/><path class="cls-5" d="M64,78a5,5,0,0,1-5-5V71a1,1,0,0,1,1-1h8a1,1,0,0,1,1,1v2A5,5,0,0,1,64,78Zm-3-6v1a3,3,0,0,0,6,0V72Z"/><rect class="cls-3" height="10" width="8" x="60" y="61"/><path class="cls-5" d="M68,72H60a1,1,0,0,1-1-1V61a1,1,0,0,1,1-1h8a1,1,0,0,1,1,1V71A1,1,0,0,1,68,72Zm-7-2h6V62H61Z"/><polygon class="cls-9" points="76 71 68 71 68 61 75 61 76 71"/><path class="cls-5" d="M76,72H68a1,1,0,0,1-1-1V61a1,1,0,0,1,1-1h7a1,1,0,0,1,1,.9l1,10A1,1,0,0,1,76,72Zm-7-2h5.89l-.8-8H69Z"/><polygon class="cls-3" points="84 71 76 71 75 61 82 61 84 71"/><path class="cls-5" d="M84,72H76a1,1,0,0,1-1-.9l-1-10A1,1,0,0,1,75,60h7a1,1,0,0,1,1,.8l2,10A1,1,0,0,1,84,72Zm-7.09-2h5.88l-1.6-8H76.11Z"/><polygon class="cls-9" points="92 71 84 71 82 61 89 61 92 71"/><path class="cls-5" d="M92,72H84a1,1,0,0,1-1-.8l-2-10A1,1,0,0,1,82,60h7a1,1,0,0,1,1,.71l3,10A1,1,0,0,1,92,72Zm-7.18-2h5.84l-2.4-8h-5Z"/><polygon class="cls-3" points="100 71 92 71 89 61 96 61 100 71"/><path class="cls-5" d="M100,72H92a1,1,0,0,1-1-.71l-3-10A1,1,0,0,1,89,60h7a1,1,0,0,1,.93.63l4,10A1,1,0,0,1,100,72Zm-7.26-2h5.78l-3.2-8h-5Z"/><polygon class="cls-9" points="108 71 100 71 96 61 102 61 108 71"/><path class="cls-5" d="M108,72h-8a1,1,0,0,1-.93-.63l-4-10A1,1,0,0,1,96,60h6a1,1,0,0,1,.86.49l6,10A1,1,0,0,1,108,72Zm-7.32-2h5.56l-4.8-8h-4Z"/><rect class="cls-8" height="30" width="35" x="32" y="85"/><polygon class="cls-15" points="32 108.09 67 91.47 67 85 32 85 32 108.09"/><polygon class="cls-15" points="32 111.71 67 95.09 67 93.09 32 109.71 32 111.71"/><g class="cls-1"><rect class="cls-16" height="3" width="35" x="32" y="85"/></g><path class="cls-5" d="M67,116H32a1,1,0,0,1-1-1V85a1,1,0,0,1,1-1H67a1,1,0,0,1,1,1v30A1,1,0,0,1,67,116Zm-34-2H66V86H33Z"/><rect class="cls-3" height="3" width="37" x="31" y="115"/><path class="cls-5" d="M68,119H31a1,1,0,0,1-1-1v-3a1,1,0,0,1,1-1H68a1,1,0,0,1,1,1v3A1,1,0,0,1,68,119Zm-36-2H67v-1H32Z"/><rect class="cls-3" height="34" width="23" x="73" y="85"/><path class="cls-5" d="M96,120H73a1,1,0,0,1-1-1V85a1,1,0,0,1,1-1H96a1,1,0,0,1,1,1v34A1,1,0,0,1,96,120Zm-22-2H95V86H74Z"/><rect class="cls-8" height="12" width="17" x="76" y="88"/><polygon class="cls-15" points="76 88 76 94.82 90.36 88 76 88"/><g class="cls-1"><rect class="cls-16" height="3" width="17" x="76" y="88"/></g><rect class="cls-8" height="12" width="17" x="76" y="104"/><polygon class="cls-15" points="76 111.44 91.66 104 87.45 104 76 109.44 76 111.44"/><g class="cls-1"><rect class="cls-16" height="3" width="17" x="76" y="104"/></g><path class="cls-5" d="M93,101H76a1,1,0,0,1-1-1V88a1,1,0,0,1,1-1H93a1,1,0,0,1,1,1v12A1,1,0,0,1,93,101ZM77,99H92V89H77Z"/><path class="cls-5" d="M93,117H76a1,1,0,0,1-1-1V104a1,1,0,0,1,1-1H93a1,1,0,0,1,1,1v12A1,1,0,0,1,93,117Zm-16-2H92V105H77Z"/><rect class="cls-17" height="3" width="23" x="73" y="119"/><path class="cls-5" d="M96,123H73a1,1,0,0,1-1-1v-3a1,1,0,0,1,1-1H96a1,1,0,0,1,1,1v3A1,1,0,0,1,96,123Zm-22-2H95v-1H74Z"/><rect class="cls-17" height="3" width="23" x="73" y="122"/><path class="cls-5" d="M96,126H73a1,1,0,0,1-1-1v-3a1,1,0,0,1,1-1H96a1,1,0,0,1,1,1v3A1,1,0,0,1,96,126Zm-22-2H95v-1H74Z"/><path class="cls-10" d="M34.5,119a4.48,4.48,0,0,0-1.67.33A4.48,4.48,0,0,0,26,116.78a7.47,7.47,0,0,0-13.37.78,5.88,5.88,0,0,0-.6-.06,6,6,0,0,0-6,6V125H39v-1.5A4.5,4.5,0,0,0,34.5,119Z"/><g class="cls-18"><path class="cls-3" d="M34.5,119a4.48,4.48,0,0,0-1.67.33A4.48,4.48,0,0,0,26,116.78a7.47,7.47,0,0,0-13.37.78,5.87,5.87,0,0,0-.6-.06,6,6,0,0,0-6,6V125h.2a6,6,0,0,1,5.8-4.5,5.87,5.87,0,0,1,.6.06A7.47,7.47,0,0,1,26,119.78a4.48,4.48,0,0,1,6.85,2.55,4.46,4.46,0,0,1,5.9,2.67H39v-1.5A4.5,4.5,0,0,0,34.5,119Z"/></g><path class="cls-5" d="M39,126H6a1,1,0,0,1-1-1v-1.5a7,7,0,0,1,7-7h0a8.46,8.46,0,0,1,14.3-1,5.48,5.48,0,0,1,7.13,2.65A5.38,5.38,0,0,1,34.5,118a5.51,5.51,0,0,1,5.5,5.5V125A1,1,0,0,1,39,126ZM7,124H38v-.5a3.49,3.49,0,0,0-4.8-3.24,1,1,0,0,1-1.34-.67,3.48,3.48,0,0,0-5.33-2,1,1,0,0,1-1.43-.33A6.42,6.42,0,0,0,19.5,114a6.49,6.49,0,0,0-6,4,1,1,0,0,1-1,.6l-.23,0-.27,0a5,5,0,0,0-5,5Z"/><path class="cls-5" d="M21.17,120.13a1,1,0,0,1-.59-.2,1.73,1.73,0,0,0-2.23-.19A1,1,0,0,1,17.28,118a3.73,3.73,0,0,1,4.48.28,1,1,0,0,1-.6,1.8Z"/><path class="cls-10" d="M96,121a3,3,0,0,1,1.12.22,3,3,0,0,1,4.57-1.7,5,5,0,0,1,8.92.52,3.92,3.92,0,0,1,.4,0,4,4,0,0,1,4,4v1H93v-1A3,3,0,0,1,96,121Z"/><path class="cls-5" d="M115,126H93a1,1,0,0,1-1-1v-1a4,4,0,0,1,4-4,3.9,3.9,0,0,1,.53,0,4,4,0,0,1,4.83-1.8,6,6,0,0,1,9.84.77,5,5,0,0,1,4.8,5v1A1,1,0,0,1,115,126Zm-21-2h20a3,3,0,0,0-3-3l-.13,0-.17,0a1,1,0,0,1-1-.6A4,4,0,0,0,106,118a4,4,0,0,0-3.45,2,1,1,0,0,1-1.43.33,2,2,0,0,0-3,1.14,1,1,0,0,1-1.34.67A2,2,0,0,0,94,124Z"/><path class="cls-5" d="M104.88,122.12a1,1,0,0,1-.6-1.8,2.8,2.8,0,0,1,3.37-.2,1,1,0,1,1-1.06,1.69c-.33-.21-.62-.25-1.11.11A1,1,0,0,1,104.88,122.12Z"/><path class="cls-5" d="M58,46a1,1,0,0,1-.6-1.8l4-3a1,1,0,1,1,1.2,1.6l-4,3A1,1,0,0,1,58,46Z"/><path class="cls-5" d="M70,46a1,1,0,0,1-.6-.2l-4-3a1,1,0,1,1,1.2-1.6l4,3A1,1,0,0,1,70,46Z"/><polygon class="cls-4" points="70 54 58 54 57 48 71 48 70 54"/><path class="cls-5" d="M70,55H58a1,1,0,0,1-1-.84l-1-6A1,1,0,0,1,57,47H71a1,1,0,0,1,1,1.16l-1,6A1,1,0,0,1,70,55ZM58.85,53H69.15l.67-4H58.18Z"/><rect class="cls-9" height="3" width="16" x="56" y="45"/><path class="cls-5" d="M72,49H56a1,1,0,0,1-1-1V45a1,1,0,0,1,1-1H72a1,1,0,0,1,1,1v3A1,1,0,0,1,72,49ZM57,47H71V46H57Z"/><g class="cls-18"><path class="cls-5" d="M78,55a1.05,1.05,0,0,1-.71-.29,1.68,1.68,0,0,1-.12-.15.74.74,0,0,1-.09-.18A.65.65,0,0,1,77,54.2a.69.69,0,0,1,0-.2,1,1,0,1,1,2,0,1.26,1.26,0,0,1,0,.2.62.62,0,0,1-.06.18.78.78,0,0,1-.09.18l-.12.15A1.05,1.05,0,0,1,78,55Z"/><path class="cls-5" d="M50,43a1.05,1.05,0,0,1-.71-.29.94.94,0,0,1-.21-.33A.65.65,0,0,1,49,42.2a1.38,1.38,0,0,1,0-.2,1,1,0,0,1,.08-.38,1,1,0,0,1,1.11-.6.61.61,0,0,1,.19.06.76.76,0,0,1,.18.09l.15.12a1,1,0,0,1,0,1.42l-.15.12a.76.76,0,0,1-.18.09.62.62,0,0,1-.19.06Z"/><path class="cls-5" d="M50,55a1.05,1.05,0,0,1-.71-.29,1,1,0,0,1-.21-.33A1,1,0,0,1,49,54a1.38,1.38,0,0,1,0-.2.65.65,0,0,1,.06-.18,1,1,0,0,1,.21-.33,1.15,1.15,0,0,1,.33-.21.93.93,0,0,1,.57-.06.61.61,0,0,1,.19.06.76.76,0,0,1,.18.09l.15.12a1,1,0,0,1,0,1.42l-.15.12a.76.76,0,0,1-.18.09.62.62,0,0,1-.19.06Z"/><path class="cls-5" d="M78,43a1.05,1.05,0,0,1-.71-.29,1.15,1.15,0,0,1-.21-.33A.83.83,0,0,1,77,42a1,1,0,1,1,2,0,1,1,0,0,1-.08.38,1.15,1.15,0,0,1-.21.33A1.05,1.05,0,0,1,78,43Z"/></g></svg>