<?xml version="1.0" ?><svg height="60" id="Basic_1" viewBox="0 0 60 60" width="60" xmlns="http://www.w3.org/2000/svg"><title/><path d="M57,11V43a4.00006,4.00006,0,0,1-4,4H42v9l-9-9H7a4,4,0,0,1-4-4V11A4,4,0,0,1,7,7H53A4.00006,4.00006,0,0,1,57,11Z" style="fill:#fff"/><g style="opacity:0.2"><path d="M19,17a2.96482,2.96482,0,0,0-1,.18427V15a1,1,0,0,0-2,0v5a3,3,0,1,0,3-3Z" style="fill:#2c4b75"/><path d="M11,17a2.96482,2.96482,0,0,0-1,.18427V15a1,1,0,0,0-2,0v5a3,3,0,1,0,3-3Z" style="fill:#2c4b75"/><path d="M41,35a3,3,0,0,0,0,6,2.96482,2.96482,0,0,0,1-.18427V43a1,1,0,0,0,2,0V38A3.00328,3.00328,0,0,0,41,35Z" style="fill:#2c4b75"/><path d="M49,35a3,3,0,0,0,0,6,2.96482,2.96482,0,0,0,1-.18427V43a1,1,0,0,0,2,0V38A3.00328,3.00328,0,0,0,49,35Z" style="fill:#2c4b75"/></g><path d="M7,44a4,4,0,0,1-4-4v3a4,4,0,0,0,4,4H33l9,9V52l-7.70711-7.70711A1,1,0,0,0,33.58579,44Z" style="fill:#2c4b75;opacity:0.2"/><path d="M53,44H42a1,1,0,0,0-1,1v2H53a4,4,0,0,0,4-4V40A4,4,0,0,1,53,44Z" style="fill:#2c4b75;opacity:0.2"/><circle cx="19" cy="18" r="2" style="fill:#96d7ff;stroke:#6d6daa;stroke-linecap:round;stroke-linejoin:round;stroke-width:2px"/><circle cx="11" cy="18" r="2" style="fill:#96d7ff"/><line style="fill:none;stroke:#6d6daa;stroke-linecap:round;stroke-linejoin:round;stroke-width:2px" x1="9" x2="9" y1="18" y2="13"/><circle cx="41" cy="36" r="2" style="fill:#96d7ff"/><line style="fill:none;stroke:#6d6daa;stroke-linecap:round;stroke-linejoin:round;stroke-width:2px" x1="43" x2="43" y1="36" y2="41"/><circle cx="49" cy="36" r="2" style="fill:#96d7ff"/><path d="M57,11V43a4.00006,4.00006,0,0,1-4,4H42v9l-9-9H7a4,4,0,0,1-4-4V11A4,4,0,0,1,7,7H53A4.00006,4.00006,0,0,1,57,11Z" style="fill:none;stroke:#6d6daa;stroke-linecap:round;stroke-linejoin:round;stroke-width:2px"/><line style="fill:none;stroke:#6d6daa;stroke-linecap:round;stroke-linejoin:round;stroke-width:2px" x1="17" x2="17" y1="18" y2="13"/><circle cx="11" cy="18" r="2" style="fill:none;stroke:#6d6daa;stroke-linecap:round;stroke-linejoin:round;stroke-width:2px"/><circle cx="41" cy="36" r="2" style="fill:none;stroke:#6d6daa;stroke-linecap:round;stroke-linejoin:round;stroke-width:2px"/><circle cx="49" cy="36" r="2" style="fill:none;stroke:#6d6daa;stroke-linecap:round;stroke-linejoin:round;stroke-width:2px"/><line style="fill:none;stroke:#6d6daa;stroke-linecap:round;stroke-linejoin:round;stroke-width:2px" x1="51" x2="51" y1="36" y2="41"/></svg>