<?xml version="1.0" ?><svg height="60" id="Layout_2" viewBox="0 0 60 60" width="60" xmlns="http://www.w3.org/2000/svg"><title/><rect height="8" rx="2" ry="2" style="fill:#b1f1a8" width="22" x="34.999" y="49.99998"/><rect height="8" rx="2" ry="2" style="fill:#b1f1a8" width="22" x="34.999" y="33.99998"/><rect height="8" rx="2" ry="2" style="fill:#fff27d" width="22" x="18.999" y="17.99998"/><rect height="8" rx="2" ry="2" style="fill:#eef6ff" width="22" x="2.999" y="1.99998"/><path d="M22.999,7h-18a1.99994,1.99994,0,0,1-2-2V8a2,2,0,0,0,2,2h18a2,2,0,0,0,2-2V5A1.99994,1.99994,0,0,1,22.999,7Z" style="fill:#2c4b75;opacity:0.2"/><path d="M22.999,2h-18a1.99994,1.99994,0,0,0-2,2V7a1.99994,1.99994,0,0,1,2-2h18a1.99994,1.99994,0,0,1,2,2V4A1.99994,1.99994,0,0,0,22.999,2Z" style="fill:#fff;opacity:0.75"/><path d="M38.999,23h-18a1.99994,1.99994,0,0,1-2-2v3a2,2,0,0,0,2,2h18a2,2,0,0,0,2-2V21A1.99994,1.99994,0,0,1,38.999,23Z" style="fill:#750000;opacity:0.2"/><path d="M38.999,18h-18a1.99994,1.99994,0,0,0-2,2v3a1.99994,1.99994,0,0,1,2-2h18a1.99994,1.99994,0,0,1,2,2V20A1.99994,1.99994,0,0,0,38.999,18Z" style="fill:#fff;opacity:0.75"/><path d="M54.999,39h-18a1.99994,1.99994,0,0,1-2-2v3a2,2,0,0,0,2,2h18a2,2,0,0,0,2-2V37A1.99994,1.99994,0,0,1,54.999,39Z" style="fill:#2c4b75;opacity:0.2"/><path d="M54.999,34h-18a1.99994,1.99994,0,0,0-2,2v3a1.99994,1.99994,0,0,1,2-2h18a1.99994,1.99994,0,0,1,2,2V36A1.99994,1.99994,0,0,0,54.999,34Z" style="fill:#fff;opacity:0.75"/><path d="M54.999,55h-18a1.99994,1.99994,0,0,1-2-2v3a2,2,0,0,0,2,2h18a2,2,0,0,0,2-2V53A1.99994,1.99994,0,0,1,54.999,55Z" style="fill:#2c4b75;opacity:0.2"/><path d="M54.999,50h-18a1.99994,1.99994,0,0,0-2,2v3a1.99994,1.99994,0,0,1,2-2h18a1.99994,1.99994,0,0,1,2,2V52A1.99994,1.99994,0,0,0,54.999,50Z" style="fill:#fff;opacity:0.75"/><path d="M22.999,11h-18a3.00328,3.00328,0,0,1-3-3V4a3.00328,3.00328,0,0,1,3-3h18a3.00328,3.00328,0,0,1,3,3V8A3.00328,3.00328,0,0,1,22.999,11Zm-18-8a1.001,1.001,0,0,0-1,1V8a1.001,1.001,0,0,0,1,1h18a1.001,1.001,0,0,0,1-1V4a1.001,1.001,0,0,0-1-1Z" style="fill:#6d6daa"/><path d="M38.999,27h-18a3.00328,3.00328,0,0,1-3-3V20a3.00328,3.00328,0,0,1,3-3h18a3.00328,3.00328,0,0,1,3,3v4A3.00328,3.00328,0,0,1,38.999,27Zm-18-8a1.001,1.001,0,0,0-1,1v4a1.001,1.001,0,0,0,1,1h18a1.001,1.001,0,0,0,1-1V20a1.001,1.001,0,0,0-1-1Z" style="fill:#6d6daa"/><path d="M14,22a1.00288,1.00288,0,0,1,1-1h0a1.00288,1.00288,0,0,1,1,1h0a1.00319,1.00319,0,0,1-1,1h0A1.00319,1.00319,0,0,1,14,22Zm-4,0a1.00288,1.00288,0,0,1,1-1h0a1.00288,1.00288,0,0,1,1,1h0a1.00319,1.00319,0,0,1-1,1h0A1.00319,1.00319,0,0,1,10,22ZM6,22a1.00288,1.00288,0,0,1,1-1H7a1.00288,1.00288,0,0,1,1,1H8a1.00319,1.00319,0,0,1-1,1H7A1.00319,1.00319,0,0,1,6,22Zm0-4a1.00288,1.00288,0,0,1,1-1H7a1.00288,1.00288,0,0,1,1,1H8a1.00319,1.00319,0,0,1-1,1H7A1.00319,1.00319,0,0,1,6,18Zm0-4a1.00288,1.00288,0,0,1,1-1H7a1.00288,1.00288,0,0,1,1,1H8a1.00319,1.00319,0,0,1-1,1H7A1.00319,1.00319,0,0,1,6,14Z" style="fill:#6d6daa"/><path d="M30,38a1.00288,1.00288,0,0,1,1-1h0a1.00288,1.00288,0,0,1,1,1h0a1.00319,1.00319,0,0,1-1,1h0A1.00319,1.00319,0,0,1,30,38Zm-4,0a1.00288,1.00288,0,0,1,1-1h0a1.00288,1.00288,0,0,1,1,1h0a1.00319,1.00319,0,0,1-1,1h0A1.00319,1.00319,0,0,1,26,38Z" style="fill:#6d6daa"/><path d="M30,54a1.00288,1.00288,0,0,1,1-1h0a1.00288,1.00288,0,0,1,1,1h0a1.00319,1.00319,0,0,1-1,1h0A1.00319,1.00319,0,0,1,30,54Zm-4,0a1.00288,1.00288,0,0,1,1-1h0a1.00288,1.00288,0,0,1,1,1h0a1.00319,1.00319,0,0,1-1,1h0A1.00319,1.00319,0,0,1,26,54Zm-4,0a1.00288,1.00288,0,0,1,1-1h0a1.00288,1.00288,0,0,1,1,1h0a1.00319,1.00319,0,0,1-1,1h0A1.00319,1.00319,0,0,1,22,54Zm0-4a1.00288,1.00288,0,0,1,1-1h0a1.00288,1.00288,0,0,1,1,1h0a1.00319,1.00319,0,0,1-1,1h0A1.00319,1.00319,0,0,1,22,50Zm0-4a1.00288,1.00288,0,0,1,1-1h0a1.00288,1.00288,0,0,1,1,1h0a1.00319,1.00319,0,0,1-1,1h0A1.00319,1.00319,0,0,1,22,46Zm0-4a1.00288,1.00288,0,0,1,1-1h0a1.00288,1.00288,0,0,1,1,1h0a1.00319,1.00319,0,0,1-1,1h0A1.00319,1.00319,0,0,1,22,42Zm0-4a1.00288,1.00288,0,0,1,1-1h0a1.00288,1.00288,0,0,1,1,1h0a1.00319,1.00319,0,0,1-1,1h0A1.00319,1.00319,0,0,1,22,38Zm0-4a1.00288,1.00288,0,0,1,1-1h0a1.00288,1.00288,0,0,1,1,1h0a1.00319,1.00319,0,0,1-1,1h0A1.00319,1.00319,0,0,1,22,34Zm0-4a1.00288,1.00288,0,0,1,1-1h0a1.00288,1.00288,0,0,1,1,1h0a1.00319,1.00319,0,0,1-1,1h0A1.00319,1.00319,0,0,1,22,30Z" style="fill:#6d6daa"/><path d="M54.999,43h-18a3.00328,3.00328,0,0,1-3-3V36a3.00328,3.00328,0,0,1,3-3h18a3.00328,3.00328,0,0,1,3,3v4A3.00328,3.00328,0,0,1,54.999,43Zm-18-8a1.001,1.001,0,0,0-1,1v4a1.001,1.001,0,0,0,1,1h18a1.001,1.001,0,0,0,1-1V36a1.001,1.001,0,0,0-1-1Z" style="fill:#6d6daa"/><path d="M54.999,59h-18a3.00328,3.00328,0,0,1-3-3V52a3.00328,3.00328,0,0,1,3-3h18a3.00328,3.00328,0,0,1,3,3v4A3.00328,3.00328,0,0,1,54.999,59Zm-18-8a1.001,1.001,0,0,0-1,1v4a1.001,1.001,0,0,0,1,1h18a1.001,1.001,0,0,0,1-1V52a1.001,1.001,0,0,0-1-1Z" style="fill:#6d6daa"/></svg>