<?xml version="1.0" ?><svg height="60" id="Sport" viewBox="0 0 60 60" width="60" xmlns="http://www.w3.org/2000/svg"><title/><polygon points="57 16 57 7 48 7 39 7 30 7 21 7 12 7 3 7 3 16 3 25 12 25 21 25 30 25 39 25 48 25 57 25 57 16" style="fill:#eef6ff"/><rect height="18" style="fill:#eef6ff" width="54" x="3" y="6.99967"/><rect height="9" style="fill:#939fc6" width="9" x="48" y="15.99967"/><rect height="9" style="fill:#939fc6" width="9" x="39" y="6.99967"/><rect height="9" style="fill:#939fc6" width="9" x="30" y="15.99967"/><rect height="9" style="fill:#939fc6" width="9" x="21" y="6.99967"/><rect height="9" style="fill:#939fc6" width="9" x="12" y="15.99967"/><rect height="9" style="fill:#939fc6" width="9" x="3" y="6.99967"/><rect height="18" style="fill:#2c4b75;opacity:0.2" width="5" x="16" y="6.99967"/><rect height="18" style="fill:#2c4b75;opacity:0.2" width="5" x="52" y="6.99967"/><rect height="18" style="fill:#fff;opacity:0.75" width="5" x="3" y="6.99967"/><rect height="18" style="fill:#fff;opacity:0.75" width="5" x="39" y="6.99967"/><path d="M5.00019,56.9997V54.9996a1,1,0,0,0-1-1h-2a1,1,0,0,0-1,1v2.0001Z" style="fill:#ced8ee"/><path d="M59.00019,56.9997V54.9996a1,1,0,0,0-1-1h-2a1,1,0,0,0-1,1v2.0001Z" style="fill:#ced8ee"/><path d="M3,55a.99942.99942,0,0,1-1-1V3A1,1,0,0,1,4,3V54A.99942.99942,0,0,1,3,55Z" style="fill:#6d6daa"/><path d="M57,26H3a.99942.99942,0,0,1-1-1V7A.99942.99942,0,0,1,3,6H57a.99942.99942,0,0,1,1,1V25A.99942.99942,0,0,1,57,26ZM4,24H56V8H4Z" style="fill:#6d6daa"/><path d="M21,26a.99942.99942,0,0,1-1-1V7a1,1,0,0,1,2,0V25A.99942.99942,0,0,1,21,26Z" style="fill:#6d6daa"/><path d="M12,26a.99942.99942,0,0,1-1-1V7a1,1,0,0,1,2,0V25A.99942.99942,0,0,1,12,26Z" style="fill:#6d6daa"/><path d="M30,26a.99942.99942,0,0,1-1-1V7a1,1,0,0,1,2,0V25A.99942.99942,0,0,1,30,26Z" style="fill:#6d6daa"/><path d="M39,26a.99942.99942,0,0,1-1-1V7a1,1,0,0,1,2,0V25A.99942.99942,0,0,1,39,26Z" style="fill:#6d6daa"/><path d="M48,26a.99942.99942,0,0,1-1-1V7a1,1,0,0,1,2,0V25A.99942.99942,0,0,1,48,26Z" style="fill:#6d6daa"/><path d="M57,17H3a1,1,0,0,1,0-2H57a1,1,0,0,1,0,2Z" style="fill:#6d6daa"/><g style="opacity:0.5"><path d="M3,17a1,1,0,0,1-.707-1.707l9-9A.99989.99989,0,0,1,12.707,7.707l-9,9A.99676.99676,0,0,1,3,17Z" style="fill:#6d6daa"/><path d="M3,13a1,1,0,0,1-.707-1.707l5-5A.99989.99989,0,0,1,8.707,7.707l-5,5A.99676.99676,0,0,1,3,13Z" style="fill:#6d6daa"/><path d="M7,17a1,1,0,0,1-.707-1.707l5-5A.99989.99989,0,0,1,12.707,11.707l-5,5A.99676.99676,0,0,1,7,17Z" style="fill:#6d6daa"/><path d="M12,26a1,1,0,0,1-.707-1.707l9-9A.99989.99989,0,0,1,21.707,16.707l-9,9A.99676.99676,0,0,1,12,26Z" style="fill:#6d6daa"/><path d="M12,22a1,1,0,0,1-.707-1.707l5-5A.99989.99989,0,0,1,17.707,16.707l-5,5A.99676.99676,0,0,1,12,22Z" style="fill:#6d6daa"/><path d="M16,26a1,1,0,0,1-.707-1.707l5-5A.99989.99989,0,0,1,21.707,20.707l-5,5A.99676.99676,0,0,1,16,26Z" style="fill:#6d6daa"/><path d="M21,17a1,1,0,0,1-.707-1.707l9-9A.99989.99989,0,0,1,30.707,7.707l-9,9A.99676.99676,0,0,1,21,17Z" style="fill:#6d6daa"/><path d="M21,13a1,1,0,0,1-.707-1.707l5-5A.99989.99989,0,0,1,26.707,7.707l-5,5A.99676.99676,0,0,1,21,13Z" style="fill:#6d6daa"/><path d="M25,17a1,1,0,0,1-.707-1.707l5-5A.99989.99989,0,0,1,30.707,11.707l-5,5A.99676.99676,0,0,1,25,17Z" style="fill:#6d6daa"/><path d="M30,26a1,1,0,0,1-.707-1.707l9-9A.99989.99989,0,0,1,39.707,16.707l-9,9A.99676.99676,0,0,1,30,26Z" style="fill:#6d6daa"/><path d="M30,22a1,1,0,0,1-.707-1.707l5-5A.99989.99989,0,0,1,35.707,16.707l-5,5A.99676.99676,0,0,1,30,22Z" style="fill:#6d6daa"/><path d="M34,26a1,1,0,0,1-.707-1.707l5-5A.99989.99989,0,0,1,39.707,20.707l-5,5A.99676.99676,0,0,1,34,26Z" style="fill:#6d6daa"/><path d="M48,26a1,1,0,0,1-.707-1.707l9-9A.99989.99989,0,0,1,57.707,16.707l-9,9A.99676.99676,0,0,1,48,26Z" style="fill:#6d6daa"/><path d="M48,22a1,1,0,0,1-.707-1.707l5-5A.99989.99989,0,0,1,53.707,16.707l-5,5A.99676.99676,0,0,1,48,22Z" style="fill:#6d6daa"/><path d="M52,26a1,1,0,0,1-.707-1.707l5-5A.99989.99989,0,0,1,57.707,20.707l-5,5A.99676.99676,0,0,1,52,26Z" style="fill:#6d6daa"/><path d="M39,17a1,1,0,0,1-.707-1.707l9-9A.99989.99989,0,0,1,48.707,7.707l-9,9A.99676.99676,0,0,1,39,17Z" style="fill:#6d6daa"/><path d="M39,13a1,1,0,0,1-.707-1.707l5-5A.99989.99989,0,0,1,44.707,7.707l-5,5A.99676.99676,0,0,1,39,13Z" style="fill:#6d6daa"/><path d="M43,17a1,1,0,0,1-.707-1.707l5-5A.99989.99989,0,0,1,48.707,11.707l-5,5A.99676.99676,0,0,1,43,17Z" style="fill:#6d6daa"/></g><path d="M57,55a.99942.99942,0,0,1-1-1V3a1,1,0,0,1,2,0V54A.99942.99942,0,0,1,57,55Z" style="fill:#6d6daa"/><path d="M10,56a.99042.99042,0,0,1-1-1,.8316.8316,0,0,1,.08008-.37988.90089.90089,0,0,1,.54-.54,1.00158,1.00158,0,0,1,1.08984.21,1.02891,1.02891,0,0,1,.21.33008.9411.9411,0,0,1,0,.75977.90089.90089,0,0,1-.54.54A.84442.84442,0,0,1,10,56Z" style="fill:#6d6daa"/><path d="M8,58a.99042.99042,0,0,1-1-1,1.5368,1.5368,0,0,1,.01953-.2002.65059.65059,0,0,1,.06055-.17969.74163.74163,0,0,1,.08984-.18066L7.29,56.29l.14941-.12012a.74163.74163,0,0,1,.18066-.08984.65059.65059,0,0,1,.17969-.06055.87441.87441,0,0,1,.38965,0,.62094.62094,0,0,1,.19043.06055.5469.5469,0,0,1,.16992.08984c.05957.04.11035.08008.16016.12012l.12012.14941a.77846.77846,0,0,1,.08984.18066.61691.61691,0,0,1,.05957.17969A1.39255,1.39255,0,0,1,9,57a.99042.99042,0,0,1-1,1Z" style="fill:#6d6daa"/><path d="M12,58a.99042.99042,0,0,1-1-1,.8316.8316,0,0,1,.08008-.37988.90089.90089,0,0,1,.54-.54.99419.99419,0,0,1,.75977,0,1.03963,1.03963,0,0,1,.33008.21A1.05235,1.05235,0,0,1,13,57a.99042.99042,0,0,1-1,1Z" style="fill:#6d6daa"/><path d="M14,56a.99018.99018,0,0,1-.71-.29,1.49917,1.49917,0,0,1-.2207-.33008A.989.989,0,0,1,13,55a1.04778,1.04778,0,0,1,.29-.71,1.02891,1.02891,0,0,1,.33008-.21.98243.98243,0,0,1,1.08008.21.97409.97409,0,0,1,.21973,1.08984,1.01181,1.01181,0,0,1-.21973.33008A1.0413,1.0413,0,0,1,14,56Z" style="fill:#6d6daa"/><path d="M18,56a.99953.99953,0,0,1-.37988-.08008,1.14723,1.14723,0,0,1-.33008-.21A.98946.98946,0,0,1,17,55a.8316.8316,0,0,1,.08008-.37988,1.02891,1.02891,0,0,1,.21-.33008,1.61012,1.61012,0,0,1,.14941-.12012.74163.74163,0,0,1,.18066-.08984.65059.65059,0,0,1,.17969-.06055.95518.95518,0,0,1,.58008.06055,1.16058,1.16058,0,0,1,.33008.21A1.05235,1.05235,0,0,1,19,55a.99042.99042,0,0,1-1,1Z" style="fill:#6d6daa"/><path d="M16,58a.99042.99042,0,0,1-1-1,1.04778,1.04778,0,0,1,.29-.71,1.01556,1.01556,0,0,1,1.08984-.21,1.03963,1.03963,0,0,1,.33008.21A1.05235,1.05235,0,0,1,17,57a.99347.99347,0,0,1-.29.71,1.16058,1.16058,0,0,1-.33008.21A.99953.99953,0,0,1,16,58Z" style="fill:#6d6daa"/><path d="M20,58a.99018.99018,0,0,1-.71-.29,1.16058,1.16058,0,0,1-.21-.33008A.8316.8316,0,0,1,19,57a1.04778,1.04778,0,0,1,.29-.71,1.02891,1.02891,0,0,1,.33008-.21,1.00158,1.00158,0,0,1,1.08984.21,1.14723,1.14723,0,0,1,.21.33008.9411.9411,0,0,1,0,.75977.90089.90089,0,0,1-.54.54A.99953.99953,0,0,1,20,58Z" style="fill:#6d6daa"/><path d="M22,56a.99953.99953,0,0,1-.37988-.08008,1.02891,1.02891,0,0,1-.33008-.21A.98946.98946,0,0,1,21,55a1.04778,1.04778,0,0,1,.29-.71.93277.93277,0,0,1,.33008-.21.99781.99781,0,0,1,1.08984.21A1.05235,1.05235,0,0,1,23,55a.99347.99347,0,0,1-.29.71,1.16058,1.16058,0,0,1-.33008.21A.99953.99953,0,0,1,22,56Z" style="fill:#6d6daa"/><path d="M26,56a.99953.99953,0,0,1-.37988-.08008,1.14723,1.14723,0,0,1-.33008-.21A.98946.98946,0,0,1,25,55a1,1,0,1,1,2,0,.99347.99347,0,0,1-.29.71,1.16058,1.16058,0,0,1-.33008.21A.99953.99953,0,0,1,26,56Z" style="fill:#6d6daa"/><path d="M24,58a.99018.99018,0,0,1-.71-.29,1.16058,1.16058,0,0,1-.21-.33008.9411.9411,0,0,1,0-.75977,1.14723,1.14723,0,0,1,.21-.33008,1.02891,1.02891,0,0,1,.33008-.21.91321.91321,0,0,1,.75977,0,1.16058,1.16058,0,0,1,.33008.21A1.05235,1.05235,0,0,1,25,57a.84442.84442,0,0,1-.08008.37988,1.16058,1.16058,0,0,1-.21.33008A.99347.99347,0,0,1,24,58Z" style="fill:#6d6daa"/><path d="M28,58a.99953.99953,0,0,1-.37988-.08008,1.14723,1.14723,0,0,1-.33008-.21,1.49917,1.49917,0,0,1-.2207-.33008A.989.989,0,0,1,27,57a1.04778,1.04778,0,0,1,.29-.71,1.01009,1.01009,0,0,1,.91016-.27051.66149.66149,0,0,1,.17969.06055.5469.5469,0,0,1,.16992.08984A.97966.97966,0,0,1,28.71,56.29,1.05235,1.05235,0,0,1,29,57a.84442.84442,0,0,1-.08008.37988,1.16058,1.16058,0,0,1-.21.33008A.99347.99347,0,0,1,28,58Z" style="fill:#6d6daa"/><path d="M30,56a.99042.99042,0,0,1-1-1,1,1,0,1,1,2,0,.84442.84442,0,0,1-.08008.37988,1.16058,1.16058,0,0,1-.21.33008A.99347.99347,0,0,1,30,56Z" style="fill:#6d6daa"/><path d="M34,56a.99042.99042,0,0,1-1-1,1,1,0,1,1,2,0,.99042.99042,0,0,1-1,1Z" style="fill:#6d6daa"/><path d="M32,58a.99042.99042,0,0,1-1-1,1.04778,1.04778,0,0,1,.29-.71.99818.99818,0,0,1,.89941-.27051.62094.62094,0,0,1,.19043.06055.736.736,0,0,1,.17969.08984A1.61883,1.61883,0,0,1,32.71,56.29,1.05235,1.05235,0,0,1,33,57a.99042.99042,0,0,1-1,1Z" style="fill:#6d6daa"/><path d="M36,58a.99042.99042,0,0,1-1-1,.8316.8316,0,0,1,.08008-.37988,1.02891,1.02891,0,0,1,.21-.33008,1.04669,1.04669,0,0,1,1.41992,0,1.02891,1.02891,0,0,1,.21.33008A.99013.99013,0,0,1,36,58Z" style="fill:#6d6daa"/><path d="M38,56a.99953.99953,0,0,1-.37988-.08008,1.14723,1.14723,0,0,1-.33008-.21A.98946.98946,0,0,1,37,55a.8316.8316,0,0,1,.08008-.37988,1.02891,1.02891,0,0,1,.21-.33008,1.04669,1.04669,0,0,1,1.41992,0,1.02891,1.02891,0,0,1,.21.33008A.9892.9892,0,0,1,38.71,55.71a1.16058,1.16058,0,0,1-.33008.21A.99953.99953,0,0,1,38,56Z" style="fill:#6d6daa"/><path d="M40,58a.99953.99953,0,0,1-.37988-.08008,1.14723,1.14723,0,0,1-.33008-.21,1.49917,1.49917,0,0,1-.2207-.33008A.989.989,0,0,1,39,57a.8316.8316,0,0,1,.08008-.37988,1.02891,1.02891,0,0,1,.21-.33008,1.04668,1.04668,0,0,1,1.41992,0,1.02891,1.02891,0,0,1,.21.33008.9411.9411,0,0,1,0,.75977,1.16058,1.16058,0,0,1-.21.33008A.99347.99347,0,0,1,40,58Z" style="fill:#6d6daa"/><path d="M42,56a.99018.99018,0,0,1-.71-.29,1.16058,1.16058,0,0,1-.21-.33008A.99953.99953,0,0,1,41,55a1.04778,1.04778,0,0,1,.29-.71,1.02891,1.02891,0,0,1,.33008-.21,1.01592,1.01592,0,0,1,1.08984.21A1.05235,1.05235,0,0,1,43,55a.99042.99042,0,0,1-1,1Z" style="fill:#6d6daa"/><path d="M46,56a.99018.99018,0,0,1-.71-.29,1.49917,1.49917,0,0,1-.2207-.33008A.989.989,0,0,1,45,55a1.02775,1.02775,0,0,1,.29-.71,1.04669,1.04669,0,0,1,1.41992,0A1.03212,1.03212,0,0,1,47,55a.99953.99953,0,0,1-.08008.37988,1.16058,1.16058,0,0,1-.21.33008A.99347.99347,0,0,1,46,56Z" style="fill:#6d6daa"/><path d="M44,58a.99953.99953,0,0,1-.37988-.08008,1.14723,1.14723,0,0,1-.33008-.21A.98946.98946,0,0,1,43,57a1,1,0,1,1,2,0,.99042.99042,0,0,1-1,1Z" style="fill:#6d6daa"/><path d="M48,58a.99042.99042,0,0,1-1-1,1,1,0,1,1,2,0,.99042.99042,0,0,1-1,1Z" style="fill:#6d6daa"/><path d="M50,56a.9898.9898,0,0,1-.91992-1.37988,1.02891,1.02891,0,0,1,.21-.33008A1,1,0,0,1,51,55a.99042.99042,0,0,1-1,1Z" style="fill:#6d6daa"/><path d="M52,58a.99953.99953,0,0,1-.37988-.08008,1.14723,1.14723,0,0,1-.33008-.21,1.16058,1.16058,0,0,1-.21-.33008A.99953.99953,0,0,1,51,57a1.5368,1.5368,0,0,1,.01953-.2002.65059.65059,0,0,1,.06055-.17969.74163.74163,0,0,1,.08984-.18066A1.61012,1.61012,0,0,1,51.29,56.29a.93277.93277,0,0,1,.33008-.21,1.00158,1.00158,0,0,1,1.08984.21A1.03212,1.03212,0,0,1,53,57a.99953.99953,0,0,1-.08008.37988.90089.90089,0,0,1-.54.54A.99953.99953,0,0,1,52,58Z" style="fill:#6d6daa"/><path d="M5,58H1a.99942.99942,0,0,1-1-1V55a2.00261,2.00261,0,0,1,2-2H4a2.00261,2.00261,0,0,1,2,2v2A.99942.99942,0,0,1,5,58ZM2,56H4V55H2Z" style="fill:#6d6daa"/><path d="M59,58H55a.99942.99942,0,0,1-1-1V55a2.00261,2.00261,0,0,1,2-2h2a2.00261,2.00261,0,0,1,2,2v2A.99942.99942,0,0,1,59,58Zm-3-2h2V55H56Z" style="fill:#6d6daa"/></svg>