<?xml version="1.0" ?><svg height="60" id="Layout_1" viewBox="0 0 60 60" width="60" xmlns="http://www.w3.org/2000/svg"><title/><path d="M13.00006,9V51h-10a2.00588,2.00588,0,0,1-2-2V11a2.00588,2.00588,0,0,1,2-2Z" style="fill:#ffd599"/><path d="M3.00006,9a2.00587,2.00587,0,0,0-2,2v3a2.00587,2.00587,0,0,1,2-2h10V9Z" style="fill:#fff;opacity:0.5"/><path d="M1.00006,46v3a2.00591,2.00591,0,0,0,2,2h10V48h-10A2.00591,2.00591,0,0,1,1.00006,46Z" style="fill:#750000;opacity:0.2"/><path d="M59.00006,11V49a2.00588,2.00588,0,0,1-2,2h-34l-10,8V1l10,8h34A2.00588,2.00588,0,0,1,59.00006,11Z" style="fill:#eef6ff"/><g style="opacity:0.2"><path d="M57.00006,48h-34l-10,8v3l10-8h34a2.00591,2.00591,0,0,0,2-2V46A2.00591,2.00591,0,0,1,57.00006,48Z" style="fill:#2c4b75"/><polygon points="23 51 13 59 13 51 13 9 13 1 23 9 23 51" style="fill:#2c4b75"/></g><path d="M57.00006,9a2.00587,2.00587,0,0,1,2,2v3a2.00587,2.00587,0,0,0-2-2h-34V9Z" style="fill:#fff;opacity:0.75"/><path d="M13,52H3a3.00328,3.00328,0,0,1-3-3V11A3.00328,3.00328,0,0,1,3,8H13a.99974.99974,0,0,1,1,1V51A.99974.99974,0,0,1,13,52ZM3,10a1.001,1.001,0,0,0-1,1V49a1.001,1.001,0,0,0,1,1h9V10Z" style="fill:#6d6daa"/><path d="M13,60a.99994.99994,0,0,1-1-1V1A1.00015,1.00015,0,0,1,13.62451.21875L23.35059,8H57a3.00328,3.00328,0,0,1,3,3V49a3.00328,3.00328,0,0,1-3,3H23.35059l-9.72607,7.78125A.99928.99928,0,0,1,13,60ZM14,3.08105V56.91895l8.37549-6.7002A1.0005,1.0005,0,0,1,23,50H57a1.001,1.001,0,0,0,1-1V11a1.001,1.001,0,0,0-1-1H23a1.0005,1.0005,0,0,1-.62451-.21875Z" style="fill:#6d6daa"/><path d="M51,31H27a1,1,0,0,1,0-2H51a1,1,0,0,1,0,2Z" style="fill:#6d6daa"/><path d="M27,31a1,1,0,0,1-.707-1.707l7-7A.99989.99989,0,0,1,34.707,23.707l-7,7A.99676.99676,0,0,1,27,31Z" style="fill:#6d6daa"/><path d="M34,38a.99676.99676,0,0,1-.707-.293l-7-7A.99989.99989,0,0,1,27.707,29.293l7,7A1,1,0,0,1,34,38Z" style="fill:#6d6daa"/></svg>