<?xml version="1.0" ?><svg data-name="Multimedia 3" height="60" id="Multimedia_3" viewBox="0 0 60 60" width="60" xmlns="http://www.w3.org/2000/svg"><title/><rect height="54" style="fill:#9eb2cc" width="18" x="2.9999" y="3"/><rect height="3" style="fill:#fff;opacity:0.5" width="18" x="2.99988" y="3"/><rect height="3" style="fill:#2c4b75;opacity:0.2" width="18" x="2.99988" y="54"/><path d="M21,40H3a1,1,0,0,1,0-2H21a1,1,0,0,1,0,2Z" style="fill:#6d6daa"/><rect height="30" style="fill:#fff" width="12" x="5.9999" y="6"/><path d="M18,37H6a.99974.99974,0,0,1-1-1V6A.99974.99974,0,0,1,6,5H18a.99974.99974,0,0,1,1,1V36A.99974.99974,0,0,1,18,37ZM7,35H17V7H7Z" style="fill:#6d6daa"/><path d="M15,22H9a1,1,0,0,1,0-2h6a1,1,0,0,1,0,2Z" style="fill:#6d6daa;opacity:0.5"/><path d="M15,26H9a1,1,0,0,1,0-2h6a1,1,0,0,1,0,2Z" style="fill:#6d6daa;opacity:0.5"/><path d="M13,18H11a1,1,0,0,1,0-2h2a1,1,0,0,1,0,2Z" style="fill:#6d6daa;opacity:0.5"/><path d="M12,10a.99042.99042,0,0,1-1-1,1.05006,1.05006,0,0,1,.29-.71.93069.93069,0,0,1,.32959-.21A1.002,1.002,0,0,1,12.71,8.29,1.05235,1.05235,0,0,1,13,9a.99042.99042,0,0,1-1,1Z" style="fill:#6d6daa;opacity:0.5"/><path d="M12,34a.8451.8451,0,0,1-.38037-.08008.90422.90422,0,0,1-.54-.54A.999.999,0,0,1,11,33a1.02993,1.02993,0,0,1,.29-.71,1.01753,1.01753,0,0,1,.90967-.27051.65357.65357,0,0,1,.18018.06055.73882.73882,0,0,1,.18018.08984A1.6816,1.6816,0,0,1,12.71,32.29c.04.0498.08008.09961.11963.14941a.762.762,0,0,1,.09033.18066.649.649,0,0,1,.06006.17969A1.54205,1.54205,0,0,1,13,33a.99146.99146,0,0,1-.29.71,1.15386,1.15386,0,0,1-.33008.21A.84442.84442,0,0,1,12,34Z" style="fill:#6d6daa;opacity:0.5"/><circle cx="11.9999" cy="48" r="5" style="fill:#2c4b75;opacity:0.400000005960465"/><rect height="54" style="fill:#d4edff" width="18" x="20.9999" y="3"/><rect height="3" style="fill:#fff;opacity:0.5" width="18" x="20.99988" y="3"/><rect height="3" style="fill:#2c4b75;opacity:0.2" width="18" x="20.99988" y="54"/><path d="M39,40H21a1,1,0,0,1,0-2H39a1,1,0,0,1,0,2Z" style="fill:#6d6daa"/><rect height="30" style="fill:#fff" width="12" x="23.9999" y="6"/><path d="M36,37H24a.99974.99974,0,0,1-1-1V6a.99974.99974,0,0,1,1-1H36a.99974.99974,0,0,1,1,1V36A.99974.99974,0,0,1,36,37ZM25,35H35V7H25Z" style="fill:#6d6daa"/><path d="M33,22H27a1,1,0,0,1,0-2h6a1,1,0,0,1,0,2Z" style="fill:#6d6daa;opacity:0.5"/><path d="M33,26H27a1,1,0,0,1,0-2h6a1,1,0,0,1,0,2Z" style="fill:#6d6daa;opacity:0.5"/><path d="M31,18H29a1,1,0,0,1,0-2h2a1,1,0,0,1,0,2Z" style="fill:#6d6daa;opacity:0.5"/><path d="M30,10a.99076.99076,0,0,1-.92041-1.37988A1.03019,1.03019,0,0,1,29.29,8.29,1,1,0,0,1,31,9a.99042.99042,0,0,1-1,1Z" style="fill:#6d6daa;opacity:0.5"/><path d="M30,34a.8451.8451,0,0,1-.38037-.08008.90422.90422,0,0,1-.54-.54A.999.999,0,0,1,29,33a1.02993,1.02993,0,0,1,.29-.71,1.00955,1.00955,0,0,1,.90967-.27051.65357.65357,0,0,1,.18018.06055.73882.73882,0,0,1,.18018.08984A1.6816,1.6816,0,0,1,30.71,32.29c.04.0498.08008.09961.11963.14941a.762.762,0,0,1,.09033.18066.649.649,0,0,1,.06006.17969A1.54205,1.54205,0,0,1,31,33a.99146.99146,0,0,1-.29.71,1.15386,1.15386,0,0,1-.33008.21A.84442.84442,0,0,1,30,34Z" style="fill:#6d6daa;opacity:0.5"/><circle cx="29.9999" cy="48" r="5" style="fill:#2c4b75;opacity:0.400000005960465"/><rect height="54" style="fill:#c9c1f5" width="18" x="38.9999" y="3"/><rect height="3" style="fill:#fff;opacity:0.5" width="18" x="38.99988" y="3"/><rect height="3" style="fill:#2c4b75;opacity:0.2" width="18" x="38.99988" y="54"/><path d="M21,58H3a.99974.99974,0,0,1-1-1V3A.99974.99974,0,0,1,3,2H21a.99974.99974,0,0,1,1,1V57A.99974.99974,0,0,1,21,58ZM4,56H20V4H4Z" style="fill:#6d6daa"/><path d="M39,58H21a.99974.99974,0,0,1-1-1V3a.99974.99974,0,0,1,1-1H39a.99974.99974,0,0,1,1,1V57A.99974.99974,0,0,1,39,58ZM22,56H38V4H22Z" style="fill:#6d6daa"/><path d="M57,58H39a.99974.99974,0,0,1-1-1V3a.99974.99974,0,0,1,1-1H57a.99974.99974,0,0,1,1,1V57A.99974.99974,0,0,1,57,58ZM40,56H56V4H40Z" style="fill:#6d6daa"/><path d="M57,40H39a1,1,0,0,1,0-2H57a1,1,0,0,1,0,2Z" style="fill:#6d6daa"/><rect height="30" style="fill:#fff" width="12" x="41.9999" y="6"/><path d="M54,37H42a.99974.99974,0,0,1-1-1V6a.99974.99974,0,0,1,1-1H54a.99974.99974,0,0,1,1,1V36A.99974.99974,0,0,1,54,37ZM43,35H53V7H43Z" style="fill:#6d6daa"/><path d="M51,22H45a1,1,0,0,1,0-2h6a1,1,0,0,1,0,2Z" style="fill:#6d6daa;opacity:0.5"/><path d="M51,26H45a1,1,0,0,1,0-2h6a1,1,0,0,1,0,2Z" style="fill:#6d6daa;opacity:0.5"/><path d="M49,18H47a1,1,0,0,1,0-2h2a1,1,0,0,1,0,2Z" style="fill:#6d6daa;opacity:0.5"/><path d="M48,10a.99042.99042,0,0,1-1-1,1.05006,1.05006,0,0,1,.29-.71,1.15153,1.15153,0,0,1,.32959-.21A.9986.9986,0,0,1,48.71,8.29,1.05235,1.05235,0,0,1,49,9a.99042.99042,0,0,1-1,1Z" style="fill:#6d6daa;opacity:0.5"/><path d="M48,34a.8451.8451,0,0,1-.38037-.08008.90422.90422,0,0,1-.54-.54A.999.999,0,0,1,47,33a1.02993,1.02993,0,0,1,.29-.71,1.00955,1.00955,0,0,1,.90967-.27051.65357.65357,0,0,1,.18018.06055.73882.73882,0,0,1,.18018.08984A1.6816,1.6816,0,0,1,48.71,32.29,1.05235,1.05235,0,0,1,49,33a.99146.99146,0,0,1-.29.71,1.15386,1.15386,0,0,1-.33008.21A.84442.84442,0,0,1,48,34Z" style="fill:#6d6daa;opacity:0.5"/><circle cx="47.9999" cy="48" r="5" style="fill:#2c4b75;opacity:0.400000005960465"/><path d="M12,54a6,6,0,1,1,6-6A6.00656,6.00656,0,0,1,12,54Zm0-10a4,4,0,1,0,4,4A4.00427,4.00427,0,0,0,12,44Z" style="fill:#6d6daa"/><path d="M30,54a6,6,0,1,1,6-6A6.00656,6.00656,0,0,1,30,54Zm0-10a4,4,0,1,0,4,4A4.00427,4.00427,0,0,0,30,44Z" style="fill:#6d6daa"/><path d="M48,54a6,6,0,1,1,6-6A6.00656,6.00656,0,0,1,48,54Zm0-10a4,4,0,1,0,4,4A4.00427,4.00427,0,0,0,48,44Z" style="fill:#6d6daa"/></svg>
