<?xml version="1.0" ?><svg data-name="001" id="_001" viewBox="0 0 128 128" xmlns="http://www.w3.org/2000/svg"><defs><style>.cls-1{opacity:0.3;}.cls-2{fill:#96d7ff;}.cls-3{fill:#f2eed5;}.cls-4{fill:#6d6daa;}.cls-5{fill:#fffad1;}.cls-6{fill:#e0f3ff;}.cls-17,.cls-7{fill:#c9c1f5;}.cls-8{fill:#ff968c;}.cls-9{fill:#fff2cc;}.cls-10{fill:#ff9797;}.cls-11{fill:#fff9e0;}.cls-12{fill:#ced8ee;}.cls-13{fill:#eef6ff;}.cls-14,.cls-18{fill:#fff;}.cls-15{opacity:0.5;}.cls-16{fill:#b1f1a8;}.cls-17,.cls-18,.cls-19{fill-rule:evenodd;}.cls-19{fill:#554dad;}.cls-20{fill:#2b5c8e;}.cls-21{fill:#939fc6;}.cls-22{fill:#7690a8;}.cls-23{fill:#fff27d;}.cls-24{fill:#ff99b1;}</style></defs><title/><g class="cls-1"><path class="cls-2" d="M126.19,51.69a30,30,0,0,0-23.51-25,19.69,19.69,0,0,1-10.93-6.55A37,37,0,0,0,27.42,35.78,19.57,19.57,0,0,1,17,48.94,28,28,0,1,0,54.66,86.29,9.41,9.41,0,0,1,63.17,81H64a12.39,12.39,0,0,1,12,9.74,20,20,0,0,0,26.06,14.14A20,20,0,0,0,115.47,87,21.38,21.38,0,0,1,120,74.65,29.91,29.91,0,0,0,126.19,51.69Z"/><rect class="cls-3" height="21" width="6" x="85" y="42"/><path class="cls-4" d="M91,64H85a1,1,0,0,1-1-1V42a1,1,0,0,1,1-1h6a1,1,0,0,1,1,1V63A1,1,0,0,1,91,64Zm-5-2h4V43H86Z"/><rect class="cls-5" height="6" width="44" x="79" y="63"/><path class="cls-4" d="M123,70H79a1,1,0,0,1-1-1V63a1,1,0,0,1,1-1h44a1,1,0,0,1,1,1v6A1,1,0,0,1,123,70ZM80,68h42V64H80Z"/><rect class="cls-6" height="21" width="6" x="102" y="3"/><path class="cls-4" d="M108,25h-6a1,1,0,0,1-1-1V3a1,1,0,0,1,1-1h6a1,1,0,0,1,1,1V24A1,1,0,0,1,108,25Zm-5-2h4V4h-4Z"/><rect class="cls-7" height="12" width="15" x="82" y="12"/><path class="cls-4" d="M97,25H82a1,1,0,0,1-1-1V12a1,1,0,0,1,1-1H97a1,1,0,0,1,1,1V24A1,1,0,0,1,97,25ZM83,23H96V13H83Z"/><rect class="cls-7" height="5" width="17" x="81" y="7"/><path class="cls-4" d="M98,13H81a1,1,0,0,1-1-1V7a1,1,0,0,1,1-1H98a1,1,0,0,1,1,1v5A1,1,0,0,1,98,13ZM82,11H97V8H82Z"/><rect class="cls-8" height="21" width="6" x="108" y="3"/><path class="cls-4" d="M114,25h-6a1,1,0,0,1-1-1V3a1,1,0,0,1,1-1h6a1,1,0,0,1,1,1V24A1,1,0,0,1,114,25Zm-5-2h4V4h-4Z"/><rect class="cls-6" height="21" width="6" x="97" y="42"/><path class="cls-4" d="M103,64H97a1,1,0,0,1-1-1V42a1,1,0,0,1,1-1h6a1,1,0,0,1,1,1V63A1,1,0,0,1,103,64Zm-5-2h4V43H98Z"/><rect class="cls-8" height="21" width="6" x="91" y="42"/><path class="cls-4" d="M97,64H91a1,1,0,0,1-1-1V42a1,1,0,0,1,1-1h6a1,1,0,0,1,1,1V63A1,1,0,0,1,97,64Zm-5-2h4V43H92Z"/><rect class="cls-9" height="21" width="6" x="114" y="3"/><path class="cls-4" d="M120,25h-6a1,1,0,0,1-1-1V3a1,1,0,0,1,1-1h6a1,1,0,0,1,1,1V24A1,1,0,0,1,120,25Zm-5-2h4V4h-4Z"/><rect class="cls-5" height="6" width="44" x="79" y="24"/><path class="cls-4" d="M123,31H79a1,1,0,0,1-1-1V24a1,1,0,0,1,1-1h44a1,1,0,0,1,1,1v6A1,1,0,0,1,123,31ZM80,29h42V25H80Z"/><path class="cls-4" d="M92,17H87a1,1,0,1,1,0-2h5a1,1,0,0,1,0,2Z"/><circle class="cls-5" cx="53.98" cy="31.26" r="7" transform="translate(-6.3 47.33) rotate(-45)"/><path class="cls-4" d="M54,39.26a8,8,0,1,1,5.66-2.34h0A8,8,0,0,1,54,39.26Zm0-14A6,6,0,1,0,58.22,27,6,6,0,0,0,54,25.27Zm5,10.95h0Z"/><path class="cls-10" d="M60.23,16h-8.5L44.58,8.85a9.2,9.2,0,0,0-12.51-.63,9,9,0,0,0-.44,13.14L39,28.73v8.5A6.8,6.8,0,0,0,41,42l1.54,1.54,24-24L65,18A6.8,6.8,0,0,0,60.23,16Z"/><g class="cls-1"><path class="cls-11" d="M43,24.73l-7.36-7.36a9,9,0,0,1-2-9.69,8.62,8.62,0,0,0-1.34.66,9,9,0,0,0,1.33,11L41,26.73l2-2Z"/></g><g class="cls-1"><path class="cls-11" d="M43,24.73l-2,2,1,7.5A6.8,6.8,0,0,0,44,39l1.54,1.54,3-3C45,36.38,43.38,31.74,43,24.73Z"/></g><path class="cls-4" d="M42.54,44.58a1,1,0,0,1-.71-.29l-1.54-1.54A7.75,7.75,0,0,1,38,37.23V29.14l-7.07-7.07A10,10,0,0,1,28,14.67a9.92,9.92,0,0,1,3.41-7.2,10.18,10.18,0,0,1,13.88.67L52.14,15h8.08a7.75,7.75,0,0,1,5.51,2.28l1.54,1.54a1,1,0,0,1,0,1.41l-24,24A1,1,0,0,1,42.54,44.58ZM37.9,7.06A7.78,7.78,0,0,0,32.73,9a8,8,0,0,0-.39,11.68L39.71,28a1,1,0,0,1,.29.71v8.5a5.76,5.76,0,0,0,1.7,4.1l.84.84L65.16,19.54l-.84-.84a5.76,5.76,0,0,0-4.1-1.7h-8.5a1,1,0,0,1-.71-.29L43.88,9.56A8.47,8.47,0,0,0,37.9,7.06Z"/><path class="cls-4" d="M49.5,19.5a1,1,0,0,1-.71-1.71l2.5-2.5a1,1,0,0,1,1.41,1.41l-2.5,2.5A1,1,0,0,1,49.5,19.5Z"/><path class="cls-4" d="M39,30a1,1,0,0,1-.71-1.71l6.5-6.5a1,1,0,0,1,1.41,1.41l-6.5,6.5A1,1,0,0,1,39,30Z"/><path class="cls-4" d="M29,28a1,1,0,0,1-.71-1.71l4-4a1,1,0,0,1,1.41,1.41l-4,4A1,1,0,0,1,29,28Z"/><polygon class="cls-12" points="8.69 55.53 21 83 17 85 4.41 57.12 8.69 55.53"/><path class="cls-4" d="M17,86a1,1,0,0,1-.91-.59L3.5,57.53a1,1,0,0,1,.57-1.35L8.34,54.6a1,1,0,0,1,1.26.53L21.91,82.59a1,1,0,0,1-.47,1.3l-4,2A1,1,0,0,1,17,86ZM5.76,57.68l11.72,26,2.21-1.11L8.16,56.8Z"/><path class="cls-12" d="M35,94H3V92a2,2,0,0,1,2-2H33a2,2,0,0,1,2,2Z"/><path class="cls-4" d="M35,95H3a1,1,0,0,1-1-1V92a3,3,0,0,1,3-3H33a3,3,0,0,1,3,3v2A1,1,0,0,1,35,95ZM4,93H34V92a1,1,0,0,0-1-1H5a1,1,0,0,0-1,1Z"/><path class="cls-13" d="M28,90H8a8,8,0,0,1,8-8h6a8,8,0,0,1,8,8Z"/><path class="cls-14" d="M16,85h6a8,8,0,0,1,7.41,5H30a8,8,0,0,0-8-8H16a8,8,0,0,0-8,8h.59A8,8,0,0,1,16,85Z"/><path class="cls-4" d="M28,91H8a1,1,0,0,1-1-1,9,9,0,0,1,9-9h6a9,9,0,0,1,9,9,1,1,0,0,1-1,1ZM9.06,89H28.92A7,7,0,0,0,22,83H16A7,7,0,0,0,9.06,89Z"/><polygon class="cls-12" points="26.01 32.23 9.03 55.53 5.28 54.79 24.39 30.97 26.01 32.23"/><path class="cls-4" d="M9,56.53l-.19,0-3.75-.74a1,1,0,0,1-.59-1.61L23.61,30.34A1,1,0,0,1,25,30.18l1.62,1.26a1,1,0,0,1,.19,1.38l-17,23.31A1,1,0,0,1,9,56.53Zm-1.94-2.4,1.5.3,16-22-.08-.06Z"/><circle class="cls-13" cx="7" cy="57" r="4"/><path class="cls-4" d="M7,62a5,5,0,1,1,5-5A5,5,0,0,1,7,62Zm0-8a3,3,0,1,0,3,3A3,3,0,0,0,7,54Z"/><path class="cls-4" d="M22.87,28.25A1,1,0,0,1,22.2,28l-3.73-3.4a1,1,0,0,1,1.35-1.48l3.73,3.4a1,1,0,0,1-.67,1.74Z"/><path class="cls-4" d="M19,88a1,1,0,0,1-1-1V86a1,1,0,0,1,2,0v1A1,1,0,0,1,19,88Z"/><circle class="cls-13" cx="26" cy="30" r="4"/><path class="cls-4" d="M26,35a5,5,0,1,1,5-5A5,5,0,0,1,26,35Zm0-8a3,3,0,1,0,3,3A3,3,0,0,0,26,27Z"/><g class="cls-15"><path class="cls-4" d="M114,8h-6a1,1,0,0,1,0-2h6a1,1,0,0,1,0,2Z"/><path class="cls-4" d="M114,21h-6a1,1,0,0,1,0-2h6a1,1,0,0,1,0,2Z"/></g><g class="cls-15"><path class="cls-4" d="M120,8h-6a1,1,0,0,1,0-2h6a1,1,0,0,1,0,2Z"/><path class="cls-4" d="M120,21h-6a1,1,0,0,1,0-2h6a1,1,0,0,1,0,2Z"/></g><g class="cls-15"><path class="cls-4" d="M108,8h-6a1,1,0,0,1,0-2h6a1,1,0,0,1,0,2Z"/><path class="cls-4" d="M108,21h-6a1,1,0,0,1,0-2h6a1,1,0,0,1,0,2Z"/></g><g class="cls-15"><path class="cls-4" d="M97,47H91a1,1,0,0,1,0-2h6a1,1,0,0,1,0,2Z"/><path class="cls-4" d="M97,60H91a1,1,0,0,1,0-2h6a1,1,0,0,1,0,2Z"/></g><g class="cls-15"><path class="cls-4" d="M103,47H97a1,1,0,0,1,0-2h6a1,1,0,0,1,0,2Z"/><path class="cls-4" d="M103,60H97a1,1,0,0,1,0-2h6a1,1,0,0,1,0,2Z"/></g><g class="cls-15"><path class="cls-4" d="M91,47H85a1,1,0,0,1,0-2h6a1,1,0,0,1,0,2Z"/><path class="cls-4" d="M91,60H85a1,1,0,0,1,0-2h6a1,1,0,0,1,0,2Z"/></g><path class="cls-4" d="M87,126H33a1,1,0,1,1,0-2H87a1,1,0,0,1,0,2Z"/><path class="cls-4" d="M115,126H90a1,1,0,0,1,0-2h25a1,1,0,0,1,0,2Z"/><path class="cls-4" d="M30,126H18a1,1,0,0,1,0-2H30a1,1,0,0,1,0,2Z"/><path class="cls-16" d="M121.73,51A26.56,26.56,0,0,0,123,42.73c0-5.3-2.91-8.74-6.5-8.74s-6.5,3.5-6.5,8.74A26.56,26.56,0,0,0,111.27,51Z"/><g class="cls-15"><path class="cls-14" d="M118.51,34.38a5.43,5.43,0,0,0-2-.39c-3.59,0-6.5,3.5-6.5,8.74A26.56,26.56,0,0,0,111.27,51h4A26.56,26.56,0,0,1,114,42.73C114,38.51,115.89,35.42,118.51,34.38Z"/></g><path class="cls-4" d="M121.73,52H111.27a1,1,0,0,1-.95-.68A27.42,27.42,0,0,1,109,42.73c0-5.64,3.15-9.74,7.5-9.74s7.5,4.09,7.5,9.74a27.42,27.42,0,0,1-1.32,8.59A1,1,0,0,1,121.73,52ZM112,50h9a26,26,0,0,0,1-7.26c0-4.48-2.31-7.74-5.5-7.74s-5.5,3.25-5.5,7.74A26,26,0,0,0,112,50Z"/><path class="cls-4" d="M111.5,39.5a1,1,0,0,1-.55-.17l-1.5-1a1,1,0,0,1,1.11-1.66l1.5,1a1,1,0,0,1-.56,1.83Z"/><path class="cls-4" d="M114.25,36.31a1,1,0,0,1-.73-.31l-1.24-1.31a1,1,0,1,1,1.45-1.37L115,34.62a1,1,0,0,1-.73,1.69Z"/><path class="cls-4" d="M118.75,36.31a1,1,0,0,1-.68-1.73l1.32-1.22a1,1,0,0,1,1.36,1.47L119.43,36A1,1,0,0,1,118.75,36.31Z"/><path class="cls-4" d="M110.5,45a1,1,0,0,1-.32-.05l-1.5-.5a1,1,0,0,1,.63-1.9l1.5.5A1,1,0,0,1,110.5,45Z"/><path class="cls-4" d="M110,50a1,1,0,0,1-.32-1.95l1.5-.5a1,1,0,0,1,.63,1.9l-1.5.5A1,1,0,0,1,110,50Z"/><path class="cls-4" d="M122,41a1,1,0,0,1-.56-1.83l1.5-1a1,1,0,1,1,1.11,1.66l-1.5,1A1,1,0,0,1,122,41Z"/><path class="cls-4" d="M123.5,44h-1a1,1,0,0,1,0-2h1a1,1,0,0,1,0,2Z"/><path class="cls-4" d="M114.5,47.5a1,1,0,0,1-.71-.29l-.5-.5a1,1,0,0,1,1.42-1.41l.5.5a1,1,0,0,1-.71,1.71Z"/><path class="cls-4" d="M114.5,41.5a1,1,0,0,1-.71-.29l-.5-.5a1,1,0,0,1,1.42-1.41l.5.5a1,1,0,0,1-.71,1.71Z"/><path class="cls-4" d="M118.5,44.5a1,1,0,0,1-.71-1.71l.5-.5a1,1,0,0,1,1.41,1.41l-.5.5A1,1,0,0,1,118.5,44.5Z"/><path class="cls-4" d="M118.5,39.5a1,1,0,0,1-.71-1.71l.5-.5a1,1,0,0,1,1.41,1.41l-.5.5A1,1,0,0,1,118.5,39.5Z"/><path class="cls-4" d="M118.5,49.5a1,1,0,0,1-.71-1.71l.5-.5a1,1,0,0,1,1.41,1.41l-.5.5A1,1,0,0,1,118.5,49.5Z"/><path class="cls-4" d="M123.5,48.5a1,1,0,0,1-.32-.05l-1.5-.5a1,1,0,0,1,.63-1.9l1.5.5a1,1,0,0,1-.32,1.95Z"/><polygon class="cls-17" points="122.5 63 110.5 63 109 54 124 54 122.5 63"/><g class="cls-15"><polygon class="cls-18" points="115 63 113 63 112 54 114 54 115 63"/></g><g class="cls-1"><polygon class="cls-19" points="123.5 57 124 54 109 54 109.5 57 123.5 57"/></g><path class="cls-4" d="M122.5,64h-12a1,1,0,0,1-1-.84l-1.5-9A1,1,0,0,1,109,53h15a1,1,0,0,1,1,1.16l-1.5,9A1,1,0,0,1,122.5,64Zm-11.15-2h10.31l1.17-7H110.18Z"/><rect class="cls-7" height="3" width="17" x="108" y="51"/><g class="cls-15"><rect class="cls-14" height="3" width="2" x="111" y="51"/></g><path class="cls-4" d="M125,55H108a1,1,0,0,1-1-1V51a1,1,0,0,1,1-1h17a1,1,0,0,1,1,1v3A1,1,0,0,1,125,55Zm-16-2h15V52H109Z"/></g><rect class="cls-12" height="12" width="26" x="51" y="113"/><path class="cls-4" d="M77,126H51a1,1,0,0,1-1-1V113a1,1,0,0,1,1-1H77a1,1,0,0,1,1,1v12A1,1,0,0,1,77,126Zm-25-2H76V114H52Z"/><g class="cls-1"><rect class="cls-20" height="4" width="24" x="52" y="113"/></g><path class="cls-4" d="M81,126H47a1,1,0,0,1,0-2H81a1,1,0,0,1,0,2Z"/><path class="cls-21" d="M20,41h90a4,4,0,0,1,4,4v58a0,0,0,0,1,0,0H16a0,0,0,0,1,0,0V45A4,4,0,0,1,20,41Z"/><rect class="cls-13" height="54" width="90" x="20" y="44.99"/><g class="cls-1"><rect class="cls-22" height="4" width="90" x="20" y="44.99"/></g><path class="cls-4" d="M110,100H20a1,1,0,0,1-1-1V45a1,1,0,0,1,1-1h90a1,1,0,0,1,1,1V99A1,1,0,0,1,110,100ZM21,98h88V46H21Z"/><path class="cls-4" d="M114,104H16a1,1,0,0,1-1-1V45a5,5,0,0,1,5-5h90a5,5,0,0,1,5,5v58A1,1,0,0,1,114,104Zm-97-2h96V45a3,3,0,0,0-3-3H20a3,3,0,0,0-3,3Z"/><path class="cls-13" d="M16,103h98a0,0,0,0,1,0,0v6a4,4,0,0,1-4,4H20a4,4,0,0,1-4-4v-6A0,0,0,0,1,16,103Z"/><path class="cls-4" d="M110,114H20a5,5,0,0,1-5-5v-6a1,1,0,0,1,1-1h98a1,1,0,0,1,1,1v6A5,5,0,0,1,110,114ZM17,104v5a3,3,0,0,0,3,3h90a3,3,0,0,0,3-3v-5Z"/><circle class="cls-23" cx="32" cy="57" r="6"/><path class="cls-4" d="M32,64a7,7,0,1,1,7-7A7,7,0,0,1,32,64Zm0-12a5,5,0,1,0,5,5A5,5,0,0,0,32,52Z"/><path class="cls-14" d="M33.12,54.34a6,6,0,0,1-2.05-.79c-.17-.17-.05.77-.21.84a1.55,1.55,0,0,0-1,1.91c0,.24.08.47.12.7a.5.5,0,0,0-.12.37,2.39,2.39,0,0,0,.27,1c0,.59.54,1.07.54,1.52,0,.18,0,.36,0,.53a.3.3,0,0,1-.25.31,5.19,5.19,0,0,0-2.26.9,6,6,0,0,0,7.68,0,5.19,5.19,0,0,0-2.26-.9.3.3,0,0,1-.25-.31c0-.17,0-.34,0-.53,0-.42.51-.93.54-1.52a2.39,2.39,0,0,0,.27-1A.5.5,0,0,0,34,57c0-.22.08-.45.12-.7A1.57,1.57,0,0,0,33.12,54.34Z"/><path class="cls-4" d="M32,64a7,7,0,0,1-4.48-1.62,1,1,0,0,1,0-1.55,5.68,5.68,0,0,1,2.11-1l-.11-.19a3.28,3.28,0,0,1-.39-1,3.23,3.23,0,0,1-.29-1.24,1.68,1.68,0,0,1,.08-.52l-.06-.36A2.5,2.5,0,0,1,30,53.74a1.18,1.18,0,0,1,.69-1.14,1.08,1.08,0,0,1,1.11.23,4.84,4.84,0,0,0,1.26.44l.43.12h0a2.55,2.55,0,0,1,1.66,3.09l-.06.36a1.68,1.68,0,0,1,.08.52,3.23,3.23,0,0,1-.29,1.24,3.4,3.4,0,0,1-.39,1.06l-.09.18a5.67,5.67,0,0,1,2.1,1,1,1,0,0,1,0,1.55A7,7,0,0,1,32,64Zm-1.61-2.27a5.05,5.05,0,0,0,3.23,0l-.21,0a1.31,1.31,0,0,1-1.08-1.34c0-.15,0-.31,0-.48a2.41,2.41,0,0,1,.35-1.12,1.74,1.74,0,0,0,.19-.46,1,1,0,0,1,.1-.39,1.85,1.85,0,0,0,.16-.45,1,1,0,0,1-.09-.64l.12-.69c.12-.67-.15-.77-.36-.84l-.26-.07c-.28-.07-.57-.15-.85-.24a1,1,0,0,1-.41.33c-.41.18-.51.31-.42.83l.12.69a1,1,0,0,1-.09.64,1.84,1.84,0,0,0,.16.45,1,1,0,0,1,.1.39,1.6,1.6,0,0,0,.18.43,2.42,2.42,0,0,1,.35,1.14c0,.17,0,.33,0,.49a1.31,1.31,0,0,1-1.08,1.34Zm-.71-1.3h0Zm4.65,0h0Z"/><g class="cls-15"><path class="cls-4" d="M30,94H26a1,1,0,0,1,0-2h4a1,1,0,1,1,0,2Z"/><path class="cls-4" d="M38,70H26a1,1,0,0,1,0-2H38a1,1,0,0,1,0,2Z"/><path class="cls-4" d="M38,76H26a1,1,0,0,1,0-2H38a1,1,0,0,1,0,2Z"/><path class="cls-4" d="M38,82H26a1,1,0,0,1,0-2H38a1,1,0,0,1,0,2Z"/><path class="cls-4" d="M38,94H34a1,1,0,0,1,0-2h4a1,1,0,0,1,0,2Z"/></g><rect class="cls-2" height="18" width="26" x="44" y="51"/><path class="cls-4" d="M70,70H44a1,1,0,0,1-1-1V51a1,1,0,0,1,1-1H70a1,1,0,0,1,1,1V69A1,1,0,0,1,70,70ZM45,68H69V52H45Z"/><rect class="cls-7" height="18" width="26" x="76.01" y="51"/><path class="cls-4" d="M102,70H76a1,1,0,0,1-1-1V51a1,1,0,0,1,1-1h26a1,1,0,0,1,1,1V69A1,1,0,0,1,102,70ZM77,68h24V52H77Z"/><rect class="cls-16" height="18" width="26" x="44" y="75"/><path class="cls-4" d="M70,94H44a1,1,0,0,1-1-1V75a1,1,0,0,1,1-1H70a1,1,0,0,1,1,1V93A1,1,0,0,1,70,94ZM45,92H69V76H45Z"/><rect class="cls-24" height="18" width="26" x="76.01" y="75"/><path class="cls-4" d="M102,94H76a1,1,0,0,1-1-1V75a1,1,0,0,1,1-1h26a1,1,0,0,1,1,1V93A1,1,0,0,1,102,94ZM77,92h24V76H77Z"/><path class="cls-14" d="M47,67a1,1,0,0,1-.93-1.37c1.69-4.31,3.56-5.32,4.83-5.41a2.49,2.49,0,0,1,2.36,1.27,1.67,1.67,0,0,0,1.45.54c.36,0,.78-.15.89-.43.82-2,2.31-4.61,5.73-4.61a4.93,4.93,0,0,1,3.38,1.51c.81.7,1.21,1,2,.78a1,1,0,1,1,.51,1.93A3.87,3.87,0,0,1,63.42,60a3.06,3.06,0,0,0-2.08-1c-1.76,0-2.88,1-3.88,3.38A2.89,2.89,0,0,1,54.84,64a3.58,3.58,0,0,1-3.31-1.54.48.48,0,0,0-.48-.27c-.7.05-1.94,1.17-3.11,4.15A1,1,0,0,1,47,67Z"/><path class="cls-14" d="M50.08,90a4.73,4.73,0,0,1-4-2.7,1,1,0,0,1,1.81-.85A2.71,2.71,0,0,0,50.08,88a.45.45,0,0,0,.16,0,3.84,3.84,0,0,0,.18-.75c.2-1.08.57-3.08,3.5-3.11H54a4.7,4.7,0,0,1,4.29,2.42c.52.75.7.95,1.13.95s.7-1,1-2.33a8.57,8.57,0,0,1,1.48-3.82C64,78.85,67.21,80,67.35,80.06a1,1,0,0,1-.7,1.88,3.12,3.12,0,0,0-3.27.7,7.14,7.14,0,0,0-1,2.94c-.37,1.74-.83,3.91-2.95,3.91a3.29,3.29,0,0,1-2.77-1.81,2.73,2.73,0,0,0-2.68-1.56c-1.28,0-1.36.44-1.55,1.47C52.23,88.43,51.95,90,50.08,90Z"/><path class="cls-14" d="M82,90.5c-2.13,0-2.74-1.48-3.39-3-.15-.37-.32-.77-.52-1.2a1,1,0,0,1,1.81-.85c.21.46.39.89.55,1.28.62,1.5.8,1.77,1.38,1.8a9.12,9.12,0,0,0,.45-1.92c.33-2,.79-4.7,3.24-4.7,1.86,0,2.76,1.43,3.35,2.38.11.17.25.4.36.55a3.61,3.61,0,0,0,.38-.42,2.38,2.38,0,0,1,1.73-1c1.27-.09,2.37,1,3.34,1.88a8.16,8.16,0,0,0,1.23,1,2.89,2.89,0,0,0,.28-.72,14.69,14.69,0,0,0,.42-4.68c0-1.21-.08-2.16.59-2.83a2.43,2.43,0,0,1,1.84-.56,1,1,0,0,1,1,1,1,1,0,0,1-1,1,1.61,1.61,0,0,0-.33,0,7.39,7.39,0,0,0,0,1.31,16.43,16.43,0,0,1-.49,5.28c-.12.46-.5,1.86-1.65,2.18s-2.19-.64-3.17-1.58c-.53-.51-1.38-1.33-1.81-1.33-.07,0-.18.09-.29.24a2.7,2.7,0,0,1-2.09,1.3c-1,0-1.47-.87-1.92-1.59-.56-.9-1-1.44-1.66-1.44s-1,1.37-1.27,3S83.66,90.5,82,90.5Z"/><path class="cls-14" d="M79,66H78.9a1,1,0,0,1-.89-1.1c.64-6,1-7.07,3.7-7.35h.15c1.72-.18,2.16,1.63,2.48,3,.43,1.78.76,2.58,1.58,2.65s1.26-.73,2-2,2-3.56,4.35-2.52a4.13,4.13,0,0,1,2.42,3.51c.18,1,.18,1,.83.92.82-.09,1.08-1.62,1.31-3.46.19-1.51.33-2.7,1.15-3.27A1.58,1.58,0,0,1,99.24,56a1,1,0,0,1-.14,2,11.73,11.73,0,0,0-.3,1.77c-.26,2.08-.61,4.94-3.08,5.21s-2.83-1.56-3-2.55-.34-1.64-1.26-2c-.53-.23-.79-.16-1.8,1.65-.76,1.37-1.79,3.27-3.91,3.07-2.4-.21-3-2.59-3.35-4.17A7.11,7.11,0,0,0,82,59.52h0c-1.15.12-1.33.13-1.91,5.57A1,1,0,0,1,79,66Z"/></svg>