<?xml version="1.0" ?><svg height="60" id="Security" viewBox="0 0 60 60" width="60" xmlns="http://www.w3.org/2000/svg"><title/><path d="M39,3A18.01472,18.01472,0,0,0,21.36707,24.63281l-.95288.95288a2.00015,2.00015,0,0,0,0,2.82849L22,30l-5,5H13v4H9v4H5v4L3,49v8h8L30,38l1.58582,1.58569a1.9999,1.9999,0,0,0,2.82837,0l.95288-.95282A18.00148,18.00148,0,1,0,39,3Zm6,16a4,4,0,1,1,4-4A4,4,0,0,1,45,19Z" style="fill:#ced8ee"/><path d="M39,6A17.99179,17.99179,0,0,1,56.92426,22.5c.041-.49579.07574-.99359.07574-1.5a18,18,0,0,0-36,0c0,.50562.03491,1.00262.07587,1.49768A17.99189,17.99189,0,0,1,39,6Z" style="fill:#fff;opacity:0.5"/><path d="M23.49486,30.09093,22.702,29.298,17,35H13v3h4l6.49486-6.49486A1,1,0,0,0,23.49486,30.09093Z" style="fill:#fff;opacity:0.5"/><path d="M13.95273,39H9v3h3.95273a1,1,0,0,0,1-1Z" style="fill:#fff;opacity:0.5"/><path d="M5.97583,46.02417,3,49v3.48792L5.68294,49.805a1,1,0,0,0,.29289-.70711Z" style="fill:#fff;opacity:0.5"/><path d="M9.95273,43H5v3H8.95273a1,1,0,0,0,1-1Z" style="fill:#fff;opacity:0.5"/><g style="opacity:0.200000002980232"><path d="M39,36a18.07562,18.07562,0,0,1-3.63293-.36713l-.95288.95282a1.9999,1.9999,0,0,1-2.82837,0l-1.56407-1.435a1,1,0,0,0-1.38656.03318L10,54H3v3h8L30,38l1.58582,1.58569a2,2,0,0,0,2.82838,0l.95287-.95281A18.01456,18.01456,0,0,0,57,21c0-.50641-.03473-1.00415-.07574-1.5A17.99179,17.99179,0,0,1,39,36Z" style="fill:#2c4b75"/></g><path d="M49,15a3.97806,3.97806,0,0,1-1.10626,2.74927,2.9856,2.9856,0,0,1-5.78748.00006,3.87573,3.87573,0,0,1-.895-3.9743A4.95378,4.95378,0,0,0,40,17a5,5,0,0,0,10,0,4.95378,4.95378,0,0,0-1.2113-3.225A3.95736,3.95736,0,0,1,49,15Z" style="fill:#fff;opacity:0.5"/><path d="M11,58H3a.99974.99974,0,0,1-1-1V49a1.00013,1.00013,0,0,1,.293-.707L4,46.58594V43a.99974.99974,0,0,1,1-1H8V39a.99974.99974,0,0,1,1-1h3V35a.99974.99974,0,0,1,1-1h3.58594l4-4-.87891-.87891a2.9995,2.9995,0,0,1,0-4.24268l.5791-.57861A18.98382,18.98382,0,1,1,35.7002,39.71387l-.5791.5791a3.00511,3.00511,0,0,1-4.24219.00049L30,39.41406,11.707,57.707A.99928.99928,0,0,1,11,58ZM4,56h6.58594L29.293,37.293a.99964.99964,0,0,1,1.41406,0L32.293,38.87891a1.00052,1.00052,0,0,0,1.41406-.00049l.95313-.95264a.99093.99093,0,0,1,.9082-.27246A16.98162,16.98162,0,1,0,22.34668,24.43213a1.00052,1.00052,0,0,1-.27246.90771l-.95312.95313a.999.999,0,0,0,0,1.41357L22.707,29.293a.99964.99964,0,0,1,0,1.41406l-5,5A.99928.99928,0,0,1,17,36H14v3a.99974.99974,0,0,1-1,1H10v3a.99974.99974,0,0,1-1,1H6v3a1.00013,1.00013,0,0,1-.293.707L4,49.41406ZM45,20a5,5,0,1,1,5-5A5.00589,5.00589,0,0,1,45,20Zm0-8a3,3,0,1,0,3,3A3.00328,3.00328,0,0,0,45,12Z" style="fill:#6d6daa"/><path d="M9,52a1,1,0,0,1-.707-1.707l17-17A.99989.99989,0,0,1,26.707,34.707l-17,17A.99676.99676,0,0,1,9,52Z" style="fill:#6d6daa"/></svg>