<?xml version="1.0" ?><svg data-name="Multimedia 1" height="60" id="Multimedia_1" viewBox="0 0 60 60" width="60" xmlns="http://www.w3.org/2000/svg"><title/><path d="M50.903,21.6619a14.98946,14.98946,0,0,0-28.9348-6.9253A7.99353,7.99353,0,0,0,9,21c0,.2312.01538.4585.03461.6848A11.99375,11.99375,0,0,0,13,45h2V39H45v6h2a11.99449,11.99449,0,0,0,3.903-23.3381Z" style="fill:#eef6ff"/><g style="opacity:0.75"><path d="M51,23a15.11707,15.11707,0,0,1-.097,1.66187,12.00188,12.00188,0,0,1,7.9939,9.83453A11.89054,11.89054,0,0,0,50.933,21.67352C50.97144,22.11139,51,22.55219,51,23Z" style="fill:#fff"/><path d="M9.03461,24.68481C9.01538,24.4585,9,24.2312,9,24a7.99356,7.99356,0,0,1,12.9682-6.26343,14.99051,14.99051,0,0,1,28.94849,3.69128C50.96259,20.95685,51,20.48328,51,20a14.99148,14.99148,0,0,0-29.0318-5.26343A7.99356,7.99356,0,0,0,9,21c0,.2312.01538.4585.03461.68481A11.89045,11.89045,0,0,0,1.103,34.49609,12.00112,12.00112,0,0,1,9.03461,24.68481Z" style="fill:#fff"/></g><g style="opacity:0.30000000000000004"><path d="M50.903,18.66187l.03.01166c-.00714-.08142-.00787-.16455-.0163-.24567C50.90918,18.50507,50.9115,18.585,50.903,18.66187Z" style="fill:#5cbeff"/><path d="M47,42H13A11.99477,11.99477,0,0,1,1.103,31.49609,11.93784,11.93784,0,0,0,13,45H47A11.93709,11.93709,0,0,0,58.89691,31.4964,11.99473,11.99473,0,0,1,47,42Z" style="fill:#5cbeff"/></g><path d="M47,46H45a.99974.99974,0,0,1-1-1V40H16v5a.99974.99974,0,0,1-1,1H13A12.99356,12.99356,0,0,1,8,21.01074V21a9.01015,9.01015,0,0,1,9-9,8.89026,8.89026,0,0,1,4.52295,1.2207A15.99038,15.99038,0,0,1,52,20c0,.3252-.01123.6543-.03369.99609A12.994,12.994,0,0,1,47,46Zm-1-2h1a10.99444,10.99444,0,0,0,3.57715-21.39258,1.00085,1.00085,0,0,1-.66846-1.05566A13.98934,13.98934,0,0,0,22.9043,15.08789a.99944.99944,0,0,1-1.55762.43164A6.92613,6.92613,0,0,0,17,14a7.00818,7.00818,0,0,0-7,7c0,.20215.01367.40137.03076.59863a.99846.99846,0,0,1-.665,1.0293A10.994,10.994,0,0,0,13,44h1V39a.99974.99974,0,0,1,1-1H45a.99974.99974,0,0,1,1,1Z" style="fill:#6d6daa"/><path d="M59,34a.99974.99974,0,0,1-1-1A11.01245,11.01245,0,0,0,47,22a1,1,0,0,1,0-2A13.01474,13.01474,0,0,1,60,33,.99974.99974,0,0,1,59,34Z" style="fill:#6d6daa"/><path d="M1,34a.99974.99974,0,0,1-1-1A13.01474,13.01474,0,0,1,13,20a1,1,0,0,1,0,2A11.01245,11.01245,0,0,0,2,33,.99974.99974,0,0,1,1,34Z" style="fill:#6d6daa"/><path d="M24.09229,18.29395a.99966.99966,0,0,1-.88672-.53613A6.985,6.985,0,0,0,17,14a1,1,0,0,1,0-2,8.97863,8.97863,0,0,1,7.97705,4.83008.99954.99954,0,0,1-.42187,1.34961A.98782.98782,0,0,1,24.09229,18.29395Z" style="fill:#6d6daa"/><rect height="18" style="fill:#fff" width="30" x="15" y="39"/><rect height="3" style="fill:#2c4b75;opacity:0.2" width="30" x="15" y="39"/><path d="M45,58H15a.99974.99974,0,0,1-1-1V39a.99974.99974,0,0,1,1-1H45a.99974.99974,0,0,1,1,1V57A.99974.99974,0,0,1,45,58ZM16,56H44V40H16Z" style="fill:#6d6daa"/><path d="M49,40H11a1,1,0,0,1,0-2H49a1,1,0,0,1,0,2Z" style="fill:#6d6daa"/><path d="M39,52H21a1,1,0,0,1,0-2H39a1,1,0,0,1,0,2Z" style="fill:#6d6daa;opacity:0.5"/><path d="M39,46H21a1,1,0,0,1,0-2H39a1,1,0,0,1,0,2Z" style="fill:#6d6daa;opacity:0.5"/></svg>