<?xml version="1.0" ?><svg data-name="Achievements &amp; Badges" height="60" id="Achievements_Badges" viewBox="0 0 60 60" width="60" xmlns="http://www.w3.org/2000/svg"><title/><path d="M37.44828,27.4483A7.44827,7.44827,0,1,0,25.18,33.1185,3.01218,3.01218,0,0,1,26,35.5823V36h8v-.4845a2.88829,2.88829,0,0,1,.7958-2.3766A7.41905,7.41905,0,0,0,37.44828,27.4483Z" style="fill:#fff27d"/><g style="opacity:0.5"><path d="M30,37a.99974.99974,0,0,1-1-1V34a1,1,0,0,1,2,0v2A.99974.99974,0,0,1,30,37Z" style="fill:#6d6daa"/><line style="fill:#fff27d" x1="29.99969" x2="28.99969" y1="34" y2="33"/><path d="M30,35a.99676.99676,0,0,1-.707-.293l-1-1A.99989.99989,0,0,1,29.707,32.293l1,1A1,1,0,0,1,30,35Z" style="fill:#6d6daa"/><line style="fill:#fff27d" x1="29.99969" x2="30.99969" y1="34" y2="33"/><path d="M30,35a1,1,0,0,1-.707-1.707l1-1A.99989.99989,0,0,1,31.707,33.707l-1,1A.99676.99676,0,0,1,30,35Z" style="fill:#6d6daa"/></g><path d="M27.24835,20.525a7.5105,7.5105,0,0,0-4.58179,5.624,4.49029,4.49029,0,1,0,4.58179-5.624Z" style="fill:#fff;opacity:0.75"/><path d="M29.15027,23.04706a7.44944,7.44944,0,0,1,8.14056,5.89185,7.44768,7.44768,0,1,0-14.57849-.002A7.47867,7.47867,0,0,1,29.15027,23.04706Z" style="fill:#fff;opacity:0.75"/><path d="M27,38.8045v2.299a3.00185,3.00185,0,0,0,6,0v-2.299" style="fill:#dae3e6"/><path d="M32.07409,39.0345H27.92588A1.86309,1.86309,0,0,1,26,37.2414V36h8v1.2414A1.86309,1.86309,0,0,1,32.07409,39.0345Z" style="fill:#dae3e6"/><path d="M34,37H26a.99974.99974,0,0,1-1-1v-.41748c0-.939-.13086-1.416-.46777-1.70166A8.44406,8.44406,0,0,1,29.04,19.05273a8.44409,8.44409,0,0,1,6.39941,14.85107C35.123,34.17041,35,34.62256,35,35.51563V36A.99974.99974,0,0,1,34,37Zm-7.0166-2h6.0293a3.47914,3.47914,0,0,1,1.13867-2.626,6.44534,6.44534,0,0,0-4.89063-11.333,6.5075,6.5075,0,0,0-5.68848,5.88916,6.39069,6.39069,0,0,0,2.25488,5.42627A3.55505,3.55505,0,0,1,26.9834,35Z" style="fill:#6d6daa"/><path d="M30,45a3.95351,3.95351,0,0,1-4-3.89648V38.80469a1,1,0,0,1,2,0v2.29883a2.00283,2.00283,0,0,0,4,0V38.80469a1,1,0,0,1,2,0v2.29883A3.95351,3.95351,0,0,1,30,45Z" style="fill:#6d6daa"/><path d="M32.07422,40.03467H27.92578A2.865,2.865,0,0,1,25,37.24121V36a.99974.99974,0,0,1,1-1h8a.99974.99974,0,0,1,1,1v1.24121A2.865,2.865,0,0,1,32.07422,40.03467ZM27,37v.24121a.86815.86815,0,0,0,.92578.79346h4.14844A.86815.86815,0,0,0,33,37.24121V37Z" style="fill:#6d6daa"/><path d="M16.58019,54.3656a5.59158,5.59158,0,0,1-4.6033-1.5468s2.06291-2.609,4.80691-2.9142a7.53351,7.53351,0,0,1,5.1297,1.8092A11.35936,11.35936,0,0,1,16.58019,54.3656Z" style="fill:#b1f1a8"/><path d="M4.68489,36.5663A8.24553,8.24553,0,0,1,2.3186,31.4878s3.32109-.1811,5.3665,1.6735a7.53358,7.53358,0,0,1,2.0401,5.0422A7.4932,7.4932,0,0,1,4.68489,36.5663Z" style="fill:#b1f1a8"/><path d="M8.2144,46.6241a5.32687,5.32687,0,0,1-3.5116-3.2258s2.93869-1.5576,5.5735-.7322a7.53346,7.53346,0,0,1,3.9671,3.7214A11.92475,11.92475,0,0,1,8.2144,46.6241Z" style="fill:#89dbba"/><path d="M26.001,53.60889a1.0135,1.0135,0,0,1-.19043-.01807A21.99085,21.99085,0,0,1,19.251,12.811l.34668-.19043a1.00006,1.00006,0,1,1,.94336,1.76367l-.31055.17041a19.99085,19.99085,0,0,0,5.959,37.07227,1.00007,1.00007,0,0,1-.18848,1.98193Z" style="fill:#6d6daa"/><path d="M5.435,25.219a9.83988,9.83988,0,0,1-.30972-5.7606s3.09291,1.2231,4.1764,3.7626a7.53393,7.53393,0,0,1-.2534,5.4334A6.74651,6.74651,0,0,1,5.435,25.219Z" style="fill:#89dbba"/><path d="M20.04739,8.7a10.6225,10.6225,0,0,1,4.3801-4.0678s1.316,3.3174-.21149,5.61729a7.87168,7.87168,0,0,1-4.3332,3.2879A5.96364,5.96364,0,0,1,20.04739,8.7Z" style="fill:#89dbba"/><path d="M10.4801,15.4616a10.429,10.429,0,0,1,1.6077-5.7643s2.559,2.1246,2.7987,4.8752a7.53368,7.53368,0,0,1-1.9311,5.085A5.96224,5.96224,0,0,1,10.4801,15.4616Z" style="fill:#b1f1a8"/><path d="M43.41979,54.3656a5.59158,5.59158,0,0,0,4.6033-1.5468s-2.06289-2.609-4.80689-2.9142a7.53351,7.53351,0,0,0-5.1297,1.8092A11.35936,11.35936,0,0,0,43.41979,54.3656Z" style="fill:#b1f1a8"/><path d="M55.31509,36.5663a8.24549,8.24549,0,0,0,2.36631-5.0785s-3.32111-.1811-5.3665,1.6735a7.53358,7.53358,0,0,0-2.0401,5.0422A7.49313,7.49313,0,0,0,55.31509,36.5663Z" style="fill:#b1f1a8"/><path d="M51.7856,46.6241a5.32692,5.32692,0,0,0,3.5116-3.2258s-2.93871-1.5576-5.5735-.7322a7.53346,7.53346,0,0,0-3.9671,3.7214A11.92475,11.92475,0,0,0,51.7856,46.6241Z" style="fill:#89dbba"/><path d="M33.999,53.60889a1.00007,1.00007,0,0,1-.18848-1.98193,19.99089,19.99089,0,0,0,5.96-37.07178l-.31152-.1709a1.00006,1.00006,0,1,1,.94336-1.76367l.34766.19092a21.99089,21.99089,0,0,1-6.56055,40.7793A1.0135,1.0135,0,0,1,33.999,53.60889Z" style="fill:#6d6daa"/><path d="M54.565,25.219a9.84,9.84,0,0,0,.30969-5.7606s-3.09289,1.2231-4.1764,3.7626a7.53393,7.53393,0,0,0,.2534,5.4334A6.74661,6.74661,0,0,0,54.565,25.219Z" style="fill:#89dbba"/><path d="M39.9526,8.7a10.62245,10.62245,0,0,0-4.38011-4.0678s-1.316,3.3174.21151,5.61729a7.87168,7.87168,0,0,0,4.3332,3.2879A5.9637,5.9637,0,0,0,39.9526,8.7Z" style="fill:#89dbba"/><path d="M49.5199,15.4616a10.42925,10.42925,0,0,0-1.6077-5.7643s-2.559,2.1246-2.79871,4.8752a7.53372,7.53372,0,0,0,1.93111,5.085A5.9623,5.9623,0,0,0,49.5199,15.4616Z" style="fill:#b1f1a8"/><path d="M15.97852,55.39893a6.77271,6.77271,0,0,1-4.7959-1.93066,1.10469,1.10469,0,0,1-.13184-1.04541,1.007,1.007,0,0,1,.19434-.28857c.36719-.44336,2.52734-2.90088,5.42871-3.22314a8.47758,8.47758,0,0,1,5.90234,2.05469.99948.99948,0,0,1,.00879,1.48877,12.28558,12.28558,0,0,1-5.89453,2.90479h0A6.415,6.415,0,0,1,15.97852,55.39893Zm.60156-1.0332h0Zm-3.13184-1.645a5.13491,5.13491,0,0,0,3.02148.65088,8.80634,8.80634,0,0,0,3.75977-1.61572,5.65518,5.65518,0,0,0-3.335-.85742A6.48079,6.48079,0,0,0,13.44824,52.7207Z" style="fill:#6d6daa"/><path d="M9.43066,39.21143a8.32144,8.32144,0,0,1-5.418-1.90381v-.00049a8.97595,8.97595,0,0,1-2.68848-6.0166,1.03386,1.03386,0,0,1,.68066-.75781,1.11874,1.11874,0,0,1,.33789-.04687c.57227-.01562,3.84766-.03027,6.01465,1.93457a8.51307,8.51307,0,0,1,2.36816,5.78467,1.00021,1.00021,0,0,1-.92773.99609C9.77246,39.20264,9.6416,39.21143,9.43066,39.21143ZM5.35645,35.8252a5.89341,5.89341,0,0,0,3.25879,1.335,5.76539,5.76539,0,0,0-1.60156-3.2583A6.32985,6.32985,0,0,0,3.5,32.53662,7.146,7.146,0,0,0,5.35645,35.8252Z" style="fill:#6d6daa"/><path d="M10.5166,47.937A8.75424,8.75424,0,0,1,7.916,47.57813h0c-2.73047-.85547-4.47949-3.52246-4.18359-4.46924a1.01173,1.01173,0,0,1,.50293-.59375l-.001-.00049c.13574-.0708,3.3418-1.74072,6.34082-.80273a8.50135,8.50135,0,0,1,4.57617,4.25781.99952.99952,0,0,1-.60937,1.37256A14.97161,14.97161,0,0,1,10.5166,47.937ZM8.51367,45.66992a9.38134,9.38134,0,0,0,4.15918.06152,5.61587,5.61587,0,0,0-2.69531-2.11133,6.50126,6.50126,0,0,0-3.9082.28809,4.9052,4.9052,0,0,0,2.44434,1.76172Z" style="fill:#6d6daa"/><path d="M9.04785,29.6543a.99749.99749,0,0,1-.334-.05762,7.748,7.748,0,0,1-4.19922-3.98486v-.00049c-1.11816-2.62207-.61621-6.2041-.20312-6.75342A1.01918,1.01918,0,0,1,5.24023,18.46a.99305.99305,0,0,1,.32617.09912c.52246.2207,3.50684,1.57959,4.65527,4.26953a8.51173,8.51173,0,0,1-.26563,6.24512A1.00116,1.00116,0,0,1,9.04785,29.6543ZM6.35449,24.82715a5.44462,5.44462,0,0,0,2.12012,2.4165,5.75873,5.75873,0,0,0-.09277-3.63037A6.22683,6.22683,0,0,0,5.873,20.97363a8.62227,8.62227,0,0,0,.48145,3.85352Z" style="fill:#6d6daa"/><path d="M19.88281,14.5376a1.00046,1.00046,0,0,1-.90918-.5835,6.96718,6.96718,0,0,1,.18359-5.7085h0c1.32129-2.59033,4.83789-4.96338,5.72266-4.51367a1.00031,1.00031,0,0,1,.498.58447c.18164.48633,1.373,3.92383-.3291,6.48633a8.86858,8.86858,0,0,1-4.94141,3.70947A1.01252,1.01252,0,0,1,19.88281,14.5376Zm3.92773-8.40137a9.41783,9.41783,0,0,0-2.87207,3.01855h0a4.76425,4.76425,0,0,0-.40625,3.07129,7.256,7.256,0,0,0,2.85059-2.52979A4.86948,4.86948,0,0,0,23.81055,6.13623Zm-3.7627,2.564h0Z" style="fill:#6d6daa"/><path d="M12.95508,20.65771a.99759.99759,0,0,1-.543-.16016,6.96154,6.96154,0,0,1-2.92773-4.94971c-.23633-2.71338,1.42188-6.75879,2.51074-6.854a.99234.99234,0,0,1,.76758.26465c.34863.29932,2.86035,2.55127,3.12012,5.52686a8.51465,8.51465,0,0,1-2.19531,5.85352A1.00085,1.00085,0,0,1,12.95508,20.65771Zm-.63672-9.29932a9.11882,9.11882,0,0,0-.8418,4.0166,4.72743,4.72743,0,0,0,1.3252,2.83594,5.82614,5.82614,0,0,0,1.08887-3.55225A6.24455,6.24455,0,0,0,12.31836,11.3584Z" style="fill:#6d6daa"/><path d="M44.02148,55.39893a6.428,6.428,0,0,1-.71191-.03955h0A12.28558,12.28558,0,0,1,37.415,52.45459a.99948.99948,0,0,1,.00879-1.48877,8.49195,8.49195,0,0,1,5.90234-2.05469c2.90137.32227,5.06152,2.77979,5.42871,3.22314a1.007,1.007,0,0,1,.19434.28857,1.10469,1.10469,0,0,1-.13184,1.04541A6.77483,6.77483,0,0,1,44.02148,55.39893Zm-.49121-2.02734a5.15031,5.15031,0,0,0,3.02344-.65234,6.44434,6.44434,0,0,0-3.44824-1.8208,5.63886,5.63886,0,0,0-3.332.85889,8.80427,8.80427,0,0,0,3.75684,1.61475Z" style="fill:#6d6daa"/><path d="M50.56934,39.21143c-.21094,0-.3418-.00879-.36719-.01025a1.00021,1.00021,0,0,1-.92773-.99609,8.51307,8.51307,0,0,1,2.36816-5.78467c2.16992-1.9668,5.45117-1.9502,6.01465-1.93457a1.123,1.123,0,0,1,.33789.04688,1.03386,1.03386,0,0,1,.68066.75781,8.97595,8.97595,0,0,1-2.68848,6.0166v.00049A8.31988,8.31988,0,0,1,50.56934,39.21143ZM56.5,32.53662a6.33518,6.33518,0,0,0-3.51367,1.36523,5.782,5.782,0,0,0-1.59863,3.25977,5.87166,5.87166,0,0,0,3.25586-1.33643A7.146,7.146,0,0,0,56.5,32.53662Zm-1.18457,4.02979h0Z" style="fill:#6d6daa"/><path d="M49.4834,47.937a14.97161,14.97161,0,0,1-4.02539-.59473.99952.99952,0,0,1-.60937-1.37256,8.50135,8.50135,0,0,1,4.57617-4.25781c2.99512-.93848,6.20605.73145,6.34082.80273v.00049a1.01021,1.01021,0,0,1,.502.59375c.2959.94678-1.45312,3.61377-4.18359,4.46924h0A8.76577,8.76577,0,0,1,49.4834,47.937Zm2.30176-1.313h0Zm-4.45605-.89453a9.20114,9.20114,0,0,0,4.15723-.05957,4.91185,4.91185,0,0,0,2.44629-1.76367,6.459,6.459,0,0,0-3.91016-.28613A5.6119,5.6119,0,0,0,47.3291,45.72949Z" style="fill:#6d6daa"/><path d="M50.95215,29.6543a1.00116,1.00116,0,0,1-.9082-.58057,8.51071,8.51071,0,0,1-.26562-6.24463c1.14844-2.69043,4.13281-4.04932,4.65527-4.27a.99305.99305,0,0,1,.32617-.09912,1.02524,1.02524,0,0,1,.92871.39795c.41309.54932.915,4.13135-.20312,6.75342v.00049a7.748,7.748,0,0,1-4.19922,3.98486A.99749.99749,0,0,1,50.95215,29.6543Zm3.1748-8.68066a6.23114,6.23114,0,0,0-2.50879,2.64014,5.74665,5.74665,0,0,0-.09375,3.624,5.47267,5.47267,0,0,0,2.12109-2.41064h0A8.62227,8.62227,0,0,0,54.127,20.97363Zm.43848,4.24561h0Z" style="fill:#6d6daa"/><path d="M40.11719,14.5376a1.01252,1.01252,0,0,1-.22461-.02539,8.86858,8.86858,0,0,1-4.94141-3.70947c-1.70215-2.5625-.51074-6-.3291-6.48633a1.00031,1.00031,0,0,1,.498-.58447c.88379-.4502,4.40039,1.92236,5.72266,4.51367a6.96718,6.96718,0,0,1,.18359,5.7085A1.00046,1.00046,0,0,1,40.11719,14.5376ZM36.18848,6.13623a4.87539,4.87539,0,0,0,.42871,3.56006,7.23983,7.23983,0,0,0,2.85156,2.5293,4.77187,4.77187,0,0,0-.40723-3.0708h0A9.40986,9.40986,0,0,0,36.18848,6.13623Z" style="fill:#6d6daa"/><path d="M47.04492,20.65771a1.00085,1.00085,0,0,1-.73242-.31885,8.51418,8.51418,0,0,1-2.19531-5.853c.25977-2.97754,2.77344-5.23,3.12012-5.52783a.98873.98873,0,0,1,.76758-.26416c1.08887.09521,2.74707,4.14063,2.51074,6.854a6.96154,6.96154,0,0,1-2.92773,4.94971A.99759.99759,0,0,1,47.04492,20.65771Zm.63672-9.29932a6.24258,6.24258,0,0,0-1.57227,3.30078,5.84481,5.84481,0,0,0,1.08691,3.54443A4.76194,4.76194,0,0,0,48.52344,15.375,9.11882,9.11882,0,0,0,47.68164,11.3584Z" style="fill:#6d6daa"/><path d="M28.96973,49.96973h0a.99526.99526,0,0,1-.93945-1.0498h0a1.00648,1.00648,0,0,1,1.05957-.9502h0a1.01229,1.01229,0,0,1,.94043,1.06006h0a.99875.99875,0,0,1-1,.93994h-.06055Zm3.00977-1.0498A1.00211,1.00211,0,0,1,32.79,47.75977h0a.988.988,0,0,1,1.16016.81006h0A.99828.99828,0,0,1,33.13965,49.73h0a1.05039,1.05039,0,0,1-.16992.00977h0A1.007,1.007,0,0,1,31.97949,48.91992ZM24.85938,49.25a.98976.98976,0,0,1-.66992-1.24023h0a.98862.98862,0,0,1,1.24023-.66992h0a.98773.98773,0,0,1,.66992,1.23975h0a.98925.98925,0,0,1-.9502.72021h0A.94166.94166,0,0,1,24.85938,49.25Zm10.9707-1.24023a1.00063,1.00063,0,0,1,.51953-1.31982h0a.994.994,0,0,1,1.31055.52h0a1.00188,1.00188,0,0,1-.52051,1.31982h0a1.09,1.09,0,0,1-.38965.08008h0A1.0042,1.0042,0,0,1,35.83008,48.00977Zm-14.81055-.41016a.99932.99932,0,0,1-.37012-1.35986h0a1.00209,1.00209,0,0,1,1.37012-.37012h0a1.00972,1.00972,0,0,1,.37012,1.37012h0a1.01766,1.01766,0,0,1-.87012.5h0A1.01929,1.01929,0,0,1,21.01953,47.59961ZM39.35938,46.23a1.00477,1.00477,0,0,1,.2002-1.40039h0a1.00382,1.00382,0,0,1,1.40039.2002h0a1.00108,1.00108,0,0,1-.2002,1.3999h0a.9611.9611,0,0,1-.59961.2002h0A.98715.98715,0,0,1,39.35938,46.23ZM17.66992,45.10986a.988.988,0,0,1-.0498-1.41016h0A1.00859,1.00859,0,0,1,19.04,43.6499h0a1.009,1.009,0,0,1,.04,1.41992h0a.99207.99207,0,0,1-.73047.31006h0A.99214.99214,0,0,1,17.66992,45.10986Zm24.71-1.41992a1.00976,1.00976,0,0,1-.12012-1.41016h0a.99955.99955,0,0,1,1.41016-.12012h0A.99922.99922,0,0,1,43.79,43.56982h0a1.01448,1.01448,0,0,1-.77051.3501h0A.989.989,0,0,1,42.37988,43.68994Zm-27.40039-1.77a1.002,1.002,0,0,1,.28027-1.39014h0a1.00971,1.00971,0,0,1,1.38965.28027h0a1.008,1.008,0,0,1-.29,1.38965h0a1.01076,1.01076,0,0,1-.5498.16992h0A.99791.99791,0,0,1,14.97949,41.91992ZM44.75,40.52a.99388.99388,0,0,1-.4502-1.34033h0A1.01893,1.01893,0,0,1,45.64941,38.73h0a1.00637,1.00637,0,0,1,.44043,1.34961h0a1.007,1.007,0,0,1-.90039.55029h0A.98859.98859,0,0,1,44.75,40.52ZM13.08984,38.18994a.99771.99771,0,0,1,.59961-1.28027h0A.99631.99631,0,0,1,14.96973,37.5h0a.99718.99718,0,0,1-.59961,1.27979h0a.80313.80313,0,0,1-.33984.06982h0A1.01224,1.01224,0,0,1,13.08984,38.18994Zm33.22949-1.30029a.99269.99269,0,0,1-.75-1.19971h0a.99656.99656,0,0,1,1.2002-.74023h0a1.00007,1.00007,0,0,1,.75,1.2002h0a1.00048,1.00048,0,0,1-.96973.77h0A.85627.85627,0,0,1,46.31934,36.88965ZM12.12012,34.12988A1.01069,1.01069,0,0,1,13,33.00977h0a1.00081,1.00081,0,0,1,1.10938.87988h0A1.0007,1.0007,0,0,1,13.22949,35h0c-.04,0-.08008.00977-.12012.00977h0A1.00181,1.00181,0,0,1,12.12012,34.12988ZM46,32h0v-.06006h0a.99657.99657,0,0,1,.99023-1.01025h0a1.0053,1.0053,0,0,1,1.00977,1h0v.04h0V32h0a1.00319,1.00319,0,0,1-1,1h0A1.00319,1.00319,0,0,1,46,32Zm-33.00977-.93994a.99987.99987,0,0,1-.87012-1.11035h-.01074a1.00785,1.00785,0,0,1,1.11035-.87988h0a1.00121,1.00121,0,0,1,.87988,1.10986h0a.99464.99464,0,0,1-.99023.88037h-.11914ZM45.55957,28.25h0a1.00106,1.00106,0,0,1,.74023-1.21h0a1.00293,1.00293,0,0,1,1.2002.73975h0a1.00106,1.00106,0,0,1-.74023,1.21h0a.85425.85425,0,0,1-.22949.03027h0A1.0024,1.0024,0,0,1,45.55957,28.25ZM13.66992,27.15967a.99768.99768,0,0,1-.60059-1.27979h0a.99833.99833,0,0,1,1.28027-.6001h0a.99821.99821,0,0,1,.60059,1.28027h0a.99844.99844,0,0,1-.94043.65967h0A.973.973,0,0,1,13.66992,27.15967ZM44.26953,24.77h0a1.00693,1.00693,0,0,1,.44043-1.3501h0a1.00619,1.00619,0,0,1,1.34961.43994h0a1.01035,1.01035,0,0,1-.43945,1.3501h0a1.05547,1.05547,0,0,1-.4502.1001h0A1.01772,1.01772,0,0,1,44.26953,24.77Zm-29.0498-1.24023a1.002,1.002,0,0,1-.28027-1.39014h0a.9993.9993,0,0,1,1.37988-.29h0a1.01147,1.01147,0,0,1,.29,1.39014h0a1.00008,1.00008,0,0,1-.83984.4502h0A1.00588,1.00588,0,0,1,15.21973,23.52979Zm27-1.85986a.9999.9999,0,0,1,.12012-1.41016h0a1.00931,1.00931,0,0,1,1.41016.12012h0A1.00976,1.00976,0,0,1,43.62988,21.79h0a1.009,1.009,0,0,1-.65039.23975h0A.98665.98665,0,0,1,42.21973,21.66992ZM17.58008,20.34961a.99624.99624,0,0,1,.0293-1.40967h.01074a.9963.9963,0,0,1,1.41016.04h0a.99655.99655,0,0,1-.04,1.40967h0a1.00221,1.00221,0,0,1-.69043.27h0A.96709.96709,0,0,1,17.58008,20.34961Zm21.92969-1.21973h0a1.00141,1.00141,0,0,1-.21-1.3999h0a1.00338,1.00338,0,0,1,1.40039-.2002h0a.99364.99364,0,0,1,.21,1.3999h0a1.01762,1.01762,0,0,1-.81055.3999h0A.95318.95318,0,0,1,39.50977,19.12988ZM20.59961,17.7998A.99809.99809,0,0,1,20.96,16.42969h0a.99788.99788,0,0,1,1.35938.37012h0A.98665.98665,0,0,1,21.96,18.15967h0a.99153.99153,0,0,1-.5.14014h0A.99246.99246,0,0,1,20.59961,17.7998Zm15.69043-.52V17.29a1.00242,1.00242,0,0,1-.52051-1.32031h0a1.00017,1.00017,0,0,1,1.31055-.52979h0v.00977h0a.98735.98735,0,0,1,.51953,1.31006h0a.9955.9955,0,0,1-.91016.60986h0A.93117.93117,0,0,1,36.29,17.27979Zm-12.16992-1.27A.99185.99185,0,0,1,24.79,14.77h0a.99509.99509,0,0,1,1.24023.65967h0a.99853.99853,0,0,1-.66016,1.25h0a1.00586,1.00586,0,0,1-.29.04h0A.992.992,0,0,1,24.12012,16.00977Zm8.60938.22021a.99626.99626,0,0,1-.81934-1.15039h0a1.0057,1.0057,0,0,1,1.15918-.81982h0a1.00887,1.00887,0,0,1,.82031,1.16016h0a1.0154,1.0154,0,0,1-.99023.83008h0A1.01984,1.01984,0,0,1,32.72949,16.23ZM27.96,15.08984a1.01081,1.01081,0,0,1,.93945-1.06006h0a1.00539,1.00539,0,0,1,1.06055.93994h0a1.005,1.005,0,0,1-.94043,1.06006H28.96A1.00516,1.00516,0,0,1,27.96,15.08984Z" style="fill:#6d6daa"/></svg>