<?xml version="1.0" ?><svg data-name="Vehicles 2" height="60" id="Vehicles_2" viewBox="0 0 60 60" width="60" xmlns="http://www.w3.org/2000/svg"><title/><path d="M35,4.98v6H25v-6Z" style="fill:#eef6ff"/><path d="M35,2.5V4.98H25V2.5C25,1.67,27.24,1,30,1S35,1.67,35,2.5Z" style="fill:#ff9797"/><path d="M31,1.03015V10.98h4V2.5C35,1.773,33.28125,1.16895,31,1.03015Z" style="fill:#2c4b75;opacity:0.2"/><path d="M35,11.98H25a.99974.99974,0,0,1-1-1v-6a.99974.99974,0,0,1,1-1H35a.99974.99974,0,0,1,1,1v6A.99974.99974,0,0,1,35,11.98Zm-9-2h8v-4H26Z" style="fill:#6d6daa"/><path d="M35,5.98H25a.99974.99974,0,0,1-1-1V2.5C24,.12061,28.998,0,30,0s6,.12061,6,2.5V4.98A.99974.99974,0,0,1,35,5.98Zm-9-2h8V2.70605A8.59976,8.59976,0,0,0,30,2a8.59976,8.59976,0,0,0-4,.70605Z" style="fill:#6d6daa"/><path d="M57.53569,55.5155a2,2,0,0,1-2,2h-10a5,5,0,0,1-7.071,0l-2.4645-2.4645-2.4645,2.4645a5,5,0,0,1-7.071,0l-2.4645-2.4645-2.4645,2.4645a5,5,0,0,1-7.071,0h-10a2,2,0,0,1-2-2v-7a5,5,0,0,0,7.071,0l2.4645-2.4645,2.4645,2.4645a5,5,0,0,0,7.071,0l2.4645-2.4645,2.4645,2.4645a5,5,0,0,0,7.071,0l2.4645-2.4645,2.4645,2.4645a5,5,0,0,0,7.071,0l2.4645-2.4645,2.4645,2.4645a5,5,0,0,0,7.071,0Z" style="fill:#96d7ff"/><path d="M50.46466,48.51547,48.00018,46.051l-2.46448,2.46448a4.99994,4.99994,0,0,1-7.071,0L36.00018,46.051l-2.46448,2.46448a4.99994,4.99994,0,0,1-7.071,0L24.00018,46.051l-2.46448,2.46448a4.99994,4.99994,0,0,1-7.071,0L12.00018,46.051,9.53571,48.51547a4.99994,4.99994,0,0,1-7.071,0v3a4.99994,4.99994,0,0,0,7.071,0l2.46448-2.12794,2.46448,2.12794a4.99994,4.99994,0,0,0,7.071,0l2.46448-2.12794,2.46448,2.12794a4.99994,4.99994,0,0,0,7.071,0l2.46448-2.12794,2.46448,2.12794a4.99994,4.99994,0,0,0,7.071,0l2.46448-2.12794,2.46448,2.12794a4.99994,4.99994,0,0,0,7.071,0v-3A4.99994,4.99994,0,0,1,50.46466,48.51547Z" style="fill:#fff;opacity:0.5"/><polyline points="12 28.952 12 13.73 30 9.98 48 13.73 48 28.952" style="fill:#eef6ff"/><polygon points="20 15.98 18 19.98 42 19.98 40 15.98 20 15.98" style="fill:#96d7ff"/><polygon points="30 9.98 12 13.73 12 16.73 30 12.98 48 16.73 48 13.73 30 9.98" style="fill:#fff;opacity:0.75"/><polygon points="30 9.98 30 28.952 48 28.952 48 13.73 30 9.98" style="fill:#2c4b75;opacity:0.2"/><polygon points="18 19.98 25.517 19.98 29.517 15.98 20 15.98 18 19.98" style="fill:#fff;opacity:0.5"/><polygon points="29.76 19.98 34.002 19.98 38.002 15.98 33.76 15.98 29.76 19.98" style="fill:#fff;opacity:0.5"/><path d="M12.00019,46.051l2.4645,2.4645a5,5,0,0,0,7.071,0l2.4645-2.4645,2.4645,2.4645a5,5,0,0,0,7.071,0l2.4645-2.4645,2.4645,2.4645a5,5,0,0,0,7.071,0l2.4645-2.4645.0125.0124A32.78011,32.78011,0,0,0,54.00019,30.98l-24-8-24,8a32.7792,32.7792,0,0,0,5.9876,15.0834Z" style="fill:#9eb2cc"/><path d="M30.00018,22.98,30,22.98007V49.97995a4.98424,4.98424,0,0,0,3.53571-1.46448L36.00018,46.051l2.46448,2.46448a4.99994,4.99994,0,0,0,7.071,0L48.00018,46.051l.01251.01239A32.78,32.78,0,0,0,54.00018,30.98Z" style="fill:#2c4b75;opacity:0.2"/><path d="M30.00018,25.98,53.508,33.81595c.20337-.93762.37811-1.88086.49219-2.83594l-24-8-24,8c.11407.95508.28876,1.89832.49219,2.83594Z" style="fill:#fff;opacity:0.5"/><path d="M48,29.95166a.99974.99974,0,0,1-1-1V14.543l-17-3.5415L13,14.543V28.95166a1,1,0,1,1-2,0V13.73a.99984.99984,0,0,1,.7959-.979l18-3.75a.99125.99125,0,0,1,.4082,0l18,3.75A.99984.99984,0,0,1,49,13.73V28.95166A.99974.99974,0,0,1,48,29.95166Z" style="fill:#6d6daa"/><path d="M42,50.98a5.95889,5.95889,0,0,1-4.24219-1.75732L36,47.46533l-1.75684,1.75732a6.00017,6.00017,0,0,1-8.48535,0L24,47.46533l-1.75684,1.75732a6.00017,6.00017,0,0,1-8.48535,0l-2.332-2.33154a.99532.99532,0,0,1-.25684-.25293A33.92887,33.92887,0,0,1,5.00684,31.09863a1.00084,1.00084,0,0,1,.67676-1.06738l24-8a1.002,1.002,0,0,1,.63281,0l24,8a1.00084,1.00084,0,0,1,.67676,1.06738,33.90058,33.90058,0,0,1-6.16211,15.53955,1.00316,1.00316,0,0,1-.25684.25293l-2.33105,2.33154A5.96282,5.96282,0,0,1,42,50.98Zm-6-5.9292a.99928.99928,0,0,1,.707.293l2.46484,2.46484a4.0009,4.0009,0,0,0,5.65723,0L47.293,45.34375l.00879-.00928A32.10738,32.10738,0,0,0,52.89941,31.667L30,24.03418,7.10059,31.667a32.11715,32.11715,0,0,0,5.59766,13.66748l.00879.00928,2.46484,2.46484a4.0009,4.0009,0,0,0,5.65723,0L23.293,45.34375a1.02932,1.02932,0,0,1,1.41406,0l2.46484,2.46484a4.0009,4.0009,0,0,0,5.65723,0L35.293,45.34375A.99928.99928,0,0,1,36,45.05078Z" style="fill:#6d6daa"/><path d="M42,20.98H18a1.0001,1.0001,0,0,1-.89453-1.44727l2-4A1.0004,1.0004,0,0,1,20,14.98H40a1.0004,1.0004,0,0,1,.89453.55273l2,4A1.0001,1.0001,0,0,1,42,20.98Zm-22.38184-2H40.38184l-1-2H20.61816Z" style="fill:#6d6daa"/><path d="M26,20.98a.99974.99974,0,0,1-1-1v-4a1,1,0,0,1,2,0v4A.99974.99974,0,0,1,26,20.98Z" style="fill:#6d6daa"/><path d="M54,50.98a5.95889,5.95889,0,0,1-4.24219-1.75732L48,47.46533l-1.75684,1.75732a6.00017,6.00017,0,0,1-8.48535,0L36,47.46533l-1.75684,1.75732a6.00017,6.00017,0,0,1-8.48535,0L24,47.46533l-1.75684,1.75732a6.00017,6.00017,0,0,1-8.48535,0L12,47.46533l-1.75684,1.75732a6.00017,6.00017,0,0,1-8.48535,0,.99989.99989,0,0,1,1.41406-1.41406,4.0009,4.0009,0,0,0,5.65723,0L11.293,45.34375a1.02932,1.02932,0,0,1,1.41406,0l2.46484,2.46484a4.0009,4.0009,0,0,0,5.65723,0L23.293,45.34375a1.02932,1.02932,0,0,1,1.41406,0l2.46484,2.46484a4.0009,4.0009,0,0,0,5.65723,0L35.293,45.34375a1.02932,1.02932,0,0,1,1.41406,0l2.46484,2.46484a4.0009,4.0009,0,0,0,5.65723,0L47.293,45.34375a1.02932,1.02932,0,0,1,1.41406,0l2.46484,2.46484a4.0009,4.0009,0,0,0,5.65723,0,.99989.99989,0,0,1,1.41406,1.41406A5.96282,5.96282,0,0,1,54,50.98Z" style="fill:#6d6daa"/><path d="M34,20.98a.99974.99974,0,0,1-1-1v-4a1,1,0,0,1,2,0v4A.99974.99974,0,0,1,34,20.98Z" style="fill:#6d6daa"/><path d="M42,59.98a5.95889,5.95889,0,0,1-4.24219-1.75732L36,56.46533l-1.75684,1.75732a6.00017,6.00017,0,0,1-8.48535,0L24,56.46533l-1.75684,1.75732a6.00017,6.00017,0,0,1-8.48535,0,.99989.99989,0,0,1,1.41406-1.41406,4.0009,4.0009,0,0,0,5.65723,0L23.293,54.34375a1.02932,1.02932,0,0,1,1.41406,0l2.46484,2.46484a4.0009,4.0009,0,0,0,5.65723,0L35.293,54.34375a1.02932,1.02932,0,0,1,1.41406,0l2.46484,2.46484a4.0009,4.0009,0,0,0,5.65723,0,.99989.99989,0,0,1,1.41406,1.41406A5.96282,5.96282,0,0,1,42,59.98Z" style="fill:#6d6daa"/></svg>