<?xml version="1.0" ?><svg data-name="Finance 2" height="60" id="Finance_2" viewBox="0 0 60 60" width="60" xmlns="http://www.w3.org/2000/svg"><title/><path d="M30,41.98975a1.00038,1.00038,0,0,1-.94189-.66455c-.8623-2.418-.21094-5.69629.479-9.16748.81689-4.11035,1.66162-8.36084-.27588-10.4834a1.00024,1.00024,0,1,1,1.47754-1.34863c2.61865,2.86963,1.67383,7.624.75977,12.22217-.60645,3.05176-1.2334,6.20752-.55664,8.10547A1.00123,1.00123,0,0,1,30,41.98975Z" style="fill:#6d6daa"/><path d="M24.8901,34.1129a6.98082,6.98082,0,0,1-1.7583-4.7984,7.75748,7.75748,0,0,1,4.8965,1.8583,7.01889,7.01889,0,0,1,1.6134,4.804A7.49587,7.49587,0,0,1,24.8901,34.1129Z" style="fill:#89dbba"/><path d="M36.5255,33.6447a12.72109,12.72109,0,0,0,4.4361-6.3412s-4.2951-.8892-7.3271,1.1269c-3.0317,2.0163-3.6518,6.174-3.6518,6.174A8.45137,8.45137,0,0,0,36.5255,33.6447Z" style="fill:#b1f1a8"/><path d="M29.6416,36.97656h-.0083a8.47513,8.47513,0,0,1-5.4585-2.165A7.93139,7.93139,0,0,1,22.14844,29.063a1.04652,1.04652,0,0,1,.72852-.7207,1.01438,1.01438,0,0,1,.33838-.02637,8.65078,8.65078,0,0,1,5.52832,2.1582,8.00128,8.00128,0,0,1,1.896,5.56445A1.00009,1.00009,0,0,1,29.6416,36.97656Zm-5.43848-6.5459a5.93874,5.93874,0,0,0,1.40234,2.9834,5.67335,5.67335,0,0,0,2.98193,1.437A5.22692,5.22692,0,0,0,27.313,31.87158,5.79913,5.79913,0,0,0,24.20313,30.43066Z" style="fill:#6d6daa"/><path d="M32.208,35.88184a9.43414,9.43414,0,0,1-2.51318-.31982,1.00022,1.00022,0,0,1-.70117-1.105c.02832-.188.72461-4.62256,4.08691-6.85937,3.1377-2.08691,7.34082-1.41309,8.001-1.28906a.98638.98638,0,0,1,.334.09668,1.03128,1.03128,0,0,1,.56006.84863c.04688.73633-1.80908,5.16992-4.89648,7.22314h0A8.72879,8.72879,0,0,1,32.208,35.88184Zm-1.01807-2.06543A7.14811,7.14811,0,0,0,35.97168,32.812a11.83172,11.83172,0,0,0,3.645-4.66846A8.96486,8.96486,0,0,0,34.188,29.2627,8.19933,8.19933,0,0,0,31.18994,33.81641Zm5.33545-.17187h0Z" style="fill:#6d6daa"/><polygon points="38 59 22 59 19 45 41 45 38 59" style="fill:#c9c1f5;fill-rule:evenodd"/><polygon points="22 45 25 59 29 59 26 45 22 45" style="fill:#fff;fill-rule:evenodd;opacity:0.5"/><polygon points="40.357 48 41 45 19 45 19.643 48 40.357 48" style="fill:#2c4b75;fill-rule:evenodd;opacity:0.2"/><polygon points="21.357 56 22 59 38 59 38.643 56 21.357 56" style="fill:#2c4b75;fill-rule:evenodd;opacity:0.2"/><rect height="4" style="fill:#c9c1f5" width="26" x="17" y="41"/><rect height="4" style="fill:#fff;opacity:0.5" width="4" x="22" y="41"/><path d="M38,60H22a1.00058,1.00058,0,0,1-.978-.79053l-3-14A.99982.99982,0,0,1,19,44H41a.99982.99982,0,0,1,.978,1.20947l-3,14A1.00058,1.00058,0,0,1,38,60ZM22.80859,58H37.19141l2.57178-12H20.23682Z" style="fill:#6d6daa"/><path d="M43,46H17a1,1,0,0,1-1-1V41a1,1,0,0,1,1-1H43a1,1,0,0,1,1,1v4A1,1,0,0,1,43,46ZM18,44H42V42H18Z" style="fill:#6d6daa"/><rect height="20" style="fill:#89dbba" width="38" x="11" y="1"/><path d="M46,16a2,2,0,0,0-2,2H16a2,2,0,0,0-2-2V6a2,2,0,0,0,2-2H44a2,2,0,0,0,2,2Z" style="fill:#b1f1a8"/><rect height="10" style="fill:#2c4b75;opacity:0.2" width="38" x="11" y="11"/><path d="M44,19H16a1,1,0,0,1-1-1,1.0013,1.0013,0,0,0-1-1,1,1,0,0,1-1-1V6a1,1,0,0,1,1-1,1.0013,1.0013,0,0,0,1-1,1,1,0,0,1,1-1H44a1,1,0,0,1,1,1,1.0013,1.0013,0,0,0,1,1,1,1,0,0,1,1,1V16a1,1,0,0,1-1,1,1.0013,1.0013,0,0,0-1,1A1,1,0,0,1,44,19ZM16.82861,17H43.17139A3.01522,3.01522,0,0,1,45,15.17139V6.82861A3.01522,3.01522,0,0,1,43.17139,5H16.82861A3.01522,3.01522,0,0,1,15,6.82861v8.34277A3.01522,3.01522,0,0,1,16.82861,17Z" style="fill:#6d6daa"/><ellipse cx="30" cy="11" rx="5.8333" ry="7" style="fill:#89dbba"/><path d="M41,13a2,2,0,1,1,2-2A2.002,2.002,0,0,1,41,13Zm0-2h0Zm0,0h0Zm0,0h0Zm0-.00049h0Zm0,0h0Zm0-.00049h0Zm0,0h0Zm0,0h0Z" style="fill:#6d6daa"/><path d="M19,13a2,2,0,1,1,2-2A2.002,2.002,0,0,1,19,13Zm0-2h0Zm0,0h0Zm0,0h0Zm0-.00049h0Zm0,0h0Zm0-.00049h0Zm0,0h0Zm0,0h0Z" style="fill:#6d6daa"/><path d="M34.1583,15.9081a5.98784,5.98784,0,0,0-2.5235-1.3172.30343.30343,0,0,1-.2632-.3068c.0074-.1648.0073-.3397.0065-.5218,0-.4176.5269-.9209.5557-1.5074a2.27765,2.27765,0,0,0,.2755-.9593.47941.47941,0,0,0-.1245-.3666c.043-.2183.0796-.4493.1245-.6872a1.53822,1.53822,0,0,0-1.0496-1.9433,6.43762,6.43762,0,0,1-2.1263-.779c-.1777-.1642-.0559.7606-.2169.8297a1.52057,1.52057,0,0,0-1.0258,1.8926c.0449.2379.0815.4689.1245.6872a.47941.47941,0,0,0-.1245.3666,2.27775,2.27775,0,0,0,.2755.9593c.0287.5865.5557,1.0605.5557,1.5074-.0008.1821-.0009.357.0065.5218a.30343.30343,0,0,1-.2632.3068,6.10287,6.10287,0,0,0-2.5582,1.2746A5.3212,5.3212,0,0,0,30,18,5.21287,5.21287,0,0,0,34.1583,15.9081Z" style="fill:#b1f1a8"/><path d="M49,22H11a1,1,0,0,1-1-1V1a1,1,0,0,1,1-1H49a1,1,0,0,1,1,1V21A1,1,0,0,1,49,22ZM12,20H48V2H12Z" style="fill:#6d6daa"/><path d="M30,19c-3.76807,0-6.8335-3.58887-6.8335-8S26.23193,3,30,3s6.8335,3.58887,6.8335,8S33.76807,19,30,19ZM30,5c-2.665,0-4.8335,2.69141-4.8335,6S27.335,17,30,17s4.8335-2.69141,4.8335-6S32.665,5,30,5Z" style="fill:#6d6daa"/><path d="M30,19a6.3498,6.3498,0,0,1-4.99512-2.5376.99935.99935,0,0,1,.166-1.36816,7.64764,7.64764,0,0,1,2.42871-1.3457,1.68352,1.68352,0,0,1-.10352-.17383,3.19369,3.19369,0,0,1-.4043-1.04053,3.10963,3.10963,0,0,1-.30127-1.23877,1.65877,1.65877,0,0,1,.07959-.52295l-.062-.34521a2.44526,2.44526,0,0,1,1.11865-2.74072,1.17189,1.17189,0,0,1,.68213-1.11084,1.08845,1.08845,0,0,1,1.10254.209,5.13774,5.13774,0,0,0,1.32373.44727c.19629.04785.354.08838.44531.11914a2.51809,2.51809,0,0,1,1.71191,3.07568l-.0625.3457a1.65877,1.65877,0,0,1,.07959.52295,3.112,3.112,0,0,1-.30127,1.23926A3.323,3.323,0,0,1,32.5,13.59326c-.03076.05664-.0625.11035-.08936.1626a7.5973,7.5973,0,0,1,2.38379,1.38086.9999.9999,0,0,1,.1665,1.36816A6.20872,6.20872,0,0,1,30,19Zm-2.65771-2.96875A4.27045,4.27045,0,0,0,30,17a4.19866,4.19866,0,0,0,2.64307-.94385,3.58809,3.58809,0,0,0-1.17529-.47949,1.30592,1.30592,0,0,1-1.09521-1.3374c.00684-.14893.00635-.30713.00537-.47168a2.34581,2.34581,0,0,1,.3623-1.125,1.74257,1.74257,0,0,0,.19434-.43652,1.00946,1.00946,0,0,1,.10645-.40186,1.75843,1.75843,0,0,0,.15527-.416.99978.99978,0,0,1-.09229-.65234l.123-.67969c.11133-.59131-.1001-.71289-.38818-.81055-.05762-.01855-.15527-.04053-.27441-.06934-.30811-.07471-.61963-.1543-.9165-.24951a1.02785,1.02785,0,0,1-.43848.3418c-.47363.20313-.51855.35059-.43652.7876l.123.67969a.99978.99978,0,0,1-.09229.65234,1.75843,1.75843,0,0,0,.15527.416.99579.99579,0,0,1,.10645.40234,1.65539,1.65539,0,0,0,.18457.40723,2.35079,2.35079,0,0,1,.37207,1.14844c-.001.16992-.00146.32813.00537.47754a1.30658,1.30658,0,0,1-1.09619,1.3374A3.96948,3.96948,0,0,0,27.34229,16.03125Zm.856-2.42627-.00244.00049Zm3.60254-.00049.002.00049Zm-.4082-1.95361.001.001Zm-2.78516,0-.001.001Zm-.18555-4.2207-.00342.00146Z" style="fill:#6d6daa"/></svg>