<?xml version="1.0" ?><svg height="60" id="Security" viewBox="0 0 60 60" width="60" xmlns="http://www.w3.org/2000/svg"><title/><path d="M30,6a1,1,0,0,1-1-1V1a1,1,0,0,1,2,0V5A1,1,0,0,1,30,6Z" style="fill:#6d6daa"/><path d="M30,48a1,1,0,0,1-1-1V27a1,1,0,0,1,2,0V47A1,1,0,0,1,30,48Z" style="fill:#6d6daa"/><path d="M48,27c4.97059,0,9,2.2385,9,5A27,27,0,0,0,3,32c0-2.7615,4.0294-5,9-5s9,2.2385,9,5c0-2.7615,4.02939-5,9-5s9,2.2385,9,5C39,29.2385,43.02939,27,48,27Z" style="fill:#89dbba"/><g style="opacity:0.2"><path d="M33.3598,5.21552a28.7165,28.7165,0,0,1,16.246,21.86841C53.809,27.50519,57,29.54346,57,32A26.999,26.999,0,0,0,33.3598,5.21552Z" style="fill:#2c4b75"/></g><path d="M48,24c-4.97058,0-9,2.23846-9,5,0-2.76154-4.02942-5-9-5s-9,2.23846-9,5c0-2.76154-4.02942-5-9-5-4.09912,0-7.5517,1.5238-8.63861,3.60651A27.16525,27.16525,0,0,0,3,32c0-2.76154,4.02942-5,9-5s9,2.23846,9,5c0-2.76154,4.02942-5,9-5s9,2.23846,9,5c0-2.76154,4.02942-5,9-5s9,2.23846,9,5a27.16525,27.16525,0,0,0-.36139-4.39349C55.5517,25.5238,52.09912,24,48,24Z" style="fill:#2c4b75;opacity:0.2"/><path d="M9.26807,27.23608a15.74111,15.74111,0,0,1,4.9516-.07654A9.71738,9.71738,0,0,1,15.952,27c.08752,0,.17242.00708.25916.00934A50.04689,50.04689,0,0,1,22.13849,6.94971C15.50635,10.37036,10.55524,17.9892,9.26807,27.23608Z" style="fill:#fff;opacity:0.5"/><path d="M29.01727,27.03113C29.10358,14.49463,29.51062,5,30,5c-2.49829,0-4.56842,9.895-4.94025,22.82294A14.0665,14.0665,0,0,1,29.01727,27.03113Z" style="fill:#fff;opacity:0.5"/><path d="M28,53a6,6,0,0,0,12,0,2,2,0,0,0-4,0,2,2,0,0,1-4,0V47H28Z" style="fill:#d6b5b0"/><path d="M34,56a6,6,0,0,1-6-6v3a6,6,0,0,0,12,0,1.98608,1.98608,0,0,0-.32-1.07855A5.99842,5.99842,0,0,1,34,56Z" style="fill:#750000;opacity:0.2"/><path d="M35.723,54.5139A5.00342,5.00342,0,0,1,38,54a1.99446,1.99446,0,0,1,1.68.92145A5.981,5.981,0,0,0,40,53a2,2,0,0,0-4,0C36,54.10461,34.69022,54.90565,35.723,54.5139Z" style="fill:#fff;opacity:0.5"/><rect height="3" style="fill:#fff;opacity:0.5" width="4" x="28" y="47"/><path d="M57,33a1,1,0,0,1-1-1c0-1.89209-3.28564-4-8-4s-8,2.10791-8,4a1,1,0,0,1-2,0c0-1.89209-3.28564-4-8-4s-8,2.10791-8,4a1,1,0,0,1-2,0c0-1.89209-3.28564-4-8-4s-8,2.10791-8,4a1,1,0,0,1-2,0,28,28,0,0,1,56,0A1,1,0,0,1,57,33ZM30,26c4.00684,0,7.39307,1.3457,9,3.34131C40.60693,27.3457,43.99316,26,48,26a13.39786,13.39786,0,0,1,7.71436,2.14111,26.00269,26.00269,0,0,0-51.42871,0A13.39786,13.39786,0,0,1,12,26c4.00684,0,7.39307,1.3457,9,3.34131C22.60693,27.3457,25.99316,26,30,26Z" style="fill:#6d6daa"/><path d="M39,33a1,1,0,0,1-1-1c0-1.89209-3.28564-4-8-4s-8,2.10791-8,4a1,1,0,0,1-2,0C20,18.42627,23.50488,4,30,4S40,18.42627,40,32A1,1,0,0,1,39,33Zm-9-7a13.1744,13.1744,0,0,1,7.916,2.2915C37.30469,14.98193,33.4707,6,30,6s-7.30469,8.98193-7.916,22.2915A13.1744,13.1744,0,0,1,30,26Z" style="fill:#6d6daa"/><path d="M34,60a7.00786,7.00786,0,0,1-7-7V47a1,1,0,0,1,1-1h4a1,1,0,0,1,1,1v6a1,1,0,0,0,2,0,3,3,0,0,1,6,0A7.00786,7.00786,0,0,1,34,60ZM29,48v5a5,5,0,0,0,10,0,1,1,0,0,0-2,0,3,3,0,0,1-6,0V48Z" style="fill:#6d6daa"/></svg>