<?xml version="1.0" ?><svg data-name="Multimedia 3" height="60" id="Multimedia_3" viewBox="0 0 60 60" width="60" xmlns="http://www.w3.org/2000/svg"><title/><path d="M16.49023,23.50977a.99114.99114,0,0,1-.38086-1.35986h0A1.00005,1.00005,0,0,1,17.46973,21.77h0a.99839.99839,0,0,1,.37988,1.35986h0a.99389.99389,0,0,1-.87012.50977h0A.94468.94468,0,0,1,16.49023,23.50977ZM13,21.54a.999.999,0,0,1-.37988-1.36035h0a1.0134,1.0134,0,0,1,1.37012-.37988h0a1.0001,1.0001,0,0,1,.37988,1.35986h0a1.01195,1.01195,0,0,1-.87988.51025h0A1.00235,1.00235,0,0,1,13,21.54Z" style="fill:#6d6daa"/><circle cx="30" cy="4" r="3" style="fill:#b1f1a8"/><path d="M30,8a4,4,0,1,1,4-4A4.00427,4.00427,0,0,1,30,8Zm0-6a2,2,0,1,0,2,2A2.00229,2.00229,0,0,0,30,2Z" style="fill:#6d6daa"/><circle cx="30" cy="56" r="3" style="fill:#b1f1a8"/><path d="M30,60a4,4,0,1,1,4-4A4.00427,4.00427,0,0,1,30,60Zm0-6a2,2,0,1,0,2,2A2.00229,2.00229,0,0,0,30,54Z" style="fill:#6d6daa"/><circle cx="7" cy="43" r="3" style="fill:#b1f1a8"/><path d="M7,47a4,4,0,1,1,4-4A4.00427,4.00427,0,0,1,7,47Zm0-6a2,2,0,1,0,2,2A2.00229,2.00229,0,0,0,7,41Z" style="fill:#6d6daa"/><path d="M30,51a1.05235,1.05235,0,0,1-.71-.29,1.15386,1.15386,0,0,1-.21-.33008A.8316.8316,0,0,1,29,50a1,1,0,1,1,2,0,.84442.84442,0,0,1-.08008.37988,1.15386,1.15386,0,0,1-.21.33008A1.05423,1.05423,0,0,1,30,51Z" style="fill:#6d6daa"/><path d="M29,46a1.00288,1.00288,0,0,1,1-1h0a1.00288,1.00288,0,0,1,1,1h0a1.00319,1.00319,0,0,1-1,1h0A1.00319,1.00319,0,0,1,29,46Z" style="fill:#6d6daa"/><path d="M30,43a1.05235,1.05235,0,0,1-.71-.29A1.02954,1.02954,0,0,1,29,42a1.00405,1.00405,0,1,1,1,1Z" style="fill:#6d6daa"/><path d="M29,15a1.00288,1.00288,0,0,1,1-1h0a1.00288,1.00288,0,0,1,1,1h0a1.00319,1.00319,0,0,1-1,1h0A1.00319,1.00319,0,0,1,29,15Zm0-4a1.00288,1.00288,0,0,1,1-1h0a1.00288,1.00288,0,0,1,1,1h0a1.00319,1.00319,0,0,1-1,1h0A1.00319,1.00319,0,0,1,29,11Z" style="fill:#6d6daa"/><circle cx="53" cy="43" r="3" style="fill:#b1f1a8"/><path d="M53,47a4,4,0,1,1,4-4A4.00427,4.00427,0,0,1,53,47Zm0-6a2,2,0,1,0,2,2A2.00229,2.00229,0,0,0,53,41Z" style="fill:#6d6daa"/><circle cx="7" cy="17" r="3" style="fill:#b1f1a8"/><path d="M7,21a4,4,0,1,1,4-4A4.00427,4.00427,0,0,1,7,21Zm0-6a2,2,0,1,0,2,2A2.00229,2.00229,0,0,0,7,15Z" style="fill:#6d6daa"/><circle cx="53" cy="17" r="3" style="fill:#b1f1a8"/><path d="M53,21a4,4,0,1,1,4-4A4.00427,4.00427,0,0,1,53,21Zm0-6a2,2,0,1,0,2,2A2.00229,2.00229,0,0,0,53,15Z" style="fill:#6d6daa"/><path d="M15.41016,39.25a1.39038,1.39038,0,0,1-.2002-.02.71664.71664,0,0,1-.19043-.06006.5587.5587,0,0,1-.16992-.09033A1.88284,1.88284,0,0,1,14.7002,38.96a1.01394,1.01394,0,0,1,0-1.41992.87085.87085,0,0,1,.14941-.12012.5587.5587,0,0,1,.16992-.09033A.6978.6978,0,0,1,15.21,37.27a.84721.84721,0,0,1,.38965,0,.60664.60664,0,0,1,.19043.05957.5587.5587,0,0,1,.16992.09033.60869.60869,0,0,1,.14941.12012.998.998,0,0,1,.30078.71,1.01613,1.01613,0,0,1-.30078.71.96915.96915,0,0,1-.14941.11963.5587.5587,0,0,1-.16992.09033.62025.62025,0,0,1-.19043.06006A1.24751,1.24751,0,0,1,15.41016,39.25Z" style="fill:#6d6daa"/><path d="M12.58984,40.83984a1.05006,1.05006,0,0,1-.71-.29,1.01394,1.01394,0,0,1,0-1.41992.9911.9911,0,0,1,.90039-.27.58931.58931,0,0,1,.18945.06006.54632.54632,0,0,1,.16992.08984.9635.9635,0,0,1,.15039.12012.99052.99052,0,0,1,0,1.41992.6074.6074,0,0,1-.15039.12012.54632.54632,0,0,1-.16992.08984.58932.58932,0,0,1-.18945.06006A.62063.62063,0,0,1,12.58984,40.83984Z" style="fill:#6d6daa"/><path d="M42.5,22.92969a1.00089,1.00089,0,0,1,.37988-1.35986h0a1.00005,1.00005,0,0,1,1.36035.37988h0a1.00013,1.00013,0,0,1-.38086,1.36035h0a.94468.94468,0,0,1-.48926.12988h0A.98315.98315,0,0,1,42.5,22.92969Zm3.47949-1.96a1.01464,1.01464,0,0,1,.37988-1.37012h0a.99973.99973,0,0,1,1.36035.38037h0a.99925.99925,0,0,1-.37988,1.35986h0a.9506.9506,0,0,1-.49023.12988h0A.99539.99539,0,0,1,45.97949,20.96973Z" style="fill:#6d6daa"/><path d="M44.58984,39.25a1.27346,1.27346,0,0,1-.19043-.02.61438.61438,0,0,1-.18945-.06006.5476.5476,0,0,1-.16992-.09033.93512.93512,0,0,1-.15039-.11963,1.01931,1.01931,0,0,1-.2998-.71,1,1,0,0,1,.08008-.38037.83358.83358,0,0,1,.21973-.32959.59646.59646,0,0,1,.15039-.12012.5476.5476,0,0,1,.16992-.09033.6009.6009,0,0,1,.18945-.05957.8514.8514,0,0,1,.39063,0,.69164.69164,0,0,1,.18945.05957.5476.5476,0,0,1,.16992.09033.84183.84183,0,0,1,.15039.12012.952.952,0,0,1,.21973.32959.99058.99058,0,0,1,.07031.38037,1.00521,1.00521,0,0,1-.29.71,1.74082,1.74082,0,0,1-.15039.11963.5476.5476,0,0,1-.16992.09033A.71033.71033,0,0,1,44.79,39.23,1.39038,1.39038,0,0,1,44.58984,39.25Z" style="fill:#6d6daa"/><path d="M47.41016,40.83984a1.00654,1.00654,0,0,1-.7002-.29.8251.8251,0,0,1-.21973-.33008.98141.98141,0,0,1-.08008-.37988,1.005,1.005,0,0,1,1.19922-.98.6241.6241,0,0,1,.18066.06006.75385.75385,0,0,1,.17969.08984c.0498.04.09961.08008.15039.12012a1.00853,1.00853,0,0,1,.29.71.98984.98984,0,0,1-.07031.37988,1.11382,1.11382,0,0,1-.21973.33008A1.01571,1.01571,0,0,1,47.41016,40.83984Z" style="fill:#6d6daa"/><path d="M40.45149,27.3309a7.49473,7.49473,0,0,0-14.4674-3.4626A3.99676,3.99676,0,0,0,19.5,27c0,.1156.00769.2293.01729.3424A5.99688,5.99688,0,0,0,21.5,39h17a5.99727,5.99727,0,0,0,1.95149-11.6691Z" style="fill:#eef6ff"/><path d="M19.51727,30.34241C19.50769,30.22931,19.5,30.1156,19.5,30a3.99676,3.99676,0,0,1,6.48407-3.13171,7.4928,7.4928,0,0,1,14.46741,3.46259A5.99967,5.99967,0,0,1,44.29736,34.523a5.967,5.967,0,0,0-3.84589-7.19214,7.49473,7.49473,0,0,0-14.46741-3.46259A3.99676,3.99676,0,0,0,19.5,27c0,.1156.00769.22931.01727.34241a5.96615,5.96615,0,0,0-3.81476,7.18024A5.9996,5.9996,0,0,1,19.51727,30.34241Z" style="fill:#fff;opacity:0.75"/><path d="M38.5,36h-17a5.9969,5.9969,0,0,1-5.79749-4.47736A5.93883,5.93883,0,0,0,21.5,39h17a5.93809,5.93809,0,0,0,5.79736-7.477A5.99691,5.99691,0,0,1,38.5,36Z" style="fill:#5cbeff;opacity:0.300000011920929"/><path d="M38.5,40h-17a6.99638,6.99638,0,0,1-2.98926-13.32373A5.00562,5.00562,0,0,1,23.5,22a4.95246,4.95246,0,0,1,2.04395.43555A8.49422,8.49422,0,0,1,41.5,26.5c0,.06006-.001.11963-.002.1792A6.99713,6.99713,0,0,1,38.5,40Zm-15-16a3.00328,3.00328,0,0,0-3,3c0,.08643.00684.17188.01367.25586a.99983.99983,0,0,1-.665,1.03027A4.99675,4.99675,0,0,0,21.5,38h17a4.99732,4.99732,0,0,0,1.626-9.72363A.99977.99977,0,0,1,39.457,27.2207a6.4941,6.4941,0,0,0-12.53613-3.001,1.00056,1.00056,0,0,1-1.55859.43164A2.96514,2.96514,0,0,0,23.5,24Z" style="fill:#6d6daa"/><path d="M44.5,34a.99974.99974,0,0,1-1-1,5.00589,5.00589,0,0,0-5-5,1,1,0,0,1,0-2,7.00818,7.00818,0,0,1,7,7A.99974.99974,0,0,1,44.5,34Z" style="fill:#6d6daa"/><path d="M15.5,34a.99974.99974,0,0,1-1-1,7.00818,7.00818,0,0,1,7-7,1,1,0,0,1,0,2,5.00589,5.00589,0,0,0-5,5A.99974.99974,0,0,1,15.5,34Z" style="fill:#6d6daa"/><path d="M27.04688,26.14648a.99974.99974,0,0,1-.88672-.53564A2.99538,2.99538,0,0,0,23.5,24a1,1,0,0,1,0-2,4.99066,4.99066,0,0,1,4.43164,2.68213,1.00029,1.00029,0,0,1-.88477,1.46436Z" style="fill:#6d6daa"/></svg>