<?xml version="1.0" encoding="UTF-8" standalone="no"?><!DOCTYPE svg PUBLIC "-//W3C//DTD SVG 1.1//EN" "http://www.w3.org/Graphics/SVG/1.1/DTD/svg11.dtd"><svg width="100%" height="100%" viewBox="0 0 128 128" version="1.1" xmlns="http://www.w3.org/2000/svg" xmlns:xlink="http://www.w3.org/1999/xlink" xml:space="preserve" xmlns:serif="http://www.serif.com/" style="fill-rule:evenodd;clip-rule:evenodd;stroke-linejoin:round;stroke-miterlimit:1.41421;"><path d="M63.973,110.185l54.118,-1.688c0.721,0.055 1.361,-0.488 1.425,-1.208l0,-85.729c0,-0.662 -0.545,-1.207 -1.208,-1.207l-54.335,-3.242l0,93.074Z" style="fill:#f5dbb8;fill-rule:nonzero;"/><path d="M118.091,103.667l-53.508,2.553l-0.156,4.262l53.664,-1.985c0.721,0.055 1.361,-0.488 1.425,-1.208l0,-4.83c-0.064,0.72 -0.704,1.263 -1.425,1.208Z" style="fill:#875499;fill-opacity:0.3;fill-rule:nonzero;"/><path d="M118.308,20.353c0.663,0 1.208,0.545 1.208,1.207l0,4.83c0,-0.662 -0.545,-1.208 -1.208,-1.208l-53.627,-3.609l0.204,-5.098l53.423,3.878Z" style="fill:#fff;fill-opacity:0.5;fill-rule:nonzero;"/><path d="M118.091,109.704l-54.158,3.326c-0.662,0 -1.168,-3.871 -1.168,-4.533l0.756,-88.145c0,-0.662 0.765,-5.188 1.427,-5.188l53.36,3.981c1.325,0 2.415,1.09 2.415,2.415l0,85.729c-0.065,1.382 -1.25,2.469 -2.632,2.415Zm-52.962,0.4l52.962,-2.815c0.087,0.009 0.174,-0.017 0.241,-0.072l-0.024,-85.657l-53.75,-3.923l0.571,92.467Z" style="fill:#6d6daa;fill-rule:nonzero;"/><path d="M9.855,108.497l53.988,2.312l0.015,-94.486l-54.22,4.03c-0.663,0 -1.208,0.545 -1.208,1.207l0,85.729c0.064,0.72 0.704,1.263 1.425,1.208Z" style="fill:#fffad1;fill-rule:nonzero;"/><rect x="28.957" y="20.353" width="14.489" height="19.319" style="fill:#d6b5b0;"/><path d="M9.638,20.353c-0.663,0 -1.208,0.545 -1.208,1.207l0,4.83c0,-0.662 0.545,-1.208 1.208,-1.208l54.344,-3.484l0.029,-5.348l-54.373,4.003Z" style="fill:#fff;fill-opacity:0.5;fill-rule:nonzero;"/><path d="M8.43,102.459l0,4.83c0.064,0.72 0.704,1.263 1.425,1.208l53.591,3.008l0.103,-5.108l-53.694,-2.73c-0.721,0.055 -1.361,-0.488 -1.425,-1.208Z" style="fill:#875499;fill-opacity:0.3;fill-rule:nonzero;"/><path d="M63.816,113.024l-53.961,-3.32c-1.383,0.054 -2.567,-1.033 -2.632,-2.415l0,-85.729c0,-1.325 1.09,-2.415 2.415,-2.415l55.243,-3.973c0.662,0 0.31,4.518 0.31,5.181l-0.011,88.144c0,0.662 -0.702,4.527 -1.364,4.527Zm-54.178,-5.735c0.064,0.005 0.129,0.005 0.193,0l53.067,2.947l0.415,-92.483l-53.675,3.807l0,85.729Z" style="fill:#6d6daa;fill-rule:nonzero;"/><rect x="17.933" y="78.31" width="36.38" height="16.904" style="fill:#fff;"/><path d="M54.313,96.422l-36.38,0c-0.663,0 -1.208,-0.545 -1.208,-1.207l0,-16.905c0,-0.662 0.545,-1.207 1.208,-1.207l36.38,0c0.663,0 1.208,0.545 1.208,1.207l0,16.905c0,0.662 -0.545,1.207 -1.208,1.207Zm-35.173,-2.415l33.966,0l0,-14.489l-33.966,0l0,14.489Z" style="fill:#6d6daa;fill-rule:nonzero;"/><rect x="21.712" y="81.933" width="6.037" height="2.415" style="fill:#b6b6d4;"/><rect x="21.712" y="90.385" width="3.622" height="2.415" style="fill:#b6b6d4;"/><rect x="27.749" y="90.385" width="3.622" height="2.415" style="fill:#b6b6d4;"/><rect x="33.787" y="90.385" width="3.622" height="2.415" style="fill:#b6b6d4;"/><rect x="30.164" y="81.933" width="6.037" height="2.415" style="fill:#b6b6d4;"/><rect x="38.616" y="81.933" width="8.452" height="2.415" style="fill:#b6b6d4;"/><rect x="21.712" y="85.555" width="13.282" height="2.415" style="fill:#b6b6d4;"/><rect x="37.409" y="85.555" width="12.075" height="2.415" style="fill:#b6b6d4;"/><g><g opacity="0.5"><path d="M72.425,74.688l0,6.037c0.004,3.518 2.569,6.55 6.037,7.136l0,6.146l-3.622,0l0,2.415l9.66,0l0,-2.415l-3.623,0l0,-6.146c3.469,-0.586 6.034,-3.618 6.037,-7.136l0,-6.037l-14.489,0Z" style="fill:#875499;fill-rule:nonzero;"/><rect x="94.159" y="78.31" width="3.622" height="18.112" style="fill:#875499;"/><path d="M95.97,74.76l-5.433,5.965l10.867,0l-5.434,-5.965Z" style="fill:#875499;fill-rule:nonzero;"/><rect x="105.026" y="78.31" width="3.622" height="18.112" style="fill:#875499;"/><path d="M106.837,74.76l-5.433,5.965l10.867,0l-5.434,-5.965Z" style="fill:#875499;fill-rule:nonzero;"/></g></g><path d="M43.427,39.947l-14.47,0.932c-0.663,0 -1.208,-0.545 -1.208,-1.207l0,-19.319c0,-0.663 0.545,-1.208 1.208,-1.208l14.489,0c0.663,0 1.355,-1.038 1.355,-0.375l-0.189,19.857c0,0.662 -0.523,1.32 -1.185,1.32Zm-13.263,-1.483l12.075,-0.957l0.036,-17.046l-12.217,0.716l0.106,17.287Z" style="fill:#6d6daa;fill-rule:nonzero;"/></svg>