<?xml version="1.0" ?><svg data-name="001" id="_001" viewBox="0 0 128 128" xmlns="http://www.w3.org/2000/svg"><defs><style>.cls-1{opacity:0.3;}.cls-2{fill:#97c1ff;}.cls-3{fill:#eef6ff;}.cls-4{fill:#5cbeff;}.cls-5{fill:#fff;}.cls-6{fill:#6d6daa;}.cls-7{fill:#ced8ee;}.cls-8{fill:#7690a8;}.cls-9{fill:#b1f1a8;}.cls-10{fill:#48bc33;}.cls-11{opacity:0.5;}.cls-12{fill:#c9c1f5;}.cls-13{fill:#96d7ff;}</style></defs><title/><g class="cls-1"><path class="cls-2" d="M126.69,49.66a30,30,0,0,0-23.51-25,19.69,19.69,0,0,1-10.93-6.55A37,37,0,0,0,28,33.44,21,21,0,0,1,17.11,47.11C2.94,54.47-4.15,73.57,8.76,91.5a16.6,16.6,0,0,0,6.35,4.91,20.58,20.58,0,0,1,10,10.88,28.49,28.49,0,0,0,42.62,12.64A20.06,20.06,0,0,1,84.38,117a29,29,0,0,0,36-33.79,20.08,20.08,0,0,1,2.51-14.13A29.83,29.83,0,0,0,126.69,49.66Z"/><path class="cls-3" d="M53.12,29a9,9,0,0,0-17.43-4.16,4.82,4.82,0,0,0-7.81,3.76c0,.14,0,.28,0,.41a7.19,7.19,0,0,0,2.39,14H50.77a7.19,7.19,0,0,0,2.35-14Z"/><g class="cls-1"><path class="cls-4" d="M50.77,40.6H30.29a7.22,7.22,0,0,1-7.12-6A7.19,7.19,0,0,0,30.29,43H50.77a7.19,7.19,0,0,0,7.12-8.42A7.22,7.22,0,0,1,50.77,40.6Z"/></g><path class="cls-5" d="M27.9,31.41c0-.14,0-.27,0-.41a4.82,4.82,0,0,1,7.81-3.76A9,9,0,0,1,53.12,31.4,7.22,7.22,0,0,1,57.89,37a7.13,7.13,0,0,0-4.77-8,9,9,0,0,0-17.43-4.16,4.82,4.82,0,0,0-7.81,3.76c0,.14,0,.28,0,.41a7.12,7.12,0,0,0-4.74,8A7.21,7.21,0,0,1,27.9,31.41Z"/><path class="cls-6" d="M50.77,44H30.29a8.19,8.19,0,0,1-3.4-15.66,5.82,5.82,0,0,1,8.37-5A10,10,0,0,1,54.18,28q0,.17,0,.34A8.19,8.19,0,0,1,50.77,44ZM32.7,24.8a3.81,3.81,0,0,0-3.82,3.8c0,.11,0,.22,0,.33a1,1,0,0,1-.67,1,6.19,6.19,0,0,0,2.06,12H50.77a6.19,6.19,0,0,0,2-12.06,1,1,0,0,1-.67-1.06,7.78,7.78,0,0,0,.05-.88,8,8,0,0,0-15.56-2.81,1,1,0,0,1-1.56.43A3.79,3.79,0,0,0,32.7,24.8Z"/><path class="cls-3" d="M50.77,28.6a7.25,7.25,0,0,1,2.37.4"/><path class="cls-6" d="M53.14,30a1,1,0,0,1-.33-.05,6.25,6.25,0,0,0-2-.34,1,1,0,0,1,0-2,8.23,8.23,0,0,1,2.7.45A1,1,0,0,1,53.14,30Z"/><path class="cls-3" d="M27.89,29a7.25,7.25,0,0,1,2.39-.4"/><path class="cls-6" d="M27.89,30a1,1,0,0,1-.33-1.94,8.25,8.25,0,0,1,2.72-.46,1,1,0,0,1,0,2,6.26,6.26,0,0,0-2.06.35A1,1,0,0,1,27.89,30Z"/><path class="cls-3" d="M35.66,24.81A4.83,4.83,0,0,1,37,26.38"/><path class="cls-6" d="M37,27.38a1,1,0,0,1-.89-.53,3.81,3.81,0,0,0-1-1.24A1,1,0,1,1,36.27,24a5.79,5.79,0,0,1,1.58,1.89A1,1,0,0,1,37,27.38Z"/><path class="cls-3" d="M9.1,81.5A11.29,11.29,0,0,1,30.89,76.3,6,6,0,0,1,40.66,81c0,.17,0,.34,0,.51a9,9,0,0,1-3,17.49H12A9,9,0,0,1,9.1,81.5Z"/><g class="cls-1"><path class="cls-4" d="M12,96H37.64a9,9,0,0,0,8.91-7.52A9,9,0,0,1,37.64,99H12A9,9,0,0,1,3.13,88.48,9,9,0,0,0,12,96Z"/></g><path class="cls-5" d="M40.63,84.51c0-.17,0-.34,0-.51a6,6,0,0,0-9.77-4.7A11.28,11.28,0,0,0,9.1,84.5a9,9,0,0,0-6,7,8.91,8.91,0,0,1,6-10A11.29,11.29,0,0,1,30.89,76.3,6,6,0,0,1,40.66,81c0,.17,0,.34,0,.51a8.9,8.9,0,0,1,5.92,10A9,9,0,0,0,40.63,84.51Z"/><path class="cls-6" d="M37.64,100H12A10,10,0,0,1,8,80.83q0-.3,0-.58a12.3,12.3,0,0,1,23.31-5.43,7,7,0,0,1,10.32,6,10,10,0,0,1-4,19.16ZM20.32,70A10.22,10.22,0,0,0,10.09,81.39a1,1,0,0,1-.67,1.06A8,8,0,0,0,12,98H37.64A8,8,0,0,0,40.3,82.46a1,1,0,0,1-.67-1c0-.14,0-.28,0-.43a5,5,0,0,0-8.15-3.91A1,1,0,0,1,30,76.66,10.34,10.34,0,0,0,20.32,70Z"/><path class="cls-3" d="M12,81a9.06,9.06,0,0,0-3,.5"/><path class="cls-6" d="M9.07,82.5a1,1,0,0,1-.33-1.95A10.06,10.06,0,0,1,12,80a1,1,0,1,1,0,2,8,8,0,0,0-2.64.44A1,1,0,0,1,9.07,82.5Z"/><path class="cls-3" d="M40.63,81.5a9.06,9.06,0,0,0-3-.5"/><path class="cls-6" d="M40.63,82.5a1,1,0,0,1-.33-.06A8,8,0,0,0,37.64,82a1,1,0,0,1,0-2,10.06,10.06,0,0,1,3.32.56,1,1,0,0,1-.33,1.94Z"/><path class="cls-3" d="M30.93,76.27a6,6,0,0,0-1.64,2"/><path class="cls-6" d="M29.29,79.22a1,1,0,0,1-.88-1.47,7.08,7.08,0,0,1,1.91-2.28,1,1,0,1,1,1.23,1.58,5.09,5.09,0,0,0-1.37,1.63A1,1,0,0,1,29.29,79.22Z"/><path class="cls-3" d="M87,23.66a6,6,0,0,1,11.62-2.77,3.21,3.21,0,0,1,5.21,2.51c0,.09,0,.18,0,.27A4.79,4.79,0,0,1,102.18,33H88.52A4.8,4.8,0,0,1,87,23.66Z"/><path class="cls-5" d="M87,25.66a6,6,0,0,1,11.62-2.77,3.21,3.21,0,0,1,5.21,2.51c0,.09,0,.18,0,.27a4.81,4.81,0,0,1,3.11,3.54,4.76,4.76,0,0,0-3.11-5.54c0-.09,0-.18,0-.27a3.21,3.21,0,0,0-5.21-2.51A6,6,0,0,0,87,23.66a4.76,4.76,0,0,0-3.14,5.55A4.81,4.81,0,0,1,87,25.66Z"/><g class="cls-1"><path class="cls-4" d="M102.18,31H88.52a4.81,4.81,0,0,1-4.71-3.78,4.75,4.75,0,0,0-.11,1A4.81,4.81,0,0,0,88.52,33h13.66A4.81,4.81,0,0,0,107,28.2a4.75,4.75,0,0,0-.11-1A4.81,4.81,0,0,1,102.18,31Z"/></g><path class="cls-6" d="M102.18,34H88.52a5.79,5.79,0,0,1-2.61-11v0A7,7,0,0,1,99,19.5,4.22,4.22,0,0,1,104.77,23a5.79,5.79,0,0,1-2.59,11ZM92.94,18a5,5,0,0,0-5,5,4.93,4.93,0,0,0,0,.55,1,1,0,0,1-.67,1.06A3.79,3.79,0,0,0,88.52,32h13.66a3.79,3.79,0,0,0,1.26-7.38,1,1,0,0,1-.67-1c0-.06,0-.12,0-.19a2.21,2.21,0,0,0-3.59-1.72,1,1,0,0,1-1.56-.43A5,5,0,0,0,92.94,18Z"/><path class="cls-3" d="M88.52,23.4a4.83,4.83,0,0,0-1.58.26"/><path class="cls-6" d="M86.94,24.66a1,1,0,0,1-.33-1.95,5.84,5.84,0,0,1,1.91-.32,1,1,0,0,1,0,2,3.84,3.84,0,0,0-1.25.21A1,1,0,0,1,86.94,24.66Z"/><path class="cls-3" d="M103.77,23.67a4.83,4.83,0,0,0-1.59-.27"/><path class="cls-6" d="M103.77,24.67a1,1,0,0,1-.33-.06,3.81,3.81,0,0,0-1.26-.21,1,1,0,0,1,0-2,5.8,5.8,0,0,1,1.92.33,1,1,0,0,1-.33,1.94Z"/><path class="cls-3" d="M98.6,20.88a3.22,3.22,0,0,0-.87,1"/><path class="cls-6" d="M97.72,22.92a1,1,0,0,1-.88-1.47A4.26,4.26,0,0,1,98,20.09a1,1,0,0,1,1.23,1.58,2.25,2.25,0,0,0-.6.72A1,1,0,0,1,97.72,22.92Z"/><path class="cls-5" d="M122.51,69a1,1,0,0,1-.71-.29,1,1,0,0,1,0-1.42,1,1,0,0,1,1.71.71,1,1,0,0,1-1,1Z"/><path class="cls-5" d="M120.51,73h-6a1,1,0,0,1,0-2h6a1,1,0,0,1,0,2Z"/><path class="cls-5" d="M118.51,69h-7a1,1,0,0,1,0-2h7a1,1,0,0,1,0,2Z"/><path class="cls-5" d="M110.51,73h-2a1,1,0,0,1,0-2h2a1,1,0,0,1,0,2Z"/><path class="cls-5" d="M118.51,77h-8a1,1,0,0,1,0-2h8a1,1,0,0,1,0,2Z"/><path class="cls-5" d="M13,64a1,1,0,0,1-.38-.08,1,1,0,0,1-.32-.21,1,1,0,0,1-.22-.33A1,1,0,0,1,12,63a1,1,0,0,1,.3-.71,1,1,0,0,1,.9-.27l.18.06a.74.74,0,0,1,.18.09l.15.12A1,1,0,0,1,14,63a1,1,0,0,1-.29.71,1.11,1.11,0,0,1-.32.21A1,1,0,0,1,13,64Z"/><path class="cls-5" d="M14,60H12a1,1,0,1,1,0-2h2a1,1,0,0,1,0,2Z"/><path class="cls-5" d="M17,56H7a1,1,0,0,1,0-2H17a1,1,0,0,1,0,2Z"/><path class="cls-5" d="M8,60H4a1,1,0,1,1,0-2H8a1,1,0,0,1,0,2Z"/><path class="cls-5" d="M9,64H1a1,1,0,0,1,0-2H9a1,1,0,0,1,0,2Z"/><path class="cls-3" d="M82.77,98a8,8,0,0,1,11.88-8.85,10.49,10.49,0,0,1,18.8,5.25A7.5,7.5,0,0,1,111,109H83a5.5,5.5,0,0,1-.23-11Z"/><path class="cls-5" d="M82.77,101a7.62,7.62,0,0,1-.2-3,5.47,5.47,0,0,0-4.84,7A5.48,5.48,0,0,1,82.77,101Z"/><path class="cls-5" d="M90.51,91a8,8,0,0,1,4.14,1.16,10.49,10.49,0,0,1,18.8,5.25,7.5,7.5,0,0,1,4.9,5.62,7.49,7.49,0,0,0-4.9-8.62,10.49,10.49,0,0,0-18.8-5.25A8,8,0,0,0,82.51,96a7.72,7.72,0,0,0,.15,1.45A8,8,0,0,1,90.51,91Z"/><path class="cls-4" d="M82.77,95c0-.18-.08-.38-.11-.57,0,.2-.07.39-.09.59Z"/><g class="cls-1"><path class="cls-4" d="M111,106H83a5.5,5.5,0,0,1-5.28-4,5.44,5.44,0,0,0-.22,1.46A5.5,5.5,0,0,0,83,109h28a7.43,7.43,0,0,0,7.34-9A7.5,7.5,0,0,1,111,106Z"/></g><path class="cls-6" d="M111,110H83a6.5,6.5,0,0,1-1.42-12.84A8.52,8.52,0,0,1,81.51,96,9,9,0,0,1,94.4,87.9a11.49,11.49,0,0,1,20,5.8A8.5,8.5,0,0,1,111,110ZM90.51,89a7,7,0,0,0-6.77,8.76A1,1,0,0,1,82.81,99a4.5,4.5,0,0,0,.19,9h28a6.5,6.5,0,0,0,2.12-12.64,1,1,0,0,1-.67-.84,9.49,9.49,0,0,0-17-4.75,1,1,0,0,1-1.32.25A7,7,0,0,0,90.51,89Z"/><path class="cls-6" d="M113,99.75a1,1,0,0,1-1-1.31A9.51,9.51,0,0,0,103,86a1,1,0,0,1,0-2,11.51,11.51,0,0,1,10.94,15.06A1,1,0,0,1,113,99.75Z"/><path class="cls-6" d="M86.63,100.37a1,1,0,0,1-.66-.25A4.49,4.49,0,0,0,83,99a1,1,0,0,1,0-2,6.49,6.49,0,0,1,4.28,1.61,1,1,0,0,1-.66,1.75Z"/><path class="cls-6" d="M97,92.34a1,1,0,0,1-.81-.42A7,7,0,0,0,90.51,89a1,1,0,0,1,0-2,9,9,0,0,1,7.32,3.76A1,1,0,0,1,97,92.34Z"/></g><rect class="cls-7" height="50" rx="2" ry="2" width="76" x="26" y="55"/><g class="cls-1"><path class="cls-8" d="M100,101H28a2,2,0,0,1-2-2v4a2,2,0,0,0,2,2h72a2,2,0,0,0,2-2V99A2,2,0,0,1,100,101Z"/></g><path class="cls-3" d="M69.15,77.34a8,8,0,0,0-10.31,0L26.64,104.46A2,2,0,0,0,28,105h72a2,2,0,0,0,1.36-.54Z"/><g class="cls-1"><path class="cls-8" d="M30.75,101l-4.11,3.46A2,2,0,0,0,28,105h72a2,2,0,0,0,1.36-.54L97.25,101Z"/></g><g class="cls-1"><path class="cls-8" d="M102,57.81a3,3,0,0,0-2-.81H28a3,3,0,0,0-2,.81,1,1,0,0,0,0,1.5L58.2,86.43a9,9,0,0,0,11.59,0L102,59.31a1,1,0,0,0,0-1.5Z"/></g><path class="cls-6" d="M100,106H28a3,3,0,0,1-2-.81,1,1,0,0,1,0-1.5L58.2,76.58a9,9,0,0,1,11.6,0h0L102,103.7a1,1,0,0,1,0,1.5A3,3,0,0,1,100,106Zm-71.26-2H99.26L68.51,78.1a7,7,0,0,0-9,0Z"/><path class="cls-3" d="M58.85,82.66a8,8,0,0,0,10.31,0l32.21-27.12A2,2,0,0,0,100,55H28a2,2,0,0,0-1.36.54Z"/><path class="cls-5" d="M97.25,59l4.11-3.46A2,2,0,0,0,100,55H28a2,2,0,0,0-1.36.54L30.75,59Z"/><path class="cls-6" d="M100,106H28a3,3,0,0,1-3-3V57a3,3,0,0,1,3-3h72a3,3,0,0,1,3,3v46A3,3,0,0,1,100,106ZM28,56a1,1,0,0,0-1,1v46a1,1,0,0,0,1,1h72a1,1,0,0,0,1-1V57a1,1,0,0,0-1-1Z"/><path class="cls-6" d="M64,85.55a9,9,0,0,1-5.8-2.12h0L26,56.3a1,1,0,0,1,0-1.5A3,3,0,0,1,28,54h72a3,3,0,0,1,2,.81,1,1,0,0,1,0,1.5L69.8,83.42A9,9,0,0,1,64,85.55ZM59.49,81.9a7,7,0,0,0,9,0L99.26,56H28.74Z"/><circle class="cls-9" cx="64" cy="47" r="20"/><g class="cls-1"><path class="cls-10" d="M64,64A20,20,0,0,1,44.08,45.5c0,.5-.08,1-.08,1.5a20,20,0,0,0,40,0c0-.51,0-1-.08-1.5A20,20,0,0,1,64,64Z"/></g><g class="cls-11"><path class="cls-5" d="M64,30A20,20,0,0,1,83.92,48.5c0-.5.08-1,.08-1.5a20,20,0,0,0-40,0c0,.51,0,1,.08,1.5A20,20,0,0,1,64,30Z"/></g><path class="cls-6" d="M64,68A21,21,0,1,1,85,47,21,21,0,0,1,64,68Zm0-40A19,19,0,1,0,83,47,19,19,0,0,0,64,28Z"/><g class="cls-1"><path class="cls-10" d="M75.47,41.2a2.46,2.46,0,0,0-4.3-1.25l-9,8.38-3.9-1.06a2.45,2.45,0,0,0-3.83,2A2.37,2.37,0,0,0,55.16,51l5.58,6.25a2.79,2.79,0,0,0,2,.79h.16a2.8,2.8,0,0,0,2-1.12L75,43A2.43,2.43,0,0,0,75.47,41.2Z"/></g><path class="cls-5" d="M74.39,39.16a1.34,1.34,0,0,0-.54-.89h0a1.37,1.37,0,0,0-1.88.25l-9.52,9-4.59-1.43c-.89-.42-1.35-.43-1.86.08a1.35,1.35,0,0,0-.4,1A1.32,1.32,0,0,0,56,48l5.53,6.2a1.68,1.68,0,0,0,1.18.48h.12A1.69,1.69,0,0,0,64,54L74.13,40.16A1.34,1.34,0,0,0,74.39,39.16Z"/><path class="cls-6" d="M62.73,55.71a2.69,2.69,0,0,1-1.92-.76L55.23,48.7a2.27,2.27,0,0,1-.63-1.59,2.34,2.34,0,0,1,3.62-2l4,1.23,9.05-8.54a2.36,2.36,0,0,1,3.2-.36,2.35,2.35,0,0,1,.48,3.31L64.85,54.62a2.7,2.7,0,0,1-2,1.08h-.16Zm-5.92-9-.11.09a.35.35,0,0,0-.11.26.33.33,0,0,0,.08.22l5.58,6.25a.67.67,0,0,0,.43.15h.08a.68.68,0,0,0,.47-.28L73.32,39.58a.35.35,0,0,0,.08-.27h0a.34.34,0,0,0-.14-.23.37.37,0,0,0-.5.07l-.09.1-9.52,9a1,1,0,0,1-1,.23L57.56,47,57.43,47A1.85,1.85,0,0,0,56.81,46.75Z"/><path class="cls-12" d="M112.33,8A5.55,5.55,0,0,0,116,11.72q2.77.92,0,1.85a5.55,5.55,0,0,0-3.69,3.69q-.92,2.77-1.85,0a5.55,5.55,0,0,0-3.69-3.69q-2.77-.92,0-1.85A5.55,5.55,0,0,0,110.48,8Q111.4,5.26,112.33,8Z"/><path class="cls-13" d="M109,40.57A3.7,3.7,0,0,0,111.48,43q1.85.62,0,1.23A3.7,3.7,0,0,0,109,46.72q-.62,1.85-1.23,0a3.7,3.7,0,0,0-2.46-2.46q-1.85-.62,0-1.23a3.7,3.7,0,0,0,2.46-2.46Q108.4,38.72,109,40.57Z"/><path class="cls-13" d="M12.17,14.81a4.62,4.62,0,0,0,3.08,3.08q2.31.77,0,1.54a4.62,4.62,0,0,0-3.08,3.08q-.77,2.31-1.54,0a4.62,4.62,0,0,0-3.08-3.08q-2.31-.77,0-1.54a4.62,4.62,0,0,0,3.08-3.08Q11.4,12.5,12.17,14.81Z"/><path class="cls-12" d="M15,33.57A3.7,3.7,0,0,0,17.47,36q1.85.62,0,1.23A3.7,3.7,0,0,0,15,39.72q-.62,1.85-1.23,0a3.7,3.7,0,0,0-2.46-2.46q-1.85-.62,0-1.23a3.7,3.7,0,0,0,2.46-2.46Q14.4,31.72,15,33.57Z"/><path class="cls-12" d="M113,112.57a3.7,3.7,0,0,0,2.46,2.46q1.85.62,0,1.23a3.7,3.7,0,0,0-2.46,2.46q-.62,1.85-1.23,0a3.7,3.7,0,0,0-2.46-2.46q-1.85-.62,0-1.23a3.7,3.7,0,0,0,2.46-2.46Q112.4,110.73,113,112.57Z"/><path class="cls-13" d="M20,107.57A3.7,3.7,0,0,0,22.48,110q1.85.62,0,1.23A3.7,3.7,0,0,0,20,113.73q-.62,1.85-1.23,0a3.7,3.7,0,0,0-2.46-2.46q-1.85-.62,0-1.23a3.7,3.7,0,0,0,2.46-2.46Q19.41,105.73,20,107.57Z"/></svg>