<?xml version="1.0" ?><svg data-name="Achievements &amp; Badges" height="60" id="Achievements_Badges" viewBox="0 0 60 60" width="60" xmlns="http://www.w3.org/2000/svg"><title/><polyline points="22 24 19 24 19 41 41 41 41 24 38 24" style="fill:#ffd599"/><rect height="3" style="fill:#fff;opacity:0.5" width="22" x="19" y="24"/><rect height="3" style="fill:#750000;opacity:0.200000002980232" width="22" x="19" y="38"/><polyline points="22 34 22 38 38 38 38 34" style="fill:#eef6ff"/><path d="M22,21V34h4a3.99992,3.99992,0,0,1,4,4V25a4,4,0,0,0-4-4Z" style="fill:#fff"/><path d="M26,21H23a4,4,0,0,1,4,4v9.14142A3.99067,3.99067,0,0,1,30,38V25A4,4,0,0,0,26,21Z" style="fill:#2c4b75;opacity:0.2"/><path d="M26,31H22v3h4a3.99989,3.99989,0,0,1,4,4V35A3.99989,3.99989,0,0,0,26,31Z" style="fill:#2c4b75;opacity:0.2"/><path d="M38,21V34H34a3.99992,3.99992,0,0,0-4,4V25a4,4,0,0,1,4-4Z" style="fill:#fff"/><path d="M33,34V25a4,4,0,0,1,4-4H34a4,4,0,0,0-4,4V38a3.99067,3.99067,0,0,1,3-3.85858Z" style="fill:#2c4b75;opacity:0.2"/><path d="M30,35v3a3.99989,3.99989,0,0,1,4-4h4V31H34A3.99989,3.99989,0,0,0,30,35Z" style="fill:#2c4b75;opacity:0.2"/><path d="M41,42H19a.99974.99974,0,0,1-1-1V24a.99974.99974,0,0,1,1-1h3a1,1,0,0,1,0,2H20V40H40V25H38a1,1,0,0,1,0-2h3a.99974.99974,0,0,1,1,1V41A.99974.99974,0,0,1,41,42Z" style="fill:#6d6daa"/><path d="M38,39H22a.99974.99974,0,0,1-1-1V34a1,1,0,0,1,2,0v3H37V34a1,1,0,0,1,2,0v4A.99974.99974,0,0,1,38,39Z" style="fill:#6d6daa"/><path d="M30,39a.99974.99974,0,0,1-1-1,3.00328,3.00328,0,0,0-3-3H22a.99974.99974,0,0,1-1-1V21a.99974.99974,0,0,1,1-1h4a5.00589,5.00589,0,0,1,5,5V38A.99974.99974,0,0,1,30,39Zm-7-6h3a4.97421,4.97421,0,0,1,3,1.00244V25a3.00328,3.00328,0,0,0-3-3H23Z" style="fill:#6d6daa"/><path d="M30,39a.99974.99974,0,0,1-1-1V25a5.00589,5.00589,0,0,1,5-5h4a.99974.99974,0,0,1,1,1V34a.99974.99974,0,0,1-1,1H34a3.00328,3.00328,0,0,0-3,3A.99974.99974,0,0,1,30,39Zm4-17a3.00328,3.00328,0,0,0-3,3v9.00244A4.97421,4.97421,0,0,1,34,33h3V22Z" style="fill:#6d6daa"/><path d="M16.58019,54.3656a5.59158,5.59158,0,0,1-4.6033-1.5468s2.06291-2.609,4.80691-2.9142a7.53351,7.53351,0,0,1,5.1297,1.8092A11.35936,11.35936,0,0,1,16.58019,54.3656Z" style="fill:#b1f1a8"/><path d="M4.68489,36.5663A8.24553,8.24553,0,0,1,2.3186,31.4878s3.32109-.1811,5.3665,1.6735a7.53358,7.53358,0,0,1,2.0401,5.0422A7.49321,7.49321,0,0,1,4.68489,36.5663Z" style="fill:#b1f1a8"/><path d="M8.2144,46.6241a5.32686,5.32686,0,0,1-3.5116-3.2258s2.93869-1.5576,5.5735-.7322a7.53346,7.53346,0,0,1,3.9671,3.7214A11.92475,11.92475,0,0,1,8.2144,46.6241Z" style="fill:#89dbba"/><path d="M26.001,53.60889a1.0135,1.0135,0,0,1-.19043-.01807A21.99085,21.99085,0,0,1,19.251,12.811l.34668-.19043a1.00006,1.00006,0,1,1,.94336,1.76367l-.31055.17041a19.99085,19.99085,0,0,0,5.959,37.07227,1.00007,1.00007,0,0,1-.18848,1.98193Z" style="fill:#6d6daa"/><path d="M5.435,25.219a9.83986,9.83986,0,0,1-.30972-5.7606s3.09291,1.2231,4.1764,3.7626a7.53393,7.53393,0,0,1-.2534,5.4334A6.7465,6.7465,0,0,1,5.435,25.219Z" style="fill:#89dbba"/><path d="M20.04739,8.7a10.62252,10.62252,0,0,1,4.3801-4.0678s1.316,3.3174-.21149,5.61729a7.87168,7.87168,0,0,1-4.3332,3.2879A5.96363,5.96363,0,0,1,20.04739,8.7Z" style="fill:#89dbba"/><path d="M10.4801,15.4616a10.42889,10.42889,0,0,1,1.6077-5.7643s2.559,2.1246,2.7987,4.8752a7.53368,7.53368,0,0,1-1.9311,5.085A5.96223,5.96223,0,0,1,10.4801,15.4616Z" style="fill:#b1f1a8"/><path d="M43.41979,54.3656a5.59158,5.59158,0,0,0,4.6033-1.5468s-2.06289-2.609-4.80689-2.9142a7.53351,7.53351,0,0,0-5.1297,1.8092A11.35937,11.35937,0,0,0,43.41979,54.3656Z" style="fill:#b1f1a8"/><path d="M55.31509,36.5663a8.24548,8.24548,0,0,0,2.36631-5.0785s-3.32111-.1811-5.3665,1.6735a7.53358,7.53358,0,0,0-2.0401,5.0422A7.49312,7.49312,0,0,0,55.31509,36.5663Z" style="fill:#b1f1a8"/><path d="M51.7856,46.6241a5.32693,5.32693,0,0,0,3.5116-3.2258s-2.93871-1.5576-5.5735-.7322a7.53346,7.53346,0,0,0-3.9671,3.7214A11.92475,11.92475,0,0,0,51.7856,46.6241Z" style="fill:#89dbba"/><path d="M33.999,53.60889a1.00007,1.00007,0,0,1-.18848-1.98193,19.99089,19.99089,0,0,0,5.96-37.07178l-.31152-.1709a1.00006,1.00006,0,1,1,.94336-1.76367l.34766.19092a21.99089,21.99089,0,0,1-6.56055,40.7793A1.0135,1.0135,0,0,1,33.999,53.60889Z" style="fill:#6d6daa"/><path d="M54.565,25.219a9.84,9.84,0,0,0,.30969-5.7606s-3.09289,1.2231-4.1764,3.7626a7.53393,7.53393,0,0,0,.2534,5.4334A6.74662,6.74662,0,0,0,54.565,25.219Z" style="fill:#89dbba"/><path d="M39.9526,8.7a10.62245,10.62245,0,0,0-4.38011-4.0678s-1.316,3.3174.21151,5.61729a7.87168,7.87168,0,0,0,4.3332,3.2879A5.96371,5.96371,0,0,0,39.9526,8.7Z" style="fill:#89dbba"/><path d="M49.5199,15.4616a10.42931,10.42931,0,0,0-1.6077-5.7643s-2.559,2.1246-2.79871,4.8752a7.53373,7.53373,0,0,0,1.93111,5.085A5.96231,5.96231,0,0,0,49.5199,15.4616Z" style="fill:#b1f1a8"/><path d="M15.97852,55.39893a6.77271,6.77271,0,0,1-4.7959-1.93066,1.10469,1.10469,0,0,1-.13184-1.04541,1.007,1.007,0,0,1,.19434-.28857c.36719-.44336,2.52734-2.90088,5.42871-3.22314a8.47758,8.47758,0,0,1,5.90234,2.05469.99948.99948,0,0,1,.00879,1.48877,12.28558,12.28558,0,0,1-5.89453,2.90479h0A6.415,6.415,0,0,1,15.97852,55.39893Zm.60156-1.0332h0Zm-3.13184-1.645a5.133,5.133,0,0,0,3.02148.65088,8.80634,8.80634,0,0,0,3.75977-1.61572,5.65913,5.65913,0,0,0-3.335-.85742A6.48079,6.48079,0,0,0,13.44824,52.7207Z" style="fill:#6d6daa"/><path d="M9.43066,39.21143a8.32144,8.32144,0,0,1-5.418-1.90381v-.00049a8.97595,8.97595,0,0,1-2.68848-6.0166,1.03386,1.03386,0,0,1,.68066-.75781,1.10611,1.10611,0,0,1,.33789-.04687c.56836-.01562,3.84766-.03027,6.01465,1.93457a8.51307,8.51307,0,0,1,2.36816,5.78467,1.00021,1.00021,0,0,1-.92773.99609C9.77246,39.20264,9.6416,39.21143,9.43066,39.21143ZM5.35645,35.8252a5.89341,5.89341,0,0,0,3.25879,1.335,5.76539,5.76539,0,0,0-1.60156-3.2583A6.32985,6.32985,0,0,0,3.5,32.53662,7.146,7.146,0,0,0,5.35645,35.8252Z" style="fill:#6d6daa"/><path d="M10.5166,47.937A8.75424,8.75424,0,0,1,7.916,47.57813h0c-2.73047-.85547-4.47949-3.52246-4.18359-4.46924a1.01173,1.01173,0,0,1,.50293-.59375l-.001-.00049c.13477-.0708,3.33984-1.74072,6.34082-.80273a8.50135,8.50135,0,0,1,4.57617,4.25781.99952.99952,0,0,1-.60937,1.37256A14.97161,14.97161,0,0,1,10.5166,47.937ZM8.51367,45.66992a9.38148,9.38148,0,0,0,4.15918.06152,5.61587,5.61587,0,0,0-2.69531-2.11133,6.502,6.502,0,0,0-3.9082.28809,4.9052,4.9052,0,0,0,2.44434,1.76172Z" style="fill:#6d6daa"/><path d="M9.04785,29.6543a.99749.99749,0,0,1-.334-.05762,7.748,7.748,0,0,1-4.19922-3.98486v-.00049c-1.11816-2.62207-.61621-6.2041-.20312-6.75342A1.01918,1.01918,0,0,1,5.24023,18.46a.99305.99305,0,0,1,.32617.09912c.52246.2207,3.50684,1.57959,4.65527,4.26953a8.51173,8.51173,0,0,1-.26563,6.24512A1.00116,1.00116,0,0,1,9.04785,29.6543ZM6.35449,24.82715a5.44462,5.44462,0,0,0,2.12012,2.4165,5.75873,5.75873,0,0,0-.09277-3.63037A6.22683,6.22683,0,0,0,5.873,20.97363a8.62227,8.62227,0,0,0,.48145,3.85352Z" style="fill:#6d6daa"/><path d="M19.88281,14.5376a1.00046,1.00046,0,0,1-.90918-.5835,6.96718,6.96718,0,0,1,.18359-5.7085h0c1.32227-2.59033,4.8418-4.96338,5.72266-4.51367a1.00031,1.00031,0,0,1,.498.58447c.18164.48633,1.373,3.92383-.3291,6.48633a8.86858,8.86858,0,0,1-4.94141,3.70947A1.01252,1.01252,0,0,1,19.88281,14.5376Zm3.92773-8.40137a9.41783,9.41783,0,0,0-2.87207,3.01855h0a4.76425,4.76425,0,0,0-.40625,3.07129,7.256,7.256,0,0,0,2.85059-2.52979A4.86948,4.86948,0,0,0,23.81055,6.13623Zm-3.7627,2.564h0Z" style="fill:#6d6daa"/><path d="M12.95508,20.65771a.99759.99759,0,0,1-.543-.16016,6.96154,6.96154,0,0,1-2.92773-4.94971c-.23633-2.71338,1.42188-6.75879,2.51074-6.854a.9898.9898,0,0,1,.76758.26465c.34863.29932,2.86035,2.55127,3.12012,5.52686a8.51465,8.51465,0,0,1-2.19531,5.85352A1.00085,1.00085,0,0,1,12.95508,20.65771Zm-.63672-9.29932a9.11882,9.11882,0,0,0-.8418,4.0166,4.72743,4.72743,0,0,0,1.3252,2.83594,5.82614,5.82614,0,0,0,1.08887-3.55225A6.24455,6.24455,0,0,0,12.31836,11.3584Z" style="fill:#6d6daa"/><path d="M44.02148,55.39893a6.428,6.428,0,0,1-.71191-.03955h0A12.28558,12.28558,0,0,1,37.415,52.45459a.99948.99948,0,0,1,.00879-1.48877,8.49195,8.49195,0,0,1,5.90234-2.05469c2.90137.32227,5.06152,2.77979,5.42871,3.22314a1.007,1.007,0,0,1,.19434.28857,1.10469,1.10469,0,0,1-.13184,1.04541A6.77483,6.77483,0,0,1,44.02148,55.39893Zm-.49121-2.02734a5.1447,5.1447,0,0,0,3.02344-.65234,6.44434,6.44434,0,0,0-3.44824-1.8208,5.63886,5.63886,0,0,0-3.332.85889,8.80427,8.80427,0,0,0,3.75684,1.61475Z" style="fill:#6d6daa"/><path d="M50.56934,39.21143c-.21094,0-.3418-.00879-.36719-.01025a1.00021,1.00021,0,0,1-.92773-.99609,8.51307,8.51307,0,0,1,2.36816-5.78467c2.16992-1.9668,5.45215-1.9502,6.01465-1.93457a1.12728,1.12728,0,0,1,.33789.04688,1.03386,1.03386,0,0,1,.68066.75781,8.97595,8.97595,0,0,1-2.68848,6.0166v.00049A8.31988,8.31988,0,0,1,50.56934,39.21143ZM56.5,32.53662a6.33518,6.33518,0,0,0-3.51367,1.36523,5.782,5.782,0,0,0-1.59863,3.25977,5.87166,5.87166,0,0,0,3.25586-1.33643A7.146,7.146,0,0,0,56.5,32.53662Zm-1.18457,4.02979h0Z" style="fill:#6d6daa"/><path d="M49.4834,47.937a14.97161,14.97161,0,0,1-4.02539-.59473.99952.99952,0,0,1-.60937-1.37256,8.50135,8.50135,0,0,1,4.57617-4.25781c2.99512-.93848,6.20605.73145,6.34082.80273v.00049a1.01021,1.01021,0,0,1,.502.59375c.2959.94678-1.45312,3.61377-4.18359,4.46924h0A8.76577,8.76577,0,0,1,49.4834,47.937Zm2.30176-1.313h0Zm-4.45605-.89453a9.20108,9.20108,0,0,0,4.15723-.05957,4.91185,4.91185,0,0,0,2.44629-1.76367,6.45832,6.45832,0,0,0-3.91016-.28613A5.6119,5.6119,0,0,0,47.3291,45.72949Z" style="fill:#6d6daa"/><path d="M50.95215,29.6543a1.00116,1.00116,0,0,1-.9082-.58057,8.51071,8.51071,0,0,1-.26562-6.24463c1.14844-2.69043,4.13281-4.04932,4.65527-4.27a.99305.99305,0,0,1,.32617-.09912,1.02716,1.02716,0,0,1,.92871.39795c.41309.54932.915,4.13135-.20312,6.75342v.00049a7.748,7.748,0,0,1-4.19922,3.98486A.99749.99749,0,0,1,50.95215,29.6543Zm3.1748-8.68066a6.23114,6.23114,0,0,0-2.50879,2.64014,5.74665,5.74665,0,0,0-.09375,3.624,5.47267,5.47267,0,0,0,2.12109-2.41064h0A8.62227,8.62227,0,0,0,54.127,20.97363Zm.43848,4.24561h0Z" style="fill:#6d6daa"/><path d="M40.11719,14.5376a1.01252,1.01252,0,0,1-.22461-.02539,8.86858,8.86858,0,0,1-4.94141-3.70947c-1.70215-2.5625-.51074-6-.3291-6.48633a1.00031,1.00031,0,0,1,.498-.58447c.88184-.4502,4.40039,1.92236,5.72266,4.51367a6.96718,6.96718,0,0,1,.18359,5.7085A1.00046,1.00046,0,0,1,40.11719,14.5376ZM36.18848,6.13623a4.87539,4.87539,0,0,0,.42871,3.56006,7.23983,7.23983,0,0,0,2.85156,2.5293,4.77187,4.77187,0,0,0-.40723-3.0708h0A9.40986,9.40986,0,0,0,36.18848,6.13623Z" style="fill:#6d6daa"/><path d="M47.04492,20.65771a1.00085,1.00085,0,0,1-.73242-.31885,8.51418,8.51418,0,0,1-2.19531-5.853c.25977-2.97754,2.77344-5.23,3.12012-5.52783a.985.985,0,0,1,.76758-.26416c1.08887.09521,2.74707,4.14063,2.51074,6.854a6.96154,6.96154,0,0,1-2.92773,4.94971A.99759.99759,0,0,1,47.04492,20.65771Zm.63672-9.29932a6.24258,6.24258,0,0,0-1.57227,3.30078,5.84481,5.84481,0,0,0,1.08691,3.54443A4.76194,4.76194,0,0,0,48.52344,15.375,9.11882,9.11882,0,0,0,47.68164,11.3584Z" style="fill:#6d6daa"/><path d="M28.96973,49.96973a.99526.99526,0,0,1-.93945-1.0498h0A.99152.99152,0,0,1,29.08984,47.98h-.00977a.99225.99225,0,0,1,.9502,1.0498h0a.99875.99875,0,0,1-1,.93994h-.06055Zm3.00977-1.0498A1.00211,1.00211,0,0,1,32.79,47.75977h0a.995.995,0,0,1,1.16016.81006h0A.99828.99828,0,0,1,33.13965,49.73h0a.98661.98661,0,0,1-.16992.00977h0A1.007,1.007,0,0,1,31.97949,48.91992Zm-7.12012.33984a1.00427,1.00427,0,0,1-.66992-1.25h0a.98862.98862,0,0,1,1.24023-.66992h0a.98773.98773,0,0,1,.66992,1.23975h0a1.00165,1.00165,0,0,1-.96.72021h0A1.3612,1.3612,0,0,1,24.85938,49.25977ZM35.83008,48a.99292.99292,0,0,1,.51953-1.31006h0a1.00268,1.00268,0,0,1,1.31055.52h0a1.00188,1.00188,0,0,1-.52051,1.31982h0a1.09,1.09,0,0,1-.38965.08008h0A.99775.99775,0,0,1,35.83008,48Zm-14.81055-.40039a.997.997,0,0,1-.37012-1.35986h0a1.00209,1.00209,0,0,1,1.37012-.37012h0a.99809.99809,0,0,1,.36035,1.37012h0a.99028.99028,0,0,1-.86035.5h0A1.01929,1.01929,0,0,1,21.01953,47.59961ZM39.35938,46.23a1.00477,1.00477,0,0,1,.2002-1.40039h0a1.00382,1.00382,0,0,1,1.40039.2002h0a1.00108,1.00108,0,0,1-.2002,1.3999h0a.9611.9611,0,0,1-.59961.2002h0A.98715.98715,0,0,1,39.35938,46.23ZM17.66992,45.10986h0a.988.988,0,0,1-.0498-1.41016h0a.99967.99967,0,0,1,1.41992-.04h0a.99688.99688,0,0,1,.04,1.41016h0a.99207.99207,0,0,1-.73047.31006h0A.97487.97487,0,0,1,17.66992,45.10986Zm24.71-1.41992a1.00976,1.00976,0,0,1-.12012-1.41016h0a.99878.99878,0,0,1,1.41016-.12012h0A.9883.9883,0,0,1,43.79,43.56006h0v.00977h0a1.009,1.009,0,0,1-.75977.3501h0A.99661.99661,0,0,1,42.37988,43.68994Zm-27.40039-1.77a1.002,1.002,0,0,1,.28027-1.39014h0a1.00335,1.00335,0,0,1,1.38965.29h0a1.00006,1.00006,0,0,1-.29,1.37988h0a1.01076,1.01076,0,0,1-.5498.16992h0A.99791.99791,0,0,1,14.97949,41.91992ZM44.75,40.52a1.00222,1.00222,0,0,1-.4502-1.34033h0A1.00987,1.00987,0,0,1,45.64941,38.73h0a1.00637,1.00637,0,0,1,.44043,1.34961h0a1.007,1.007,0,0,1-.90039.55029h0A.98859.98859,0,0,1,44.75,40.52ZM13.08984,38.18994h0a.99771.99771,0,0,1,.59961-1.28027h0A.99265.99265,0,0,1,14.96973,37.5h0a1.00426,1.00426,0,0,1-.59961,1.29h0a.988.988,0,0,1-.33984.05957h0A1.01224,1.01224,0,0,1,13.08984,38.18994Zm33.22949-1.30029a.99269.99269,0,0,1-.75-1.19971h0a1.00252,1.00252,0,0,1,1.21094-.74023h0a.994.994,0,0,1,.73926,1.2002h0a1.00048,1.00048,0,0,1-.96973.77h0A.85627.85627,0,0,1,46.31934,36.88965ZM12.12012,34.12988v-.01025h0A.99676.99676,0,0,1,13,33.02h0a.98608.98608,0,0,1,1.10938.86963h0A1.0007,1.0007,0,0,1,13.22949,35h0a.457.457,0,0,1-.10937.00977h0A1.0125,1.0125,0,0,1,12.12012,34.12988ZM46,32h0v-.06006h0a1.005,1.005,0,0,1,1-1.01025h0a1.00957,1.00957,0,0,1,1,1h0v.04h0V32h0a1.00319,1.00319,0,0,1-1,1h0A1.00319,1.00319,0,0,1,46,32Zm-33.00977-.93994a.99987.99987,0,0,1-.87012-1.11035h-.01074a1.00785,1.00785,0,0,1,1.11035-.87988h0a.9975.9975,0,0,1,.87988,1.1001h0a.99521.99521,0,0,1-.99023.89014h-.11914ZM45.55957,28.25a1.00106,1.00106,0,0,1,.74023-1.21h0a1.00293,1.00293,0,0,1,1.2002.73975h0a1.00106,1.00106,0,0,1-.74023,1.21h0a.85425.85425,0,0,1-.22949.03027h0A1.0024,1.0024,0,0,1,45.55957,28.25ZM13.66992,27.15967a.99768.99768,0,0,1-.60059-1.27979h0a.99833.99833,0,0,1,1.28027-.6001h0a.99821.99821,0,0,1,.60059,1.28027h0a.99844.99844,0,0,1-.94043.65967h0A1.01407,1.01407,0,0,1,13.66992,27.15967ZM44.28027,24.77h0a1.003,1.003,0,0,1,.42969-1.3501h0a1.00619,1.00619,0,0,1,1.34961.43994h0a.99852.99852,0,0,1-.43945,1.33984h0a.91142.91142,0,0,1-.4502.11035h0A.98937.98937,0,0,1,44.28027,24.77ZM15.21973,23.52979a1.00022,1.00022,0,0,1-.28027-1.39014h0a.9993.9993,0,0,1,1.37988-.29h0a1.01147,1.01147,0,0,1,.29,1.39014h0a1.00008,1.00008,0,0,1-.83984.4502h0A1.00588,1.00588,0,0,1,15.21973,23.52979Zm27-1.85986h0a.98686.98686,0,0,1,.12012-1.3999h0a.99891.99891,0,0,1,1.41016.10986h0A1.00976,1.00976,0,0,1,43.62988,21.79h0a1.009,1.009,0,0,1-.65039.23975h0A.98665.98665,0,0,1,42.21973,21.66992ZM17.58008,20.34961a.99624.99624,0,0,1,.0293-1.40967h.01074a.9963.9963,0,0,1,1.41016.04h0a.99655.99655,0,0,1-.04,1.40967h0a1.00221,1.00221,0,0,1-.69043.27h0A.96709.96709,0,0,1,17.58008,20.34961Zm21.92969-1.21973h0a.99248.99248,0,0,1-.21-1.39014h0a.99638.99638,0,0,1,1.40039-.21h0a.995.995,0,0,1,.21,1.3999h0a1.01762,1.01762,0,0,1-.81055.3999h0A.95318.95318,0,0,1,39.50977,19.12988ZM20.59961,17.7998A.99809.99809,0,0,1,20.96,16.42969h0a.99788.99788,0,0,1,1.35938.37012h0A.98884.98884,0,0,1,21.96,18.15967h0a1.01929,1.01929,0,0,1-.5.14014h0A.99246.99246,0,0,1,20.59961,17.7998Zm15.69043-.52a1,1,0,0,1-.53027-1.31006h0a1.00189,1.00189,0,0,1,1.32031-.52h0a.98735.98735,0,0,1,.51953,1.31006h0a.98968.98968,0,0,1-.91992.6001h0A.90718.90718,0,0,1,36.29,17.27979Zm-12.16992-1.27A.99185.99185,0,0,1,24.79,14.77h0a.99277.99277,0,0,1,1.24023.66992h0a.99983.99983,0,0,1-.66016,1.23975h0a1.00586,1.00586,0,0,1-.29.04h0A1.00394,1.00394,0,0,1,24.12012,16.00977Zm8.60938.22021a1.00349,1.00349,0,0,1-.81934-1.15039h0a1.0057,1.0057,0,0,1,1.15918-.81982h0a1.00887,1.00887,0,0,1,.82031,1.16016h0a1.0154,1.0154,0,0,1-.99023.83008h0A1.01984,1.01984,0,0,1,32.72949,16.23ZM27.96,15.08984a1.01081,1.01081,0,0,1,.93945-1.06006h0a1.00539,1.00539,0,0,1,1.06055.93994h0a1.005,1.005,0,0,1-.94043,1.06006H28.96A1.00516,1.00516,0,0,1,27.96,15.08984Z" style="fill:#6d6daa"/></svg>