<?xml version="1.0" ?><svg data-name="Finance 2" height="60" id="Finance_2" viewBox="0 0 60 60" width="60" xmlns="http://www.w3.org/2000/svg"><title/><path d="M51,14.06934H44a1,1,0,0,1,0-2h6V6a1,1,0,0,1,2,0v7.06934A1,1,0,0,1,51,14.06934Z" style="fill:#6d6daa"/><path d="M8,54.06934a1,1,0,0,1-1-1V46a1,1,0,0,1,1-1h7a1,1,0,0,1,0,2H9v6.06934A1,1,0,0,1,8,54.06934Z" style="fill:#6d6daa"/><path d="M30,58A27.77867,27.77867,0,0,1,7.561,46.75049.99981.99981,0,1,1,9.1626,45.55322,26.004,26.004,0,0,0,52.812,17.51563a1.00018,1.00018,0,1,1,1.75391-.96191A28.0085,28.0085,0,0,1,30,58Z" style="fill:#6d6daa"/><path d="M5.86035,43.106a1.00055,1.00055,0,0,1-.89453-.55078A27.716,27.716,0,0,1,2,30,28.00054,28.00054,0,0,1,51.6084,12.19238a1,1,0,1,1-1.543,1.27246A26.00056,26.00056,0,0,0,4,30,25.72855,25.72855,0,0,0,6.75293,41.65674.99991.99991,0,0,1,5.86035,43.106Z" style="fill:#6d6daa"/><rect height="20" style="fill:#89dbba" width="38" x="11" y="20"/><path d="M46,35a2,2,0,0,0-2,2H16a2,2,0,0,0-2-2V25a2,2,0,0,0,2-2H44a2,2,0,0,0,2,2Z" style="fill:#b1f1a8"/><rect height="10" style="fill:#2c4b75;opacity:0.2" width="38" x="11" y="30"/><path d="M44,38H16a1,1,0,0,1-1-1,1.0013,1.0013,0,0,0-1-1,1,1,0,0,1-1-1V25a1,1,0,0,1,1-1,1.0013,1.0013,0,0,0,1-1,1,1,0,0,1,1-1H44a1,1,0,0,1,1,1,1.0013,1.0013,0,0,0,1,1,1,1,0,0,1,1,1V35a1,1,0,0,1-1,1,1.0013,1.0013,0,0,0-1,1A1,1,0,0,1,44,38ZM16.82861,36H43.17139A3.01522,3.01522,0,0,1,45,34.17139V25.82861A3.01522,3.01522,0,0,1,43.17139,24H16.82861A3.01522,3.01522,0,0,1,15,25.82861v8.34277A3.01522,3.01522,0,0,1,16.82861,36Z" style="fill:#6d6daa"/><ellipse cx="30" cy="30" rx="5.8333" ry="7" style="fill:#89dbba"/><path d="M41,32a2,2,0,1,1,2-2A2.002,2.002,0,0,1,41,32Zm0-2h0Zm0,0h0Zm0,0h0Zm0-.00049h0Zm0,0h0Zm0-.00049h0Zm0,0h0Zm0,0h0Z" style="fill:#6d6daa"/><path d="M19,32a2,2,0,1,1,2-2A2.002,2.002,0,0,1,19,32Zm0-2h0Zm0,0h0Zm0,0h0Zm0-.00049h0Zm0,0h0Zm0-.00049h0Zm0,0h0Zm0,0h0Z" style="fill:#6d6daa"/><path d="M34.1583,34.9081a5.98784,5.98784,0,0,0-2.5235-1.3172.30343.30343,0,0,1-.2632-.3068c.0074-.1648.0073-.3397.0065-.5218,0-.4176.5269-.9209.5557-1.5074a2.27765,2.27765,0,0,0,.2755-.9593.47941.47941,0,0,0-.1245-.3666c.043-.2183.0796-.4493.1245-.6872a1.53822,1.53822,0,0,0-1.0496-1.9433,6.43762,6.43762,0,0,1-2.1263-.779c-.1777-.1642-.0559.7606-.2169.8297a1.52057,1.52057,0,0,0-1.0258,1.8926c.0449.2379.0815.4689.1245.6872a.47941.47941,0,0,0-.1245.3666,2.27775,2.27775,0,0,0,.2755.9593c.0287.5865.5557,1.0605.5557,1.5074-.0008.1821-.0009.357.0065.5218a.30343.30343,0,0,1-.2632.3068,6.10287,6.10287,0,0,0-2.5582,1.2746A5.3212,5.3212,0,0,0,30,37,5.21287,5.21287,0,0,0,34.1583,34.9081Z" style="fill:#b1f1a8"/><path d="M49,41H11a1,1,0,0,1-1-1V20a1,1,0,0,1,1-1H49a1,1,0,0,1,1,1V40A1,1,0,0,1,49,41ZM12,39H48V21H12Z" style="fill:#6d6daa"/><path d="M30,38c-3.76807,0-6.8335-3.58887-6.8335-8S26.23193,22,30,22s6.8335,3.58887,6.8335,8S33.76807,38,30,38Zm0-14c-2.665,0-4.8335,2.69141-4.8335,6S27.335,36,30,36s4.8335-2.69141,4.8335-6S32.665,24,30,24Z" style="fill:#6d6daa"/><path d="M30,38a6.3498,6.3498,0,0,1-4.99512-2.5376.99935.99935,0,0,1,.166-1.36816,7.64764,7.64764,0,0,1,2.42871-1.3457,1.68352,1.68352,0,0,1-.10352-.17383,3.19369,3.19369,0,0,1-.4043-1.04053,3.10963,3.10963,0,0,1-.30127-1.23877,1.65877,1.65877,0,0,1,.07959-.52295l-.062-.34521a2.44526,2.44526,0,0,1,1.11865-2.74072,1.17189,1.17189,0,0,1,.68213-1.11084,1.09061,1.09061,0,0,1,1.10254.209,5.13774,5.13774,0,0,0,1.32373.44727c.19629.04785.354.08838.44531.11914a2.51809,2.51809,0,0,1,1.71191,3.07568l-.0625.3457a1.65877,1.65877,0,0,1,.07959.52295,3.112,3.112,0,0,1-.30127,1.23926A3.323,3.323,0,0,1,32.5,32.59326c-.03076.05664-.0625.11035-.08936.1626a7.5973,7.5973,0,0,1,2.38379,1.38086.9999.9999,0,0,1,.1665,1.36816A6.20872,6.20872,0,0,1,30,38Zm-2.65771-2.96875A4.27045,4.27045,0,0,0,30,36a4.19866,4.19866,0,0,0,2.64307-.94385,3.58809,3.58809,0,0,0-1.17529-.47949,1.30592,1.30592,0,0,1-1.09521-1.3374c.00684-.14893.00635-.30713.00537-.47168a2.34581,2.34581,0,0,1,.3623-1.125,1.74257,1.74257,0,0,0,.19434-.43652,1.00946,1.00946,0,0,1,.10645-.40186,1.75843,1.75843,0,0,0,.15527-.416.99978.99978,0,0,1-.09229-.65234l.123-.67969c.11133-.59131-.1001-.71289-.38818-.81055-.05762-.01855-.15527-.04053-.27441-.06934-.30811-.07471-.61963-.1543-.9165-.24951a1.02785,1.02785,0,0,1-.43848.3418c-.47363.20313-.51855.35059-.43652.7876l.123.67969a.99978.99978,0,0,1-.09229.65234,1.75843,1.75843,0,0,0,.15527.416.99579.99579,0,0,1,.10645.40234,1.65539,1.65539,0,0,0,.18457.40723,2.35079,2.35079,0,0,1,.37207,1.14844c-.001.16992-.00146.32813.00537.47754a1.30658,1.30658,0,0,1-1.09619,1.3374A3.96948,3.96948,0,0,0,27.34229,35.03125Zm.856-2.42627-.00244.00049Zm3.60254-.00049.002.00049Zm-.4082-1.95361.001.001Zm-2.78516,0-.001.001Zm-.18555-4.2207-.00342.00146Z" style="fill:#6d6daa"/></svg>