<?xml version="1.0" ?><svg data-name="Multimedia 3" height="60" id="Multimedia_3" viewBox="0 0 60 60" width="60" xmlns="http://www.w3.org/2000/svg"><title/><path d="M19.0004,59h0a4,4,0,0,1,4-4h14a4.00005,4.00005,0,0,1,4,4h-22Z" style="fill:#d4edff"/><path d="M35.6515,55a5.99208,5.99208,0,0,0-11.3018,0Z" style="fill:#d4edff"/><path d="M41.00049,60h-22a.99974.99974,0,0,1-1-1,5.00589,5.00589,0,0,1,5-5h14a5.00589,5.00589,0,0,1,5,5A.99974.99974,0,0,1,41.00049,60ZM20.17188,58H39.8291a3.00509,3.00509,0,0,0-2.82861-2h-14A3.00509,3.00509,0,0,0,20.17188,58Z" style="fill:#6d6daa"/><path d="M22.82227,3.07617a1,1,0,0,1-.2583-1.96582L24.49609.59277a.99989.99989,0,1,1,.51758,1.93164L23.08154,3.042A.99342.99342,0,0,1,22.82227,3.07617Z" style="fill:#6d6daa"/><path d="M35.24561,49.44141a1,1,0,0,1-.2583-1.96582l1.93213-.51758a.99989.99989,0,0,1,.51758,1.93164l-1.93213.51758A.99342.99342,0,0,1,35.24561,49.44141Z" style="fill:#6d6daa"/><path d="M25.55713,9.41992a.99932.99932,0,0,1-.96533-.74121l-1.769-6.60254a.99989.99989,0,1,1,1.93164-.51758l1.769,6.60254a1.00026,1.00026,0,0,1-.96631,1.25879Z" style="fill:#6d6daa"/><path d="M36.21143,49.18262a.99932.99932,0,0,1-.96533-.74121l-1.76855-6.60059a.99989.99989,0,0,1,1.93164-.51758l1.76855,6.60059a1.00026,1.00026,0,0,1-.96631,1.25879Z" style="fill:#6d6daa"/><path d="M30.00586,47.00293A21.996,21.996,0,0,1,28.45947,3.0625a.99958.99958,0,1,1,.1416,1.99414,20.22644,20.22644,0,0,0-3.77686.626,19.99992,19.99992,0,1,0,13.93652,37.29,1.00018,1.00018,0,0,1,.875,1.79883,21.893,21.893,0,0,1-9.62988,2.23145Z" style="fill:#6d6daa"/><path d="M30.00049,52a.99974.99974,0,0,1-1-1V46.00586a1,1,0,1,1,2,0V51A.99974.99974,0,0,1,30.00049,52Z" style="fill:#6d6daa"/><path d="M35.65137,56H24.34961a.9995.9995,0,0,1-.94238-1.334,6.99176,6.99176,0,0,1,13.18652,0A.9995.9995,0,0,1,35.65137,56Zm-9.64355-2h7.98535a4.98682,4.98682,0,0,0-7.98535,0Z" style="fill:#6d6daa"/><circle cx="30.0004" cy="25" r="16.99996" style="fill:#97c1ff" transform="translate(-8.4807 18.34953) rotate(-29.99996)"/><path d="M44.72278,16.5a16.92224,16.92224,0,0,0-8.95526-7.48352,15.99667,15.99667,0,1,1-21.73383,21.7782A16.99336,16.99336,0,1,0,44.72278,16.5Z" style="fill:#2c4b75;opacity:0.2"/><path d="M23.74464,9.20934A16.99468,16.99468,0,0,0,13.1233,23.38268,12.98966,12.98966,0,1,0,23.74464,9.20934Z" style="fill:#fff;opacity:0.400000005960465"/><path d="M28.724,19.1061a1.66939,1.66939,0,0,0-.1633.2211C28.6599,19.1982,28.7027,19.1381,28.724,19.1061Z" style="fill:#b1f1a8"/><path d="M14.1345,19.6004a3.53428,3.53428,0,0,0,1.7057,2.7344c.3008.1603.6589.1481.9323.354a1.98248,1.98248,0,0,0,1.1052.4614c.6436.0383.881.3677,1.4131.7595a5.40753,5.40753,0,0,1,1.3098,1.1151c.4489.6331,2.3367.1272,3.0767.2955,1.032.2337,5.199,1.6922,6.182,1.2848,0,0,1.2549-.3639,1.2506.6585-.0084.464-.3267.8312-.3719,1.2947a4.51572,4.51572,0,0,0,.1928,1.0991c.0534.3888-.3441.0881.1235.6503a6.02053,6.02053,0,0,0,.7336.7006,6.66962,6.66962,0,0,0,1.4475,1.1706c.4067.224,1.2186.3959,1.5069.8087a4.73976,4.73976,0,0,1,.4201,1.7434,29.29921,29.29921,0,0,1,.3768,2.9198c-.0132.8833-.222,1.1929.2166,2.0254a3.29661,3.29661,0,0,1,.2194,1.04,1.14439,1.14439,0,0,1-.0464.2147,16.95637,16.95637,0,0,0,1.9639-.8753c.003-.0114.0091-.0293.0115-.0393.0325-.3051.2103-1.5582.4325-1.6971-.3785-.95,1.3199-.52,1.2084-1.5667-.194-.0449-.149-.0038-.2128-.1489.0795.1711.6904-.2641.7914-.1547a9.52145,9.52145,0,0,0,.6782-1.4955,3.14037,3.14037,0,0,0,.3992-.9561c.2379-1.0908.2385-.9099,1.0388-1.618-.1102.0988.7282-1.1434.6951-1.5254a9.2111,9.2111,0,0,1-.2274-1.3226c.0413-.5711.4309-.855.5957-1.376.1342-.3996.1916-1.0056-.1939-1.2618-.6898-.4566-2.3455-.1488-2.7699-.1857-1.1768-.0924-1.4769-.0993-1.7073-.6411-.4767-1.2217-2.0077-.6705-2.5005-.9016a5.71137,5.71137,0,0,0-4.5288.1325c-.6807.437-.1348.9113-.9308.7571a4.87956,4.87956,0,0,1-2.8285-1.1465c-.233-.2427-.5217.0261-.5297-.3042-.0149-.3553.5937-1.494-.2721-1.2366-.6628.2026-1.342.7716-1.5735.1784-.3274-.8575-.5136-1.3152.1658-2.0585.553-.5992,1.4019-1.2517,2.2074-.518.2347.2127.9121,1.0994.9444.3989a6.44173,6.44173,0,0,0-.6144-1.3456.02338.02338,0,0,1-.0045.0144,1.20533,1.20533,0,0,0-.0395-.1162c.0117.0273.0254.0636.044.1018a3.34927,3.34927,0,0,1,.5525-.9165c.1914-.2288.4473-.4982.4581-.7288.0084-.1728-.2753-.3154-.2148-.5639-.018.0725.6624-2.0057,1.4762-2.4788a3.41449,3.41449,0,0,1,1.1916-.2886c.4256-.0546.5794-.6329.848-.9409a2.4326,2.4326,0,0,1,1.8243-.7687c.219-.0197-.5901-.7412-.6772-.7908-.7076-.3596-.5161-.4263-.5282-.6596-.02-.3448-.9014-.6818-1.1109-.7833a2.37681,2.37681,0,0,1-1.0298-.7967c-.3552-.4739-.5001-.796-1.0833-.4275-.6654.4353-.693.332-1.8809-.17-.2887-.1207-1.2564-.1884-1.5714.2151-.2408.3008.3317,1.0624.5041,1.3444.3735.6047.0825.4408.0688,1.1552-.0205.7498.0782,1.1736-.4655,1.3897-.5094.1876-.1958-.5255-.51-.7827-.2301-.1966-1.1837-.1556-1.5309-.2202-.7672-.1315-2.6599.0034-2.3957-1.236a6.58466,6.58466,0,0,1,1.4094-1.8443c.1106-.1785.2253-.3747.3414-.5761a16.98127,16.98127,0,0,0-9.71,9.741A3.94744,3.94744,0,0,0,14.1345,19.6004Z" style="fill:#b1f1a8"/><path d="M37.9068,40.0481c.0034-.0212.0079-.0516.0138-.0937-.0014.0121-.0118.0431-.0164.0619l-.0032.0348Z" style="fill:#b1f1a8"/><path d="M28.724,19.1061a1.66939,1.66939,0,0,0-.1633.2211C28.6599,19.1982,28.7027,19.1381,28.724,19.1061Z" style="fill:#2c4b75;opacity:0.2"/><path d="M15.12207,27.12226A16.99388,16.99388,0,0,1,43.03156,14.09145,16.99527,16.99527,0,1,0,19.0913,38.03179,16.92492,16.92492,0,0,1,15.12207,27.12226Z" style="fill:#fff;opacity:0.5"/><path d="M24.47,25.51533c0-9.38885,2.58781-17,5.78-17-7.32328,0-13.26,7.61115-13.26,17s5.93672,17,13.26,17C27.05778,42.51533,24.47,34.90417,24.47,25.51533Z" style="fill:#fff;opacity:0.5"/><g style="opacity:0.2"><path d="M28.167,17.037c.00269-.00519.00562-.01031.00452-.0144-.01862-.03821-.03229-.07452-.044-.10181A1.21168,1.21168,0,0,1,28.167,17.037Z" style="fill:#2c4b75"/><path d="M27.84149,20.9693c.23468.21271.91211,1.09937.9444.39886a6.44238,6.44238,0,0,0-.61438-1.34558c.0011.00409-.00183.00922-.00452.0144a1.21168,1.21168,0,0,0-.03949-.11621c.01172.02728.02539.0636.044.10181a3.34813,3.34813,0,0,1,.55249-.9165c.19141-.22882.44733-.49817.45807-.72882.00842-.17279-.27527-.31537-.21478-.5639-.018.07251.66241-2.00568,1.4762-2.47876a3.41493,3.41493,0,0,1,1.19159-.28864c.4256-.05457.57941-.63287.848-.94086a2.43258,2.43258,0,0,1,1.82428-.76874c.219-.01965-.59009-.74115-.67719-.79077-.70758-.35962-.51611-.42633-.5282-.65961-.01337-.23071-.4104-.45618-.73572-.61169-.2041.31464-.37244.72565-.7312.77167a3.41493,3.41493,0,0,0-1.19159.28864c-.81378.47308-1.4942,2.55127-1.4762,2.47876-.06049.24854.22321.39111.21478.5639-.01074.23065-.26666.5-.45807.72882-.0213.032-.06409.0921-.16333.22113a1.67028,1.67028,0,0,1,.16333-.22113,3.34813,3.34813,0,0,0-.55249.9165,6.44238,6.44238,0,0,1,.61438,1.34558c-.03229.7005-.70972-.18616-.9444-.39886-.80548-.7337-1.65442-.08124-2.2074.518-.67938.74329-.49323,1.201-.16577,2.05847.23145.5932.91071.02423,1.57349-.17841.426-.12665.49359.08588.45563.37561A1.30321,1.30321,0,0,1,27.84149,20.9693Z" style="fill:#2c4b75"/><path d="M42.718,26.73608c.0304.36841.18359.71271.217,1.1178.03308.382-.8053,1.62421-.69513,1.52539-.80029.70813-.80084.52722-1.03876,1.618a3.13959,3.13959,0,0,1-.39923.95605,9.5228,9.5228,0,0,1-.67816,1.49554c-.101-.10944-.71191.32574-.79144.15466.06384.14508.0188.104.21283.14893.11151,1.04669-1.58691.6167-1.20844,1.56671-.22217.13885-.4,1.392-.4325,1.69708.00464-.0188.015-.0498.01642-.06189-.00592.04205-.01038.07245-.01379.09369l-.0058.003.00317-.03479c-.00238.01-.00848.02789-.01147.03931a16.96118,16.96118,0,0,1-1.96393.87531,1.14194,1.14194,0,0,0,.04645-.21472,3.29768,3.29768,0,0,0-.21942-1.04c-.4386-.83252-.2298-1.14215-.21661-2.02545a29.29976,29.29976,0,0,0-.37677-2.9198,4.73952,4.73952,0,0,0-.4201-1.74335c-.28833-.41284-1.10022-.58472-1.5069-.80872A6.67168,6.67168,0,0,1,31.7879,28.0083a6.699,6.699,0,0,1-.69238-.65784c-.04327.42267-.31525.77454-.35754,1.20782a4.518,4.518,0,0,0,.19281,1.09912c.05341.38879-.34412.08807.12354.65027a6.02115,6.02115,0,0,0,.73358.70062,6.67168,6.67168,0,0,0,1.44751,1.17059c.40668.224,1.21857.39587,1.5069.80872a4.73952,4.73952,0,0,1,.4201,1.74335,29.29976,29.29976,0,0,1,.37677,2.9198c-.01318.8833-.222,1.19293.21661,2.02545a3.29768,3.29768,0,0,1,.21942,1.04,1.14194,1.14194,0,0,1-.04645.21472,16.96118,16.96118,0,0,0,1.96393-.87531c.003-.01141.00909-.0293.01147-.03931.03253-.30511.21033-1.55823.4325-1.69708-.37848-.95,1.31995-.52,1.20844-1.56671-.194-.04492-.149-.00385-.21283-.14893.07953.17108.69043-.2641.79144-.15466a9.5228,9.5228,0,0,0,.67816-1.49554,3.13959,3.13959,0,0,0,.39923-.95605c.23792-1.09082.23846-.90991,1.03876-1.618-.11017.09882.72821-1.14337.69513-1.52539a9.211,9.211,0,0,1-.22742-1.32257c.04132-.57111.43091-.855.5957-1.376.13421-.3996.19159-1.00562-.19391-1.26178A1.31489,1.31489,0,0,0,42.718,26.73608Z" style="fill:#2c4b75"/><path d="M30.932,26.75293a.383.383,0,0,0-.00122-.09552,5.28324,5.28324,0,0,0-.14-.58807c-.03949-.00488-.06964-.00513-.11871-.01465a4.88,4.88,0,0,1-2.82855-1.14648c-.233-.24274-.52167.02606-.52966-.3042-.01288-.30762.43781-1.199-.00165-1.26678l-.01788-.00421a.67759.67759,0,0,0-.25256.03436c-.66278.20264-1.342.77161-1.57349.17841a5.40757,5.40757,0,0,1-.26007-.78973c-.66919-.19745-1.23279-.36823-1.53094-.43573-.74-.16833-2.62781.33759-3.07672-.29553a5.4082,5.4082,0,0,0-1.30981-1.11511c-.5321-.39178-.76947-.72119-1.41309-.75946a1.98233,1.98233,0,0,1-1.10516-.46143c-.27344-.20587-.63153-.19373-.93231-.354a2.95357,2.95357,0,0,1-1.2868-1.37366c-.14148.31-.29327.61511-.41614.93347a3.94975,3.94975,0,0,0-.00275.70581,3.53423,3.53423,0,0,0,1.70569,2.73438c.30078.16028.65887.14813.93231.354a1.98233,1.98233,0,0,0,1.10516.46143c.64362.03827.881.36768,1.41309.75946a5.4082,5.4082,0,0,1,1.30981,1.11511c.44891.63312,2.33673.1272,3.07672.29553,1.032.23364,5.199,1.6922,6.182,1.28479C29.85931,26.6051,30.58813,26.39746,30.932,26.75293Z" style="fill:#2c4b75"/></g><path d="M37.9068,40.0481c.0034-.0212.0079-.0516.0138-.0937-.0014.0121-.0118.0431-.0164.0619l-.0032.0348Z" style="fill:#2c4b75;opacity:0.2"/><path d="M28.724,19.1061a1.66939,1.66939,0,0,0-.1633.2211C28.6599,19.1982,28.7027,19.1381,28.724,19.1061Z" style="fill:#fff;opacity:0.5"/><g style="opacity:0.5"><path d="M30.932,29.75293c-.02271.23676-.29742.05017.12231.55475.01233.01538.0285.02771.0412.04279.00305-.02948.01385-.05658.0144-.08685A.69158.69158,0,0,0,30.932,29.75293Z" style="fill:#fff"/><path d="M14.55341,20.96112a16.94608,16.94608,0,0,1,8.31586-8.36737c-.5155-.14117-.90149-.41608-.77277-1.01978a6.584,6.584,0,0,1,1.40942-1.8443c.1106-.17847.22528-.37469.34137-.57611a16.98127,16.98127,0,0,0-9.71,9.741,3.94975,3.94975,0,0,0-.00275.70581A5.21156,5.21156,0,0,0,14.55341,20.96112Z" style="fill:#fff"/><path d="M31.60291,25.29761c-.68073.437-.13483.91125-.93079.75708a4.88,4.88,0,0,1-2.82855-1.14648c-.233-.24274-.52167.02606-.52966-.3042-.00757-.18048.14429-.56189.18353-.861-.696-.31726-1.38873.23-1.86334.74432a1.31145,1.31145,0,0,0-.42584,1.26874c.64111.18915,1.37842.40247,2.08612.577l.01788.00421a5.666,5.666,0,0,0,2.54706.26788s1.25488-.36389,1.25061.65851c-.00842.464-.32672.83118-.37195,1.29468a1.511,1.511,0,0,0,.05286.511c.60071.07428.17334-.36169.81207-.77173a5.71119,5.71119,0,0,1,4.52881-.13251c.4928.23108,2.0238-.32013,2.50049.90161.23041.54175.53052.54865,1.70728.64105a10.922,10.922,0,0,1,2.37848.02832,1.32369,1.32369,0,0,1-.01038-.20477c.04132-.57111.43091-.855.5957-1.376.13421-.3996.19159-1.00562-.19391-1.26178-.68976-.4566-2.34546-.1488-2.7699-.18573-1.17676-.09241-1.47687-.0993-1.70728-.64105-.47668-1.22174-2.00769-.67053-2.50049-.90161A5.71119,5.71119,0,0,0,31.60291,25.29761Z" style="fill:#fff"/><path d="M26.9986,12.42316c-.00214.07819-.00256.15082-.003.222a2.1803,2.1803,0,0,1,1.00146.06329c1.18793.502,1.21552.60529,1.88092.17.58319-.36847.72809-.04639,1.08331.42749a2.3769,2.3769,0,0,0,1.02979.79669c.06934.03357.21423.09473.37518.17163a1.52571,1.52571,0,0,1,.11682-.16919,2.43258,2.43258,0,0,1,1.82428-.76874c.219-.01965-.59009-.74115-.67719-.79077-.70758-.35962-.51611-.42633-.5282-.65961-.02-.34479-.90137-.68182-1.1109-.78333A2.3769,2.3769,0,0,1,30.9613,10.306c-.35522-.47388-.50012-.796-1.08331-.42749-.66541.4353-.693.332-1.88092-.17-.2887-.12073-1.25635-.18842-1.57135.21509-.24084.30078.33167,1.06238.50409,1.34442C27.30328,11.87268,27.01227,11.7088,26.9986,12.42316Z" style="fill:#fff"/><path d="M23.50592,12.72968A6.584,6.584,0,0,0,22.0965,14.574c-.26422,1.23938,1.62848,1.10449,2.39569,1.236.34723.06458,1.30084.02356,1.53088.22021.31421.2572.00061.97028.51.78265.5437-.21606.445-.63989.46552-1.38971.01367-.71436.30469-.55048-.06879-1.15515-.06775-.11084-.19659-.29608-.31427-.49792a.88031.88031,0,0,1-.08246.04279c-.5094.18762-.1958-.52545-.51-.78265-.23-.19666-1.18365-.15564-1.53088-.22021-.24512-.04205-.6062-.05975-.97406-.10089Z" style="fill:#fff"/></g><path d="M37.9068,40.0481c.0034-.0212.0079-.0516.0138-.0937-.0014.0121-.0118.0431-.0164.0619l-.0032.0348Z" style="fill:#fff;opacity:0.5"/><path d="M28.56006,20.32715a1,1,0,0,1-.86719-1.49707,2.69972,2.69972,0,0,1,.26514-.36621,1,1,0,0,1,1.59033,1.209c-.02588.03711-.07666.11035-.19482.26367A1,1,0,0,1,28.56006,20.32715Z" style="fill:#6d6daa"/><path d="M35.92871,41.93066a1.0004,1.0004,0,0,1-.96533-1.26172h.00293a1.733,1.733,0,0,0-.09521-.52734,3.08352,3.08352,0,0,1-.36377-1.98242c.01367-.15137.02881-.32031.03174-.52344a8.40575,8.40575,0,0,0-.18359-1.53809c-.07715-.43457-.15234-.86816-.189-1.27734A4.32813,4.32813,0,0,0,33.916,33.5498c-.05176-.03418-.37891-.16113-.55518-.22852a5.19049,5.19049,0,0,1-.60889-.26758,6.2205,6.2205,0,0,1-1.42334-1.10352l-.35254-.32324a5.27647,5.27647,0,0,1-.70361-.69531,1.31658,1.31658,0,0,1-.38477-1.36523l-.01318-.04492a2.78049,2.78049,0,0,1-.13281-1.04883,2.902,2.902,0,0,1,.23682-.85937c-.94971.22363-2.55518-.1582-5.36475-.99023-.50439-.14941-.91895-.27344-1.15723-.32715a5.25685,5.25685,0,0,0-.85205.01953c-1.03564.06543-2.21094.14746-2.81982-.71289a2.49477,2.49477,0,0,0-.66357-.58008c-.13916-.09766-.28564-.2002-.44141-.32129-.11279-.083-.228-.17578-.335-.26172-.31592-.25684-.36035-.28125-.52588-.291a3.00754,3.00754,0,0,1-1.66406-.67383.98688.98688,0,0,1-.14893-.02734,2.781,2.781,0,0,1-.63574-.22949,4.47559,4.47559,0,0,1-2.2207-3.44336l-.002-.01074a3.194,3.194,0,0,1-.01807-.71973l.0083-.17187a1.00438,1.00438,0,0,1,.06641-.33789A18.03,18.03,0,0,1,23.48633,8.2207a1,1,0,0,1,1.228,1.43066c-.12207.21191-.2417.416-.35791.60352l-.001.002a1.00439,1.00439,0,0,1-.25146.27441,9.38453,9.38453,0,0,0-.9375,1.1123,6.93252,6.93252,0,0,0,.87891.11328c.23438.01953.44775.03809.61475.06738a3.88141,3.88141,0,0,0,.38916.0293,5.54952,5.54952,0,0,1,.98877.11133c.01123-.06641.02393-.126.03711-.17773l-.07617-.11816c-.35449-.54-1.01367-1.5459-.354-2.37012a2.63034,2.63034,0,0,1,2.73877-.51172l.3667.15723c.16016.06836.33545.14453.44531.18457.04-.02344.084-.05371.13525-.08691a1.58078,1.58078,0,0,1,2.34082.542l.08936.12109a1.40514,1.40514,0,0,0,.67188.5c.61279.27246,1.4873.66016,1.64453,1.44629l.00635.00293c.05029.02734,1.44922.88184,1.23779,1.86621a1.06807,1.06807,0,0,1-.92529.81152c-.74121.041-1.00342.24707-1.15283.42188a1.42075,1.42075,0,0,0-.13428.21191,1.88218,1.88218,0,0,1-1.34668,1.07227l-.21289.0332a5.46388,5.46388,0,0,0-.562.10254c-.01367.00879-.02783.01758-.042.02539a4.20308,4.20308,0,0,0-.90723,1.60742,1.19921,1.19921,0,0,1,.14258.61816,2.10664,2.10664,0,0,1-.62109,1.24121l-.06787.08105c-.01807.02148-.03662.042-.05615.06152-.04248.05762-.09277.12988-.14062.2041a2.88289,2.88289,0,0,1,.48975,1.40332,1.19156,1.19156,0,0,1-.76025,1.14746c-.78174.29-1.3833-.35352-1.74316-.73633-.04395-.04687-.082-.08887-.1123-.11719a.3127.3127,0,0,0-.0957-.06641h0c-.00391,0-.231.00781-.7041.52148-.16357.17871-.22119.24219-.16748.459a4.75432,4.75432,0,0,1,.54688-.21289,1.32735,1.32735,0,0,1,1.38623.26367,1.46517,1.46517,0,0,1,.313,1.43164,1.36311,1.36311,0,0,1,.11768.11035,3.40986,3.40986,0,0,0,1.92578.78418,1.94867,1.94867,0,0,1,.57129-.54492,6.7001,6.7001,0,0,1,5.42578-.22754c.08838.00879.19678.00293.31494.002a2.61713,2.61713,0,0,1,2.729,1.39551c.167.02832.47656.05273.77832.07715l.10693.00781a2.68886,2.68886,0,0,0,.41309-.02344,4.60376,4.60376,0,0,1,2.83057.37207,2.01813,2.01813,0,0,1,.58936,2.41406,3.36065,3.36065,0,0,1-.37354.76465.917.917,0,0,0-.17236.36523,1.601,1.601,0,0,0,.0791.4082,4.26212,4.26212,0,0,1,.14746.75977,3.50474,3.50474,0,0,1-.71045,1.88086l-.0459.08105a1.00612,1.00612,0,0,1-.26367.38672l-.01221.01074c-.1416.125-.25977.22363-.35889.30762a1.992,1.992,0,0,0-.22412.19629c-.02539.05859-.10156.40723-.13818.5752a3.67448,3.67448,0,0,1-.44531,1.123l-.04932.0918c-.00146.00879-.04395.11621-.09766.251-.44824,1.125-.627,1.57324-1.12451,1.72559A1.92539,1.92539,0,0,1,39.31689,38.459a1.04153,1.04153,0,0,1-.19434.47266,7.48493,7.48493,0,0,0-.22363,1.18945.99022.99022,0,0,1-.02441.1377,1.08976,1.08976,0,0,1-.51855.68262,18.02958,18.02958,0,0,1-2.08008.92676A.99491.99491,0,0,1,35.92871,41.93066ZM31.93408,29.79395c.10352.10645.22412.21094.34961.31934l.42578.38965a4.48811,4.48811,0,0,0,.99365.792,3.08785,3.08785,0,0,0,.37939.16113,3.008,3.008,0,0,1,1.47949.958,4.33525,4.33525,0,0,1,.5957,2.21973c.03271.36426.1001.73828.167,1.11426a9.90369,9.90369,0,0,1,.21387,1.92578c-.00342.251-.022.4668-.03857.65918a1.17781,1.17781,0,0,0,.14063.877,2.11106,2.11106,0,0,1,.125.28809c.06934-.0332.13818-.06543.20752-.09863a5.19833,5.19833,0,0,1,.31055-1.26562,1.36062,1.36062,0,0,1,.10938-.60547,1.64464,1.64464,0,0,1,.96-.83789,1.01255,1.01255,0,0,1,.59229-.97949,1.05968,1.05968,0,0,1,.395-.08691l.02881-.01172c.02832-.0127.062-.02637.1001-.042.09229-.2168.19971-.4873.25879-.63477.09033-.22754.16406-.40039.1875-.44531l.05713-.10742a1.95547,1.95547,0,0,0,.24414-.5625,2.58738,2.58738,0,0,1,1.03857-1.915c.05176-.043.10986-.0918.17432-.14746.02393-.04395.0459-.08105.063-.11133a7.203,7.203,0,0,0,.43213-.81641c-.01807-.10645-.04736-.20605-.07373-.30469A3.14726,3.14726,0,0,1,41.71,29.46191a2.67978,2.67978,0,0,1,.46-1.26465,1.75534,1.75534,0,0,0,.17969-.34277,1.163,1.163,0,0,0,.04492-.17871,7.48146,7.48146,0,0,0-1.416.00586,5.37134,5.37134,0,0,1-.72607.02246l-.09766-.00781c-1.15039-.08984-1.98193-.15527-2.44287-1.23828-.06738-.1709-.16357-.22363-.89014-.22754a2.42488,2.42488,0,0,1-1.11523-.16016,4.83151,4.83151,0,0,0-3.56641.07129,1.41349,1.41349,0,0,1-.16895.39355,1.86643,1.86643,0,0,1,.13867.73242,2.7972,2.7972,0,0,1-.26367,1.06348,1.55941,1.55941,0,0,0-.11328.3252,1.12707,1.12707,0,0,0,.06689.32227,4.00524,4.00524,0,0,1,.12207.5459A1.44884,1.44884,0,0,1,31.93408,29.79395Zm6.93359,9.373-.002.001Zm.002-.001-.00146.001Zm.002-.002-.00049.001ZM39.63232,35.75l.01172.002Zm2.30615-4.81348.00049.00293ZM29.93994,29.792v0Zm-6.69336-5.50781a2.99441,2.99441,0,0,1,.65186.06055c.26367.05957.72363.19531,1.2832.36035.29443.08789.73047.2168,1.2168.35254a1.27013,1.27013,0,0,1-.07764-.32617,1.52394,1.52394,0,0,1-1.02246-.02246,1.36267,1.36267,0,0,1-.76172-.7998,2.56234,2.56234,0,0,1,.35986-3.09668,2.943,2.943,0,0,1,2.27832-1.16309,1.00719,1.00719,0,0,1,.27539-.45117,3.13677,3.13677,0,0,1,.5127-.74023l.07422-.08789.0127-.01465a1.26227,1.26227,0,0,1-.0542-.7793.97182.97182,0,0,1,.04541-.13965,5.75981,5.75981,0,0,1,1.84424-2.93262,3.18576,3.18576,0,0,1,1.36426-.41016l.05957-.00879c.02588-.043.0498-.08887.07568-.13281a3.39779,3.39779,0,0,1,.34473-.50391,2.89558,2.89558,0,0,1,.65381-.57031,1.19284,1.19284,0,0,1-.28174-.61816c-.09717-.05176-.22852-.11426-.394-.18848l-.15234-.06934A3.34,3.34,0,0,1,30.167,10.91309l-.021-.02832a2.09743,2.09743,0,0,1-2.18848-.10449l-.21094-.09082.03564.05566a1.56845,1.56845,0,0,1,.25488,1.45215.70539.70539,0,0,0-.03857.24512l-.00391.30957a1.84653,1.84653,0,0,1-1.09229,1.99023,1.24707,1.24707,0,0,1-1.12549-.07031,1.20412,1.20412,0,0,1-.53662-.80273c-.10791-.00781-.21875-.01367-.29883-.01855a5.41467,5.41467,0,0,1-.63428-.05859c-.10352-.01758-.25781-.02832-.42676-.042a3.27479,3.27479,0,0,1-2.481-.94141,1.67589,1.67589,0,0,1-.32666-1.085,16.06043,16.06043,0,0,0-5.94434,7.38184l-.00244.05273a2.12468,2.12468,0,0,0-.00537.27637,2.55162,2.55162,0,0,0,1.19189,2.01855,1.59208,1.59208,0,0,0,.19482.05762,2.31156,2.31156,0,0,1,.86719.37891,1.02535,1.02535,0,0,0,.61328.2666,2.671,2.671,0,0,1,1.61621.72852c.08545.06934.17627.14355.28076.2207.14648.11328.26807.19727.38379.27832a4.48968,4.48968,0,0,1,1.06006.94531,5.99453,5.99453,0,0,0,1.14258-.00977C22.73975,24.30176,23.00049,24.28418,23.24658,24.28418Zm-1.84766.1377.0083.01172Zm15.15137-.165.00391.002ZM31.0708,16.11328l-.001.001Zm.4043-2.05469-.019.00293Zm-5.90137-.14844Z" style="fill:#6d6daa"/><path d="M37.90088,41.05078a1.0005,1.0005,0,0,1-.99512-1.09961c.00391-.04.01416-.11426.02295-.1543l.00391.001a1.00007,1.00007,0,0,1,1.98486.2334c-.00146.01758-.00391.03906-.00732.06055l.00049.001c-.001.00781-.01611.11035-.01758.11914a1.00036,1.00036,0,0,1-.53906.73047l-.00586.00293A1.00447,1.00447,0,0,1,37.90088,41.05078Z" style="fill:#6d6daa"/><path d="M30.00537,43.002a18.00606,18.00606,0,1,1,4.65381-.61523A18.03289,18.03289,0,0,1,30.00537,43.002Zm.02051-34.00879a16.00422,16.00422,0,1,0,15.4292,11.86621h0A16.01936,16.01936,0,0,0,30.02588,8.99316Z" style="fill:#6d6daa"/></svg>