<?xml version="1.0" ?><svg data-name="Finance 2" height="60" id="Finance_2" viewBox="0 0 60 60" width="60" xmlns="http://www.w3.org/2000/svg"><title/><polyline points="59 48 59 52 1 52 1 48" style="fill:#89dbba"/><polyline points="59 44 59 48 1 48 1 44" style="fill:#89dbba"/><polyline points="59 40 59 44 1 44 1 40" style="fill:#89dbba"/><polyline points="59 48 59 52 1 52 1 48" style="fill:#2c4b75;opacity:0.2"/><polyline points="59 44 59 48 1 48 1 44" style="fill:#2c4b75;opacity:0.2"/><polyline points="59 40 59 44 1 44 1 40" style="fill:#2c4b75;opacity:0.2"/><path d="M59,53H1a.99974.99974,0,0,1-1-1V48a1,1,0,0,1,2,0v3H58V48a1,1,0,0,1,2,0v4A.99974.99974,0,0,1,59,53Z" style="fill:#6d6daa"/><path d="M59,49H1a.99974.99974,0,0,1-1-1V44a1,1,0,0,1,2,0v3H58V44a1,1,0,0,1,2,0v4A.99974.99974,0,0,1,59,49Z" style="fill:#6d6daa"/><path d="M59,45H1a.99974.99974,0,0,1-1-1V40a1,1,0,0,1,2,0v3H58V40a1,1,0,0,1,2,0v4A.99974.99974,0,0,1,59,45Z" style="fill:#6d6daa"/><rect height="32" style="fill:#89dbba" width="58" x="0.99988" y="8"/><path d="M54.99988,32V16a4,4,0,0,1-4-4h-42a4,4,0,0,1-4,4V32a3.99992,3.99992,0,0,1,4,4h42A3.99992,3.99992,0,0,1,54.99988,32Z" style="fill:#b1f1a8"/><rect height="16" style="fill:#2c4b75;opacity:0.2" width="58" x="0.99988" y="24"/><path d="M59,41H1a.99974.99974,0,0,1-1-1V8A.99974.99974,0,0,1,1,7H59a.99974.99974,0,0,1,1,1V40A.99974.99974,0,0,1,59,41ZM2,39H58V9H2Z" style="fill:#6d6daa"/><path d="M51,37H9a.99974.99974,0,0,1-1-1,3.00328,3.00328,0,0,0-3-3,.99974.99974,0,0,1-1-1V16a.99974.99974,0,0,1,1-1,3.00328,3.00328,0,0,0,3-3,.99974.99974,0,0,1,1-1H51a.99974.99974,0,0,1,1,1,3.00328,3.00328,0,0,0,3,3,.99974.99974,0,0,1,1,1V32a.99974.99974,0,0,1-1,1,3.00328,3.00328,0,0,0-3,3A.99974.99974,0,0,1,51,37ZM9.89941,35H50.10059A5.01487,5.01487,0,0,1,54,31.10059V16.89941A5.01487,5.01487,0,0,1,50.10059,13H9.89941A5.01487,5.01487,0,0,1,6,16.89941V31.10059A5.01487,5.01487,0,0,1,9.89941,35Z" style="fill:#6d6daa"/><ellipse cx="29.99988" cy="24" rx="9" ry="12" style="fill:#89dbba"/><path d="M30,37c-5.51367,0-10-5.83154-10-13s4.48633-13,10-13,10,5.83154,10,13S35.51367,37,30,37Zm0-24c-4.41113,0-8,4.93457-8,11s3.58887,11,8,11,8-4.93457,8-11S34.41113,13,30,13Z" style="fill:#6d6daa"/><circle cx="46.99988" cy="24" r="2" style="fill:#89dbba"/><path d="M47,27a3,3,0,1,1,3-3A3.00328,3.00328,0,0,1,47,27Zm0-4a1,1,0,1,0,1,1A1.001,1.001,0,0,0,47,23Z" style="fill:#6d6daa"/><circle cx="12.99988" cy="24" r="2" style="fill:#89dbba"/><path d="M13,27a3,3,0,1,1,3-3A3.00328,3.00328,0,0,1,13,27Zm0-4a1,1,0,1,0,1,1A1.001,1.001,0,0,0,13,23Z" style="fill:#6d6daa"/><path d="M36.53327,32.2367a8.42893,8.42893,0,0,0-3.8599-2.0809.51342.51342,0,0,1-.43049-.5259c.01209-.2826.012-.5824.01069-.8945,0-.716.8617-1.5787.9087-2.5842a4.04908,4.04908,0,0,0,.45061-1.6445.84548.84548,0,0,0-.20361-.6284c.0702-.3743.1302-.7703.20361-1.178a2.65768,2.65768,0,0,0-1.71651-3.3315c-.5192-.1844-2.6743-.5576-3.4772-1.3354-.2906-.2815-.0915,1.3039-.3547,1.4223a2.62871,2.62871,0,0,0-1.67759,3.2446c.07339.4077.13339.8037.20359,1.178a.84548.84548,0,0,0-.20359.6284,4.049,4.049,0,0,0,.45059,1.6445c.047,1.0055.9087,1.818.9087,2.5842-.00129.3121-.0014.6119.01071.8945a.51344.51344,0,0,1-.43051.5259,8.42893,8.42893,0,0,0-3.8599,2.0809A8.1247,8.1247,0,0,0,29.99988,36,8.1247,8.1247,0,0,0,36.53327,32.2367Z" style="fill:#b1f1a8"/><path d="M30,37a9.15343,9.15343,0,0,1-7.34863-4.18457,1.00017,1.00017,0,0,1,.16113-1.335,9.71748,9.71748,0,0,1,3.93457-2.22412c-.002-.1709-.002-.3457-.001-.52393a2.75386,2.75386,0,0,0-.29395-.68018,4.76329,4.76329,0,0,1-.59473-1.63818,4.84457,4.84457,0,0,1-.4707-1.90723,2.10589,2.10589,0,0,1,.15332-.82422c-.01562-.09229-.03125-.186-.04687-.28027l-.09082-.52539a3.5683,3.5683,0,0,1,1.82129-4.11768c.002-.05518.00391-.1123.00684-.16846.02832-.55713.06445-1.25049.74512-1.51855a1.143,1.143,0,0,1,1.13965.24316,7.34162,7.34162,0,0,0,2.43945.92285c.29785.07568.53711.13867.67578.188a3.631,3.631,0,0,1,2.36719,4.45117l-.0957.55322c-.01367.08447-.02832.16846-.042.25146a2.10665,2.10665,0,0,1,.15332.82471,4.84049,4.84049,0,0,1-.4707,1.90674,4.92815,4.92815,0,0,1-.60352,1.6748,3.12323,3.12323,0,0,0-.28516.65137c.001.17432.001.34717-.001.5166A9.73843,9.73843,0,0,1,37.18652,31.48a.99882.99882,0,0,1,.16211,1.33545A9.15343,9.15343,0,0,1,30,37Zm-5.14258-4.60352A6.7914,6.7914,0,0,0,30,35a6.78742,6.78742,0,0,0,5.1416-2.603A6.44042,6.44042,0,0,0,32.499,31.14014,1.51841,1.51841,0,0,1,31.24414,29.585c.01074-.26514.01074-.5498.00977-.84668a3.432,3.432,0,0,1,.50684-1.56592,2.99485,2.99485,0,0,0,.40234-1.06738,1.01116,1.01116,0,0,1,.09863-.38818,3.14129,3.14129,0,0,0,.35156-1.21c0-.01123.001-.01709.00391-.01807a.99663.99663,0,0,1-.19043-.79492c.03613-.19238.06934-.39062.10254-.59326l.10059-.57959c.27441-1.5249-.42676-1.98242-1.06836-2.21-.10156-.03613-.27832-.07861-.499-.13428a15.876,15.876,0,0,1-1.94531-.59326,1.13586,1.13586,0,0,1-.64355.78467,1.66129,1.66129,0,0,0-1.10254,2.15527l.09375.54785c.03613.21289.07129.4209.1084.62256a1.00025,1.00025,0,0,1-.18164.78418,3.10269,3.10269,0,0,0,.34668,1.23877,1.01116,1.01116,0,0,1,.09863.38818,2.77552,2.77552,0,0,0,.38867,1.022,3.493,3.493,0,0,1,.52051,1.6084c-.001.2998-.001.58447.00977.853A1.51813,1.51813,0,0,1,27.5,31.14063,6.4331,6.4331,0,0,0,24.85742,32.39648Zm1.90039-2.72559v0Zm6.48438-.00342v0Zm-.542-5.084.001.00049Zm-5.0459-6.04-.002.001Z" style="fill:#6d6daa"/><rect height="32" style="fill:#eef6ff" width="12" x="23.99988" y="8"/><rect height="12" style="fill:#ced8ee" width="12" x="23.99988" y="40"/><path d="M36,41H24a.99974.99974,0,0,1-1-1V8a.99974.99974,0,0,1,1-1H36a.99974.99974,0,0,1,1,1V40A.99974.99974,0,0,1,36,41ZM25,39H35V9H25Z" style="fill:#6d6daa"/><path d="M36,53H24a.99974.99974,0,0,1-1-1V40a.99974.99974,0,0,1,1-1H36a.99974.99974,0,0,1,1,1V52A.99974.99974,0,0,1,36,53ZM25,51H35V41H25Z" style="fill:#6d6daa"/></svg>