<?xml version="1.0" ?><svg data-name="Finance 2" height="60" id="Finance_2" viewBox="0 0 60 60" width="60" xmlns="http://www.w3.org/2000/svg"><title/><path d="M25.74536,31.61511c-2.1272,2.161-4.51337,4.58569-7.24182,7.35938a8.97085,8.97085,0,1,0,3.13324,9.38489s1.7179-6.829,3.30457-8.40137c.53491-.53027,2.92981-2.62,5.11584-4.51355C28.74658,34.27747,27.27436,32.97021,25.74536,31.61511ZM17.78589,47.32739a4.9834,4.9834,0,1,1-3.5238-6.10339A4.98339,4.98339,0,0,1,17.78589,47.32739Z" style="fill:#d4edff"/><path d="M21.63678,45.35938a8.96571,8.96571,0,0,1-17.50323-.83148,8.96838,8.96838,0,0,0,17.50323,3.83148s1.7179-6.829,3.30457-8.40137C25.47626,39.42773,21.63678,45.35938,21.63678,45.35938Z" style="fill:#2c4b75;opacity:0.2"/><path d="M46.07877,11h5.67011a49.93264,49.93264,0,0,0,.25029-6.01C49.55388,7.4758,47.72107,9.3357,46.07877,11Z" style="fill:#d4edff"/><path d="M46.07877,11h2.671a20.20727,20.20727,0,0,0,3.24942-6.01C49.55388,7.4758,47.72107,9.3357,46.07877,11Z" style="fill:#fff;opacity:0.75"/><path d="M36.20427,21c-1.7149,1.7384-3.7298,3.7822-6.2122,6.3024l4.3644,4.4281C37.909,28.6456,43.41,23.6325,46.30888,21Z" style="fill:#d4edff"/><path d="M36.20427,21c-1.7149,1.7384-3.7298,3.7822-6.2122,6.3024l1.88334,1.947L39.96863,21Z" style="fill:#fff;opacity:0.75"/><path d="M43.00489,24c1.25928-1.1416,2.40808-2.1864,3.304-3H36.20429q-1.3374,1.3558-2.95819,3Z" style="fill:#2c4b75;opacity:0.2"/><path d="M56.99988,15V25a3.99993,3.99993,0,0,0-4-4h-20l2-2.5-2-2.5,2-2.5-2-2.5h20A3.99993,3.99993,0,0,1,56.99988,15Z" style="fill:#ff99b1"/><path d="M52.99988,11h-3a3.99992,3.99992,0,0,1,4,4v6.14142a3.99067,3.99067,0,0,1,3,3.85858V15A3.99992,3.99992,0,0,0,52.99988,11Z" style="fill:#750000;opacity:0.200000002980232"/><path d="M6.99988,21H13.733c-1.1909-1.05-1.919-1.6914-1.919-1.6914C9.54917,17.0639,8.62547,14.1298,8.25088,11h-1.251a3.99992,3.99992,0,0,0-4,4V25A3.99992,3.99992,0,0,1,6.99988,21Z" style="fill:#ff99b1"/><path d="M5.99988,21V15a3.99077,3.99077,0,0,1,2.30695-3.61182c-.01758-.12982-.04034-.25769-.056-.38818h-1.251a3.99989,3.99989,0,0,0-4,4V25a3.99067,3.99067,0,0,1,3-3.85858Z" style="fill:#fff;opacity:0.5"/><polygon points="23.78 21 27 21 25 18.5 27 16 25 13.5 27 11 13.924 11 23.78 21" style="fill:#ff99b1"/><path d="M52.99988,11h-20l2,2.5-.4.5h18.4a3.99992,3.99992,0,0,1,4,4V15A3.99992,3.99992,0,0,0,52.99988,11Z" style="fill:#fff;opacity:0.5"/><path d="M6.99988,14h1.8349a20.07444,20.07444,0,0,1-.58392-3h-1.251a3.99989,3.99989,0,0,0-4,4v3A3.99989,3.99989,0,0,1,6.99988,14Z" style="fill:#fff;opacity:0.5"/><polygon points="25.4 14 25 13.5 27 11 13.924 11 16.881 14 25.4 14" style="fill:#fff;opacity:0.5"/><path d="M2.99988,25a3.99992,3.99992,0,0,0,4,4V21A3.99992,3.99992,0,0,0,2.99988,25Z" style="fill:#ff99b1"/><path d="M55.692,43.71582a8.97223,8.97223,0,0,0-14.19568-4.74133L8.00055,4.99011c-.01331,5.18237.12561,10.66345,3.81342,14.31848,0,0,21.65808,19.0769,23.24451,20.64941s3.3045,8.40112,3.3045,8.40112a8.97014,8.97014,0,1,0,17.329-4.64331ZM48.31726,50.8512a4.98346,4.98346,0,1,1,3.5238-6.10339A4.98354,4.98354,0,0,1,48.31726,50.8512Z" style="fill:#d4edff"/><path d="M49.34918,51.70215a8.97027,8.97027,0,0,1-10.98621-6.343S33.472,38.3855,35.05847,39.958s3.3045,8.40112,3.3045,8.40112a8.96832,8.96832,0,0,0,17.50317-3.83136A8.96457,8.96457,0,0,1,49.34918,51.70215Z" style="fill:#2c4b75;opacity:0.2"/><path d="M34.37365,31.71332,8.00055,4.99011c1.602,4.098,3.374,9.35486,7.06181,13.00989L30.05717,31.4119Z" style="fill:#fff;opacity:0.75"/><path d="M12.96875,56.00879a9.96986,9.96986,0,1,1,5.4209-18.34326l6.64258-6.752a1.00208,1.00208,0,0,1,1.376-.04687c1.53027,1.35547,3.00293,2.66309,4.31445,3.83105a.99929.99929,0,0,1-.01074,1.50244c-3.6582,3.16846-4.77441,4.17871-5.06641,4.46826-1.01074,1.00146-2.40039,5.39844-3.03906,7.93506A9.99533,9.99533,0,0,1,12.96875,56.00879ZM12.959,38.064A7.97183,7.97183,0,1,0,20.6709,48.10059c.29395-1.1709,1.86816-7.16992,3.56641-8.853.41113-.40674,1.85742-1.688,4.30469-3.813-.86914-.77344-1.79492-1.59473-2.75-2.44141l-6.5752,6.68262a.99972.99972,0,0,1-1.33008.08594,7.91874,7.91874,0,0,0-2.85156-1.42285A8.01194,8.01194,0,0,0,12.959,38.064Zm.01172,13.95752A5.98348,5.98348,0,1,1,18.752,47.58643h0A5.99485,5.99485,0,0,1,12.9707,52.02148Zm-.00488-9.96875a3.98908,3.98908,0,1,0,1.03711.13721A4.00881,4.00881,0,0,0,12.96582,42.05273Zm4.82031,5.2749h0Z" style="fill:#6d6daa"/><path d="M51.749,12H46.0791a.99979.99979,0,0,1-.71191-1.70215c1.6416-1.66406,3.47363-3.52393,5.91895-6.00879a1,1,0,0,1,1.71289.69873,50.77545,50.77545,0,0,1-.25684,6.13086A1.00086,1.00086,0,0,1,51.749,12Zm-3.2793-2h2.377c.07422-.84473.11328-1.69971.13281-2.54834C50.0625,8.38281,49.23633,9.22168,48.46973,10Z" style="fill:#6d6daa"/><path d="M34.35645,32.73047a.99621.99621,0,0,1-.71191-.29785l-4.36426-4.42822a.99972.99972,0,0,1,0-1.40381l6.21191-6.30273A.99967.99967,0,0,1,36.2041,20H46.30859a.99986.99986,0,0,1,.67188,1.74023l-.85937.78125c-2.94531,2.67627-7.874,7.15479-11.10937,9.96387A.99464.99464,0,0,1,34.35645,32.73047Zm-2.96-5.42822L34.4082,30.3584c2.8125-2.46387,6.58594-5.88232,9.3125-8.3584H36.62207Z" style="fill:#6d6daa"/><path d="M47.03027,56.00879a9.98782,9.98782,0,0,1-9.63281-7.39062c-.64258-2.55078-2.0332-6.94824-3.043-7.9502-1.54785-1.53369-22.98437-20.41846-23.20117-20.60889C6.97168,15.91846,6.98926,9.60059,7.001,4.98779a1,1,0,0,1,1.71191-.69971L41.61035,37.66553a9.97044,9.97044,0,1,1,5.41992,18.34326ZM9.02246,7.45117c.11035,4.49219.71484,8.3916,3.49609,11.147.8418.73975,21.6543,19.07471,23.24414,20.64941,1.69727,1.68408,3.27246,7.68213,3.57031,8.86768a7.96776,7.96776,0,1,0,2.78027-8.35352.99943.99943,0,0,1-1.3291-.085ZM47.0293,52.02148a5.988,5.988,0,1,1,1.54688-.20459A5.99429,5.99429,0,0,1,47.0293,52.02148Zm.00488-9.96875a3.98409,3.98409,0,1,0,1.02441,7.83252,3.98447,3.98447,0,0,0-1.02441-7.83252Z" style="fill:#6d6daa"/><path d="M30.05957,32.40967a1.07438,1.07438,0,0,1-.38965-.06982,1.204,1.204,0,0,1-.32031-.22021,1.00141,1.00141,0,0,1,0-1.40967.87637.87637,0,0,1,.32031-.22021,1.02013,1.02013,0,0,1,1.08984.22021.97377.97377,0,0,1,.2998.69971.99708.99708,0,0,1-.2998.71A.96557.96557,0,0,1,30.05957,32.40967Z" style="fill:#6d6daa"/><path d="M56.99988,25a3.99993,3.99993,0,0,1-4,4V21A3.99993,3.99993,0,0,1,56.99988,25Z" style="fill:#ff99b1"/><path d="M2.99988,25a3.99992,3.99992,0,0,0,4,4V21A3.99992,3.99992,0,0,0,2.99988,25Z" style="fill:#750000;opacity:0.200000002980232"/><path d="M56.99988,25a3.99993,3.99993,0,0,1-4,4V21A3.99993,3.99993,0,0,1,56.99988,25Z" style="fill:#750000;opacity:0.200000002980232"/><path d="M57,26a.99974.99974,0,0,1-1-1,3.00328,3.00328,0,0,0-3-3H33a1.00015,1.00015,0,0,1-.78125-1.62451L33.71973,18.5l-1.501-1.87549a1,1,0,0,1,0-1.249L33.71973,13.5l-1.501-1.87549A1.00015,1.00015,0,0,1,33,10H53a5.00589,5.00589,0,0,1,5,5V25A.99974.99974,0,0,1,57,26ZM35.08105,20H53a4.97421,4.97421,0,0,1,3,1.00244V15a3.00328,3.00328,0,0,0-3-3H35.08105l.7002.87549a1,1,0,0,1,0,1.249L34.28027,16l1.501,1.87549a1,1,0,0,1,0,1.249Z" style="fill:#6d6daa"/><path d="M3,26a.99974.99974,0,0,1-1-1V15a5.00589,5.00589,0,0,1,5-5H8.251a1.00014,1.00014,0,0,1,.99316.88135c.41309,3.46143,1.4541,5.91357,3.27441,7.7168l1.876,1.65137A1.00007,1.00007,0,0,1,13.7334,22H7a3.00328,3.00328,0,0,0-3,3A.99974.99974,0,0,1,3,26ZM7,12a3.00328,3.00328,0,0,0-3,3v6.00244A4.97421,4.97421,0,0,1,7,20h4.09375a13.7333,13.7333,0,0,1-3.71484-8Z" style="fill:#6d6daa"/><path d="M27,22H23.78027a.99967.99967,0,0,1-.71191-.29785l-9.85645-10A.99967.99967,0,0,1,13.92383,10H27a1.00015,1.00015,0,0,1,.78125,1.62451L26.28027,13.5l1.501,1.87549a1,1,0,0,1,0,1.249L26.28027,18.5l1.501,1.87549A1.00015,1.00015,0,0,1,27,22Zm-2.80078-2h.71973l-.7002-.87549a1,1,0,0,1,0-1.249L25.71973,16l-1.501-1.87549a1,1,0,0,1,0-1.249L24.91895,12H16.31348Z" style="fill:#6d6daa"/><path d="M7,30A5,5,0,0,1,7,20a.99974.99974,0,0,1,1,1v8A.99974.99974,0,0,1,7,30ZM6,22.17139a3.00026,3.00026,0,0,0,0,5.65723Z" style="fill:#6d6daa"/><path d="M53,30a.99974.99974,0,0,1-1-1V21a.99974.99974,0,0,1,1-1,5,5,0,0,1,0,10Zm1-7.82861v5.65723a3.00026,3.00026,0,0,0,0-5.65723Z" style="fill:#6d6daa"/></svg>