<?xml version="1.0" ?><svg data-name="Buildings 1" height="60" id="Buildings_1" viewBox="0 0 60 60" width="60" xmlns="http://www.w3.org/2000/svg"><title/><path d="M3,8A.99974.99974,0,0,1,2,7,5.27043,5.27043,0,0,1,4.23486,2.624a5.9689,5.9689,0,0,1,4.8335-.88672A5.13429,5.13429,0,0,1,15.49854.7002a1.00028,1.00028,0,0,1-.99707,1.73438,3.281,3.281,0,0,0-4.33252,1.07031.99221.99221,0,0,1-1.11377.31152,4.07952,4.07952,0,0,0-3.66895.44238A3.25478,3.25478,0,0,0,4,7,.99974.99974,0,0,1,3,8Z" style="fill:#6d6daa"/><polygon points="41 29 41 17 25 29 25 17 9 29 9 11 1 11 1 29 1 59 57 59 57 29 57 17 41 29" style="fill:#ff9797"/><path d="M10.6,30.8,25,20V17L9,29v1A1,1,0,0,0,10.6,30.8Z" style="fill:#fff;opacity:0.5"/><path d="M26.6,30.8,41,20V17L25,29v1A1,1,0,0,0,26.6,30.8Z" style="fill:#fff;opacity:0.5"/><path d="M41,29v1a1,1,0,0,0,1.6.8L57,20V17Z" style="fill:#fff;opacity:0.5"/><rect height="40.00003" style="fill:#fff;opacity:0.5" width="3" x="1" y="14.99998"/><rect height="18.05" style="fill:#750000;opacity:0.2" width="3" x="6" y="15.00001"/><rect height="4" style="fill:#9eb2cc" width="56" x="1" y="55.00001"/><path d="M13.00146,10a1.05225,1.05225,0,0,1-.13477-.00879,1.00008,1.00008,0,0,1-.85791-1.124A4.50649,4.50649,0,0,1,16.3916,4.9834a5.01671,5.01671,0,0,1,8.11426-1.5332,4.50778,4.50778,0,0,1,6.30957,2.81152,5.99068,5.99068,0,0,1,2.98584,2.126A1.0002,1.0002,0,0,1,32.19873,9.585,3.98735,3.98735,0,0,0,29.7666,8.05469a1.00015,1.00015,0,0,1-.80078-.86621A2.5069,2.5069,0,0,0,24.918,5.53906a1,1,0,0,1-1.44873-.22168,3.01221,3.01221,0,0,0-5.41113.959,1.00075,1.00075,0,0,1-1.144.749,2.57206,2.57206,0,0,0-.44482-.043,2.50029,2.50029,0,0,0-2.478,2.15039A.99993.99993,0,0,1,13.00146,10Z" style="fill:#6d6daa;opacity:0.75"/><rect height="18" style="fill:#96d7ff" width="48" x="5" y="33.00001"/><rect height="3" style="fill:#2c4b75;opacity:0.2" width="48" x="5" y="32.99998"/><polygon points="5 33 5 51 15.487 51 33.487 33 5 33" style="fill:#fff;opacity:0.5"/><polygon points="23.973 51 41.973 33 37.73 33 19.73 51 23.973 51" style="fill:#fff;opacity:0.5"/><polygon points="34.973 51 52.973 33 49.73 33 31.73 51 34.973 51" style="fill:#fff;opacity:0.5"/><path d="M29,52a.99974.99974,0,0,1-1-1V33a1,1,0,0,1,2,0V51A.99974.99974,0,0,1,29,52Z" style="fill:#6d6daa"/><rect height="4" style="fill:#eef6ff" width="8" x="1" y="11.00001"/><rect height="4" style="fill:#fff;opacity:0.5" width="3" x="1" y="11.00001"/><rect height="4" style="fill:#2c4b75;opacity:0.2" width="3" x="6" y="11.00001"/><path d="M57,60H1a.99974.99974,0,0,1-1-1V11a.99974.99974,0,0,1,1-1H9a.99974.99974,0,0,1,1,1V27L24.3999,16.2002A.99982.99982,0,0,1,26,17V27L40.3999,16.2002A.99982.99982,0,0,1,42,17V27L56.3999,16.2002A.99982.99982,0,0,1,58,17V59A.99974.99974,0,0,1,57,60ZM2,58H56V19L41.6001,29.7998A.99982.99982,0,0,1,40,29V19L25.6001,29.7998A.99982.99982,0,0,1,24,29V19L9.6001,29.7998A.99982.99982,0,0,1,8,29V12H2Z" style="fill:#6d6daa"/><path d="M57,60H1a.99974.99974,0,0,1-1-1V55a.99974.99974,0,0,1,1-1H57a.99974.99974,0,0,1,1,1v4A.99974.99974,0,0,1,57,60ZM2,58H56V56H2Z" style="fill:#6d6daa"/><path d="M53,52H5a.99974.99974,0,0,1-1-1V33a.99974.99974,0,0,1,1-1H53a.99974.99974,0,0,1,1,1V51A.99974.99974,0,0,1,53,52ZM6,50H52V34H6Z" style="fill:#6d6daa"/><path d="M9,16H1a.99974.99974,0,0,1-1-1V11a.99974.99974,0,0,1,1-1H9a.99974.99974,0,0,1,1,1v4A.99974.99974,0,0,1,9,16ZM2,14H8V12H2Z" style="fill:#6d6daa"/><path d="M35,52a.99974.99974,0,0,1-1-1V33a1,1,0,0,1,2,0V51A.99974.99974,0,0,1,35,52Z" style="fill:#6d6daa"/><path d="M41,52a.99974.99974,0,0,1-1-1V33a1,1,0,0,1,2,0V51A.99974.99974,0,0,1,41,52Z" style="fill:#6d6daa"/><path d="M47,52a.99974.99974,0,0,1-1-1V33a1,1,0,0,1,2,0V51A.99974.99974,0,0,1,47,52Z" style="fill:#6d6daa"/><path d="M23,52a.99974.99974,0,0,1-1-1V33a1,1,0,0,1,2,0V51A.99974.99974,0,0,1,23,52Z" style="fill:#6d6daa"/><path d="M17,52a.99974.99974,0,0,1-1-1V33a1,1,0,0,1,2,0V51A.99974.99974,0,0,1,17,52Z" style="fill:#6d6daa"/><path d="M11,52a.99974.99974,0,0,1-1-1V33a1,1,0,0,1,2,0V51A.99974.99974,0,0,1,11,52Z" style="fill:#6d6daa"/><path d="M53,40H5a1,1,0,0,1,0-2H53a1,1,0,0,1,0,2Z" style="fill:#6d6daa"/><path d="M53,46H5a1,1,0,0,1,0-2H53a1,1,0,0,1,0,2Z" style="fill:#6d6daa"/></svg>