<?xml version="1.0" ?><svg data-name="Clothing &amp; accessories" height="60" id="Clothing_accessories" viewBox="0 0 60 60" width="60" xmlns="http://www.w3.org/2000/svg"><title/><polygon points="15 9 9 13.5 9 5 15 9" style="fill:#fffad1"/><polygon points="45 9 51 13.5 51 5 45 9" style="fill:#fffad1"/><rect height="42" style="fill:#f5dbb8" width="46" x="7" y="15"/><rect height="3" style="fill:#fff;opacity:0.5" width="46" x="7" y="15"/><rect height="3" style="fill:#875499;opacity:0.30000000000000004" width="46" x="7" y="54"/><path d="M7.001,16a1,1,0,0,1-.60107-1.7998L13.269,9.04785,8.44531,5.832A1,1,0,1,1,9.55469,4.168l6,4A1,1,0,0,1,15.6001,9.7998l-8,6A.99445.99445,0,0,1,7.001,16Z" style="fill:#6d6daa"/><path d="M52.999,16a.99445.99445,0,0,1-.59912-.2002l-8-6A1,1,0,0,1,44.44531,8.168l6-4A1,1,0,0,1,51.55469,5.832L46.731,9.04785,53.6001,14.2002A1,1,0,0,1,52.999,16Z" style="fill:#6d6daa"/><path d="M30,40a9.01047,9.01047,0,0,1-9-9V23a1,1,0,0,1,2,0v8a7,7,0,0,0,14,0V23a1,1,0,0,1,2,0v8A9.01047,9.01047,0,0,1,30,40Z" style="fill:#6d6daa"/><circle cx="22" cy="21" r="2" style="fill:#d6b5b0"/><polygon points="9 5 15 9 7 15 53 15 45 9 51 5 9 5" style="fill:#d6b5b0"/><polygon points="51 5 45 9 53 15 42 15 42 5 51 5" style="fill:#633d3d;opacity:0.15"/><polygon points="9 5 15 9 7 15 18 15 18 5 9 5" style="fill:#633d3d;opacity:0.15"/><circle cx="38" cy="21" r="2" style="fill:#d6b5b0"/><path d="M9,14.5a.99966.99966,0,0,1-1-1V5a.99993.99993,0,0,1,1.55469-.832l6,4A1,1,0,0,1,15.6001,9.7998l-6,4.5A1.00068,1.00068,0,0,1,9,14.5Zm1-7.63135V11.5l3.269-2.45215Z" style="fill:#6d6daa"/><path d="M51,14.5a1.00068,1.00068,0,0,1-.6001-.2002l-6-4.5A1,1,0,0,1,44.44531,8.168l6-4A.99993.99993,0,0,1,52,5v8.5a.99966.99966,0,0,1-1,1ZM46.731,9.04785,50,11.5V6.86865Z" style="fill:#6d6daa"/><path d="M53,58H7a1,1,0,0,1-1-1V15a1,1,0,0,1,1-1H53a1,1,0,0,1,1,1V57A1,1,0,0,1,53,58ZM8,56H52V16H8Z" style="fill:#6d6daa"/><path d="M22,24a3,3,0,1,1,3-3A3.00328,3.00328,0,0,1,22,24Zm0-4a1,1,0,1,0,1,1A1.0013,1.0013,0,0,0,22,20Z" style="fill:#6d6daa"/><path d="M53,16H7a.99988.99988,0,0,1-.6001-1.7998L13.269,9.04785,8.44531,5.832A1,1,0,0,1,9,4H51a1,1,0,0,1,.55469,1.832L46.731,9.04785,53.6001,14.2002A.99988.99988,0,0,1,53,16ZM10,14H50L44.3999,9.7998A1,1,0,0,1,44.44531,8.168L47.69727,6H12.30273l3.252,2.168A1,1,0,0,1,15.6001,9.7998Z" style="fill:#6d6daa"/><path d="M38,24a3,3,0,1,1,3-3A3.00328,3.00328,0,0,1,38,24Zm0-4a1,1,0,1,0,1,1A1.0013,1.0013,0,0,0,38,20Z" style="fill:#6d6daa"/><path d="M15,16a1,1,0,0,1-1-1V9a1,1,0,0,1,2,0v6A1,1,0,0,1,15,16Z" style="fill:#6d6daa"/><path d="M45,16a1,1,0,0,1-1-1V9a1,1,0,0,1,2,0v6A1,1,0,0,1,45,16Z" style="fill:#6d6daa"/></svg>