<?xml version="1.0" ?><svg data-name="Human 1" height="60" id="Human_1" viewBox="0 0 60 60" width="60" xmlns="http://www.w3.org/2000/svg"><title/><path d="M51.90547,42c0-6.49994-.2843-10.56482-1-14-.625-3-2.23859-5-5-5H43.931l-.09509.11914A4.99287,4.99287,0,0,0,38.92469,19h-2.859l-.26129-.00269A5.00132,5.00132,0,0,0,30.90547,15H27.957l-.05151.06854V4.53107a3.53106,3.53106,0,0,0-7.05688-.19238c-.30646,5.73126-.8985,17.3194-.9668,22.48584L19.67128,25c-1.5.66656-6.934,2.05768-8,7-1.748,8.10431,5.59253,14.84253,10.32477,18.48615l-.09058.11353V52a7,7,0,0,0,7,7h13a7,7,0,0,0,7-7,25.36509,25.36509,0,0,0,1.95789-4.37048c.01611-.04077.278-.82544.33511-1.04053h0A16.73768,16.73768,0,0,0,51.90547,42Z" style="fill:#f9e2dc;fill-rule:evenodd"/><path d="M28.00031,7v4h-7l-.4-.02c.07-1.41.14-2.77.21-3.99l.19.01Z" style="fill:#89dbba"/><path d="M45.15563,50.29167c0,.77394,3.62421.2269,3.39228.9229A7.003,7.003,0,0,1,41.90544,56h-13c-3.866,0-5.56232-1.47778-5.56232-5.34375l.06146-.799a2.6343,2.6343,0,0,0-1.224-2.427C17.5821,44.50156,12.27351,38.71767,11.525,32.98071c-.98437,7.66425,5.93176,14.01038,10.471,17.50543l-.09058.11353V52a7,7,0,0,0,7,7h13a7,7,0,0,0,7-7s3.72935-6.33333,3-10a8.78242,8.78242,0,0,1-.45815-1.89583C50.80146,45.125,46.864,50.08333,45.15563,50.29167Z" style="fill:#cc7e54;fill-rule:evenodd;opacity:0.2"/><path d="M19.989,32.75h0l-.08333-7.95833L16.94729,25.875l.94828,4.41541A3.40852,3.40852,0,0,0,19.989,32.75Z" style="fill:#cc7e54;fill-rule:evenodd;opacity:0.2"/><g style="opacity:0.5"><path d="M27.90544,18.06854,27.957,18h2.94849a5.00132,5.00132,0,0,1,4.89893,3.99731L36.06566,22h2.859a4.99287,4.99287,0,0,1,4.91119,4.11914L43.931,26h1.97449c2.76141,0,4.375,2,5,5,.61511,2.95251.7157.43518,0-3-.625-3-2.23859-5-5-5H43.931l-.09509.11914A4.99287,4.99287,0,0,0,38.92467,19h-2.859l-.26129-.00269A5.00132,5.00132,0,0,0,30.90544,15H27.957l-.05151.06854Z" style="fill:#fff;fill-rule:evenodd"/><path d="M19.67125,25c-1.5.66656-6.934,2.05768-8,7a11.59185,11.59185,0,0,0-.14624,3.98071c.04187-.32581.075-.65021.14624-.98071,1.066-4.94232,6.5-6.33344,8-7Z" style="fill:#fff;fill-rule:evenodd"/><path d="M20.84856,7.33868a3.53106,3.53106,0,0,1,7.05688.19238v-3a3.53106,3.53106,0,0,0-7.05688-.19238Z" style="fill:#fff;fill-rule:evenodd"/></g><path d="M43.9248,32.17676a.99942.99942,0,0,1-1-1V24a4.004,4.004,0,0,0-4-4H36.90527V30a1,1,0,0,1-2,0V20a4.004,4.004,0,0,0-4-4h-2V29a1,1,0,0,1-2,0V4.53125a2.53069,2.53069,0,0,0-5.05762-.13867c-.34766,6.49023-1.13477,21.875-.94531,24.53613a.99883.99883,0,0,1-.92578,1.06836.98556.98556,0,0,1-1.06836-.92578c-.19141-2.6748.50781-16.67676.94141-24.78613a4.53117,4.53117,0,0,1,9.05566.24609V14h2a6.01017,6.01017,0,0,1,5.65723,4h2.3623a6.00656,6.00656,0,0,1,6,6v7.17676A.99942.99942,0,0,1,43.9248,32.17676Z" style="fill:#6d6daa"/><path d="M41.90527,60h-13a8.00917,8.00917,0,0,1-8-8V50.59961a1,1,0,0,1,2,0V52a6.00656,6.00656,0,0,0,6,6h13a6.00656,6.00656,0,0,0,6-6,1.0029,1.0029,0,0,1,.14258-.51367c.02832-.04785,2.85742-4.832,2.85742-9.48633,0-6.46191-.2832-10.459-.97852-13.7959-.582-2.79-1.93457-4.2041-4.02148-4.2041H43.93066a1,1,0,0,1,0-2h1.97461c3.07715,0,5.2002,2.05859,5.97852,5.7959.72559,3.48047,1.02148,7.5957,1.02148,14.2041,0,4.64648-2.3916,9.1875-3.00488,10.27637A8.0091,8.0091,0,0,1,41.90527,60Z" style="fill:#6d6daa"/><path d="M19.90527,33a.99942.99942,0,0,1-1-1V29a1,1,0,0,1,2,0v3A.99942.99942,0,0,1,19.90527,33Z" style="fill:#6d6daa"/><path d="M46.28906,52h-.584a1,1,0,1,1,0-2h.584c2.002,0,3.29492-1.20117,3.9502-3.67383a1.00033,1.00033,0,1,1,1.93359.51367C51.29,50.167,49.2002,52,46.28906,52Z" style="fill:#6d6daa"/><path d="M22.66992,52a.99415.99415,0,0,1-.59863-.2002c-8.96387-6.72266-12.791-13.45605-11.37793-20.01074,1.04395-4.83887,5.65332-6.58594,7.86816-7.42578.28418-.10742.52344-.19727.70313-.27734a1.00027,1.00027,0,1,1,.8125,1.82813c-.20605.09082-.48047.19629-.80664.31934-2.0293.76953-5.80762,2.20117-6.62207,5.97754C11.41406,37.93457,14.98828,43.9873,23.27051,50.2002A.99993.99993,0,0,1,22.66992,52Z" style="fill:#6d6daa"/><path d="M28,8H21a1,1,0,0,1,0-2h7a1,1,0,0,1,0,2Z" style="fill:#6d6daa"/><path d="M28,12H21a1,1,0,0,1,0-2h7a1,1,0,0,1,0,2Z" style="fill:#6d6daa"/><path d="M36,14c-2.7334,0-7.25586-3.124-8.625-4.21875a.99984.99984,0,0,1,.03711-1.58984C30.043,6.2793,33.668,4,36,4a5,5,0,0,1,0,10ZM29.7041,9.02246C31.72852,10.4375,34.5752,12,36,12a3,3,0,0,0,0-6C34.81738,6,32.46387,7.1377,29.7041,9.02246Z" style="fill:#6d6daa"/><path d="M12.59961,14a5,5,0,1,1,0-10c2.335,0,5.959,2.2793,8.58789,4.19141a.99984.99984,0,0,1,.03711,1.58984C19.85645,10.875,15.335,14,12.59961,14Zm0-8a3,3,0,1,0,0,6c1.42676,0,4.27246-1.5625,6.29688-2.97754C16.1377,7.1377,13.78418,6,12.59961,6Z" style="fill:#6d6daa"/></svg>