<?xml version="1.0" ?><svg data-name="Multimedia 3" height="60" id="Multimedia_3" viewBox="0 0 60 60" width="60" xmlns="http://www.w3.org/2000/svg"><title/><polygon points="50 51 10 51 10 1 42 1 50 9 50 51" style="fill:#fff"/><rect height="3" style="fill:#2c4b75;opacity:0.2" width="40" x="10" y="48"/><path d="M41,9v2a1,1,0,0,0,1,1h8V9Z" style="fill:#2c4b75;opacity:0.2"/><path d="M50,52H10a.99974.99974,0,0,1-1-1V1a.99974.99974,0,0,1,1-1H42a1.00013,1.00013,0,0,1,.707.293l8,8A.99928.99928,0,0,1,51,9V51A.99974.99974,0,0,1,50,52ZM11,50H49V9.41406L41.58594,2H11Z" style="fill:#6d6daa"/><polygon points="42 1 42 9 50 9 42 1" style="fill:#eef6ff"/><path d="M50,10H42a.99974.99974,0,0,1-1-1V1A.99991.99991,0,0,1,42.707.293l8,8A.99991.99991,0,0,1,50,10ZM43,8h4.58594L43,3.41406Z" style="fill:#6d6daa"/><path d="M17.13,53.68l.05.04V55.4a3.59773,3.59773,0,0,1-3.6,3.6H8.78a3.59773,3.59773,0,0,1-3.6-3.6s-.34-1.09-.75-2.61c-.01-.01-.02-.02-.01-.03-.81-2.93-1.93-7.42-1.58-8.74.24-.91,3.53-4.65,5.58-6.13l2.13-1.18a10.24731,10.24731,0,0,1,.66-4.07,2.10762,2.10762,0,0,1,4.11,0,11.47091,11.47091,0,0,1,.55,5.98c-.49,4.22,2.01,5.69,2.78,9.19A6.06366,6.06366,0,0,1,17.13,53.68Z" style="fill:#f9e2dc"/><path d="M8.6,56h4.8c1.99,0,4.3-3.17,3.55-2.32l.05.04V55.4A3.59771,3.59771,0,0,1,13.4,59H8.6A3.59773,3.59773,0,0,1,5,55.4,11.44769,11.44769,0,0,0,8.6,56Z" style="fill:#750000;opacity:0.2"/><path d="M15.87,41.62c-.49,4.22,2.01,5.69,2.78,9.19.00983.04456.0127.08447.02179.12854A6.63137,6.63137,0,0,0,18.65,47.81c-.60272-2.73956-2.2597-4.24042-2.71869-6.78479C15.91235,41.21887,15.89386,41.4104,15.87,41.62Z" style="fill:#fff;opacity:0.5"/><path d="M8.42,40.89,10.55,39.71A10.24688,10.24688,0,0,1,11.21,35.64a2.10761,2.10761,0,0,1,4.11,0,13.24247,13.24247,0,0,1,.60895,2.40857A11.03156,11.03156,0,0,0,15.32,32.64a2.10761,2.10761,0,0,0-4.11,0A10.24688,10.24688,0,0,0,10.55,36.71L8.42,37.89C6.37,39.37,3.08,43.11,2.84,44.02a7.79646,7.79646,0,0,0,.14984,2.671A26.50324,26.50324,0,0,1,8.42,40.89Z" style="fill:#fff;opacity:0.75"/><path d="M4.41943,53.75977a1,1,0,0,1-.96338-.7334c-2.06152-7.45605-1.70117-8.81543-1.583-9.2627.35254-1.335,3.96143-5.24023,5.96143-6.68457a.98474.98474,0,0,1,.10107-.06445L10.06543,35.835a1.002,1.002,0,1,1,.89014,1.793L8.9585,38.73438a25.13089,25.13089,0,0,0-5.15771,5.56055c-.05078.19531-.2417,1.59863,1.583,8.19824a1.00049,1.00049,0,0,1-.69727,1.23047A1.01067,1.01067,0,0,1,4.41943,53.75977Z" style="fill:#6d6daa"/><path d="M13.58008,60H8.77979a4.60486,4.60486,0,0,1-4.59668-4.44043c-.105-.34277-.38965-1.29-.71826-2.50879a.99993.99993,0,1,1,1.93066-.52148c.40234,1.49219.73682,2.56445.73926,2.57324a.99729.99729,0,0,1,.04541.29785A2.60234,2.60234,0,0,0,8.77979,58h4.80029a2.60276,2.60276,0,0,0,2.6001-2.59961V53.71973a1,1,0,0,1,2,0v1.68066A4.60505,4.60505,0,0,1,13.58008,60Z" style="fill:#6d6daa"/><path d="M16.21,55.62988a1.00022,1.00022,0,0,1-.686-1.72754c.31494-.29687.59375-.584.853-.88086a5.06724,5.06724,0,0,0,1.29639-4.99707c-.05518-.25586-.12793-.498-.19922-.73145a14.43255,14.43255,0,0,0-1.10889-2.4541,9.7587,9.7587,0,0,1-1.48828-6.334,15.16267,15.16267,0,0,0,.12549-2.73633,11.25751,11.25751,0,0,0-.63135-2.8125,1.18857,1.18857,0,0,0-.749-.88574,1.14815,1.14815,0,0,0-1.03711.12988,1.025,1.025,0,0,0-.39746.64941.93144.93144,0,0,1-.04053.13965,9.21824,9.21824,0,0,0-.59766,3.68359,14.608,14.608,0,0,0,.20605,1.77832,12.97651,12.97651,0,0,1-.4751,5.5791.95088.95088,0,0,1-.06885.16211l-2,3.73047a1.00009,1.00009,0,0,1-1.7627-.94531L9.40283,43.333a10.96449,10.96449,0,0,0,.3833-4.5332,16.6929,16.6929,0,0,1-.23535-2.043,11.30522,11.30522,0,0,1,.69873-4.40234,2.98384,2.98384,0,0,1,1.17041-1.7793,3.116,3.116,0,0,1,2.86719-.39062A3.156,3.156,0,0,1,16.28418,32.375a12.94465,12.94465,0,0,1,.71289,3.22949,17.02014,17.02014,0,0,1-.1333,3.12793,7.89652,7.89652,0,0,0,1.26855,5.16992,16.23791,16.23791,0,0,1,1.25146,2.79688c.09033.29395.17773.59277.24365.90039a7.079,7.079,0,0,1-1.74707,6.74121c-.29541.33789-.61816.67188-.98437,1.0166A.9952.9952,0,0,1,16.21,55.62988Z" style="fill:#6d6daa"/><path d="M7.2002,55.87988H6.8999a3.48445,3.48445,0,0,1-3.40576-2.72949,1.03457,1.03457,0,0,1-.043-.126,1.60725,1.60725,0,0,1-.0625-.22168,1,1,0,0,1,1.95557-.418.93678.93678,0,0,1,.04639.127c.35156,1.21289.99121,1.36816,1.50928,1.36816H7.2002a1,1,0,1,1,0,2Z" style="fill:#6d6daa"/><path d="M9.06885,46.96a.99065.99065,0,0,1-.50488-.1377l-1.44971-.84961A.99973.99973,0,1,1,8.126,44.248l1.44971.84961A.99977.99977,0,0,1,9.06885,46.96Z" style="fill:#6d6daa"/><path d="M42.87,53.68l-.05.04V55.4a3.59773,3.59773,0,0,0,3.6,3.6h4.8a3.59773,3.59773,0,0,0,3.6-3.6s.34-1.09.75-2.61c.01-.01.02-.02.01-.03.81-2.93,1.93-7.42,1.58-8.74-.24-.91-3.53-4.65-5.58-6.13l-2.13-1.18a10.24731,10.24731,0,0,0-.66-4.07,2.10762,2.10762,0,0,0-4.11,0,11.47091,11.47091,0,0,0-.55,5.98c.49,4.22-2.01,5.69-2.78,9.19A6.06366,6.06366,0,0,0,42.87,53.68Z" style="fill:#f9e2dc"/><path d="M51.22,56h-4.8c-1.99,0-4.3-3.17-3.55-2.32l-.05.04V55.4a3.59771,3.59771,0,0,0,3.6,3.6h4.8a3.59773,3.59773,0,0,0,3.6-3.6A11.44769,11.44769,0,0,1,51.22,56Z" style="fill:#750000;opacity:0.2"/><path d="M44.68,35.64a2.10761,2.10761,0,0,1,4.11,0A10.24688,10.24688,0,0,1,49.45,39.71L51.58,40.89a26.50324,26.50324,0,0,1,5.43011,5.8009A7.79646,7.79646,0,0,0,57.16,44.02c-.24-.91-3.53-4.65-5.58-6.12994L49.45,36.71A10.24688,10.24688,0,0,0,48.79,32.64a2.10761,2.10761,0,0,0-4.11,0,11.03156,11.03156,0,0,0-.60895,5.40857A13.24247,13.24247,0,0,1,44.68,35.64Z" style="fill:#fff;opacity:0.75"/><path d="M41.35,50.81c.77-3.5,3.27-4.97,2.78-9.19-.02386-.20959-.04236-.40112-.06134-.59479-.459,2.54437-2.116,4.04523-2.71869,6.78479a6.63137,6.63137,0,0,0-.02179,3.12854C41.33728,50.89447,41.34015,50.85455,41.35,50.81Z" style="fill:#fff;opacity:0.5"/><path d="M55.58057,53.75977a1.01067,1.01067,0,0,1-.26709-.03613,1.00049,1.00049,0,0,1-.69727-1.23047c1.82471-6.59961,1.63379-8.00293,1.57715-8.21777a25.36108,25.36108,0,0,0-5.15186-5.541l-2.043-1.13184A.99873.99873,0,0,1,49.43994,35.71a1.03908,1.03908,0,0,1,.49463.125l2.12988,1.17969a.98474.98474,0,0,1,.10107.06445c2,1.44434,5.60889,5.34961,5.96143,6.68457.11816.44727.47852,1.80664-1.583,9.2627A1,1,0,0,1,55.58057,53.75977Z" style="fill:#6d6daa"/><path d="M51.22021,60H46.41992a4.60505,4.60505,0,0,1-4.6001-4.59961V53.71973a1,1,0,0,1,2,0v1.68066A2.60276,2.60276,0,0,0,46.41992,58h4.80029a2.60234,2.60234,0,0,0,2.59961-2.59961.99729.99729,0,0,1,.04541-.29785c.00244-.00879.33691-1.08105.73926-2.57324a.99993.99993,0,1,1,1.93066.52148c-.32861,1.21875-.61328,2.166-.71826,2.50879A4.60486,4.60486,0,0,1,51.22021,60Z" style="fill:#6d6daa"/><path d="M43.79,55.62988a.9952.9952,0,0,1-.686-.27246c-.36621-.34473-.689-.67871-.98682-1.01953a7.07962,7.07962,0,0,1-1.74365-6.74316c.06494-.30273.15234-.60156.24023-.8877a16.24525,16.24525,0,0,1,1.25391-2.80469,7.89552,7.89552,0,0,0,1.269-5.167,16.86988,16.86988,0,0,1-.13428-3.10352,13.12579,13.12579,0,0,1,.729-3.30859A3.14773,3.14773,0,0,1,48.585,30.5791a2.978,2.978,0,0,1,1.16553,1.77539,11.295,11.295,0,0,1,.69922,4.39258,16.59747,16.59747,0,0,1-.23437,2.042,10.90386,10.90386,0,0,0,.38135,4.543l1.95459,3.64551a1.00009,1.00009,0,0,1-1.7627.94531l-2-3.73047a.95088.95088,0,0,1-.06885-.16211,12.99407,12.99407,0,0,1-.47363-5.58984,14.5092,14.5092,0,0,0,.20508-1.77734,9.2079,9.2079,0,0,0-.59814-3.67383.93144.93144,0,0,1-.04053-.13965,1.02028,1.02028,0,0,0-.39258-.64551,1.15118,1.15118,0,0,0-1.77539.7002,11.569,11.569,0,0,0-.64746,2.85059,15.30811,15.30811,0,0,0,.12646,2.75293,9.75745,9.75745,0,0,1-1.48877,6.33105,14.43511,14.43511,0,0,0-1.11133,2.46191c-.06885.22559-.1416.46777-.1958.71875a5.06788,5.06788,0,0,0,1.293,4.999c.26172.2998.54053.58691.85547.88379a1.00022,1.00022,0,0,1-.686,1.72754Z" style="fill:#6d6daa"/><path d="M53.1001,55.87988H52.7998a1,1,0,0,1,0-2h.30029c.51807,0,1.15771-.15527,1.50928-1.36816.00537-.01953.01172-.03809.01855-.05762.00732-.02246.01514-.04492.02441-.06738a.98634.98634,0,0,1,1.17188-.77344,1.015,1.015,0,0,1,.78711,1.18945c-.00635.03125-.02637.09863-.04736.167a1.00836,1.00836,0,0,1-.06738.21A3.47833,3.47833,0,0,1,53.1001,55.87988Z" style="fill:#6d6daa"/><path d="M50.93115,46.96a.99977.99977,0,0,1-.50684-1.8623L51.874,44.248a.99973.99973,0,1,1,1.01172,1.72461l-1.44971.84961A.99065.99065,0,0,1,50.93115,46.96Z" style="fill:#6d6daa"/><path d="M21,8H16a1,1,0,0,1,0-2h5a1,1,0,0,1,0,2Z" style="fill:#6d6daa;opacity:0.5"/><path d="M28,12H16a1,1,0,0,1,0-2H28a1,1,0,0,1,0,2Z" style="fill:#6d6daa;opacity:0.5"/><path d="M28,18H20a1,1,0,0,1,0-2h8a1,1,0,0,1,0,2Z" style="fill:#6d6daa;opacity:0.5"/><path d="M16,18a.99042.99042,0,0,1-1-1,1.05006,1.05006,0,0,1,.29-.71,1.02671,1.02671,0,0,1,.32959-.21.99542.99542,0,0,1,.76025,0,1.15386,1.15386,0,0,1,.33008.21,1.03729,1.03729,0,0,1,.21.33008A.99013.99013,0,0,1,16,18Z" style="fill:#6d6daa;opacity:0.5"/><path d="M28,22H20a1,1,0,0,1,0-2h8a1,1,0,0,1,0,2Z" style="fill:#6d6daa;opacity:0.5"/><path d="M16,22a.99076.99076,0,0,1-.92041-1.37988A1.03019,1.03019,0,0,1,15.29,20.29,1,1,0,0,1,17,21a.99146.99146,0,0,1-.29.71,1.15386,1.15386,0,0,1-.33008.21A.99953.99953,0,0,1,16,22Z" style="fill:#6d6daa;opacity:0.5"/><path d="M44,18H36a1,1,0,0,1,0-2h8a1,1,0,0,1,0,2Z" style="fill:#6d6daa;opacity:0.5"/><path d="M32,18a.99042.99042,0,0,1-1-1,1.05006,1.05006,0,0,1,.29-.71,1.55249,1.55249,0,0,1,.1499-.12012.74472.74472,0,0,1,.17969-.08984.65357.65357,0,0,1,.18018-.06055.95557.95557,0,0,1,.58008.06055,1.03424,1.03424,0,0,1,.33008.21A1.05235,1.05235,0,0,1,33,17a.99042.99042,0,0,1-1,1Z" style="fill:#6d6daa;opacity:0.5"/><path d="M44,22H36a1,1,0,0,1,0-2h8a1,1,0,0,1,0,2Z" style="fill:#6d6daa;opacity:0.5"/><path d="M32,22a.99076.99076,0,0,1-.92041-1.37988A1.03019,1.03019,0,0,1,31.29,20.29,1,1,0,0,1,33,21a.99146.99146,0,0,1-.29.71,1.15386,1.15386,0,0,1-.33008.21A.99953.99953,0,0,1,32,22Z" style="fill:#6d6daa;opacity:0.5"/><path d="M29,29a9,9,0,1,0,9,9H29Z" style="fill:#97c1ff"/><path d="M28,38v2a1,1,0,0,0,1,1h8.47693A8.96338,8.96338,0,0,0,38,38Z" style="fill:#fff;opacity:0.5"/><path d="M29,32V29a8.95088,8.95088,0,0,0-8.86505,10.49994A8.99477,8.99477,0,0,1,29,32Z" style="fill:#fff;opacity:0.5"/><path d="M29,44a8.995,8.995,0,0,1-8.86505-7.50006A8.99585,8.99585,0,1,0,38,38h-.52307A8.99563,8.99563,0,0,1,29,44Z" style="fill:#2c4b75;opacity:0.2"/><path d="M29,48a10,10,0,0,1,0-20,.99974.99974,0,0,1,1,1v8h8a.99974.99974,0,0,1,1,1A10.01146,10.01146,0,0,1,29,48ZM28,30.0625A8.00016,8.00016,0,1,0,36.938,39H29a.99974.99974,0,0,1-1-1Z" style="fill:#6d6daa"/><path d="M32,26v9h9A8.99989,8.99989,0,0,0,32,26Z" style="fill:#b1f1a8"/><path d="M40.47693,35H41a8.9999,8.9999,0,0,0-9-9v3A8.99538,8.99538,0,0,1,40.47693,35Z" style="fill:#fff;opacity:0.5"/><path d="M32,32v3h9a8.96464,8.96464,0,0,0-.52307-3Z" style="fill:#2c4b75;opacity:0.2"/><path d="M41,36H32a.99974.99974,0,0,1-1-1V26a.99974.99974,0,0,1,1-1A10.01146,10.01146,0,0,1,42,35,.99974.99974,0,0,1,41,36Zm-8-2h6.938A8.01645,8.01645,0,0,0,33,27.0625Z" style="fill:#6d6daa"/></svg>