<?xml version="1.0" ?><svg data-name="Multimedia 2" height="60" id="Multimedia_2" viewBox="0 0 60 60" width="60" xmlns="http://www.w3.org/2000/svg"><title/><polyline points="25 55 35.319 44.043 27.437 41.188" style="fill:#d4edff"/><polygon points="26.928 44.076 27.097 44.128 33.168 46.328 35.32 44.043 27.437 41.188 26.928 44.076" style="fill:#2c4b75;opacity:0.2"/><path d="M25,56a1,1,0,0,1-.72754-1.68555l9.27539-9.84961-6.45117-2.33691a1.00028,1.00028,0,0,1,.68164-1.88086l7.88184,2.85547a1.00015,1.00015,0,0,1,.38672,1.626l-10.31934,10.957A.9955.9955,0,0,1,25,56Z" style="fill:#6d6daa"/><polyline points="19.465 38.727 3 33 57 5 49 49 27.437 41.188" style="fill:#fff"/><path d="M49,50a.99811.99811,0,0,1-.34082-.05957l-21.5625-7.8125a1.00028,1.00028,0,0,1,.68164-1.88086l20.44922,7.40918L55.65137,6.8252,5.52246,32.81836,19.793,37.78223a.99972.99972,0,0,1-.65625,1.88867L2.67188,33.94434A.99984.99984,0,0,1,2.54,32.1123l54-28A.99934.99934,0,0,1,57.9834,5.17871l-8,44A.999.999,0,0,1,49,50Z" style="fill:#6d6daa"/><polygon points="27.437 41.188 57 5 19.465 38.727 24.984 55 27.437 41.188" style="fill:#eef6ff"/><path d="M23.90047,40.67872,24.98438,55l2.45311-13.8125L57,5,24.44715,39.14778A2,2,0,0,0,23.90047,40.67872Z" style="fill:#2c4b75;opacity:0.2"/><path d="M24.9834,56a1.0003,1.0003,0,0,1-.94629-.67871L18.51758,39.04785a1.00137,1.00137,0,0,1,.2793-1.06543L56.332,4.25586a1,1,0,0,1,1.44238,1.377L28.377,41.61816,25.96875,55.1748a1.00039,1.00039,0,0,1-.90918.82227Q25.02148,56,24.9834,56ZM20.624,39.0293l4.05664,11.96191,1.77246-9.97852a.98934.98934,0,0,1,.21-.458L48.01563,14.417Z" style="fill:#6d6daa"/></svg>