<?xml version="1.0" ?><svg height="60" id="Security" viewBox="0 0 60 60" width="60" xmlns="http://www.w3.org/2000/svg"><title/><path d="M50,11C36,11,29,3,29,3s-7,8-21,8V29.1134a24,24,0,0,0,9.455,19.0904L29,57l11.545-8.7962A24,24,0,0,0,50,29.1134Z" style="fill:#eef6ff"/><path d="M29,3s-7,8-21,8v2.66667c14,0,21-7.10358,21-7.10358s7,7.10358,21,7.10358V11C36,11,29,3,29,3Z" style="fill:#fff;opacity:0.75"/><path d="M40.545,45.2038,29,54,17.455,45.2038A24.00009,24.00009,0,0,1,8,26.1134v3A24.00009,24.00009,0,0,0,17.455,48.2038L29,57l11.545-8.7962A24.00009,24.00009,0,0,0,50,29.1134v-3A24.00009,24.00009,0,0,1,40.545,45.2038Z" style="fill:#5cbeff;opacity:0.30000000000000004"/><path d="M29,8.31665A33.79993,33.79993,0,0,0,46,14.7983V29.1135a20.11464,20.11464,0,0,1-7.8791,15.9087L29,51.9712l-9.1208-6.949A20.11444,20.11444,0,0,1,12,29.1135V14.7983A33.8,33.8,0,0,0,29,8.31665" style="fill:#b1f1a8"/><path d="M29,8.31665A33.79993,33.79993,0,0,0,46,14.7983V29.1135a20.11464,20.11464,0,0,1-7.8791,15.9087L29,51.9712V8.31665" style="fill:#2c4b75;opacity:0.2"/><path d="M38.12091,42.02216,29,48.97119l-9.12079-6.949A20.11437,20.11437,0,0,1,12,26.11346v3a20.11437,20.11437,0,0,0,7.87921,15.90869L29,51.97119l9.12091-6.949A20.11461,20.11461,0,0,0,46,29.11346v-3A20.11461,20.11461,0,0,1,38.12091,42.02216Z" style="fill:#fff;opacity:0.5"/><path d="M29,8.31665a33.8,33.8,0,0,1-17,6.48163v3c8.15149-.83417,13.82458-3.68278,17-6.0795,3.17542,2.39673,8.84851,5.24534,17,6.0795v-3A33.8,33.8,0,0,1,29,8.31665Z" style="fill:#2c4b75;opacity:0.2"/><path d="M48.02588,39.63721a1.00088,1.00088,0,0,1-.91748-1.39746A22.86281,22.86281,0,0,0,49,29.11328V22.76367a1,1,0,0,1,2,0v6.34961a24.856,24.856,0,0,1-2.05566,9.92041A1.00119,1.00119,0,0,1,48.02588,39.63721Z" style="fill:#6d6daa"/><path d="M29,58a.99891.99891,0,0,1-.606-.20459L16.84912,48.999A25.14141,25.14141,0,0,1,7,29.11328V11a1,1,0,0,1,1-1c13.39111,0,20.18018-7.582,20.24756-7.65869a1.00021,1.00021,0,0,1,.751-.34033h.002a1.00207,1.00207,0,0,1,.751.33887C29.81885,2.4165,36.66113,10,50,10a1,1,0,0,1,1,1v2.31006a1,1,0,0,1-2,0V11.98682c-11.24512-.29736-17.86719-5.55127-20-7.56348-2.13281,2.01221-8.75488,7.26611-20,7.56348V29.11328A23.12976,23.12976,0,0,0,18.061,47.4082L29,55.74268,39.939,47.4082a23.0209,23.0209,0,0,0,2.96973-2.7041,1,1,0,0,1,1.4707,1.35547A24.99223,24.99223,0,0,1,41.15088,48.999L29.606,57.79541A.99891.99891,0,0,1,29,58Z" style="fill:#6d6daa"/><path d="M44.76318,36.99561a1.001,1.001,0,0,1-.93848-1.34619A18.8633,18.8633,0,0,0,45,29.11328V25.28223a1,1,0,1,1,2,0v3.83105a20.86705,20.86705,0,0,1-1.29834,7.22754A1.00079,1.00079,0,0,1,44.76318,36.99561Z" style="fill:#6d6daa"/><path d="M29,52.97119a.99891.99891,0,0,1-.606-.20459l-9.12061-6.94922A21.11858,21.11858,0,0,1,11,29.11328V14.79834a1.00011,1.00011,0,0,1,.89795-.99463A32.71733,32.71733,0,0,0,28.39746,7.51855a1.002,1.002,0,0,1,1.20508,0,32.71733,32.71733,0,0,0,16.49951,6.28516A1.00011,1.00011,0,0,1,47,14.79834V15.8291a1,1,0,0,1-2,0v-.13818A34.72531,34.72531,0,0,1,29,9.55811a34.72531,34.72531,0,0,1-16,6.13281V29.11328a19.10908,19.10908,0,0,0,7.48535,15.11328L29,50.71387l8.51514-6.4873a18.81611,18.81611,0,0,0,2.27734-2.05908,1,1,0,1,1,1.45605,1.37109,20.81623,20.81623,0,0,1-2.52148,2.27881L29.606,52.7666A.99891.99891,0,0,1,29,52.97119Z" style="fill:#6d6daa"/><path d="M58,14a1.05235,1.05235,0,0,1-.71-.29,1.15552,1.15552,0,0,1-.21045-.33008A.999.999,0,0,1,57,13a1,1,0,1,1,2,0,.838.838,0,0,1-.08008.37988,1.16449,1.16449,0,0,1-.21.33008A1.05329,1.05329,0,0,1,58,14Z" style="fill:#6d6daa"/><path d="M33.52979,28.40967a.99149.99149,0,0,1,.31006-1.37988h0a1.00032,1.00032,0,0,1,1.37988.31006h0a1.00907,1.00907,0,0,1-.31006,1.37988h0a.951.951,0,0,1-.52979.1499h0A1.00322,1.00322,0,0,1,33.52979,28.40967Zm3.37012-2.12988a1.007,1.007,0,0,1,.31982-1.37988h0a1.007,1.007,0,0,1,1.37988.31982h0a1.00658,1.00658,0,0,1-.31982,1.37988h0A1.01371,1.01371,0,0,1,37.75,26.75h0A1.01445,1.01445,0,0,1,36.8999,26.27979Zm3.37988-2.12012a1.00042,1.00042,0,0,1,.31006-1.37988h0a.9914.9914,0,0,1,1.37988.31006h0a.991.991,0,0,1-.31006,1.37988h0a.96377.96377,0,0,1-.52979.16016h0A1.00093,1.00093,0,0,1,40.27979,24.15967Zm3.37012-2.12988a1.005,1.005,0,0,1,.31982-1.37988h0a1.007,1.007,0,0,1,1.37988.31982h0a1.00658,1.00658,0,0,1-.31982,1.37988h0A1.01371,1.01371,0,0,1,44.5,22.5h0A1.01445,1.01445,0,0,1,43.6499,22.02979Zm3.37988-2.12012a.99149.99149,0,0,1,.31006-1.37988h0a.9914.9914,0,0,1,1.37988.31006h0a.991.991,0,0,1-.31006,1.37988h0a.951.951,0,0,1-.52979.1499h0A.99118.99118,0,0,1,47.02979,19.90967Zm3.37012-2.12988a1.007,1.007,0,0,1,.31982-1.37988h0a1.007,1.007,0,0,1,1.37988.31982h0a1.00658,1.00658,0,0,1-.31982,1.37988h0A1.01371,1.01371,0,0,1,51.25,18.25h0A1.01445,1.01445,0,0,1,50.3999,17.77979Zm3.37988-2.12012a.99149.99149,0,0,1,.31006-1.37988h0a1.00907,1.00907,0,0,1,1.37988.31006h0a.991.991,0,0,1-.31006,1.37988h0a.96377.96377,0,0,1-.52979.16016h0A1.00093,1.00093,0,0,1,53.77979,15.65967Z" style="fill:#6d6daa"/><path d="M31,31a1.54205,1.54205,0,0,1-.2002-.02.652.652,0,0,1-.18018-.06006.76551.76551,0,0,1-.17969-.09033A1.47452,1.47452,0,0,1,30.29,30.71,1.051,1.051,0,0,1,30,30a.9995.9995,0,0,1,.07959-.38037A1.15319,1.15319,0,0,1,30.29,29.29c.0498-.04.09961-.08008.1499-.12012a.76551.76551,0,0,1,.17969-.09033A.63471.63471,0,0,1,30.7998,29.02a.89178.89178,0,0,1,.3999,0,.63471.63471,0,0,1,.18018.05957.75916.75916,0,0,1,.18018.09033c.0498.04.09961.08008.1499.12012a1.16214,1.16214,0,0,1,.21.32959A1,1,0,0,1,32,30a1.05329,1.05329,0,0,1-.29.71,1.59055,1.59055,0,0,1-.1499.11963.75916.75916,0,0,1-.18018.09033.652.652,0,0,1-.18018.06006A1.38371,1.38371,0,0,1,31,31Z" style="fill:#6d6daa"/><path d="M48.36963,45.34961a1.01089,1.01089,0,0,1-.1499-1.40967h0a1.01058,1.01058,0,0,1,1.41016-.1499h0a1.0011,1.0011,0,0,1,.1499,1.40967h0A1.01942,1.01942,0,0,1,49,45.56982h0A1.007,1.007,0,0,1,48.36963,45.34961Zm-3-2.42969a1.01149,1.01149,0,0,1-.1499-1.41016h0a1.00092,1.00092,0,0,1,1.41016-.14014h0a.9891.9891,0,0,1,.1499,1.40039h0A.988.988,0,0,1,46,43.13965h0A1.00933,1.00933,0,0,1,45.36963,42.91992Zm-3-2.43018a.99907.99907,0,0,1-.1499-1.3999h0a1.00169,1.00169,0,0,1,1.41016-.1499h0a.99762.99762,0,0,1,.1499,1.3999h0A.98852.98852,0,0,1,43,40.71h0A1.00989,1.00989,0,0,1,42.36963,40.48975Zm-3-2.42969a.99046.99046,0,0,1-.1499-1.40039h0a1.00213,1.00213,0,0,1,1.41016-.1499h0a.99868.99868,0,0,1,.1499,1.3999h0A.99913.99913,0,0,1,40,38.29h0A1.02142,1.02142,0,0,1,39.36963,38.06006Zm-3-2.43018a.99811.99811,0,0,1-.1499-1.3999h0a1.00219,1.00219,0,0,1,1.41016-.15039h0a1.00174,1.00174,0,0,1,.1499,1.41016h0A1.01942,1.01942,0,0,1,37,35.85986h0A1.02142,1.02142,0,0,1,36.36963,35.62988Zm-3-2.41992a1.01149,1.01149,0,0,1-.1499-1.41016h0a1.00169,1.00169,0,0,1,1.41016-.1499h0a1.00169,1.00169,0,0,1,.1499,1.41016h0A1.02051,1.02051,0,0,1,34,33.42969h0A1.00933,1.00933,0,0,1,33.36963,33.21Z" style="fill:#6d6daa"/><path d="M52,48a1.54205,1.54205,0,0,1-.2002-.02.652.652,0,0,1-.18018-.06006.76551.76551,0,0,1-.17969-.09033c-.05029-.03955-.1001-.07959-.1499-.11963-.04-.05029-.08008-.1001-.12012-.1499a.75916.75916,0,0,1-.09033-.18018.63471.63471,0,0,1-.05957-.18018A1.318,1.318,0,0,1,51,47a1.18837,1.18837,0,0,1,.02-.18994.60268.60268,0,0,1,.05957-.19043.76551.76551,0,0,1,.09033-.17969c.04-.05029.08008-.1001.12012-.1499.0498-.04.09961-.08008.1499-.12012a.76551.76551,0,0,1,.17969-.09033A.63471.63471,0,0,1,51.7998,46.02a.89178.89178,0,0,1,.3999,0,.63471.63471,0,0,1,.18018.05957.75916.75916,0,0,1,.18018.09033c.0498.04.09961.08008.1499.12012.04.0498.08008.09961.11963.1499a.76551.76551,0,0,1,.09033.17969.61608.61608,0,0,1,.06006.19043A1.24729,1.24729,0,0,1,53,47a1.38371,1.38371,0,0,1-.02.19971.652.652,0,0,1-.06006.18018.75916.75916,0,0,1-.09033.18018c-.03955.0498-.07959.09961-.11963.1499-.05029.04-.1001.08008-.1499.11963a.75916.75916,0,0,1-.18018.09033.652.652,0,0,1-.18018.06006A1.53506,1.53506,0,0,1,52,48Z" style="fill:#6d6daa"/><path d="M56,53a2,2,0,1,1,2-2A2,2,0,0,1,56,53Z" style="fill:#fff;fill-rule:evenodd"/><path d="M56,54a3,3,0,1,1,3-3A3.00328,3.00328,0,0,1,56,54Zm0-4a1,1,0,1,0,1,1A1.0013,1.0013,0,0,0,56,50Z" style="fill:#6d6daa"/></svg>