<?xml version="1.0" ?><svg data-name="001" id="_001" viewBox="0 0 128 128" xmlns="http://www.w3.org/2000/svg" xmlns:xlink="http://www.w3.org/1999/xlink"><defs><style>.cls-1{fill:none;}.cls-2{opacity:0.3;}.cls-16,.cls-3{fill:#c9c1f5;}.cls-4{fill:#f2eed5;}.cls-5{fill:#6d6daa;}.cls-6{fill:#fffad1;}.cls-7{fill:#e0f3ff;}.cls-8{fill:#ff968c;}.cls-9{fill:#fff2cc;}.cls-10{fill:#ced8ee;}.cls-11{fill:#eef6ff;}.cls-12{fill:#7595b5;}.cls-13,.cls-17{fill:#fff;}.cls-14{opacity:0.5;}.cls-15{fill:#231f20;}.cls-16,.cls-17,.cls-18,.cls-19{fill-rule:evenodd;}.cls-18{fill:#554dad;}.cls-19,.cls-23{fill:#b1f1a8;}.cls-20{fill:#96d7ff;}.cls-21{clip-path:url(#clip-path);}.cls-22{fill:#efdcd2;}.cls-24{fill:#d6b5b0;}.cls-25{fill:#f9e2dc;}.cls-26{fill:#ff9797;}.cls-27{clip-path:url(#clip-path-2);}.cls-28{fill:#cc7e54;}.cls-29{fill:#ffd599;}.cls-30{fill:#97c1ff;}.cls-31{fill:#7690a8;}</style><clipPath id="clip-path"><path class="cls-1" d="M127.85,46.65a14.85,14.85,0,0,1-29.7,0c0-8.2,6.65-17.15,14.85-17.15S127.85,38.45,127.85,46.65Z"/></clipPath><clipPath id="clip-path-2"><path class="cls-1" d="M29.85,46.65a14.85,14.85,0,0,1-29.7,0C.15,38.45,6.8,29.5,15,29.5S29.85,38.45,29.85,46.65Z"/></clipPath></defs><title/><g class="cls-2"><path class="cls-3" d="M116.25,69.17A45.95,45.95,0,1,0,26,56.82a50.29,50.29,0,0,1-5.85,23.53A27,27,0,0,0,45.08,120a27.47,27.47,0,0,0,4.36-.53c10.76-2.2,22.06-1.18,31.83,3.83a24.53,24.53,0,0,0,34.24-13.41,24.48,24.48,0,0,0,.55-15.1A47.49,47.49,0,0,1,116.25,69.17Z"/><rect class="cls-4" height="21" width="6" x="6.01" y="66"/><path class="cls-5" d="M12,88H6a1,1,0,0,1-1-1V66a1,1,0,0,1,1-1h6a1,1,0,0,1,1,1V87A1,1,0,0,1,12,88ZM7,86h4V67H7Z"/><rect class="cls-6" height="6" width="44" x="1.01" y="87"/><path class="cls-5" d="M45,94H1a1,1,0,0,1-1-1V87a1,1,0,0,1,1-1H45a1,1,0,0,1,1,1v6A1,1,0,0,1,45,94ZM2,92H44V88H2Z"/><rect class="cls-7" height="21" width="6" x="24.01" y="66"/><path class="cls-5" d="M30,88H24a1,1,0,0,1-1-1V66a1,1,0,0,1,1-1h6a1,1,0,0,1,1,1V87A1,1,0,0,1,30,88Zm-5-2h4V67H25Z"/><rect class="cls-8" height="21" width="6" x="30.01" y="66"/><path class="cls-5" d="M36,88H30a1,1,0,0,1-1-1V66a1,1,0,0,1,1-1h6a1,1,0,0,1,1,1V87A1,1,0,0,1,36,88Zm-5-2h4V67H31Z"/><rect class="cls-7" height="21" width="6" x="18.01" y="66"/><path class="cls-5" d="M24,88H18a1,1,0,0,1-1-1V66a1,1,0,0,1,1-1h6a1,1,0,0,1,1,1V87A1,1,0,0,1,24,88Zm-5-2h4V67H19Z"/><rect class="cls-8" height="21" width="6" x="12.01" y="66"/><path class="cls-5" d="M18,88H12a1,1,0,0,1-1-1V66a1,1,0,0,1,1-1h6a1,1,0,0,1,1,1V87A1,1,0,0,1,18,88Zm-5-2h4V67H13Z"/><rect class="cls-9" height="21" width="6" x="36.01" y="66"/><path class="cls-5" d="M42,88H36a1,1,0,0,1-1-1V66a1,1,0,0,1,1-1h6a1,1,0,0,1,1,1V87A1,1,0,0,1,42,88Zm-5-2h4V67H37Z"/><path class="cls-5" d="M125,106H8a1,1,0,0,1,0-2H125a1,1,0,0,1,0,2Z"/><path class="cls-5" d="M5,106H4a1,1,0,1,1,0-2H5a1,1,0,1,1,0,2Z"/><circle class="cls-10" cx="22" cy="22" r="19"/><path class="cls-5" d="M22,42A20,20,0,1,1,42,22,20,20,0,0,1,22,42ZM22,4A18,18,0,1,0,40,22,18,18,0,0,0,22,4Z"/><circle class="cls-11" cx="22" cy="22" r="15"/><g class="cls-2"><path class="cls-12" d="M22,34.14A15,15,0,0,1,7.08,20.64C7,21.09,7,21.54,7,22a15,15,0,0,0,30,0c0-.46,0-.91-.08-1.36A15,15,0,0,1,22,34.14Z"/></g><path class="cls-13" d="M22,9.86a15,15,0,0,1,14.92,13.5c0-.45.08-.9.08-1.36A15,15,0,0,0,7,22c0,.46,0,.91.08,1.36A15,15,0,0,1,22,9.86Z"/><path class="cls-5" d="M22,38A16,16,0,1,1,38,22,16,16,0,0,1,22,38ZM22,8A14,14,0,1,0,36,22,14,14,0,0,0,22,8Z"/><path class="cls-5" d="M22,10.86a1,1,0,0,1-1-1,1,1,0,0,1,.29-.71,1,1,0,0,1,1.42,0,1,1,0,0,1,.29.71,1,1,0,0,1-1,1Z"/><path class="cls-5" d="M22,35.14a1,1,0,0,1-.38-.07,1.18,1.18,0,0,1-.33-.22,1,1,0,0,1-.21-.32,1.09,1.09,0,0,1-.08-.39,1,1,0,0,1,1.38-.92.92.92,0,0,1,.33.22,1,1,0,0,1,.29.7,1.09,1.09,0,0,1-.08.39,1,1,0,0,1-.21.32,1.05,1.05,0,0,1-.33.22A1,1,0,0,1,22,35.14Z"/><path class="cls-5" d="M34.14,23a1,1,0,0,1-.7-1.71,1,1,0,0,1,1.41,0,1,1,0,0,1,.29.71,1,1,0,0,1-.29.71A1,1,0,0,1,34.14,23Z"/><path class="cls-5" d="M9.86,23a1.05,1.05,0,0,1-.71-.29A1,1,0,0,1,8.86,22a1,1,0,0,1,.29-.71,1,1,0,0,1,1.41,0,1,1,0,0,1,.3.71,1,1,0,0,1-.3.71A1,1,0,0,1,9.86,23Z"/><path class="cls-5" d="M22,24.43A2.43,2.43,0,1,1,24.43,22,2.43,2.43,0,0,1,22,24.43Zm0-2.86a.43.43,0,1,0,.43.43A.43.43,0,0,0,22,21.57Z"/><path class="cls-5" d="M22,21.57a1,1,0,0,1-1-1V13.43a1,1,0,0,1,2,0v7.14A1,1,0,0,1,22,21.57Z"/><path class="cls-5" d="M29.86,23H23.43a1,1,0,0,1,0-2h6.43a1,1,0,0,1,0,2Z"/><g class="cls-14"><path class="cls-5" d="M18,71H12a1,1,0,1,1,0-2h6a1,1,0,0,1,0,2Z"/><path class="cls-5" d="M18,84H12a1,1,0,1,1,0-2h6a1,1,0,0,1,0,2Z"/></g><g class="cls-14"><path class="cls-5" d="M24,71H18a1,1,0,0,1,0-2h6a1,1,0,0,1,0,2Z"/><path class="cls-5" d="M24,84H18a1,1,0,0,1,0-2h6a1,1,0,0,1,0,2Z"/></g><g class="cls-14"><path class="cls-5" d="M12,71H6a1,1,0,0,1,0-2h6a1,1,0,0,1,0,2Z"/><path class="cls-5" d="M12,84H6a1,1,0,0,1,0-2h6a1,1,0,0,1,0,2Z"/></g><g class="cls-14"><path class="cls-5" d="M36,71H30a1,1,0,0,1,0-2h6a1,1,0,0,1,0,2Z"/><path class="cls-5" d="M36,84H30a1,1,0,0,1,0-2h6a1,1,0,0,1,0,2Z"/></g><g class="cls-14"><path class="cls-5" d="M42,71H36a1,1,0,0,1,0-2h6a1,1,0,0,1,0,2Z"/><path class="cls-5" d="M42,84H36a1,1,0,0,1,0-2h6a1,1,0,0,1,0,2Z"/></g><g class="cls-14"><path class="cls-5" d="M30,71H24a1,1,0,0,1,0-2h6a1,1,0,0,1,0,2Z"/><path class="cls-5" d="M30,84H24a1,1,0,0,1,0-2h6a1,1,0,0,1,0,2Z"/></g><path class="cls-5" d="M69,118H59a1,1,0,0,1,0-2H69a1,1,0,0,1,0,2Z"/><path class="cls-5" d="M56,118H55a1,1,0,0,1,0-2h1a1,1,0,0,1,0,2Z"/><path class="cls-5" d="M116,126H12a1,1,0,0,1,0-2H116a1,1,0,1,1,0,2Z"/><path class="cls-5" d="M120,126h-1a1,1,0,0,1,0-2h1a1,1,0,1,1,0,2Z"/><rect class="cls-7" height="21" transform="translate(148 35) rotate(-180)" width="6" x="71" y="7"/><path class="cls-5" d="M77,29H71a1,1,0,0,1-1-1V7a1,1,0,0,1,1-1h6a1,1,0,0,1,1,1V28A1,1,0,0,1,77,29Zm-5-2h4V8H72Z"/><rect class="cls-8" height="21" width="6" x="83" y="7"/><path class="cls-5" d="M89,29H83a1,1,0,0,1-1-1V7a1,1,0,0,1,1-1h6a1,1,0,0,1,1,1V28A1,1,0,0,1,89,29Zm-5-2h4V8H84Z"/><rect class="cls-8" height="21" width="6" x="77" y="7"/><path class="cls-5" d="M83,29H77a1,1,0,0,1-1-1V7a1,1,0,0,1,1-1h6a1,1,0,0,1,1,1V28A1,1,0,0,1,83,29Zm-5-2h4V8H78Z"/><rect class="cls-4" height="21" width="6" x="89" y="7"/><path class="cls-5" d="M95,29H89a1,1,0,0,1-1-1V7a1,1,0,0,1,1-1h6a1,1,0,0,1,1,1V28A1,1,0,0,1,95,29Zm-5-2h4V8H90Z"/><rect class="cls-6" height="6" transform="translate(195 62.01) rotate(-180)" width="57" x="69" y="28"/><path class="cls-5" d="M126,35H69a1,1,0,0,1-1-1V28a1,1,0,0,1,1-1h57a1,1,0,0,1,1,1v6A1,1,0,0,1,126,35ZM70,33h55V29H70Z"/><rect class="cls-7" height="21" width="6" x="95" y="7"/><path class="cls-5" d="M101,29H95a1,1,0,0,1-1-1V7a1,1,0,0,1,1-1h6a1,1,0,0,1,1,1V28A1,1,0,0,1,101,29Zm-5-2h4V8H96Z"/><rect class="cls-3" height="12" width="15" x="109" y="16"/><path class="cls-5" d="M124,29H109a1,1,0,0,1-1-1V16a1,1,0,0,1,1-1h15a1,1,0,0,1,1,1V28A1,1,0,0,1,124,29Zm-14-2h13V17H110Z"/><rect class="cls-3" height="5" width="17" x="108" y="11"/><path class="cls-5" d="M125,17H108a1,1,0,0,1-1-1V11a1,1,0,0,1,1-1h17a1,1,0,0,1,1,1v5A1,1,0,0,1,125,17Zm-16-2h15V12H109Z"/><path class="cls-5" d="M119,21h-5a1,1,0,0,1,0-2h5a1,1,0,0,1,0,2Z"/><g class="cls-14"><line class="cls-8" x1="83" x2="77" y1="11" y2="11"/><path class="cls-5" d="M83,12H77a1,1,0,0,1,0-2h6a1,1,0,0,1,0,2Z"/><line class="cls-8" x1="83" x2="77" y1="24" y2="24"/><path class="cls-5" d="M83,25H77a1,1,0,0,1,0-2h6a1,1,0,0,1,0,2Z"/></g><g class="cls-14"><line class="cls-8" x1="77" x2="71" y1="11" y2="11"/><path class="cls-5" d="M77,12H71a1,1,0,0,1,0-2h6a1,1,0,0,1,0,2Z"/><line class="cls-8" x1="77" x2="71" y1="24" y2="24"/><path class="cls-5" d="M77,25H71a1,1,0,0,1,0-2h6a1,1,0,0,1,0,2Z"/><line class="cls-15" x1="77" x2="71" y1="11" y2="11"/><line class="cls-15" x1="77" x2="71" y1="11" y2="11"/><line class="cls-15" x1="77" x2="71" y1="24" y2="24"/><line class="cls-15" x1="77" x2="71" y1="24" y2="24"/></g><g class="cls-14"><line class="cls-8" x1="89" x2="83" y1="11" y2="11"/><path class="cls-5" d="M89,12H83a1,1,0,0,1,0-2h6a1,1,0,0,1,0,2Z"/><line class="cls-8" x1="89" x2="83" y1="24" y2="24"/><path class="cls-5" d="M89,25H83a1,1,0,0,1,0-2h6a1,1,0,0,1,0,2Z"/><line class="cls-15" x1="89" x2="83" y1="11" y2="11"/><line class="cls-15" x1="89" x2="83" y1="11" y2="11"/><line class="cls-15" x1="89" x2="83" y1="24" y2="24"/><line class="cls-15" x1="89" x2="83" y1="24" y2="24"/></g><g class="cls-14"><line class="cls-8" x1="101" x2="95" y1="11" y2="11"/><path class="cls-5" d="M101,12H95a1,1,0,0,1,0-2h6a1,1,0,0,1,0,2Z"/><line class="cls-8" x1="101" x2="95" y1="24" y2="24"/><path class="cls-5" d="M101,25H95a1,1,0,0,1,0-2h6a1,1,0,0,1,0,2Z"/></g><g class="cls-14"><line class="cls-8" x1="95" x2="89" y1="11" y2="11"/><path class="cls-5" d="M95,12H89a1,1,0,0,1,0-2h6a1,1,0,0,1,0,2Z"/><line class="cls-8" x1="95" x2="89" y1="24" y2="24"/><path class="cls-5" d="M95,25H89a1,1,0,0,1,0-2h6a1,1,0,0,1,0,2Z"/><line class="cls-15" x1="95" x2="89" y1="11" y2="11"/><line class="cls-15" x1="95" x2="89" y1="11" y2="11"/><line class="cls-15" x1="95" x2="89" y1="24" y2="24"/><line class="cls-15" x1="95" x2="89" y1="24" y2="24"/></g><path class="cls-16" d="M116.85,105h-15.7a2,2,0,0,1-2-1.62L97,92h24l-2.19,11.38A2,2,0,0,1,116.85,105Z"/><g class="cls-14"><polygon class="cls-17" points="106 105 103 105 101 92 104 92 106 105"/></g><g class="cls-2"><polygon class="cls-18" points="120.42 95 121 92 97 92 97.58 95 120.42 95"/></g><rect class="cls-3" height="8" width="28" x="95" y="84"/><g class="cls-14"><rect class="cls-13" height="8" width="3" x="100" y="84"/></g><path class="cls-5" d="M116.85,106h-15.7a3,3,0,0,1-2.95-2.43L96,92.19A1,1,0,0,1,97,91h24a1,1,0,0,1,1,1.19l-2.19,11.38A3,3,0,0,1,116.85,106ZM98.21,93l2,10.19a1,1,0,0,0,1,.81h15.7a1,1,0,0,0,1-.81l2-10.19Z"/><path class="cls-5" d="M123,93H95a1,1,0,0,1-1-1V84a1,1,0,0,1,1-1h28a1,1,0,0,1,1,1v8A1,1,0,0,1,123,93ZM96,91h26V85H96Z"/><path class="cls-19" d="M97,65v4a2,2,0,0,0,2,2h6a2,2,0,0,1,2,2h0a2,2,0,0,1-2,2H99a6,6,0,0,1-6-6V65a2,2,0,0,1,2-2h0A2,2,0,0,1,97,65Z"/><path class="cls-5" d="M105,76H99a7,7,0,0,1-7-7V65a3,3,0,1,1,6,0v4a1,1,0,0,0,1,1h6a3,3,0,0,1,0,6ZM95,64a1,1,0,0,0-1,1v4a5,5,0,0,0,5,5h6a1,1,0,0,0,0-2H99a3,3,0,0,1-3-3V65A1,1,0,0,0,95,64Z"/><path class="cls-19" d="M117,84H101V62a8,8,0,0,1,8-8h0a8,8,0,0,1,8,8Z"/><g class="cls-14"><path class="cls-17" d="M111,54.26a8,8,0,0,0-2-.26h0a8,8,0,0,0-8,8V84h4V62A8,8,0,0,1,111,54.26Z"/></g><path class="cls-5" d="M117,85H101a1,1,0,0,1-1-1V62a9,9,0,0,1,18,0V84A1,1,0,0,1,117,85Zm-15-2h14V62a7,7,0,0,0-14,0Z"/><path class="cls-19" d="M121,67v3a2,2,0,0,1-2,2h-5a3,3,0,0,0-3,3h0a3,3,0,0,0,3,3h5a8,8,0,0,0,8-8V67a3,3,0,0,0-3-3h0A3,3,0,0,0,121,67Z"/><g class="cls-14"><path class="cls-17" d="M115,75h0a3,3,0,0,1,3-3h-4a3,3,0,0,0-3,3h0a3,3,0,0,0,3,3h4A3,3,0,0,1,115,75Z"/></g><path class="cls-5" d="M119,79h-5a4,4,0,0,1,0-8h5a1,1,0,0,0,1-1V67a4,4,0,1,1,8,0v3A9,9,0,0,1,119,79Zm-5-6a2,2,0,0,0,0,4h5a7,7,0,0,0,7-7V67a2,2,0,1,0-4,0v3a3,3,0,0,1-3,3Z"/></g><path class="cls-5" d="M63,121a1,1,0,0,1,1-1h.23a1,1,0,0,1,1,1h0a1,1,0,0,1-1,1H64A1,1,0,0,1,63,121Zm-3.08.85a1,1,0,0,1-.93-1.07h0a1,1,0,0,1,1.07-.92h0a1,1,0,0,1,.92,1.07h0a1,1,0,0,1-1,.93h-.07Zm7.33-.94a1,1,0,0,1,.92-1.07h0a1,1,0,0,1,1.07.92h0a1,1,0,0,1-.92,1.07h-.08A1,1,0,0,1,67.25,120.91Zm-11.4.5a1,1,0,0,1-.84-1.13h0a1,1,0,0,1,1.13-.85h0a1,1,0,0,1,.85,1.13h0a1,1,0,0,1-1,.86h-.15Zm15.4-.88a1,1,0,0,1,.84-1.13h0a1,1,0,0,1,1.14.84h0a1,1,0,0,1-.85,1.14h-.14A1,1,0,0,1,71.25,120.53Zm-19.42.14a1,1,0,0,1-.76-1.19h0a1,1,0,0,1,1.19-.76h0a1,1,0,0,1,.76,1.19h0a1,1,0,0,1-1,.79h0Zm23.38-.8a1,1,0,0,1,.75-1.2h0a1,1,0,0,1,1.2.75h0a1,1,0,0,1-.76,1.2h0a.8.8,0,0,1-.22,0h0A1,1,0,0,1,75.21,119.87Zm-27.33-.23a1,1,0,0,1-.67-1.24h0a1,1,0,0,1,1.24-.67h0a1,1,0,0,1,.67,1.24h0a1,1,0,0,1-1,.72h0A.91.91,0,0,1,47.88,119.64Zm31.23-.73a1,1,0,0,1,.66-1.25h0a1,1,0,0,1,1.25.66h0a1,1,0,0,1-.66,1.25h0a1,1,0,0,1-.3.05h0A1,1,0,0,1,79.11,118.91ZM44,118.32a1,1,0,0,1-.58-1.29h0a1,1,0,0,1,1.29-.58h0a1,1,0,0,1,.58,1.29h0a1,1,0,0,1-.93.65h0A.91.91,0,0,1,44,118.32Zm38.93-.66a1,1,0,0,1,.57-1.29h0a1,1,0,0,1,1.29.57h0a1,1,0,0,1-.57,1.3h0a1.13,1.13,0,0,1-.36.06h0A1,1,0,0,1,82.93,117.66Zm-42.7-.94a1,1,0,0,1-.48-1.33h0a1,1,0,0,1,1.33-.48h0a1,1,0,0,1,.48,1.33h0a1,1,0,0,1-.9.58h0A1.11,1.11,0,0,1,40.23,116.72Zm46.41-.57a1,1,0,0,1,.47-1.33h0a1,1,0,0,1,1.34.47h0a1,1,0,0,1-.48,1.33h0a.94.94,0,0,1-.43.1h0A1,1,0,0,1,86.64,116.15Zm-50-1.3a1,1,0,0,1-.39-1.37h0a1,1,0,0,1,1.37-.38h0a1,1,0,0,1,.38,1.37h0a1,1,0,0,1-.88.51h0A1,1,0,0,1,36.6,114.85Zm53.63-.49a1,1,0,0,1,.38-1.36h0a1,1,0,0,1,1.36.38h0a1,1,0,0,1-.37,1.36h0a1,1,0,0,1-.5.13h0A1,1,0,0,1,90.23,114.36Zm-57.12-1.65a1,1,0,0,1-.29-1.38h0a1,1,0,0,1,1.39-.28h0a1,1,0,0,1,.28,1.38h0a1,1,0,0,1-.83.45h0A.94.94,0,0,1,33.11,112.71Zm60.58-.39a1,1,0,0,1,.27-1.39h0a1,1,0,0,1,1.39.28h0a1,1,0,0,1-.28,1.38h0a1,1,0,0,1-.55.16h0A1,1,0,0,1,93.69,112.32Zm-63.91-2h0a1,1,0,0,1-.18-1.4h0a1,1,0,0,1,1.4-.18h0a1,1,0,0,1,.18,1.4h0a1,1,0,0,1-.8.39h0A1,1,0,0,1,29.78,110.33ZM97,110a1,1,0,0,1,.18-1.41h0a1,1,0,0,1,1.4.18h0a1,1,0,0,1-.17,1.4h0a1,1,0,0,1-.62.21h0A1,1,0,0,1,97,110Zm-70.34-2.31a1,1,0,0,1-.08-1.42h0a1,1,0,0,1,1.41-.07h0a1,1,0,0,1,.08,1.41h0a1,1,0,0,1-.75.33h0A1,1,0,0,1,26.64,107.72Zm73.47-.22a1,1,0,0,1,.07-1.41h0a1,1,0,0,1,1.41.07h0a1,1,0,0,1-.07,1.41h0a1,1,0,0,1-.67.26h0A1,1,0,0,1,100.11,107.5ZM23.7,104.88a1,1,0,0,1,0-1.42h0a1,1,0,0,1,1.41,0h0a1,1,0,0,1,0,1.41h0a1,1,0,0,1-.69.28h0A1,1,0,0,1,23.7,104.88Zm79.34-.12a1,1,0,0,1,0-1.42h0a1,1,0,0,1,1.41,0h0a1,1,0,0,1,0,1.42h0a1,1,0,0,1-.72.3h0A1,1,0,0,1,103,104.76ZM21,101.83h0a1,1,0,0,1,.13-1.4h0a1,1,0,0,1,1.4.12h0a1,1,0,0,1-.13,1.41h0a1,1,0,0,1-.64.23h0A1,1,0,0,1,21,101.83Zm84.8,0a1,1,0,0,1-.13-1.41h0a1,1,0,0,1,1.41-.14h0a1,1,0,0,1,.13,1.41h0a1,1,0,0,1-.77.36h0A1,1,0,0,1,105.76,101.81ZM18.46,98.6a1,1,0,0,1,.23-1.39h0a1,1,0,0,1,1.4.23h0a1,1,0,0,1-.23,1.39h0a1,1,0,0,1-.58.19h0A1,1,0,0,1,18.46,98.6Zm89.81.06a1,1,0,0,1-.24-1.39h0a1,1,0,0,1,1.4-.23h0a1,1,0,0,1,.23,1.39h0a1,1,0,0,1-.81.42h0A.94.94,0,0,1,108.27,98.66ZM16.21,95.2a1,1,0,0,1,.33-1.38h0a1,1,0,0,1,1.37.33h0a1,1,0,0,1-.33,1.38h0a1,1,0,0,1-.52.15h0A1,1,0,0,1,16.21,95.2Zm94.33.15A1,1,0,0,1,110.2,94h0a1,1,0,0,1,1.37-.33h0a1,1,0,0,1,.34,1.37h0a1,1,0,0,1-.86.48h0A1.06,1.06,0,0,1,110.54,95.35ZM14.2,91.64a1,1,0,0,1,.43-1.35h0a1,1,0,0,1,1.35.43h0a1,1,0,0,1-.43,1.35h0a1.1,1.1,0,0,1-.46.11h0A1,1,0,0,1,14.2,91.64Zm98.36.23a1,1,0,0,1-.44-1.34h0a1,1,0,0,1,1.35-.44h0a1,1,0,0,1,.43,1.35h0A1,1,0,0,1,113,92h0A.9.9,0,0,1,112.56,91.87ZM12.46,87.94A1,1,0,0,1,13,86.63h0a1,1,0,0,1,1.31.53h0a1,1,0,0,1-.53,1.31h0a1.05,1.05,0,0,1-.39.08h0A1,1,0,0,1,12.46,87.94Zm101.86.32a1,1,0,0,1-.53-1.31h0a1,1,0,0,1,1.31-.53h0a1,1,0,0,1,.53,1.31h0a1,1,0,0,1-.93.61h0A1,1,0,0,1,114.32,88.26ZM11,84.13h0a1,1,0,0,1,.62-1.27h0a1,1,0,0,1,1.27.62h0a1,1,0,0,1-.62,1.27h0a.93.93,0,0,1-.32,0h0A1,1,0,0,1,11,84.13Zm104.81.4a1,1,0,0,1-.63-1.27h0a1,1,0,0,1,1.27-.63h0a1,1,0,0,1,.63,1.27h0a1,1,0,0,1-.95.68h0A1.21,1.21,0,0,1,115.81,84.53Zm-106-4.32A1,1,0,0,1,10.53,79h0a1,1,0,0,1,1.22.72h0A1,1,0,0,1,11,80.93h0a1,1,0,0,1-.25,0h0A1,1,0,0,1,9.82,80.21ZM117,80.7a1,1,0,0,1-.72-1.22h0a1,1,0,0,1,1.22-.72h0a1,1,0,0,1,.72,1.22h0a1,1,0,0,1-1,.75h0ZM8.93,76.22a1,1,0,0,1,.8-1.16h0a1,1,0,0,1,1.17.8h0A1,1,0,0,1,10.1,77h0a.6.6,0,0,1-.19,0h0A1,1,0,0,1,8.93,76.22Zm109,.57a1,1,0,0,1-.81-1.16h0a1,1,0,0,1,1.16-.81h0a1,1,0,0,1,.81,1.16h0a1,1,0,0,1-1,.83h0ZM8.34,72.18h0a1,1,0,0,1,.88-1.11h0a1,1,0,0,1,1.11.89h0a1,1,0,0,1-.89,1.1H9.33A1,1,0,0,1,8.34,72.18Zm110.25.65a1,1,0,0,1-.89-1.1h0a1,1,0,0,1,1.1-.89h0a1,1,0,0,1,.89,1.1h0a1,1,0,0,1-1,.89h-.11ZM8,68.1H8a1,1,0,0,1,1-1H9a1,1,0,0,1,1,1h0a1,1,0,0,1-1,1H9A1,1,0,0,1,8,68.1Zm110.9.73a1,1,0,0,1-1-1h0a1,1,0,0,1,1-1h0a1,1,0,0,1,1,1h0a1,1,0,0,1-1,1h0ZM9,65a1,1,0,0,1-1-1H8a1,1,0,0,1,1-1h0a1,1,0,0,1,1,1h0a1,1,0,0,1-1,1H9Zm109-1.2h0a1,1,0,0,1,1-1h0a1,1,0,0,1,1,1h0a1,1,0,0,1-1,1h-.05A1,1,0,0,1,118,63.85ZM9.21,61a1,1,0,0,1-.89-1.1h0A1,1,0,0,1,9.43,59h0a1,1,0,0,1,.88,1.1h0a1,1,0,0,1-1,.9H9.21Zm108.45-1.12a1,1,0,0,1,.88-1.1h0a1,1,0,0,1,1.11.88h0a1,1,0,0,1-.88,1.1h-.11A1,1,0,0,1,117.66,59.92ZM9.71,57.06a1,1,0,0,1-.8-1.17h0a1,1,0,0,1,1.16-.8h0a1,1,0,0,1,.81,1.16h0a1,1,0,0,1-1,.82H9.71Zm107.37-1h0a1,1,0,0,1,.8-1.16h0a1,1,0,0,1,1.17.8h0a1,1,0,0,1-.8,1.16h0l-.19,0h0A1,1,0,0,1,117.08,56ZM10.51,53.12a1,1,0,0,1-.72-1.22h0A1,1,0,0,1,11,51.18h0a1,1,0,0,1,.72,1.22h0a1,1,0,0,1-1,.75h0A1,1,0,0,1,10.51,53.12Zm105.71-.94a1,1,0,0,1,.71-1.22h0a1,1,0,0,1,1.22.71h0a1,1,0,0,1-.71,1.22h0a1.15,1.15,0,0,1-.26,0h0A1,1,0,0,1,116.22,52.18ZM11.59,49.25A1,1,0,0,1,11,48h0a1,1,0,0,1,1.27-.62h0a1,1,0,0,1,.63,1.27h0a1,1,0,0,1-1,.68h0A.87.87,0,0,1,11.59,49.25Zm103.48-.84a1,1,0,0,1,.62-1.28h0a1,1,0,0,1,1.27.63h0a1,1,0,0,1-.62,1.27h0a1.25,1.25,0,0,1-.33,0h0A1,1,0,0,1,115.07,48.41ZM12.95,45.47a1,1,0,0,1-.53-1.31h0a1,1,0,0,1,1.31-.53h0a1,1,0,0,1,.53,1.31h0a1,1,0,0,1-.92.61h0A1.08,1.08,0,0,1,12.95,45.47Zm100.7-.73h0a1,1,0,0,1,.53-1.31h0a1,1,0,0,1,1.31.53h0a1,1,0,0,1-.52,1.31h0a1.13,1.13,0,0,1-.4.08h0A1,1,0,0,1,113.65,44.74ZM14.59,41.8a1,1,0,0,1-.44-1.35h0A1,1,0,0,1,15.5,40h0a1,1,0,0,1,.43,1.34h0a1,1,0,0,1-.89.55h0A1,1,0,0,1,14.59,41.8ZM112,41.17a1,1,0,0,1,.42-1.34h0a1,1,0,0,1,1.35.42h0a1,1,0,0,1-.42,1.35h0a1,1,0,0,1-.47.11h0A1,1,0,0,1,112,41.17ZM16.49,38.26a1,1,0,0,1-.33-1.38h0a1,1,0,0,1,1.37-.33h0a1,1,0,0,1,.33,1.37h0a1,1,0,0,1-.85.48h0A1,1,0,0,1,16.49,38.26ZM110,37.75h0a1,1,0,0,1,.32-1.38h0a1,1,0,0,1,1.38.33h0a1,1,0,0,1-.33,1.37h0a1,1,0,0,1-.52.15h0A1,1,0,0,1,110,37.75ZM18.64,34.87a1,1,0,0,1-.23-1.4h0a1,1,0,0,1,1.4-.23h0A1,1,0,0,1,20,34.63h0a1,1,0,0,1-.82.42h0A1,1,0,0,1,18.64,34.87Zm89.2-.4a1,1,0,0,1,.23-1.4h0a1,1,0,0,1,1.39.23h0a1,1,0,0,1-.22,1.39h0a1,1,0,0,1-.59.19h0A1,1,0,0,1,107.84,34.47ZM21,31.64a1,1,0,0,1-.13-1.41h0a1,1,0,0,1,1.41-.13h0a1,1,0,0,1,.13,1.41h0a1,1,0,0,1-.77.36h0A1,1,0,0,1,21,31.64Zm84.38-.29h0a1,1,0,0,1,.13-1.41h0a1,1,0,0,1,1.41.12h0a1,1,0,0,1-.13,1.41h0a1,1,0,0,1-.64.23h0A1,1,0,0,1,105.42,31.35ZM23.66,28.6a1,1,0,0,1,0-1.41h0a1,1,0,0,1,1.42,0h0a1,1,0,0,1,0,1.41h0a1,1,0,0,1-.73.31h0A1,1,0,0,1,23.66,28.6Zm79.12-.17a1,1,0,0,1,0-1.42h0a1,1,0,0,1,1.42,0h0a1,1,0,0,1,0,1.42h0a1,1,0,0,1-.7.28h0A1,1,0,0,1,102.78,28.43ZM26.5,25.76a1,1,0,0,1,.07-1.42h0a1,1,0,0,1,1.41.08h0a1,1,0,0,1-.07,1.41h0a1,1,0,0,1-.67.26h0A1,1,0,0,1,26.5,25.76Zm73.44-.06a1,1,0,0,1-.08-1.42h0a1,1,0,0,1,1.41-.08h0a1,1,0,0,1,.08,1.41h0a1,1,0,0,1-.75.34h0A1,1,0,0,1,99.94,25.7ZM29.53,23.13a1,1,0,0,1,.18-1.41h0a1,1,0,0,1,1.4.18h0a1,1,0,0,1-.17,1.4h0a1,1,0,0,1-.62.21h0A1,1,0,0,1,29.53,23.13Zm67.37,0a1,1,0,0,1-.18-1.4h0a1,1,0,0,1,1.4-.19h0A1,1,0,0,1,98.3,23h0a1,1,0,0,1-.79.38h0A1,1,0,0,1,96.9,23.18ZM32.75,20.72A1,1,0,0,1,33,19.34h0a1,1,0,0,1,1.39.28h0A1,1,0,0,1,34.14,21h0a1,1,0,0,1-.56.17h0A1,1,0,0,1,32.75,20.72Zm60.94.17h0a1,1,0,0,1-.28-1.39h0a1,1,0,0,1,1.38-.28h0a1,1,0,0,1,.29,1.38h0a1,1,0,0,1-.84.45h0A1,1,0,0,1,93.69,20.89ZM36.13,18.56a1,1,0,0,1,.38-1.36h0a1,1,0,0,1,1.36.38h0a1,1,0,0,1-.38,1.36h0a1,1,0,0,1-.49.13h0A1,1,0,0,1,36.13,18.56Zm54.19.28a1,1,0,0,1-.38-1.36h0a1,1,0,0,1,1.36-.39h0a1,1,0,0,1,.38,1.36h0a1,1,0,0,1-.87.51h0A1.07,1.07,0,0,1,90.32,18.84ZM39.66,16.65a1,1,0,0,1,.48-1.33h0a1,1,0,0,1,1.33.48h0A1,1,0,0,1,41,17.13h0a.93.93,0,0,1-.42.1h0A1,1,0,0,1,39.66,16.65ZM86.81,17a1,1,0,0,1-.48-1.33h0a1,1,0,0,1,1.32-.48h0a1,1,0,0,1,.49,1.33h0a1,1,0,0,1-.91.57h0A1.06,1.06,0,0,1,86.81,17ZM43.32,15a1,1,0,0,1,.57-1.29h0a1,1,0,0,1,1.3.57h0a1,1,0,0,1-.58,1.29h0a.87.87,0,0,1-.35.07h0A1,1,0,0,1,43.32,15Zm39.85.49a1,1,0,0,1-.57-1.29h0a1,1,0,0,1,1.29-.58h0a1,1,0,0,1,.57,1.29h0a1,1,0,0,1-.93.65h0A.92.92,0,0,1,83.17,15.5ZM47.1,13.64a1,1,0,0,1,.66-1.25h0a1,1,0,0,1,1.25.67h0a1,1,0,0,1-.67,1.25h0a1.48,1.48,0,0,1-.29,0h0A1,1,0,0,1,47.1,13.64Zm32.34.6h0A1,1,0,0,1,78.77,13h0A1,1,0,0,1,80,12.32h0a1,1,0,0,1,.67,1.25h0a1,1,0,0,1-.95.71h0A1,1,0,0,1,79.44,14.24ZM51,12.55a1,1,0,0,1,.76-1.2h0a1,1,0,0,1,1.19.76h0a1,1,0,0,1-.76,1.19h0a.78.78,0,0,1-.22,0h0A1,1,0,0,1,51,12.55Zm24.66.7h0a1,1,0,0,1-.76-1.2h0A1,1,0,0,1,76,11.3h0a1,1,0,0,1,.77,1.19h0a1,1,0,0,1-1,.79h0ZM54.89,11.74a1,1,0,0,1,.85-1.13h0a1,1,0,0,1,1.13.84h0A1,1,0,0,1,56,12.58h0l-.15,0h0A1,1,0,0,1,54.89,11.74Zm16.86.81a1,1,0,0,1-.85-1.13h0A1,1,0,0,1,72,10.57h0a1,1,0,0,1,.85,1.14h0a1,1,0,0,1-1,.85h-.14ZM58.87,11.23a1,1,0,0,1,.93-1.07h0a1,1,0,0,1,1.07.92h0a1,1,0,0,1-.92,1.07h-.08A1,1,0,0,1,58.87,11.23Zm9,.9a1,1,0,0,1-.93-1.07h0A1,1,0,0,1,68,10.14h0a1,1,0,0,1,.92,1.07h0a1,1,0,0,1-1,.93h-.07ZM62.88,11a1,1,0,0,1,1-1h0a1,1,0,0,1,1,1h0a1,1,0,0,1-1,1h0A1,1,0,0,1,62.88,11Z"/><circle class="cls-20" cx="113" cy="47" r="14"/><g class="cls-21"><path class="cls-22" d="M118.37,50.84h0c-.45,1.44-2.62,2.53-5.22,2.53s-4.76-1.09-5.21-2.53v0a8.58,8.58,0,0,1,1.17-.59,1.51,1.51,0,0,0,.85-1.35,1.73,1.73,0,0,0-.13-.65,6.49,6.49,0,0,0,6.66,0,1.52,1.52,0,0,0,.72,2A8.77,8.77,0,0,1,118.37,50.84Z"/><path class="cls-23" d="M119.22,62.56H103.6V58.5a8.94,8.94,0,0,1,4.33-7.66v0c.45,1.44,2.62,2.53,5.21,2.53s4.76-1.09,5.22-2.53h0a9,9,0,0,1,4.32,7.65v4.06Z"/><path class="cls-5" d="M103.6,63.56a1,1,0,0,1-1-1V58.5A10,10,0,0,1,107.41,50a9.63,9.63,0,0,1,1.3-.66h0a.49.49,0,0,0,.17-.65,1,1,0,1,1,1.86-.74,2.48,2.48,0,0,1,.2,1,2.52,2.52,0,0,1-1.41,2.24,8.15,8.15,0,0,0-1.09.55,8,8,0,0,0-3.85,6.8v4.06A1,1,0,0,1,103.6,63.56Z"/><path class="cls-5" d="M122.69,63.56a1,1,0,0,1-1-1V58.5a8,8,0,0,0-3.84-6.8,7.8,7.8,0,0,0-1-.53,2.47,2.47,0,0,1-1.26-3.23,1,1,0,1,1,1.86.73.47.47,0,0,0,.22.68,9.38,9.38,0,0,1,1.26.65,10,10,0,0,1,4.8,8.51v4.06A1,1,0,0,1,122.69,63.56Z"/><path class="cls-5" d="M107.07,63.56a1,1,0,0,1-1-1v-4a5.31,5.31,0,0,1,.76-3.15,1,1,0,1,1,1.63,1.15,3.6,3.6,0,0,0-.4,2v4A1,1,0,0,1,107.07,63.56Z"/><path class="cls-5" d="M119.22,63.56a1,1,0,0,1-1-1v-4a3.61,3.61,0,0,0-.4-2,1,1,0,0,1,1.64-1.15,5.32,5.32,0,0,1,.76,3.15v4A1,1,0,0,1,119.22,63.56Z"/><path class="cls-5" d="M113.15,54.39a1,1,0,0,1-.44-.1l-5.21-2.53a1,1,0,0,1,.87-1.8l4.78,2.32L117.93,50a1,1,0,0,1,.87,1.8l-5.22,2.53A1,1,0,0,1,113.15,54.39Z"/><path class="cls-23" d="M109.78,54.13l-3-2.18a.65.65,0,0,1,0-1l1.89-1.41,4.54,3.24-1.84,1.38A1.3,1.3,0,0,1,109.78,54.13Z"/><path class="cls-23" d="M116.51,54.13l3-2.18a.65.65,0,0,0,0-1l-1.89-1.41-4.54,3.24L115,54.12A1.3,1.3,0,0,0,116.51,54.13Z"/><path class="cls-5" d="M110.53,55.38a2.29,2.29,0,0,1-1.34-.43l-3-2.18a1.65,1.65,0,0,1,0-2.66L108,48.7a1,1,0,0,1,1.18,0l4.54,3.24a1,1,0,0,1,0,1.61l-1.84,1.38A2.29,2.29,0,0,1,110.53,55.38Zm-2.83-4,2.66,1.9h0a.3.3,0,0,0,.35,0l.74-.56-2.83-2Z"/><path class="cls-5" d="M115.76,55.38a2.29,2.29,0,0,1-1.38-.46l-1.84-1.38a1,1,0,0,1,0-1.61l4.54-3.24a1,1,0,0,1,1.18,0l1.89,1.41a1.65,1.65,0,0,1,0,2.66l-3,2.18A2.3,2.3,0,0,1,115.76,55.38Zm-.92-2.62.74.56a.3.3,0,0,0,.35,0h0l2.66-1.9-.92-.69Z"/></g><path class="cls-5" d="M113,62a15,15,0,1,1,15-15A15,15,0,0,1,113,62Zm0-28a13,13,0,1,0,13,13A13,13,0,0,0,113,34Z"/><path class="cls-24" d="M117,49.32a12.53,12.53,0,0,0,3.43-.5,3.42,3.42,0,0,0,2.35-4.37c-.94-2.84-.18-5.13-.84-7.91A8.63,8.63,0,0,0,113.25,30c-4.51,0-8.09,2.68-8.83,6.51-.54,2.77.19,5-.7,7.81a3.45,3.45,0,0,0,2.3,4.37,12.09,12.09,0,0,0,3.24.61Z"/><path class="cls-5" d="M109.74,50.33h0a16.65,16.65,0,0,1-4-.65,4.39,4.39,0,0,1-2.66-2.17,4.44,4.44,0,0,1-.31-3.46,12.4,12.4,0,0,0,.43-4.06,17.79,17.79,0,0,1,.24-3.63C104.26,32,108.3,29,113.25,29A9.62,9.62,0,0,1,123,36.31a16.39,16.39,0,0,1,.34,3.81,12.38,12.38,0,0,0,.48,4,4.44,4.44,0,0,1-.31,3.49,4.36,4.36,0,0,1-2.73,2.16,17.58,17.58,0,0,1-4.2.53,1,1,0,0,1,0-2,15.52,15.52,0,0,0,3.64-.46,2.42,2.42,0,0,0,1.66-3.1,14.15,14.15,0,0,1-.58-4.63,14.58,14.58,0,0,0-.29-3.37A7.66,7.66,0,0,0,113.25,31c-4,0-7.2,2.34-7.85,5.7a16,16,0,0,0-.2,3.24,14.18,14.18,0,0,1-.53,4.68,2.46,2.46,0,0,0,.17,1.92,2.41,2.41,0,0,0,1.46,1.19,14.75,14.75,0,0,0,3.47.57,1,1,0,0,1,0,2Z"/><path class="cls-25" d="M106.67,36.87a10.13,10.13,0,0,0,10.58-2,2.07,2.07,0,0,0,2.39,2.27v5.3a6.68,6.68,0,0,1-3.24,5.73l-1.52.91a3.36,3.36,0,0,1-3.46,0l-1.51-.91a6.68,6.68,0,0,1-3.24-5.72Z"/><g class="cls-2"><circle class="cls-26" cx="109.41" cy="44.4" r="1.14"/></g><g class="cls-2"><circle class="cls-26" cx="116.88" cy="44.4" r="1.14"/></g><path class="cls-5" d="M113.15,50.59A4.35,4.35,0,0,1,110.9,50l-1.51-.91a7.71,7.71,0,0,1-3.72-6.58v-5.6a1,1,0,0,1,1.41-.91,9.07,9.07,0,0,0,9.5-1.81,1,1,0,0,1,1.67.74,1.06,1.06,0,0,0,1.26,1.28,1,1,0,0,1,1.12,1v5.3a7.72,7.72,0,0,1-3.73,6.58l-1.52.91A4.35,4.35,0,0,1,113.15,50.59Zm-5.48-12.34v4.23a5.71,5.71,0,0,0,2.75,4.87l1.51.91a2.36,2.36,0,0,0,2.43,0l1.52-.91a5.71,5.71,0,0,0,2.76-4.87V38.1a3,3,0,0,1-1.37-.66,2.76,2.76,0,0,1-.62-.79A10.94,10.94,0,0,1,107.67,38.25Z"/><path class="cls-5" d="M113.18,46.89a2.16,2.16,0,0,1-1.85-.91A1,1,0,0,1,113,44.86a1,1,0,0,0,.4,0,1,1,0,0,1,1.35-.28A1,1,0,0,1,115,46,2.16,2.16,0,0,1,113.18,46.89Zm-.15-2h0Z"/><path class="cls-5" d="M116,42A1.05,1.05,0,1,1,117,41,1.09,1.09,0,0,1,116,42Z"/><circle class="cls-5" cx="116" cy="41" r="0.5"/><path class="cls-5" d="M110,42A1.05,1.05,0,1,1,111,41,1.09,1.09,0,0,1,110,42Z"/><circle class="cls-5" cx="110" cy="41" r="0.5"/><circle class="cls-20" cx="15" cy="47" r="14"/><g class="cls-27"><path class="cls-23" d="M21.8,52.41s-2-.82-2-.78C19.21,53,17.06,54.2,15,54.2S10.62,53,10.16,51.65l-1.88.79c-2.85,1.19-4.71,3.33-4.71,6.42v5.3H26.43V58.8C26.43,55.74,24.61,53.62,21.8,52.41Z"/><path class="cls-22" d="M18.5,48.71c-.44,1,.69,2.48,1.29,2.88C19.16,53,16.71,53.65,15,54.13c-1.71-.49-4.35-1.18-4.79-2.54.59-.35,1.75-1.85,1.29-2.88Z"/><path class="cls-5" d="M15,55.13c-2.26,0-5.1-1.24-5.74-3.23a1,1,0,0,1,.44-1.16c.38-.23,1-1.27.89-1.62a1,1,0,1,1,1.82-.82,3.46,3.46,0,0,1-.93,3.49A5.21,5.21,0,0,0,15,53.13a5,5,0,0,0,3.49-1.4,3.43,3.43,0,0,1-.9-3.43,1,1,0,1,1,1.83.8c-.14.33.47,1.35.93,1.65A1,1,0,0,1,20.7,52C19.88,53.79,17.43,55.13,15,55.13Z"/><path class="cls-5" d="M26.43,61.63a1,1,0,0,1-1-1V58.8c0-3.09-2.19-4.68-4-5.47l-2-.84a1,1,0,1,1,.79-1.84l2,.84c3.38,1.45,5.23,4.05,5.23,7.31v1.83A1,1,0,0,1,26.43,61.63Z"/><path class="cls-5" d="M3.57,61.63a1,1,0,0,1-1-1V58.86c0-3.3,1.89-5.91,5.32-7.35l1.87-.78a1,1,0,0,1,.77,1.85l-1.87.78c-1.87.78-4.09,2.37-4.09,5.5v1.77A1,1,0,0,1,3.57,61.63Z"/><path class="cls-5" d="M9.07,63.56a1,1,0,0,1-1-1v-6a1,1,0,1,1,2,0v6A1,1,0,0,1,9.07,63.56Z"/><path class="cls-5" d="M21.22,63.56a1,1,0,0,1-1-1v-6a1,1,0,0,1,2,0v6A1,1,0,0,1,21.22,63.56Z"/></g><path class="cls-5" d="M15,62A15,15,0,1,1,30,47,15,15,0,0,1,15,62Zm0-28A13,13,0,1,0,28,47,13,13,0,0,0,15,34Z"/><path class="cls-25" d="M15.79,50.08H14.21a3.45,3.45,0,0,1-2.44-1L10.66,48a6.89,6.89,0,0,1-2-4.87V38.28a3.77,3.77,0,0,1,3.77-3.77h5.16a3.77,3.77,0,0,1,3.77,3.77V43.1a6.89,6.89,0,0,1-2,4.87l-1.1,1.1A3.45,3.45,0,0,1,15.79,50.08Z"/><g class="cls-2"><path class="cls-28" d="M17.58,34.51H12.42a3.77,3.77,0,0,0-3.77,3.77v1c0-1.91,3.18-3.5,5.72-3.5a2.86,2.86,0,0,0-1,3.2c3.09-2.28,4.34-.2,6.88-.75,1.06-.23,1.06,2,1.06,2V38.28A3.77,3.77,0,0,0,17.58,34.51Z"/></g><path class="cls-29" d="M18.35,31.54c2.26,1,4.91,3.61,3.75,7.42-.17.56-.63.07-.74.32,0,0,0-2.22-1.06-2-2.54.54-3.8-1.54-6.88.75a2.86,2.86,0,0,1,1-3.2c-2.54,0-5.72,1.59-5.72,3.5,0,0-.88-.64-1-1.27-.32-2.86,1.21-4.26,3.71-5.36.48-.21.12-3,.64-2.52C13.5,30.55,17.22,31,18.35,31.54Z"/><path class="cls-25" d="M21.36,40.23h.11a1.16,1.16,0,0,1,1.16,1.16v.85a1.16,1.16,0,0,1-1.16,1.16h-.11a0,0,0,0,1,0,0V40.23A0,0,0,0,1,21.36,40.23Z"/><path class="cls-25" d="M7.37,40.23h.11a1.16,1.16,0,0,1,1.16,1.16v.85a1.16,1.16,0,0,1-1.16,1.16H7.37a0,0,0,0,1,0,0V40.23A0,0,0,0,1,7.37,40.23Z" transform="translate(16.02 83.64) rotate(-180)"/><path class="cls-5" d="M21.63,40.33a1.75,1.75,0,0,1-.67-.14,1,1,0,0,1-.6-.92,3.64,3.64,0,0,0-.14-1,6.69,6.69,0,0,1-2.65-.19,3.57,3.57,0,0,0-3.57.71,1,1,0,0,1-1.45-.29,3.15,3.15,0,0,1-.19-2.39c-1.53.49-2.72,1.43-2.72,2.17a1,1,0,0,1-1.59.81,3.24,3.24,0,0,1-1.36-2c-.4-3.6,1.82-5.23,4-6.23,0-.22,0-.53.05-.74,0-.92.09-1.71.83-2a1.11,1.11,0,0,1,1.2.26c.79.75,2.71,1.24,4.11,1.6a12.45,12.45,0,0,1,1.93.58c2.79,1.29,5.59,4.33,4.28,8.62a1.46,1.46,0,0,1-1.43,1.08Zm-1.19-4.07a1.56,1.56,0,0,1,.91.29C21,34,18.53,32.72,17.93,32.44h0A12.45,12.45,0,0,0,16.35,32a19.32,19.32,0,0,1-3.68-1.21c-.06.82-.2,1.54-.87,1.83-2.12.93-3.05,1.92-3.15,3.45a8.63,8.63,0,0,1,5.71-2.23A1,1,0,0,1,15,35.61a1.92,1.92,0,0,0-.53.68A5.53,5.53,0,0,1,18,36.17a4.58,4.58,0,0,0,2.08.13A1.72,1.72,0,0,1,20.44,36.26ZM11,30.77h0Zm.36-.88h0Z"/><path class="cls-5" d="M21.46,44.41h-.11a1,1,0,0,1-1-1V40.23a1,1,0,0,1,1-1h.11a2.17,2.17,0,0,1,2.16,2.16v.85A2.17,2.17,0,0,1,21.46,44.41Z"/><path class="cls-5" d="M8.64,44.41H8.54a2.17,2.17,0,0,1-2.16-2.16v-.85a2.17,2.17,0,0,1,2.16-2.16h.11a1,1,0,0,1,1,1v3.18A1,1,0,0,1,8.64,44.41Z"/><path class="cls-5" d="M15,47.47a2.26,2.26,0,0,1-1.94-1,1,1,0,0,1,1.67-1.1.58.58,0,0,0,.27.06.54.54,0,0,0,.29-.06,1,1,0,0,1,1.36-.29,1,1,0,0,1,.3,1.4A2.26,2.26,0,0,1,15,47.47Z"/><path class="cls-5" d="M15.8,51.11H14.2A4.43,4.43,0,0,1,11,49.8l-1-1a8.32,8.32,0,0,1-2.45-5.92V38.28a1,1,0,0,1,2,0v4.63a6.33,6.33,0,0,0,1.87,4.51l1,1a2.44,2.44,0,0,0,1.74.72H15.8a2.44,2.44,0,0,0,1.74-.72l1-1a6.33,6.33,0,0,0,1.87-4.51V39.28a1,1,0,0,1,2,0v3.63a8.32,8.32,0,0,1-2.45,5.92l-1,1A4.43,4.43,0,0,1,15.8,51.11Z"/><g class="cls-2"><circle class="cls-26" cx="11.96" cy="43.9" r="0.95"/></g><g class="cls-2"><circle class="cls-26" cx="18.04" cy="43.9" r="0.95"/></g><path class="cls-5" d="M18,42A1.05,1.05,0,1,1,19,41,1.09,1.09,0,0,1,18,42Z"/><circle class="cls-5" cx="18" cy="41" r="0.5"/><path class="cls-5" d="M12,42A1.05,1.05,0,1,1,13,41,1.09,1.09,0,0,1,12,42Z"/><circle class="cls-5" cx="12" cy="41" r="0.5"/><path class="cls-10" d="M77,21H51a1.15,1.15,0,0,1-1.13-1.18V2.18A1.15,1.15,0,0,1,51,1H77a1.15,1.15,0,0,1,1.13,1.18V19.82A1.15,1.15,0,0,1,77,21Z"/><polyline class="cls-11" points="77.78 20.66 68.12 11 59.88 11 50.22 20.66"/><path class="cls-5" d="M50.22,21.66a1,1,0,0,1-.71-1.71l9.66-9.66a1,1,0,1,1,1.41,1.42l-9.66,9.66A1,1,0,0,1,50.22,21.66Z"/><path class="cls-5" d="M77.78,21.66a1,1,0,0,1-.71-.29l-9.66-9.66a1,1,0,1,1,1.41-1.42l9.66,9.66a1,1,0,0,1-.71,1.71Z"/><path class="cls-11" d="M77.78,1.35,66.35,12.77a3.29,3.29,0,0,1-4.69,0L50.22,1.35"/><path class="cls-5" d="M64,14.75a4.3,4.3,0,0,1-3.05-1.28L49.51,2.05A1,1,0,0,1,50.92.64L62.36,12.06a2.34,2.34,0,0,0,3.28,0L77.08.64a1,1,0,0,1,1.41,1.42L67.05,13.48A4.29,4.29,0,0,1,64,14.75Z"/><path class="cls-5" d="M77,22H51a2.16,2.16,0,0,1-2.13-2.18V2.18A2.16,2.16,0,0,1,51,0H77a2.16,2.16,0,0,1,2.13,2.18V19.82A2.16,2.16,0,0,1,77,22ZM51,2a.16.16,0,0,0-.13.18V19.82A.16.16,0,0,0,51,20H77a.16.16,0,0,0,.13-.18V2.18A.16.16,0,0,0,77,2Z"/><path class="cls-24" d="M40,94V48c0-13.43,10.22-23,24-23h.06C77.83,25,88,34.57,88,48V94Z"/><g class="cls-2"><path class="cls-28" d="M84,56h1a3,3,0,0,1,3,3v3a4,4,0,0,1-4,4h0a0,0,0,0,1,0,0V56A0,0,0,0,1,84,56Z"/></g><g class="cls-2"><path class="cls-28" d="M40,56h0a4,4,0,0,1,4,4v3a3,3,0,0,1-3,3H40a0,0,0,0,1,0,0V56A0,0,0,0,1,40,56Z" transform="translate(84 122) rotate(-180)"/></g><g class="cls-2"><path class="cls-13" d="M64.06,25H64c-13.78,0-24,9.57-24,23v4c0-13.43,10.22-23,24-23h.06C77.83,29,88,38.57,88,52V48C88,34.57,77.83,25,64.06,25Z"/></g><path class="cls-5" d="M88,95a1,1,0,0,1-1-1V48c0-12.75-9.65-22-22.94-22S41,35.25,41,48V94a1,1,0,0,1-2,0V48c0-13.91,10.51-24,25-24S89,34.09,89,48V94A1,1,0,0,1,88,95Z"/><path class="cls-22" d="M80.43,87.15l0,0C79,91.63,72.2,95,64,95s-15-3.36-16.38-7.8l0-.06a27.15,27.15,0,0,1,3.67-1.83,4.65,4.65,0,0,0,2.66-4.15,5.26,5.26,0,0,0-.41-2,20.72,20.72,0,0,0,20.94,0,4.66,4.66,0,0,0,2.25,6.14A27.76,27.76,0,0,1,80.43,87.15Z"/><g class="cls-2"><path class="cls-28" d="M64,87c3.88,0,7.46-2.68,10.39-4.74a3.94,3.94,0,0,1,0-3.36H53.57a4,4,0,0,1,.05,3.37C56.55,84.32,60.13,87,64,87Z"/></g><path class="cls-30" d="M83.09,112H34v-1.26A27.45,27.45,0,0,1,47.61,87.13l0,.06C49.07,91.63,55.86,95,64,95s15-3.36,16.39-7.8l0,0a27.78,27.78,0,0,1,8.85,8.31A27.11,27.11,0,0,1,94,110.74V112Z"/><g class="cls-2"><path class="cls-13" d="M89.28,95.46a27.78,27.78,0,0,0-8.85-8.31l0,0C79,91.63,72.2,95,64,95s-15-3.36-16.38-7.8l0-.06A27.45,27.45,0,0,0,34,110.74C34.44,107,39.59,95.94,46.67,92c2,3,9.18,7,17.35,7s15.27-4,17.31-7C91.42,97.94,94,110.74,94,110.74A27.11,27.11,0,0,0,89.28,95.46Z"/></g><path class="cls-5" d="M34,113a1,1,0,0,1-1-1v-1.26A28.59,28.59,0,0,1,47.1,86.27a28,28,0,0,1,3.8-1.9,3.65,3.65,0,0,0,2-3.22,3.6,3.6,0,0,0-.33-1.46,1,1,0,0,1,1.85-.75,5.54,5.54,0,0,1,.48,2.22,5.68,5.68,0,0,1-3.23,5.05A26.85,26.85,0,0,0,35,110.74V112A1,1,0,0,1,34,113Z"/><path class="cls-5" d="M94,113a1,1,0,0,1-1-1v-1.26A26,26,0,0,0,88.45,96a27.09,27.09,0,0,0-12.11-9.8,5.52,5.52,0,0,1-2.8-7.29,1,1,0,0,1,1.86.74,3.49,3.49,0,0,0,1.75,4.72,28.2,28.2,0,0,1,3.79,1.89,29,29,0,0,1,9.16,8.61A28,28,0,0,1,95,110.74V112A1,1,0,0,1,94,113Z"/><path class="cls-5" d="M45.27,113a1,1,0,0,1-1-1v-1c0-3.88.63-6.58,2-8.5a1,1,0,0,1,1.64,1.15c-1.1,1.56-1.61,3.89-1.61,7.34v1A1,1,0,0,1,45.27,113Z"/><path class="cls-5" d="M82.73,113a1,1,0,0,1-1-1v-1c0-3.45-.51-5.79-1.61-7.34a1,1,0,0,1,1.64-1.15c1.35,1.91,2,4.61,2,8.5v1A1,1,0,0,1,82.73,113Z"/><path class="cls-5" d="M64,96c-8.46,0-15.75-3.57-17.33-8.49a1,1,0,1,1,1.9-.61C49.89,90.93,56.53,94,64,94s14.14-3.05,15.44-7.11a1,1,0,1,1,1.9.61C79.78,92.42,72.49,96,64,96Z"/><path class="cls-25" d="M44,44.1S61.35,51.9,76.65,38c0,8,7.36,7,7.36,7V61.35A20.58,20.58,0,0,1,74,79l-4.67,2.8a10.36,10.36,0,0,1-10.67,0L54,79A20.58,20.58,0,0,1,44,61.36Z"/><g class="cls-2"><path class="cls-28" d="M84,57.35A20.58,20.58,0,0,1,74,75l-4.67,2.8a10.36,10.36,0,0,1-10.67,0L54,75A20.58,20.58,0,0,1,44,57.36v4A20.58,20.58,0,0,0,54,79l4.66,2.8a10.36,10.36,0,0,0,10.67,0L74,79A20.58,20.58,0,0,0,84,61.35Z"/></g><g class="cls-2"><path class="cls-28" d="M44,47.86s17.32,7.8,32.62-6.1c2.3,8.49,7.33,6.11,7.36,6.1v-3s-5.05,2.42-7.36-6.1C61.35,52.66,44,44.86,44,44.86Z"/></g><path class="cls-5" d="M64,84.28a11.35,11.35,0,0,1-5.85-1.63l-4.66-2.8A21.69,21.69,0,0,1,43,61.36V44.1a1,1,0,0,1,1.41-.91c.17.08,16.92,7.35,31.54-5.93a1,1,0,0,1,1.67.74,6,6,0,0,0,1.72,4.76A6.38,6.38,0,0,0,83.88,44,1,1,0,0,1,85,45V61.35a21.69,21.69,0,0,1-10.48,18.5l-4.67,2.8A11.35,11.35,0,0,1,64,84.28ZM45,45.54V61.36a19.68,19.68,0,0,0,9.49,16.78l4.66,2.8a9.34,9.34,0,0,0,9.64,0l4.67-2.8A19.68,19.68,0,0,0,83,61.35V46a7.84,7.84,0,0,1-4.94-1.76A7,7,0,0,1,75.82,40C63.15,50.34,49.4,47,45,45.54Z"/><path class="cls-5" d="M64.21,66a3.21,3.21,0,0,1-1.88-.86,1,1,0,0,1,1.33-1.5,1.89,1.89,0,0,0,.58.36,3.17,3.17,0,0,0,.52-.35,1,1,0,1,1,1.33,1.49A3.21,3.21,0,0,1,64.21,66Z"/><path class="cls-5" d="M50,54.19a1,1,0,0,1-.09-2c.43,0,1-.15,1.67-.27,2.47-.46,5.54-1,7.13.55A1,1,0,1,1,57.3,53.9c-.85-.84-3.67-.32-5.36,0-.71.13-1.33.24-1.84.29Z"/><path class="cls-5" d="M64,73.8c-2.53,0-4.75-.85-5.8-2.23a1,1,0,0,1,1.59-1.21A5.57,5.57,0,0,0,64,71.8a5.57,5.57,0,0,0,4.2-1.44,1,1,0,0,1,1.59,1.21C68.75,73,66.53,73.8,64,73.8Z"/><path class="cls-5" d="M78,54.19a1,1,0,0,1-.7-.29c-1.2-1.19-5.39-1.19-6.59,0a1,1,0,0,1-1.41-1.42c2-2,7.43-2,9.41,0a1,1,0,0,1-.7,1.71Z"/><g class="cls-2"><circle class="cls-26" cx="52.5" cy="67.29" r="3.5"/></g><g class="cls-2"><circle class="cls-26" cx="75.5" cy="67.29" r="3.5"/></g><path class="cls-5" d="M55,60a2,2,0,1,1,2-2A2,2,0,0,1,55,60Zm0-2h0Zm0,0h0Zm0,0h0Zm0,0h0Zm0,0h0Zm0,0h0Zm0,0h0Zm0,0h0Z"/><path class="cls-5" d="M73,60a2,2,0,1,1,2-2A2,2,0,0,1,73,60Zm0-2h0Zm0,0h0Zm0,0h0Zm0,0h0Zm0,0h0Zm0,0h0Zm0,0h0Zm0,0h0Z"/><path class="cls-5" d="M77,57H71a1,1,0,0,1,0-2h6a1,1,0,0,1,0,2Z"/><path class="cls-5" d="M57,57H51a1,1,0,0,1,0-2h6a1,1,0,0,1,0,2Z"/><path class="cls-25" d="M84,61.85V53.74c0-2.7,2-3.57,3.24-2.7,2,1.38-.54,6.68-.54,6.68C89,59.71,86.56,62.71,84,61.85Z"/><path class="cls-5" d="M84.92,63a3.89,3.89,0,0,1-1.24-.21,1,1,0,0,1-.68-.95V53.74A3.94,3.94,0,0,1,84.9,50a2.82,2.82,0,0,1,2.92.17c2.19,1.53.8,5.57.07,7.3a3.16,3.16,0,0,1,.29,3.62A3.81,3.81,0,0,1,84.92,63Zm1.3-11.29a.86.86,0,0,0-.4.1A2.08,2.08,0,0,0,85,53.74V61a1.77,1.77,0,0,0,1.45-.86,1.24,1.24,0,0,0-.4-1.67,1,1,0,0,1-.25-1.18c1-2.15,1.62-4.91.87-5.43A.78.78,0,0,0,86.22,51.71Z"/><path class="cls-25" d="M44,61.85V53.74c0-2.7-2-3.57-3.24-2.7-2,1.38.54,6.68.54,6.68C39,59.71,41.44,62.71,44,61.85Z"/><path class="cls-5" d="M43.08,63a3.81,3.81,0,0,1-3.26-1.87,3.16,3.16,0,0,1,.29-3.62c-.73-1.73-2.12-5.77.07-7.3A2.81,2.81,0,0,1,43.1,50a3.94,3.94,0,0,1,1.9,3.7v8.11a1,1,0,0,1-.68.95A3.89,3.89,0,0,1,43.08,63ZM44,61.85h0ZM41.78,51.71a.78.78,0,0,0-.45.14c-.75.52-.14,3.28.87,5.43A1,1,0,0,1,42,58.47a1.24,1.24,0,0,0-.4,1.67A1.77,1.77,0,0,0,43,61V53.74a2.08,2.08,0,0,0-.82-1.92A.87.87,0,0,0,41.78,51.71Z"/><path class="cls-11" d="M106,119H76v1a2,2,0,0,1-2,2H54a2,2,0,0,1-2-2v-1H22v2a4,4,0,0,0,4,4h76a4,4,0,0,0,4-4Z"/><g class="cls-2"><path class="cls-31" d="M102,122H26a4,4,0,0,1-3.86-3H22v2a4,4,0,0,0,4,4h76a4,4,0,0,0,4-4v-2h-.14A4,4,0,0,1,102,122Z"/></g><path class="cls-5" d="M102,126H26a5,5,0,0,1-5-5v-2a1,1,0,0,1,1-1H52a1,1,0,0,1,1,1v1a1,1,0,0,0,1,1H74a1,1,0,0,0,1-1v-1a1,1,0,0,1,1-1h30a1,1,0,0,1,1,1v2A5,5,0,0,1,102,126Zm-79-6v1a3,3,0,0,0,3,3h76a3,3,0,0,0,3-3v-1H77a3,3,0,0,1-3,3H54a3,3,0,0,1-3-3Z"/><path class="cls-11" d="M100,125H28V78a3,3,0,0,1,3-3H97a3,3,0,0,1,3,3Z"/><path class="cls-13" d="M97,75H31a3,3,0,0,0-3,3v4a3,3,0,0,1,3-3H97a3,3,0,0,1,3,3V78A3,3,0,0,0,97,75Z"/><path class="cls-5" d="M100,126H28a1,1,0,0,1-1-1V78a4,4,0,0,1,4-4H97a4,4,0,0,1,4,4v47A1,1,0,0,1,100,126Zm-71-2H99V78a2,2,0,0,0-2-2H31a2,2,0,0,0-2,2Z"/><circle class="cls-10" cx="64" cy="100" r="4"/><path class="cls-5" d="M64,105a5,5,0,1,1,5-5A5,5,0,0,1,64,105Zm0-8a3,3,0,1,0,3,3A3,3,0,0,0,64,97Z"/></svg>