<?xml version="1.0" ?><svg data-name="Multimedia 3" height="60" id="Multimedia_3" viewBox="0 0 60 60" width="60" xmlns="http://www.w3.org/2000/svg"><title/><path d="M34,38H45.82759A10.991,10.991,0,0,0,57,27.2a10.83191,10.83191,0,0,0-7.53861-10.2043,13.14566,13.14566,0,0,0,.0903-1.4957A13.73865,13.73865,0,0,0,35.58619,2a13.946,13.946,0,0,0-13.0641,8.7629A7.57225,7.57225,0,0,0,17.89649,9.2a7.32731,7.32731,0,0,0-7.4482,7.2c0,.2081.0143.4126.0322.6163A10.82816,10.82816,0,0,0,3,27.2,10.99088,10.99088,0,0,0,14.17239,38H26" style="fill:#eef6ff"/><path d="M45.82758,35H14.17236A11.04727,11.04727,0,0,1,3.11682,25.67889,10.48305,10.48305,0,0,0,3,27.2,10.9909,10.9909,0,0,0,14.17236,38H45.82758A10.991,10.991,0,0,0,57,27.2a10.484,10.484,0,0,0-.11694-1.52057A11.04733,11.04733,0,0,1,45.82758,35Z" style="fill:#5cbeff;opacity:0.300000011920929"/><path d="M10.48047,20.0163c-.01788-.20374-.03217-.4082-.03217-.61633a7.32728,7.32728,0,0,1,7.44818-7.2,7.57232,7.57232,0,0,1,4.62561,1.56287A13.946,13.946,0,0,1,35.58618,5,13.73865,13.73865,0,0,1,49.5517,18.5a13.14215,13.14215,0,0,1-.09033,1.49567,10.90308,10.90308,0,0,1,7.42169,8.68378A10.47977,10.47977,0,0,0,57,27.2a10.832,10.832,0,0,0-7.53864-10.20435A13.14215,13.14215,0,0,0,49.5517,15.5,13.73865,13.73865,0,0,0,35.58618,2a13.946,13.946,0,0,0-13.06409,8.76288A7.57232,7.57232,0,0,0,17.89648,9.2a7.32728,7.32728,0,0,0-7.44818,7.2c0,.20813.01428.4126.03217.61633A10.82818,10.82818,0,0,0,3,27.2a10.48108,10.48108,0,0,0,.11682,1.47888A10.9,10.9,0,0,1,10.48047,20.0163Z" style="fill:#fff;opacity:0.75"/><path d="M45.82715,39H34a1,1,0,0,1,0-2H45.82715A10.00274,10.00274,0,0,0,56,27.2002a9.83609,9.83609,0,0,0-6.85449-9.25586.99918.99918,0,0,1-.67773-1.063,12.00052,12.00052,0,0,0,.084-1.38135A12.75368,12.75368,0,0,0,35.58594,3a13.01081,13.01081,0,0,0-12.13086,8.12451,1.0004,1.0004,0,0,1-1.541.43164,6.54213,6.54213,0,0,0-4.01758-1.356,6.3348,6.3348,0,0,0-6.44824,6.19971c0,.1792.01367.355.02832.53027a1.00021,1.00021,0,0,1-.6748,1.0332A9.84155,9.84155,0,0,0,4,27.2002,10.00274,10.00274,0,0,0,14.17285,37H26a1,1,0,0,1,0,2H14.17285A12.00447,12.00447,0,0,1,2,27.2002,11.80865,11.80865,0,0,1,9.44824,16.33447,8.33865,8.33865,0,0,1,17.89648,8.2002,8.5425,8.5425,0,0,1,22.083,9.2793,15.0832,15.0832,0,0,1,35.58594,1,14.75542,14.75542,0,0,1,50.55176,15.5c0,.26953-.00879.54248-.02637.82275A11.80052,11.80052,0,0,1,58,27.2002,12.00447,12.00447,0,0,1,45.82715,39Z" style="fill:#6d6daa"/><path d="M57,28.2002a.99974.99974,0,0,1-1-1A10.00314,10.00314,0,0,0,45.82715,17.3999a1,1,0,0,1,0-2A12.00456,12.00456,0,0,1,58,27.2002.99974.99974,0,0,1,57,28.2002Z" style="fill:#6d6daa"/><path d="M3,28.2002a.99974.99974,0,0,1-1-1A12.00456,12.00456,0,0,1,14.17285,15.3999a1,1,0,1,1,0,2A10.00314,10.00314,0,0,0,4,27.2002.99974.99974,0,0,1,3,28.2002Z" style="fill:#6d6daa"/><path d="M24.5,14.064a.99863.99863,0,0,1-.87988-.52344,6.47309,6.47309,0,0,0-5.72363-3.34033,1,1,0,1,1,0-2,8.47036,8.47036,0,0,1,7.48145,4.38721A1.00014,1.00014,0,0,1,24.5,14.064Z" style="fill:#6d6daa"/><path d="M28,53H18a1,1,0,0,1,0-2H28a1,1,0,0,1,0,2Z" style="fill:#6d6daa"/><path d="M41,53H32a1,1,0,0,1,0-2h9a1,1,0,0,1,0,2Z" style="fill:#6d6daa"/><path d="M29,50a1.00288,1.00288,0,0,1,1-1h0a1.00288,1.00288,0,0,1,1,1h0a1.00319,1.00319,0,0,1-1,1h0A1.00319,1.00319,0,0,1,29,50Zm0-4a1.00288,1.00288,0,0,1,1-1h0a1.00288,1.00288,0,0,1,1,1h0a1.00319,1.00319,0,0,1-1,1h0A1.00319,1.00319,0,0,1,29,46Zm0-4a1.00288,1.00288,0,0,1,1-1h0a1.00288,1.00288,0,0,1,1,1h0a1.00319,1.00319,0,0,1-1,1h0A1.00319,1.00319,0,0,1,29,42Zm0-4a1.00288,1.00288,0,0,1,1-1h0a1.00288,1.00288,0,0,1,1,1h0a1.00319,1.00319,0,0,1-1,1h0A1.00319,1.00319,0,0,1,29,38Zm0-4a1.00288,1.00288,0,0,1,1-1h0a1.00288,1.00288,0,0,1,1,1h0a1.00319,1.00319,0,0,1-1,1h0A1.00319,1.00319,0,0,1,29,34Zm0-4a1.00288,1.00288,0,0,1,1-1h0a1.00288,1.00288,0,0,1,1,1h0a1.00319,1.00319,0,0,1-1,1h0A1.00319,1.00319,0,0,1,29,30Z" style="fill:#6d6daa"/><circle cx="30" cy="52" r="2" style="fill:#b1f1a8"/><path d="M30,55a3,3,0,1,1,3-3A3.00328,3.00328,0,0,1,30,55Zm0-4a1,1,0,1,0,1,1A1.001,1.001,0,0,0,30,51Z" style="fill:#6d6daa"/><circle cx="30" cy="25" r="2" style="fill:#b1f1a8"/><path d="M30,28a3,3,0,1,1,3-3A3.00328,3.00328,0,0,1,30,28Zm0-4a1,1,0,1,0,1,1A1.001,1.001,0,0,0,30,24Z" style="fill:#6d6daa"/><path d="M10,51H7a.99974.99974,0,0,1-1-1V46a.99974.99974,0,0,1,1-1h3a.99974.99974,0,0,1,1,1v4A.99974.99974,0,0,1,10,51ZM8,49H9V47H8Z" style="fill:#6d6daa"/><path d="M6,59H3a.99974.99974,0,0,1-1-1V54a.99974.99974,0,0,1,1-1H6a.99974.99974,0,0,1,1,1v4A.99974.99974,0,0,1,6,59ZM4,57H5V55H4Z" style="fill:#6d6daa"/><path d="M3,51a.99974.99974,0,0,1-1-1V46a1,1,0,0,1,2,0v4A.99974.99974,0,0,1,3,51Z" style="fill:#6d6daa"/><path d="M10,59a.99974.99974,0,0,1-1-1V54a1,1,0,0,1,2,0v4A.99974.99974,0,0,1,10,59Z" style="fill:#6d6daa"/><path d="M14,59a.99974.99974,0,0,1-1-1V54a1,1,0,0,1,2,0v4A.99974.99974,0,0,1,14,59Z" style="fill:#6d6daa"/><path d="M14,51a.99974.99974,0,0,1-1-1V46a1,1,0,0,1,2,0v4A.99974.99974,0,0,1,14,51Z" style="fill:#6d6daa"/><path d="M52,59H49a.99974.99974,0,0,1-1-1V54a.99974.99974,0,0,1,1-1h3a.99974.99974,0,0,1,1,1v4A.99974.99974,0,0,1,52,59Zm-2-2h1V55H50Z" style="fill:#6d6daa"/><path d="M56,51H53a.99974.99974,0,0,1-1-1V46a.99974.99974,0,0,1,1-1h3a.99974.99974,0,0,1,1,1v4A.99974.99974,0,0,1,56,51Zm-2-2h1V47H54Z" style="fill:#6d6daa"/><path d="M56,59a.99974.99974,0,0,1-1-1V54a1,1,0,0,1,2,0v4A.99974.99974,0,0,1,56,59Z" style="fill:#6d6daa"/><path d="M49,51a.99974.99974,0,0,1-1-1V46a1,1,0,0,1,2,0v4A.99974.99974,0,0,1,49,51Z" style="fill:#6d6daa"/><path d="M45,51a.99974.99974,0,0,1-1-1V46a1,1,0,0,1,2,0v4A.99974.99974,0,0,1,45,51Z" style="fill:#6d6daa"/><path d="M45,59a.99974.99974,0,0,1-1-1V54a1,1,0,0,1,2,0v4A.99974.99974,0,0,1,45,59Z" style="fill:#6d6daa"/></svg>