<?xml version="1.0" ?><svg height="60" id="Basic_1" viewBox="0 0 60 60" width="60" xmlns="http://www.w3.org/2000/svg"><title/><path d="M45.15969,57H14.84029a2,2,0,0,1-1.9931-1.8339L9,9H51L47.15279,55.1661A2,2,0,0,1,45.15969,57Z" style="fill:#ced8ee"/><polygon points="27 57 18 57 14 9 27 9 27 57" style="fill:#fff;opacity:0.75"/><path d="M48,9,44.15277,55.16608A2,2,0,0,1,42.15967,57h3a2,2,0,0,0,1.9931-1.83392L51,9Z" style="fill:#2c4b75;opacity:0.2"/><polygon points="50.75 12 51 9 9 9 9.25 12 50.75 12" style="fill:#2c4b75;opacity:0.2"/><path d="M47.15277,52.16608A2,2,0,0,1,45.15967,54H14.84027a2,2,0,0,1-1.9931-1.83392L9.25,9H9l3.84717,46.16608A2,2,0,0,0,14.84027,57h30.3194a2,2,0,0,0,1.9931-1.83392L51,9h-.25Z" style="fill:#2c4b75;opacity:0.2"/><path d="M45.15969,57H14.84029a2,2,0,0,1-1.9931-1.8339L9,9H51L47.15279,55.1661A2,2,0,0,1,45.15969,57Z" style="fill:none;stroke:#6d6daa;stroke-linecap:round;stroke-linejoin:round;stroke-width:2px"/><line style="fill:none;stroke:#6d6daa;stroke-linecap:round;stroke-linejoin:round;stroke-width:2px" x1="5" x2="55" y1="9" y2="9"/><path d="M41,9H19l2.81249-4.2188A4.00005,4.00005,0,0,1,25.14069,3h9.7186a4.00005,4.00005,0,0,1,3.3282,1.7812Z" style="fill:none;stroke:#6d6daa;stroke-linecap:round;stroke-linejoin:round;stroke-width:2px"/><line style="fill:none;stroke:#6d6daa;stroke-linecap:round;stroke-linejoin:round;stroke-width:2px" x1="30" x2="30" y1="17" y2="49"/><line style="fill:none;stroke:#6d6daa;stroke-linecap:round;stroke-linejoin:round;stroke-width:2px" x1="41" x2="39" y1="17" y2="49"/><line style="fill:none;stroke:#6d6daa;stroke-linecap:round;stroke-linejoin:round;stroke-width:2px" x1="19" x2="21" y1="17" y2="49"/></svg>